mtllib ./hillSide_04_3_0_Level3.mtl
g spline_04_Cliff
v -620.4564 -168.643 -1
v -620.4564 -255.643 -1
v -620.5032 -255.5546 1
v -620.5032 -168.5546 1
v -620.5032 -168.5546 1
v -620.5032 -255.5546 1
v -620.2552 -256.6943 3
v -620.2552 -169.6943 3
v -620.2552 -169.6943 3
v -620.2552 -256.6943 3
v -620.2552 -258.4943 6
v -620.2552 -171.4943 6
v -620.2552 -261.2943 10
v -620.2552 -174.2943 10
v -620.2552 -262.6995 12.5
v -620.2552 -175.6995 12.5
v -620.2552 -262.7154 13.75
v -620.2552 -175.7154 13.75
v -620.2552 -261.9213 15
v -620.2552 -174.9213 15
v -620.2552 -260.2953 16.5
v -620.2552 -173.2953 16.5
v -620.2552 -258.711 18
v -620.2552 -171.711 18
v -620.2552 -257.7885 19.5
v -620.2552 -170.7884 19.5
v -620.2552 -257.6367 21
v -620.2552 -170.6366 21
v -620.2552 -259.0528 23
v -620.2552 -172.0528 23
v -620.2552 -261.7322 26
v -620.2552 -174.7322 26
v -620.2552 -266.5098 30
v -620.2552 -179.5098 30
v -620.2552 -179.5098 30
v -620.2552 -266.5098 30
v -628.8044 -270.3136 35
v -628.8044 -183.3136 35
v -628.8044 -183.3136 35
v -628.8044 -270.3136 35
v -625.0599 -279.7132 41
v -625.0599 -192.7132 41
v -625.0599 -192.7132 41
v -625.0599 -279.7132 41
v -620.2552 -283.5415 43
v -620.2552 -196.5415 43
v -620.2552 -196.5415 43
v -620.2552 -283.5415 43
v -620.2552 -286.4943 46
v -620.2552 -199.4943 46
v -620.2552 -289.2943 50
v -620.2552 -202.2943 50
v -620.2552 -293.0944 55
v -620.2552 -206.0943 55
v -620.2552 -297.8943 61
v -620.2552 -210.8943 61
v -620.2084 -169.7827 -3
v -620.2084 -256.7827 -3
v -620.4564 -255.643 -1
v -620.4564 -168.643 -1
v -620.2084 -170.6827 -4.5
v -620.2084 -256.7827 -3
v -620.2084 -169.7827 -3
v -620.2084 -257.6827 -4.5
v -620.2084 -171.5827 -6
v -620.2084 -258.5827 -6
v -620.2084 -173.1706 -8
v -620.2084 -260.1706 -8
v -620.2084 -174.8007 -10
v -620.2084 -261.8007 -10
v -620.2084 -174.9514 -12.5
v -620.2084 -261.9514 -12.5
v -620.2084 -175.0712 -15
v -620.2084 -262.0712 -15
v -620.2084 -175.8564 -16.5
v -620.2084 -262.8564 -16.5
v -620.2084 -177.8422 -18
v -620.2084 -264.8422 -18
v -620.2084 -179.8244 -19.5
v -620.2084 -266.8244 -19.5
v -620.2084 -182.0348 -21
v -620.2084 -269.0348 -21
v -620.2084 -183.6884 -23
v -620.2084 -270.6884 -23
v -620.2084 -186.1878 -26
v -620.2084 -273.1878 -26
v -620.2084 -188.9878 -30
v -620.2084 -275.9878 -30
v -620.2084 -192.7878 -35
v -620.2084 -279.7878 -35
v -620.2084 -197.5878 -41
v -620.2084 -284.5878 -41
v -620.2084 -198.4116 -43
v -620.2084 -285.4116 -43
v -620.2084 -200.1878 -46
v -620.2084 -287.1878 -46
v -620.2084 -202.9878 -50
v -620.2084 -289.9878 -50
v -620.2084 -206.7878 -55
v -620.2084 -293.7878 -55
v -620.2084 -211.5878 -61
v -620.2084 -298.5878 -61
v -620.2084 -212.4116 -63
v -620.2084 -299.4116 -63
v -620.2084 -214.1878 -66
v -620.2084 -301.1878 -66
v -620.2084 -216.9878 -70
v -620.2084 -303.9879 -70
v -620.2084 -220.7878 -75
v -620.2084 -307.7878 -75
v -620.2084 -225.5878 -81
v -620.2084 -312.5878 -81
v -680.4835 -186.8369 3
v -680.6602 -273.1718 1
v -680.6602 -186.1718 1
v -680.4835 -273.8369 3
v -680.3278 -187.2117 6
v -680.3278 -274.2117 6
v -680.0858 -188.3277 10
v -680.0858 -275.3277 10
v -680.0858 -189.7329 12.5
v -680.0858 -275.3277 10
v -680.0858 -188.3277 10
v -680.0858 -276.7329 12.5
v -680.0858 -189.7488 13.75
v -680.0858 -276.7488 13.75
v -680.0858 -188.9547 15
v -680.0858 -275.9547 15
v -680.0858 -187.3286 16.5
v -680.0858 -274.3286 16.5
v -680.0858 -185.7443 18
v -680.0858 -272.7443 18
v -680.0858 -184.8218 19.5
v -680.0858 -271.8218 19.5
v -680.0858 -184.67 21
v -680.0858 -271.67 21
v -680.0858 -186.0862 23
v -680.0858 -273.0862 23
v -680.0858 -188.7656 26
v -680.0858 -275.7656 26
v -680.0858 -193.5432 30
v -680.0858 -280.5432 30
v -688.6351 -197.347 35
v -688.6351 -284.347 35
v -680.0858 -280.5432 30
v -680.0858 -193.5432 30
v -684.8906 -206.7466 41
v -684.8906 -293.7466 41
v -688.6351 -284.347 35
v -688.6351 -197.347 35
v -680.0858 -210.5749 43
v -680.0858 -297.5749 43
v -684.8906 -293.7466 41
v -684.8906 -206.7466 41
v -680.0858 -213.5277 46
v -680.0858 -297.5749 43
v -680.0858 -210.5749 43
v -680.0858 -300.5277 46
v -680.0858 -216.3277 50
v -680.0858 -303.3277 50
v -680.0858 -220.1277 55
v -680.0858 -307.1277 55
v -680.0858 -224.9277 61
v -680.0858 -311.9277 61
v -680.6602 -186.1718 1
v -680.6602 -273.1718 1
v -680.6738 -273.2709 -1
v -680.6738 -186.2709 -1
v -680.6738 -186.2709 -1
v -680.6738 -273.2709 -1
v -680.3674 -274.0727 -3
v -680.3674 -187.0727 -3
v -680.3674 -187.0727 -3
v -680.3674 -274.0727 -3
v -680.2385 -275.0955 -4.5
v -680.2385 -188.0955 -4.5
v -680.0995 -276.511 -6
v -680.0995 -189.511 -6
v -680.0995 -189.511 -6
v -680.0995 -276.511 -6
v -680.0995 -278.8232 -8
v -680.0995 -191.8233 -8
v -680.0995 -280.4963 -10
v -680.0995 -193.4963 -10
v -680.0995 -280.5442 -12.5
v -680.0995 -193.5442 -12.5
v -680.0995 -280.6639 -15
v -680.0995 -193.664 -15
v -680.0995 -281.4803 -16.5
v -680.0995 -194.4803 -16.5
v -680.0995 -283.4971 -18
v -680.0995 -196.4971 -18
v -680.0995 -285.4794 -19.5
v -680.0995 -198.4794 -19.5
v -680.0995 -287.6898 -21
v -680.0995 -200.6898 -21
v -680.0995 -289.3602 -23
v -680.0995 -202.3602 -23
v -680.0995 -291.8834 -26
v -680.0995 -204.8834 -26
v -680.0995 -294.6834 -30
v -680.0995 -207.6834 -30
v -680.0995 -298.4835 -35
v -680.0995 -211.4834 -35
v -680.0995 -303.2834 -41
v -680.0995 -216.2834 -41
v -680.0995 -304.0834 -43
v -680.0995 -217.0835 -43
v -680.0995 -305.8835 -46
v -680.0995 -218.8835 -46
v -680.0995 -308.6835 -50
v -680.0995 -221.6835 -50
v -680.0995 -312.4835 -55
v -680.0995 -225.4835 -55
v -680.0995 -317.2834 -61
v -680.0995 -230.2835 -61
v -680.0995 -318.0835 -63
v -680.0995 -231.0835 -63
v -680.0995 -319.8835 -66
v -680.0995 -232.8835 -66
v -680.0995 -322.6835 -70
v -680.0995 -235.6835 -70
v -680.0995 -326.4835 -75
v -680.0995 -239.4835 -75
v -680.0995 -331.2835 -81
v -680.0995 -244.2835 -81

vn 0.9997261 0 0.023401
vn 0.9997261 0 0.023401
vn 0.9997261 0 0.023401
vn 0.9997261 0 0.023401
vn 0.9923968 0 -0.12308
vn 0.9923968 0 -0.12308
vn 0.9923968 0 -0.12308
vn 0.9923968 0 -0.12308
vn 1 0 0
vn 1 0 0
vn 1 0 0
vn 1 0 0
vn 1 0 0
vn 1 0 0
vn 1 0 0
vn 1 0 0
vn 1 0 0
vn 1 0 0
vn 1 0 0
vn 1 0 0
vn 1 0 0
vn 1 0 0
vn 1 0 0
vn 1 0 0
vn 1 0 0
vn 1 0 0
vn 1 0 0
vn 1 0 0
vn 1 0 0
vn 1 0 0
vn 1 0 0
vn 1 0 0
vn 1 0 0
vn 1 0 0
vn 0.504845 0 0.86321
vn 0.504845 0 0.86321
vn 0.504845 0 0.86321
vn 0.504845 0 0.86321
vn 0.8483472 0 -0.5294402
vn 0.8483472 0 -0.5294402
vn 0.8483472 0 -0.5294402
vn 0.8483472 0 -0.5294402
vn 0.3842919 0 -0.9232117
vn 0.3842919 0 -0.9232117
vn 0.3842919 0 -0.9232117
vn 0.3842919 0 -0.9232117
vn 1 0 0
vn 1 0 0
vn 1 0 0
vn 1 0 0
vn 1 0 0
vn 1 0 0
vn 1 0 0
vn 1 0 0
vn 1 0 0
vn 1 0 0
vn 0.9923968 0 0.12308
vn 0.9923968 0 0.12308
vn 0.9923968 0 0.12308
vn 0.9923968 0 0.12308
vn 1 0 0
vn 1 0 0
vn 1 0 0
vn 1 0 0
vn 1 0 0
vn 1 0 0
vn 1 0 0
vn 1 0 0
vn 1 0 0
vn 1 0 0
vn 1 0 0
vn 1 0 0
vn 1 0 0
vn 1 0 0
vn 1 0 0
vn 1 0 0
vn 1 0 0
vn 1 0 0
vn 1 0 0
vn 1 0 0
vn 1 0 0
vn 1 0 0
vn 1 0 0
vn 1 0 0
vn 1 0 0
vn 1 0 0
vn 1 0 0
vn 1 0 0
vn 1 0 0
vn 1 0 0
vn 1 0 0
vn 1 0 0
vn 1 0 0
vn 1 0 0
vn 1 0 0
vn 1 0 0
vn 1 0 0
vn 1 0 0
vn 1 0 0
vn 1 0 0
vn 1 0 0
vn 1 0 0
vn 1 0 0
vn 1 0 0
vn 1 0 0
vn 1 0 0
vn 1 0 0
vn 1 0 0
vn 1 0 0
vn 1 0 0
vn 1 0 0
vn 1 0 0
vn -0.9961227 0 0.08797497
vn -0.9961227 0 0.08797497
vn -0.9961227 0 0.08797497
vn -0.9961227 0 0.08797497
vn -0.9986559 0 0.05183
vn -0.9986559 0 0.05183
vn -0.9981748 0 0.06039099
vn -0.9981748 0 0.06039099
vn -1 0 0
vn -1 0 0
vn -1 0 0
vn -1 0 0
vn -1 0 0
vn -1 0 0
vn -1 0 0
vn -1 0 0
vn -1 0 0
vn -1 0 0
vn -1 0 0
vn -1 0 0
vn -1 0 0
vn -1 0 0
vn -1 0 0
vn -1 0 0
vn -1 0 0
vn -1 0 0
vn -1 0 0
vn -1 0 0
vn -1 0 0
vn -1 0 0
vn -0.504845 0 -0.86321
vn -0.504845 0 -0.86321
vn -0.504845 0 -0.86321
vn -0.504845 0 -0.86321
vn -0.8483468 0 0.5294409
vn -0.8483468 0 0.5294409
vn -0.8483468 0 0.5294409
vn -0.8483472 0 0.5294402
vn -0.3842919 0 0.9232117
vn -0.3842919 0 0.9232117
vn -0.3842919 0 0.9232117
vn -0.3842919 0 0.9232117
vn -1 0 0
vn -1 0 0
vn -1 0 0
vn -1 0 0
vn -1 0 0
vn -1 0 0
vn -1 0 0
vn -1 0 0
vn -1 0 0
vn -1 0 0
vn -0.9999766 0 0.006835998
vn -0.9999766 0 0.006835998
vn -0.9999766 0 0.006835998
vn -0.9999766 0 0.006835998
vn -0.9884632 0 -0.151461
vn -0.9884632 0 -0.151461
vn -0.9884632 0 -0.151461
vn -0.9884632 0 -0.151461
vn -0.9963277 0 -0.08562197
vn -0.9963277 0 -0.08562197
vn -0.9963277 0 -0.08562197
vn -0.9963277 0 -0.08562197
vn -0.9957353 0 -0.09225602
vn -0.9957353 0 -0.09225602
vn -1 0 0
vn -1 0 0
vn -1 0 0
vn -1 0 0
vn -1 0 0
vn -1 0 0
vn -1 0 0
vn -1 0 0
vn -1 0 0
vn -1 0 0
vn -1 0 0
vn -1 0 0
vn -1 0 0
vn -1 0 0
vn -1 0 0
vn -1 0 0
vn -1 0 0
vn -1 0 0
vn -1 0 0
vn -1 0 0
vn -1 0 0
vn -1 0 0
vn -1 0 0
vn -1 0 0
vn -1 0 0
vn -1 0 0
vn -1 0 0
vn -1 0 0
vn -1 0 0
vn -1 0 0
vn -1 0 0
vn -1 0 0
vn -1 0 0
vn -1 0 0
vn -1 0 0
vn -1 0 0
vn -1 0 0
vn -1 0 0
vn -1 0 0
vn -1 0 0
vn -1 0 0
vn -1 0 0
vn -1 0 0
vn -1 0 0
vn -1 0 0
vn -1 0 0
vn -1 0 0
vn -1 0 0

vt 0.886902 0.00053
vt 0.886902 0.52196
vt 0.883576 0.52143
vt 0.883576 0
vt 0.883576 0
vt 0.883576 0.52143
vt 0.883871 0.52826
vt 0.883871 0.006831
vt 0.883871 0.006831
vt 0.883871 0.52826
vt 0.879744 0.539049
vt 0.879744 0.017619
vt 0.874242 0.55583
vt 0.874242 0.034401
vt 0.870802 0.564252
vt 0.870802 0.042822
vt 0.869083 0.564348
vt 0.869083 0.042918
vt 0.867363 0.559588
vt 0.867363 0.038158
vt 0.8653 0.549843
vt 0.8653 0.028413
vt 0.863236 0.540347
vt 0.863236 0.018917
vt 0.861173 0.534818
vt 0.861173 0.013388
vt 0.859109 0.533908
vt 0.859109 0.012478
vt 0.856358 0.542396
vt 0.856358 0.020966
vt 0.852232 0.558455
vt 0.852232 0.037025
vt 0.846729 0.587089
vt 0.846729 0.065659
vt 0.846729 0.065659
vt 0.846729 0.587089
vt 0.734848 0.609887
vt 0.734848 0.088457
vt 0.734848 0.088457
vt 0.734848 0.609887
vt 0.772584 0.666223
vt 0.772584 0.144793
vt 0.772584 0.144793
vt 0.772584 0.666223
vt 0.828846 0.689168
vt 0.828846 0.167738
vt 0.828846 0.167738
vt 0.828846 0.689168
vt 0.824718 0.706865
vt 0.824718 0.185435
vt 0.819216 0.723647
vt 0.819216 0.202217
vt 0.812337 0.746422
vt 0.812337 0.224992
vt 0.804084 0.775191
vt 0.804084 0.253761
vt 0.8927 0.00736
vt 0.8927 0.52879
vt 0.886902 0.52196
vt 0.886902 0.00053
vt 0.894763 0.012754
vt 0.8927 0.52879
vt 0.8927 0.00736
vt 0.894763 0.534184
vt 0.896827 0.018149
vt 0.896827 0.539578
vt 0.899579 0.027665
vt 0.899579 0.549095
vt 0.902329 0.037435
vt 0.902329 0.558865
vt 0.905769 0.038339
vt 0.905769 0.559768
vt 0.909208 0.039056
vt 0.909208 0.560486
vt 0.911271 0.043763
vt 0.911271 0.565192
vt 0.913335 0.055664
vt 0.913335 0.577094
vt 0.915398 0.067545
vt 0.915398 0.588975
vt 0.917462 0.080793
vt 0.917462 0.602222
vt 0.920213 0.090703
vt 0.920213 0.612134
vt 0.92434 0.105684
vt 0.92434 0.627113
vt 0.929842 0.122465
vt 0.929842 0.643895
vt 0.936721 0.14524
vt 0.936721 0.66667
vt 0.944975 0.174009
vt 0.944975 0.695439
vt 0.947726 0.178946
vt 0.947726 0.700376
vt 0.951853 0.189592
vt 0.951853 0.711022
vt 0.957355 0.206374
vt 0.957355 0.727803
vt 0.964234 0.229149
vt 0.964234 0.750579
vt 0.972487 0.257917
vt 0.972487 0.779347
vt 0.975239 0.262855
vt 0.975239 0.784284
vt 0.979366 0.2735
vt 0.979366 0.79493
vt 0.984869 0.290282
vt 0.984869 0.811712
vt 0.991746 0.313057
vt 0.991746 0.834487
vt 1 0.341826
vt 1 0.863255
vt 0.14414 0.109574
vt 0.144722 0.627017
vt 0.144722 0.105587
vt 0.14414 0.631004
vt 0.141925 0.11182
vt 0.141925 0.63325
vt 0.139394 0.118509
vt 0.139394 0.639939
vt 0.135955 0.126931
vt 0.139394 0.639939
vt 0.139394 0.118509
vt 0.135955 0.648361
vt 0.134235 0.127026
vt 0.134235 0.648456
vt 0.132516 0.122267
vt 0.132516 0.643697
vt 0.130452 0.112521
vt 0.130452 0.633951
vt 0.128389 0.103026
vt 0.128389 0.624455
vt 0.126326 0.097496
vt 0.126326 0.618926
vt 0.124262 0.096587
vt 0.124262 0.618016
vt 0.121511 0.105075
vt 0.121511 0.626504
vt 0.117384 0.121133
vt 0.117384 0.642563
vt 0.111881 0.149767
vt 0.111881 0.671197
vt 1E-06 0.172565
vt 1E-06 0.693995
vt 0.111881 0.671197
vt 0.111881 0.149767
vt 0.037737 0.228902
vt 0.037737 0.750331
vt 1E-06 0.693995
vt 1E-06 0.172565
vt 0.093998 0.251846
vt 0.093998 0.773276
vt 0.037737 0.750331
vt 0.037737 0.228902
vt 0.08987 0.269544
vt 0.093998 0.773276
vt 0.093998 0.251846
vt 0.08987 0.790974
vt 0.084369 0.286325
vt 0.084369 0.807755
vt 0.07749 0.309101
vt 0.07749 0.83053
vt 0.069236 0.337869
vt 0.069236 0.859299
vt 0.144722 0.105587
vt 0.144722 0.627017
vt 0.147305 0.627611
vt 0.147305 0.106181
vt 0.147305 0.106181
vt 0.147305 0.627611
vt 0.153819 0.632417
vt 0.153819 0.110987
vt 0.153819 0.110987
vt 0.153819 0.632417
vt 0.157467 0.638547
vt 0.157467 0.117117
vt 0.161237 0.647031
vt 0.161237 0.125601
vt 0.161237 0.125601
vt 0.161237 0.647031
vt 0.163988 0.660889
vt 0.163988 0.139459
vt 0.166739 0.670917
vt 0.166739 0.149487
vt 0.170178 0.671203
vt 0.170178 0.149774
vt 0.173617 0.671921
vt 0.173617 0.150491
vt 0.175681 0.676814
vt 0.175681 0.155384
vt 0.177744 0.688902
vt 0.177744 0.167472
vt 0.179808 0.700782
vt 0.179808 0.179352
vt 0.181871 0.71403
vt 0.181871 0.1926
vt 0.184623 0.724042
vt 0.184623 0.202612
vt 0.188749 0.739165
vt 0.188749 0.217735
vt 0.194252 0.755946
vt 0.194252 0.234516
vt 0.20113 0.778722
vt 0.20113 0.257292
vt 0.209384 0.80749
vt 0.209384 0.28606
vt 0.212135 0.812285
vt 0.212135 0.290855
vt 0.216263 0.823073
vt 0.216263 0.301643
vt 0.221765 0.839855
vt 0.221765 0.318425
vt 0.228643 0.86263
vt 0.228643 0.3412
vt 0.236897 0.891398
vt 0.236897 0.369968
vt 0.239649 0.896193
vt 0.239649 0.374763
vt 0.243775 0.906981
vt 0.243775 0.385552
vt 0.249278 0.923763
vt 0.249278 0.402333
vt 0.256156 0.946538
vt 0.256156 0.425108
vt 0.26441 0.975307
vt 0.26441 0.453877

usemtl spline_04_CliffMat
usemap spline_04_CliffMat
f 2/2/2 1/1/1 3/3/3
f 3/3/3 1/1/1 4/4/4
f 6/6/6 5/5/5 7/7/7
f 7/7/7 5/5/5 8/8/8
f 10/10/10 9/9/9 11/11/11
f 11/11/11 9/9/9 12/12/12
f 11/11/11 12/12/12 13/13/13
f 13/13/13 12/12/12 14/14/14
f 13/13/13 14/14/14 15/15/15
f 15/15/15 14/14/14 16/16/16
f 15/15/15 16/16/16 17/17/17
f 17/17/17 16/16/16 18/18/18
f 17/17/17 18/18/18 19/19/19
f 19/19/19 18/18/18 20/20/20
f 19/19/19 20/20/20 21/21/21
f 21/21/21 20/20/20 22/22/22
f 21/21/21 22/22/22 23/23/23
f 23/23/23 22/22/22 24/24/24
f 23/23/23 24/24/24 25/25/25
f 25/25/25 24/24/24 26/26/26
f 25/25/25 26/26/26 27/27/27
f 27/27/27 26/26/26 28/28/28
f 27/27/27 28/28/28 29/29/29
f 29/29/29 28/28/28 30/30/30
f 29/29/29 30/30/30 31/31/31
f 31/31/31 30/30/30 32/32/32
f 31/31/31 32/32/32 33/33/33
f 33/33/33 32/32/32 34/34/34
f 36/36/36 35/35/35 37/37/37
f 37/37/37 35/35/35 38/38/38
f 40/40/40 39/39/39 41/41/41
f 41/41/41 39/39/39 42/42/42
f 44/44/44 43/43/43 45/45/45
f 45/45/45 43/43/43 46/46/46
f 48/48/48 47/47/47 49/49/49
f 49/49/49 47/47/47 50/50/50
f 49/49/49 50/50/50 51/51/51
f 51/51/51 50/50/50 52/52/52
f 51/51/51 52/52/52 53/53/53
f 53/53/53 52/52/52 54/54/54
f 53/53/53 54/54/54 55/55/55
f 55/55/55 54/54/54 56/56/56
f 58/58/58 57/57/57 59/59/59
f 59/59/59 57/57/57 60/60/60
f 62/62/62 61/61/61 63/63/63
f 64/64/64 61/61/61 62/62/62
f 64/64/64 65/65/65 61/61/61
f 66/66/66 65/65/65 64/64/64
f 66/66/66 67/67/67 65/65/65
f 68/68/68 67/67/67 66/66/66
f 68/68/68 69/69/69 67/67/67
f 70/70/70 69/69/69 68/68/68
f 70/70/70 71/71/71 69/69/69
f 72/72/72 71/71/71 70/70/70
f 72/72/72 73/73/73 71/71/71
f 74/74/74 73/73/73 72/72/72
f 74/74/74 75/75/75 73/73/73
f 76/76/76 75/75/75 74/74/74
f 76/76/76 77/77/77 75/75/75
f 78/78/78 77/77/77 76/76/76
f 78/78/78 79/79/79 77/77/77
f 80/80/80 79/79/79 78/78/78
f 80/80/80 81/81/81 79/79/79
f 82/82/82 81/81/81 80/80/80
f 82/82/82 83/83/83 81/81/81
f 84/84/84 83/83/83 82/82/82
f 84/84/84 85/85/85 83/83/83
f 86/86/86 85/85/85 84/84/84
f 86/86/86 87/87/87 85/85/85
f 88/88/88 87/87/87 86/86/86
f 88/88/88 89/89/89 87/87/87
f 90/90/90 89/89/89 88/88/88
f 90/90/90 91/91/91 89/89/89
f 92/92/92 91/91/91 90/90/90
f 92/92/92 93/93/93 91/91/91
f 94/94/94 93/93/93 92/92/92
f 94/94/94 95/95/95 93/93/93
f 96/96/96 95/95/95 94/94/94
f 96/96/96 97/97/97 95/95/95
f 98/98/98 97/97/97 96/96/96
f 98/98/98 99/99/99 97/97/97
f 100/100/100 99/99/99 98/98/98
f 100/100/100 101/101/101 99/99/99
f 102/102/102 101/101/101 100/100/100
f 102/102/102 103/103/103 101/101/101
f 104/104/104 103/103/103 102/102/102
f 104/104/104 105/105/105 103/103/103
f 106/106/106 105/105/105 104/104/104
f 106/106/106 107/107/107 105/105/105
f 108/108/108 107/107/107 106/106/106
f 108/108/108 109/109/109 107/107/107
f 110/110/110 109/109/109 108/108/108
f 110/110/110 111/111/111 109/109/109
f 112/112/112 111/111/111 110/110/110
f 114/114/114 113/113/113 115/115/115
f 116/116/116 113/113/113 114/114/114
f 116/116/116 117/117/117 113/113/113
f 118/118/118 117/117/117 116/116/116
f 118/118/118 119/119/119 117/117/117
f 120/120/120 119/119/119 118/118/118
f 122/122/122 121/121/121 123/123/123
f 124/124/124 121/121/121 122/122/122
f 124/124/124 125/125/125 121/121/121
f 126/126/126 125/125/125 124/124/124
f 126/126/126 127/127/127 125/125/125
f 128/128/128 127/127/127 126/126/126
f 128/128/128 129/129/129 127/127/127
f 130/130/130 129/129/129 128/128/128
f 130/130/130 131/131/131 129/129/129
f 132/132/132 131/131/131 130/130/130
f 132/132/132 133/133/133 131/131/131
f 134/134/134 133/133/133 132/132/132
f 134/134/134 135/135/135 133/133/133
f 136/136/136 135/135/135 134/134/134
f 136/136/136 137/137/137 135/135/135
f 138/138/138 137/137/137 136/136/136
f 138/138/138 139/139/139 137/137/137
f 140/140/140 139/139/139 138/138/138
f 140/140/140 141/141/141 139/139/139
f 142/142/142 141/141/141 140/140/140
f 144/144/144 143/143/143 145/145/145
f 145/145/145 143/143/143 146/146/146
f 148/148/148 147/147/147 149/149/149
f 149/149/149 147/147/147 150/150/150
f 152/152/152 151/151/151 153/153/153
f 153/153/153 151/151/151 154/154/154
f 156/156/156 155/155/155 157/157/157
f 158/158/158 155/155/155 156/156/156
f 158/158/158 159/159/159 155/155/155
f 160/160/160 159/159/159 158/158/158
f 160/160/160 161/161/161 159/159/159
f 162/162/162 161/161/161 160/160/160
f 162/162/162 163/163/163 161/161/161
f 164/164/164 163/163/163 162/162/162
f 166/166/166 165/165/165 167/167/167
f 167/167/167 165/165/165 168/168/168
f 170/170/170 169/169/169 171/171/171
f 171/171/171 169/169/169 172/172/172
f 174/174/174 173/173/173 175/175/175
f 175/175/175 173/173/173 176/176/176
f 175/175/175 176/176/176 177/177/177
f 177/177/177 176/176/176 178/178/178
f 180/180/180 179/179/179 181/181/181
f 181/181/181 179/179/179 182/182/182
f 181/181/181 182/182/182 183/183/183
f 183/183/183 182/182/182 184/184/184
f 183/183/183 184/184/184 185/185/185
f 185/185/185 184/184/184 186/186/186
f 185/185/185 186/186/186 187/187/187
f 187/187/187 186/186/186 188/188/188
f 187/187/187 188/188/188 189/189/189
f 189/189/189 188/188/188 190/190/190
f 189/189/189 190/190/190 191/191/191
f 191/191/191 190/190/190 192/192/192
f 191/191/191 192/192/192 193/193/193
f 193/193/193 192/192/192 194/194/194
f 193/193/193 194/194/194 195/195/195
f 195/195/195 194/194/194 196/196/196
f 195/195/195 196/196/196 197/197/197
f 197/197/197 196/196/196 198/198/198
f 197/197/197 198/198/198 199/199/199
f 199/199/199 198/198/198 200/200/200
f 199/199/199 200/200/200 201/201/201
f 201/201/201 200/200/200 202/202/202
f 201/201/201 202/202/202 203/203/203
f 203/203/203 202/202/202 204/204/204
f 203/203/203 204/204/204 205/205/205
f 205/205/205 204/204/204 206/206/206
f 205/205/205 206/206/206 207/207/207
f 207/207/207 206/206/206 208/208/208
f 207/207/207 208/208/208 209/209/209
f 209/209/209 208/208/208 210/210/210
f 209/209/209 210/210/210 211/211/211
f 211/211/211 210/210/210 212/212/212
f 211/211/211 212/212/212 213/213/213
f 213/213/213 212/212/212 214/214/214
f 213/213/213 214/214/214 215/215/215
f 215/215/215 214/214/214 216/216/216
f 215/215/215 216/216/216 217/217/217
f 217/217/217 216/216/216 218/218/218
f 217/217/217 218/218/218 219/219/219
f 219/219/219 218/218/218 220/220/220
f 219/219/219 220/220/220 221/221/221
f 221/221/221 220/220/220 222/222/222
f 221/221/221 222/222/222 223/223/223
f 223/223/223 222/222/222 224/224/224
f 223/223/223 224/224/224 225/225/225
f 225/225/225 224/224/224 226/226/226
