mtllib ./hillSide_05_9_0_Level3.mtl
g spline_05_Cliff
v -698.3212 -226.3023 55
v -698.3212 -318.1023 61
v -698.3212 -231.1023 61
v -698.3212 -313.3023 55
v -698.3212 -222.5023 50
v -698.3212 -309.5023 50
v -698.3212 -219.6751 46
v -698.3212 -306.6751 46
v -698.3212 -216.803 43
v -698.3212 -303.803 43
v -698.3212 -214.327 41
v -698.3212 -301.327 41
v -698.3212 -210.2069 38
v -698.3212 -297.2069 38
v -698.3212 -204.0224 35
v -698.3212 -291.0224 35
v -698.3212 -197.7533 32.5
v -698.3212 -284.7532 32.5
v -698.3212 -193.7171 30
v -698.3212 -280.7171 30
v -698.3212 -190.9391 28
v -698.3212 -277.9391 28
v -698.3212 -188.5171 26
v -698.3212 -275.5171 26
v -698.3212 -186.61 23
v -698.3212 -273.61 23
v -698.3212 -186.3108 21
v -698.3212 -273.3108 21
v -698.3212 -188.0965 18
v -698.3212 -275.0965 18
v -698.3212 -190.5743 15
v -698.3212 -277.5742 15
v -698.3212 -192.0427 12.5
v -698.3212 -279.0427 12.5
v -698.3212 -192.8718 10
v -698.3212 -279.8718 10
v -698.3212 -192.8764 8
v -698.3212 -279.8764 8
v -698.3212 -192.8143 6
v -698.3212 -279.8143 6
v -698.3212 -191.113 3
v -698.3212 -278.113 3
v -698.3212 -190.313 1
v -698.3212 -277.313 1
v -698.2573 -190.39 -1
v -698.2573 -277.39 -1
v -698.2573 -191.19 -3
v -698.2573 -278.19 -3
v -698.2573 -192.9222 -6
v -698.2573 -279.9222 -6
v -698.2573 -193.6483 -8
v -698.2573 -280.6483 -8
v -698.2573 -194.0387 -10
v -698.2573 -281.0387 -10
v -698.2573 -194.0635 -12.5
v -698.2573 -281.0635 -12.5
v -698.2573 -195.0455 -15
v -698.2573 -282.0455 -15
v -698.2573 -196.727 -18
v -698.2573 -283.727 -18
v -698.2573 -199.2807 -21
v -698.2573 -286.2807 -21
v -698.2573 -202.0388 -23
v -698.2573 -289.0388 -23
v -698.2573 -205.1042 -26
v -698.2573 -292.1042 -26
v -698.2573 -207.4243 -28
v -698.2573 -294.4243 -28
v -698.2573 -208.8244 -30
v -698.2573 -295.8243 -30
v -698.2573 -210.7349 -32.5
v -698.2573 -297.7349 -32.5
v -698.2573 -212.6349 -35
v -698.2573 -299.6349 -35
v -698.2573 -215.0776 -38
v -698.2573 -302.0775 -38
v -698.2573 -217.4776 -41
v -698.2573 -304.4776 -41
v -698.2573 -218.3194 -43
v -698.2573 -305.3194 -43
v -698.2573 -220.133 -46
v -698.2573 -307.133 -46
v -698.2573 -222.9526 -50
v -698.2573 -309.9526 -50
v -698.2573 -224.7349 -52.5
v -698.2573 -311.7349 -52.5
v -698.2573 -226.6349 -55
v -698.2573 -313.6349 -55
v -698.2573 -229.0776 -58
v -698.2573 -316.0776 -58
v -698.2573 -231.4776 -61
v -698.2573 -318.4776 -61
v -698.2573 -232.3194 -63
v -698.2573 -319.3194 -63
v -698.2573 -234.133 -66
v -698.2573 -321.133 -66
v -698.2573 -235.4244 -68
v -698.2573 -322.4243 -68
v -698.2573 -236.8244 -70
v -698.2573 -323.8244 -70
v -698.2573 -238.735 -72.5
v -698.2573 -325.735 -72.5
v -698.2573 -240.6349 -75
v -698.2573 -327.6349 -75
v -698.2573 -243.0776 -78
v -698.2573 -330.0776 -78
v -698.2573 -245.4776 -81
v -698.2573 -332.4776 -81
v -728.7847 -199.087 3
v -728.7847 -285.287 1
v -728.7847 -198.287 1
v -728.7847 -286.087 3
v -728.7847 -200.887 6
v -728.7847 -287.887 6
v -728.7847 -201.5051 8
v -728.7847 -288.5051 8
v -728.7847 -202.0565 10
v -728.7847 -289.0565 10
v -728.7847 -201.2275 12.5
v -728.7847 -288.2275 12.5
v -728.7847 -199.759 15
v -728.7847 -286.759 15
v -728.7847 -197.2812 18
v -728.7847 -284.2812 18
v -728.7847 -195.4955 21
v -728.7847 -282.4955 21
v -728.7847 -195.8421 23
v -728.7847 -282.8421 23
v -728.7847 -197.729 26
v -728.7847 -284.729 26
v -728.7847 -200.1375 28
v -728.7847 -287.1375 28
v -728.7847 -202.9019 30
v -728.7847 -289.9019 30
v -728.7847 -206.938 32.5
v -728.7847 -293.938 32.5
v -728.7847 -213.2072 35
v -728.7847 -300.2071 35
v -728.7847 -219.3916 38
v -728.7847 -306.3916 38
v -728.7847 -223.5117 41
v -728.7847 -310.5117 41
v -728.7847 -226.0352 43
v -728.7847 -313.0352 43
v -728.7847 -228.887 46
v -728.7847 -315.887 46
v -728.7847 -231.687 50
v -728.7847 -318.687 50
v -728.7847 -235.487 55
v -728.7847 -322.487 55
v -728.7847 -240.287 61
v -728.7847 -327.287 61
v -728.7847 -198.287 1
v -728.7847 -285.287 1
v -728.816 -285.382 -1
v -728.816 -198.382 -1
v -728.816 -198.382 -1
v -728.816 -285.382 -1
v -728.816 -286.1784 -3
v -728.816 -199.1784 -3
v -728.816 -287.3496 -6
v -728.816 -200.3496 -6
v -728.816 -287.7496 -8
v -728.816 -200.7496 -8
v -728.816 -288.1443 -10
v -728.816 -201.1443 -10
v -728.816 -288.2868 -12.5
v -728.816 -201.2868 -12.5
v -728.816 -289.2688 -15
v -728.816 -202.2688 -15
v -728.816 -290.9076 -18
v -728.816 -203.9076 -18
v -728.816 -293.4613 -21
v -728.816 -206.4613 -21
v -728.816 -296.1776 -23
v -728.816 -209.1776 -23
v -728.816 -299.2294 -26
v -728.816 -212.2294 -26
v -728.816 -301.6582 -28
v -728.816 -214.6582 -28
v -728.816 -303.0582 -30
v -728.816 -216.0582 -30
v -728.816 -304.9582 -32.5
v -728.816 -217.9582 -32.5
v -728.816 -306.8582 -35
v -728.816 -219.8582 -35
v -728.816 -309.2582 -38
v -728.816 -222.2582 -38
v -728.816 -311.6582 -41
v -728.816 -224.6582 -41
v -728.816 -312.4582 -43
v -728.816 -225.4582 -43
v -728.816 -314.2582 -46
v -728.816 -227.2582 -46
v -728.816 -317.0582 -50
v -728.816 -230.0582 -50
v -728.816 -318.9582 -52.5
v -728.816 -231.9582 -52.5
v -728.816 -320.8582 -55
v -728.816 -233.8582 -55
v -728.816 -323.2582 -58
v -728.816 -236.2582 -58
v -728.816 -325.6582 -61
v -728.816 -238.6582 -61
v -728.816 -326.4582 -63
v -728.816 -239.4582 -63
v -728.816 -328.2582 -66
v -728.816 -241.2582 -66
v -728.816 -329.6582 -68
v -728.816 -242.6582 -68
v -728.816 -331.0582 -70
v -728.816 -244.0582 -70
v -728.816 -332.9582 -72.5
v -728.816 -245.9583 -72.5
v -728.816 -334.8582 -75
v -728.816 -247.8582 -75
v -728.816 -337.2582 -78
v -728.816 -250.2582 -78
v -728.816 -339.6582 -81
v -728.816 -252.6582 -81

vn 1 0 0
vn 1 0 0
vn 1 0 0
vn 1 0 0
vn 1 0 0
vn 1 0 0
vn 1 0 0
vn 1 0 0
vn 1 0 0
vn 1 0 0
vn 1 0 0
vn 1 0 0
vn 1 0 0
vn 1 0 0
vn 1 0 0
vn 1 0 0
vn 1 0 0
vn 1 0 0
vn 1 0 0
vn 1 0 0
vn 1 0 0
vn 1 0 0
vn 1 0 0
vn 1 0 0
vn 1 0 0
vn 1 0 0
vn 1 0 0
vn 1 0 0
vn 1 0 0
vn 1 0 0
vn 1 0 0
vn 1 0 0
vn 1 0 0
vn 1 0 0
vn 1 0 0
vn 1 0 0
vn 1 0 0
vn 1 0 0
vn 1 0 0
vn 1 0 0
vn 1 0 0
vn 1 0 0
vn 0.9994899 0 0.031936
vn 0.9994899 0 0.031936
vn 0.9994899 0 0.031936
vn 0.9994899 0 0.031936
vn 1 0 0
vn 1 0 0
vn 1 0 0
vn 1 0 0
vn 1 0 0
vn 1 0 0
vn 1 0 0
vn 1 0 0
vn 1 0 0
vn 1 0 0
vn 1 0 0
vn 1 0 0
vn 1 0 0
vn 1 0 0
vn 1 0 0
vn 1 0 0
vn 1 0 0
vn 1 0 0
vn 1 0 0
vn 1 0 0
vn 1 0 0
vn 1 0 0
vn 1 0 0
vn 1 0 0
vn 1 0 0
vn 1 0 0
vn 1 0 0
vn 1 0 0
vn 1 0 0
vn 1 0 0
vn 1 0 0
vn 1 0 0
vn 1 0 0
vn 1 0 0
vn 1 0 0
vn 1 0 0
vn 1 0 0
vn 1 0 0
vn 1 0 0
vn 1 0 0
vn 1 0 0
vn 1 0 0
vn 1 0 0
vn 1 0 0
vn 1 0 0
vn 1 0 0
vn 1 0 0
vn 1 0 0
vn 1 0 0
vn 1 0 0
vn 1 0 0
vn 1 0 0
vn 1 0 0
vn 1 0 0
vn 1 0 0
vn 1 0 0
vn 1 0 0
vn 1 0 0
vn 1 0 0
vn 1 0 0
vn 1 0 0
vn 1 0 0
vn -1 0 0
vn -1 0 0
vn -1 0 0
vn -1 0 0
vn -1 0 0
vn -1 0 0
vn -1 0 0
vn -1 0 0
vn -1 0 0
vn -1 0 0
vn -1 0 0
vn -1 0 0
vn -1 0 0
vn -1 0 0
vn -1 0 0
vn -1 0 0
vn -1 0 0
vn -1 0 0
vn -1 0 0
vn -1 0 0
vn -1 0 0
vn -1 0 0
vn -1 0 0
vn -1 0 0
vn -1 0 0
vn -1 0 0
vn -1 0 0
vn -1 0 0
vn -1 0 0
vn -1 0 0
vn -1 0 0
vn -1 0 0
vn -1 0 0
vn -1 0 0
vn -1 0 0
vn -1 0 0
vn -1 0 0
vn -1 0 0
vn -1 0 0
vn -1 0 0
vn -1 0 0
vn -1 0 0
vn -1 0 0
vn -1 0 0
vn -0.999877 0 0.015684
vn -0.999877 0 0.015684
vn -0.999877 0 0.015684
vn -0.999877 0 0.015684
vn -1 0 0
vn -1 0 0
vn -1 0 0
vn -1 0 0
vn -1 0 0
vn -1 0 0
vn -1 0 0
vn -1 0 0
vn -1 0 0
vn -1 0 0
vn -1 0 0
vn -1 0 0
vn -1 0 0
vn -1 0 0
vn -1 0 0
vn -1 0 0
vn -1 0 0
vn -1 0 0
vn -1 0 0
vn -1 0 0
vn -1 0 0
vn -1 0 0
vn -1 0 0
vn -1 0 0
vn -1 0 0
vn -1 0 0
vn -1 0 0
vn -1 0 0
vn -1 0 0
vn -1 0 0
vn -1 0 0
vn -1 0 0
vn -1 0 0
vn -1 0 0
vn -1 0 0
vn -1 0 0
vn -1 0 0
vn -1 0 0
vn -1 0 0
vn -1 0 0
vn -1 0 0
vn -1 0 0
vn -1 0 0
vn -1 0 0
vn -1 0 0
vn -1 0 0
vn -1 0 0
vn -1 0 0
vn -1 0 0
vn -1 0 0
vn -1 0 0
vn -1 0 0
vn -1 0 0
vn -1 0 0
vn -1 0 0
vn -1 0 0
vn -1 0 0
vn -1 0 0
vn -1 0 0
vn -1 0 0
vn -1 0 0
vn -1 0 0
vn -1 0 0
vn -1 0 0

vt 0.036093 0.247247
vt 0.037596 0.8148
vt 0.037596 0.276923
vt 0.036093 0.785124
vt 0.03484 0.223754
vt 0.03484 0.761631
vt 0.033836 0.206275
vt 0.033836 0.744152
vt 0.033085 0.188518
vt 0.033085 0.726395
vt 0.032585 0.17321
vt 0.032585 0.711087
vt 0.031834 0.147738
vt 0.031834 0.685615
vt 0.031082 0.109502
vt 0.031082 0.647379
vt 0.030455 0.070743
vt 0.030455 0.60862
vt 0.029829 0.04579
vt 0.029829 0.583667
vt 0.029327 0.028615
vt 0.029327 0.566492
vt 0.028826 0.013641
vt 0.028826 0.551517
vt 0.028074 0.00185
vt 0.028074 0.539727
vt 0.027575 0
vt 0.027575 0.537877
vt 0.026821 0.01104
vt 0.026821 0.548917
vt 0.02607 0.026359
vt 0.02607 0.564236
vt 0.025444 0.035438
vt 0.025444 0.573315
vt 0.024818 0.040564
vt 0.024818 0.57844
vt 0.024317 0.040592
vt 0.024317 0.578469
vt 0.023815 0.040208
vt 0.023815 0.578085
vt 0.023064 0.02969
vt 0.023064 0.567567
vt 0.022562 0.024744
vt 0.022562 0.562621
vt 0.020044 0.02522
vt 0.020044 0.563097
vt 0.019543 0.030166
vt 0.019543 0.568043
vt 0.018791 0.040875
vt 0.018791 0.578752
vt 0.01829 0.045364
vt 0.01829 0.583241
vt 0.017788 0.047778
vt 0.017788 0.585655
vt 0.017162 0.047932
vt 0.017162 0.585808
vt 0.016537 0.054003
vt 0.016537 0.59188
vt 0.015785 0.064398
vt 0.015785 0.602275
vt 0.015032 0.080187
vt 0.015032 0.618064
vt 0.014532 0.097239
vt 0.014532 0.635115
vt 0.013781 0.11619
vt 0.013781 0.654067
vt 0.013279 0.130535
vt 0.013279 0.668412
vt 0.012777 0.13919
vt 0.012777 0.677067
vt 0.012152 0.151002
vt 0.012152 0.688879
vt 0.011524 0.162749
vt 0.011524 0.700626
vt 0.010773 0.177851
vt 0.010773 0.715728
vt 0.010021 0.192689
vt 0.010021 0.730566
vt 0.009521 0.197893
vt 0.009521 0.73577
vt 0.00877 0.209106
vt 0.00877 0.746983
vt 0.007767 0.226538
vt 0.007767 0.764415
vt 0.007141 0.237557
vt 0.007141 0.775434
vt 0.006514 0.249304
vt 0.006514 0.787181
vt 0.005762 0.264406
vt 0.005762 0.802283
vt 0.005011 0.279244
vt 0.005011 0.817121
vt 0.004509 0.284448
vt 0.004509 0.822325
vt 0.003757 0.295661
vt 0.003757 0.833538
vt 0.003258 0.303645
vt 0.003258 0.841522
vt 0.002756 0.3123
vt 0.002756 0.850177
vt 0.002131 0.324112
vt 0.002131 0.861989
vt 0.001503 0.335859
vt 0.001503 0.873736
vt 0.000751 0.350961
vt 0.000751 0.888838
vt 0 0.365799
vt 0 0.903676
vt 0.985468 0.078989
vt 0.984966 0.61192
vt 0.984966 0.074043
vt 0.985468 0.616866
vt 0.986219 0.090118
vt 0.986219 0.627995
vt 0.986721 0.093939
vt 0.986721 0.631816
vt 0.987223 0.097348
vt 0.987223 0.635225
vt 0.987848 0.092223
vt 0.987848 0.6301
vt 0.988474 0.083144
vt 0.988474 0.621021
vt 0.989225 0.067825
vt 0.989225 0.605702
vt 0.989979 0.056785
vt 0.989979 0.594662
vt 0.990479 0.058927
vt 0.990479 0.596804
vt 0.99123 0.070593
vt 0.99123 0.60847
vt 0.991732 0.085484
vt 0.991732 0.62336
vt 0.992233 0.102575
vt 0.992233 0.640451
vt 0.992859 0.127528
vt 0.992859 0.665405
vt 0.993486 0.166287
vt 0.993486 0.704164
vt 0.994238 0.204522
vt 0.994238 0.742399
vt 0.994989 0.229995
vt 0.994989 0.767872
vt 0.995489 0.245596
vt 0.995489 0.783473
vt 0.996241 0.263228
vt 0.996241 0.801104
vt 0.997244 0.280538
vt 0.997244 0.818415
vt 0.998497 0.304032
vt 0.998497 0.841909
vt 1 0.333708
vt 1 0.871585
vt 0.984966 0.074043
vt 0.984966 0.61192
vt 0.985458 0.612507
vt 0.985458 0.07463
vt 0.985458 0.07463
vt 0.985458 0.612507
vt 0.984957 0.617431
vt 0.984957 0.079554
vt 0.984205 0.624672
vt 0.984205 0.086795
vt 0.983704 0.627145
vt 0.983704 0.089268
vt 0.983202 0.629585
vt 0.983202 0.091708
vt 0.982576 0.630466
vt 0.982576 0.09259
vt 0.981951 0.636538
vt 0.981951 0.098661
vt 0.981199 0.646669
vt 0.981199 0.108792
vt 0.980446 0.662458
vt 0.980446 0.124581
vt 0.979946 0.679251
vt 0.979946 0.141374
vt 0.979195 0.698119
vt 0.979195 0.160242
vt 0.978693 0.713135
vt 0.978693 0.175258
vt 0.978191 0.72179
vt 0.978191 0.183914
vt 0.977566 0.733537
vt 0.977566 0.19566
vt 0.976938 0.745284
vt 0.976938 0.207407
vt 0.976187 0.760122
vt 0.976187 0.222245
vt 0.975435 0.77496
vt 0.975435 0.237083
vt 0.974936 0.779906
vt 0.974936 0.242029
vt 0.974184 0.791034
vt 0.974184 0.253157
vt 0.973181 0.808345
vt 0.973181 0.270468
vt 0.972555 0.820092
vt 0.972555 0.282215
vt 0.971928 0.831839
vt 0.971928 0.293962
vt 0.971176 0.846677
vt 0.971176 0.3088
vt 0.970425 0.861515
vt 0.970425 0.323638
vt 0.969923 0.866461
vt 0.969923 0.328584
vt 0.969172 0.877589
vt 0.969172 0.339712
vt 0.968672 0.886245
vt 0.968672 0.348368
vt 0.96817 0.8949
vt 0.96817 0.357023
vt 0.967545 0.906647
vt 0.967545 0.36877
vt 0.966917 0.918394
vt 0.966917 0.380517
vt 0.966166 0.933232
vt 0.966166 0.395355
vt 0.965414 0.94807
vt 0.965414 0.410193

usemtl spline_05_CliffMat
usemap spline_05_CliffMat
f 2/2/2 1/1/1 3/3/3
f 4/4/4 1/1/1 2/2/2
f 4/4/4 5/5/5 1/1/1
f 6/6/6 5/5/5 4/4/4
f 6/6/6 7/7/7 5/5/5
f 8/8/8 7/7/7 6/6/6
f 8/8/8 9/9/9 7/7/7
f 10/10/10 9/9/9 8/8/8
f 10/10/10 11/11/11 9/9/9
f 12/12/12 11/11/11 10/10/10
f 12/12/12 13/13/13 11/11/11
f 14/14/14 13/13/13 12/12/12
f 14/14/14 15/15/15 13/13/13
f 16/16/16 15/15/15 14/14/14
f 16/16/16 17/17/17 15/15/15
f 18/18/18 17/17/17 16/16/16
f 18/18/18 19/19/19 17/17/17
f 20/20/20 19/19/19 18/18/18
f 20/20/20 21/21/21 19/19/19
f 22/22/22 21/21/21 20/20/20
f 22/22/22 23/23/23 21/21/21
f 24/24/24 23/23/23 22/22/22
f 24/24/24 25/25/25 23/23/23
f 26/26/26 25/25/25 24/24/24
f 26/26/26 27/27/27 25/25/25
f 28/28/28 27/27/27 26/26/26
f 28/28/28 29/29/29 27/27/27
f 30/30/30 29/29/29 28/28/28
f 30/30/30 31/31/31 29/29/29
f 32/32/32 31/31/31 30/30/30
f 32/32/32 33/33/33 31/31/31
f 34/34/34 33/33/33 32/32/32
f 34/34/34 35/35/35 33/33/33
f 36/36/36 35/35/35 34/34/34
f 36/36/36 37/37/37 35/35/35
f 38/38/38 37/37/37 36/36/36
f 38/38/38 39/39/39 37/37/37
f 40/40/40 39/39/39 38/38/38
f 40/40/40 41/41/41 39/39/39
f 42/42/42 41/41/41 40/40/40
f 42/42/42 43/43/43 41/41/41
f 44/44/44 43/43/43 42/42/42
f 44/44/44 45/45/45 43/43/43
f 46/46/46 45/45/45 44/44/44
f 46/46/46 47/47/47 45/45/45
f 48/48/48 47/47/47 46/46/46
f 48/48/48 49/49/49 47/47/47
f 50/50/50 49/49/49 48/48/48
f 50/50/50 51/51/51 49/49/49
f 52/52/52 51/51/51 50/50/50
f 52/52/52 53/53/53 51/51/51
f 54/54/54 53/53/53 52/52/52
f 54/54/54 55/55/55 53/53/53
f 56/56/56 55/55/55 54/54/54
f 56/56/56 57/57/57 55/55/55
f 58/58/58 57/57/57 56/56/56
f 58/58/58 59/59/59 57/57/57
f 60/60/60 59/59/59 58/58/58
f 60/60/60 61/61/61 59/59/59
f 62/62/62 61/61/61 60/60/60
f 62/62/62 63/63/63 61/61/61
f 64/64/64 63/63/63 62/62/62
f 64/64/64 65/65/65 63/63/63
f 66/66/66 65/65/65 64/64/64
f 66/66/66 67/67/67 65/65/65
f 68/68/68 67/67/67 66/66/66
f 68/68/68 69/69/69 67/67/67
f 70/70/70 69/69/69 68/68/68
f 70/70/70 71/71/71 69/69/69
f 72/72/72 71/71/71 70/70/70
f 72/72/72 73/73/73 71/71/71
f 74/74/74 73/73/73 72/72/72
f 74/74/74 75/75/75 73/73/73
f 76/76/76 75/75/75 74/74/74
f 76/76/76 77/77/77 75/75/75
f 78/78/78 77/77/77 76/76/76
f 78/78/78 79/79/79 77/77/77
f 80/80/80 79/79/79 78/78/78
f 80/80/80 81/81/81 79/79/79
f 82/82/82 81/81/81 80/80/80
f 82/82/82 83/83/83 81/81/81
f 84/84/84 83/83/83 82/82/82
f 84/84/84 85/85/85 83/83/83
f 86/86/86 85/85/85 84/84/84
f 86/86/86 87/87/87 85/85/85
f 88/88/88 87/87/87 86/86/86
f 88/88/88 89/89/89 87/87/87
f 90/90/90 89/89/89 88/88/88
f 90/90/90 91/91/91 89/89/89
f 92/92/92 91/91/91 90/90/90
f 92/92/92 93/93/93 91/91/91
f 94/94/94 93/93/93 92/92/92
f 94/94/94 95/95/95 93/93/93
f 96/96/96 95/95/95 94/94/94
f 96/96/96 97/97/97 95/95/95
f 98/98/98 97/97/97 96/96/96
f 98/98/98 99/99/99 97/97/97
f 100/100/100 99/99/99 98/98/98
f 100/100/100 101/101/101 99/99/99
f 102/102/102 101/101/101 100/100/100
f 102/102/102 103/103/103 101/101/101
f 104/104/104 103/103/103 102/102/102
f 104/104/104 105/105/105 103/103/103
f 106/106/106 105/105/105 104/104/104
f 106/106/106 107/107/107 105/105/105
f 108/108/108 107/107/107 106/106/106
f 110/110/110 109/109/109 111/111/111
f 112/112/112 109/109/109 110/110/110
f 112/112/112 113/113/113 109/109/109
f 114/114/114 113/113/113 112/112/112
f 114/114/114 115/115/115 113/113/113
f 116/116/116 115/115/115 114/114/114
f 116/116/116 117/117/117 115/115/115
f 118/118/118 117/117/117 116/116/116
f 118/118/118 119/119/119 117/117/117
f 120/120/120 119/119/119 118/118/118
f 120/120/120 121/121/121 119/119/119
f 122/122/122 121/121/121 120/120/120
f 122/122/122 123/123/123 121/121/121
f 124/124/124 123/123/123 122/122/122
f 124/124/124 125/125/125 123/123/123
f 126/126/126 125/125/125 124/124/124
f 126/126/126 127/127/127 125/125/125
f 128/128/128 127/127/127 126/126/126
f 128/128/128 129/129/129 127/127/127
f 130/130/130 129/129/129 128/128/128
f 130/130/130 131/131/131 129/129/129
f 132/132/132 131/131/131 130/130/130
f 132/132/132 133/133/133 131/131/131
f 134/134/134 133/133/133 132/132/132
f 134/134/134 135/135/135 133/133/133
f 136/136/136 135/135/135 134/134/134
f 136/136/136 137/137/137 135/135/135
f 138/138/138 137/137/137 136/136/136
f 138/138/138 139/139/139 137/137/137
f 140/140/140 139/139/139 138/138/138
f 140/140/140 141/141/141 139/139/139
f 142/142/142 141/141/141 140/140/140
f 142/142/142 143/143/143 141/141/141
f 144/144/144 143/143/143 142/142/142
f 144/144/144 145/145/145 143/143/143
f 146/146/146 145/145/145 144/144/144
f 146/146/146 147/147/147 145/145/145
f 148/148/148 147/147/147 146/146/146
f 148/148/148 149/149/149 147/147/147
f 150/150/150 149/149/149 148/148/148
f 150/150/150 151/151/151 149/149/149
f 152/152/152 151/151/151 150/150/150
f 154/154/154 153/153/153 155/155/155
f 155/155/155 153/153/153 156/156/156
f 158/158/158 157/157/157 159/159/159
f 159/159/159 157/157/157 160/160/160
f 159/159/159 160/160/160 161/161/161
f 161/161/161 160/160/160 162/162/162
f 161/161/161 162/162/162 163/163/163
f 163/163/163 162/162/162 164/164/164
f 163/163/163 164/164/164 165/165/165
f 165/165/165 164/164/164 166/166/166
f 165/165/165 166/166/166 167/167/167
f 167/167/167 166/166/166 168/168/168
f 167/167/167 168/168/168 169/169/169
f 169/169/169 168/168/168 170/170/170
f 169/169/169 170/170/170 171/171/171
f 171/171/171 170/170/170 172/172/172
f 171/171/171 172/172/172 173/173/173
f 173/173/173 172/172/172 174/174/174
f 173/173/173 174/174/174 175/175/175
f 175/175/175 174/174/174 176/176/176
f 175/175/175 176/176/176 177/177/177
f 177/177/177 176/176/176 178/178/178
f 177/177/177 178/178/178 179/179/179
f 179/179/179 178/178/178 180/180/180
f 179/179/179 180/180/180 181/181/181
f 181/181/181 180/180/180 182/182/182
f 181/181/181 182/182/182 183/183/183
f 183/183/183 182/182/182 184/184/184
f 183/183/183 184/184/184 185/185/185
f 185/185/185 184/184/184 186/186/186
f 185/185/185 186/186/186 187/187/187
f 187/187/187 186/186/186 188/188/188
f 187/187/187 188/188/188 189/189/189
f 189/189/189 188/188/188 190/190/190
f 189/189/189 190/190/190 191/191/191
f 191/191/191 190/190/190 192/192/192
f 191/191/191 192/192/192 193/193/193
f 193/193/193 192/192/192 194/194/194
f 193/193/193 194/194/194 195/195/195
f 195/195/195 194/194/194 196/196/196
f 195/195/195 196/196/196 197/197/197
f 197/197/197 196/196/196 198/198/198
f 197/197/197 198/198/198 199/199/199
f 199/199/199 198/198/198 200/200/200
f 199/199/199 200/200/200 201/201/201
f 201/201/201 200/200/200 202/202/202
f 201/201/201 202/202/202 203/203/203
f 203/203/203 202/202/202 204/204/204
f 203/203/203 204/204/204 205/205/205
f 205/205/205 204/204/204 206/206/206
f 205/205/205 206/206/206 207/207/207
f 207/207/207 206/206/206 208/208/208
f 207/207/207 208/208/208 209/209/209
f 209/209/209 208/208/208 210/210/210
f 209/209/209 210/210/210 211/211/211
f 211/211/211 210/210/210 212/212/212
f 211/211/211 212/212/212 213/213/213
f 213/213/213 212/212/212 214/214/214
f 213/213/213 214/214/214 215/215/215
f 215/215/215 214/214/214 216/216/216
f 215/215/215 216/216/216 217/217/217
f 217/217/217 216/216/216 218/218/218
f 217/217/217 218/218/218 219/219/219
f 219/219/219 218/218/218 220/220/220
