mtllib ./hillSide_08_8_0_Level3.mtl
g spline_08_Cliff
v -1056.924 -297.6109 -1
v -1056.924 -384.6109 -1
v -1056.938 -384.5117 1
v -1056.938 -297.5117 1
v -1056.938 -297.5117 1
v -1056.938 -384.5117 1
v -1056.938 -385.1677 3
v -1056.938 -298.1677 3
v -1056.938 -385.4319 6
v -1056.938 -298.4319 6
v -1056.938 -386.4017 10
v -1056.938 -299.4017 10
v -1056.938 -390.2017 15
v -1056.938 -303.2017 15
v -1056.938 -395.0016 21
v -1056.938 -308.0016 21
v -1056.938 -395.8016 23
v -1056.938 -308.8016 23
v -1056.938 -397.6016 26
v -1056.938 -310.6016 26
v -1056.938 -400.4016 30
v -1056.938 -313.4016 30
v -1056.938 -404.2016 35
v -1056.938 -317.2016 35
v -1056.938 -409.0016 41
v -1056.938 -322.0016 41
v -1056.938 -409.8016 43
v -1056.938 -322.8016 43
v -1056.938 -411.6016 46
v -1056.938 -324.6016 46
v -1056.938 -414.4016 50
v -1056.938 -327.4016 50
v -1056.938 -418.2015 55
v -1056.938 -331.2015 55
v -1056.938 -423.0015 61
v -1056.938 -336.0015 61
v -1056.924 -297.6031 -3
v -1056.924 -384.6109 -1
v -1056.924 -297.6109 -1
v -1056.924 -384.6031 -3
v -1056.924 -299.0156 -6
v -1056.924 -386.0156 -6
v -1056.924 -299.5123 -8
v -1056.924 -386.5123 -8
v -1056.938 -300.2474 -10
v -1056.938 -387.2474 -10
v -1056.924 -300.884 -12.5
v -1056.924 -387.884 -12.5
v -1056.938 -387.2474 -10
v -1056.938 -300.2474 -10
v -1056.924 -302.3739 -15
v -1056.924 -387.884 -12.5
v -1056.924 -300.884 -12.5
v -1056.924 -389.3739 -15
v -1056.924 -305.5453 -18
v -1056.924 -392.5453 -18
v -1056.924 -308.0646 -21
v -1056.924 -395.0646 -21
v -1056.924 -309.9817 -23
v -1056.924 -396.9817 -23
v -1056.924 -312.3923 -26
v -1056.924 -399.3923 -26
v -1056.924 -315.7036 -30
v -1056.924 -402.7036 -30
v -1056.924 -317.6036 -32.5
v -1056.924 -404.6036 -32.5
v -1056.924 -319.5036 -35
v -1056.924 -406.5036 -35
v -1056.924 -321.9036 -38
v -1056.924 -408.9036 -38
v -1056.924 -324.3036 -41
v -1056.924 -411.3036 -41
v -1056.924 -325.1036 -43
v -1056.924 -412.1036 -43
v -1056.924 -326.9036 -46
v -1056.924 -413.9036 -46
v -1056.924 -329.7036 -50
v -1056.924 -416.7036 -50
v -1056.924 -331.6036 -52.5
v -1056.924 -418.6036 -52.5
v -1056.924 -333.5036 -55
v -1056.924 -420.5036 -55
v -1056.924 -335.9036 -58
v -1056.924 -422.9036 -58
v -1056.924 -338.3036 -61
v -1056.924 -425.3036 -61
v -1056.924 -339.1035 -63
v -1056.924 -426.1035 -63
v -1056.924 -340.9035 -66
v -1056.924 -427.9035 -66
v -1056.924 -342.3035 -68
v -1056.924 -429.3035 -68
v -1056.924 -343.7035 -70
v -1056.924 -430.7035 -70
v -1056.924 -345.6035 -72.5
v -1056.924 -432.6035 -72.5
v -1056.924 -347.5035 -75
v -1056.924 -434.5035 -75
v -1056.924 -349.9035 -78
v -1056.924 -436.9035 -78
v -1056.924 -352.3035 -81
v -1056.924 -439.3035 -81

vn 0.9999754 0 0.007019003
vn 0.9999754 0 0.007019003
vn 0.9999754 0 0.007019003
vn 0.9999754 0 0.007019003
vn 1 0 0
vn 1 0 0
vn 1 0 0
vn 1 0 0
vn 1 0 0
vn 1 0 0
vn 1 0 0
vn 1 0 0
vn 1 0 0
vn 1 0 0
vn 1 0 0
vn 1 0 0
vn 1 0 0
vn 1 0 0
vn 1 0 0
vn 1 0 0
vn 1 0 0
vn 1 0 0
vn 1 0 0
vn 1 0 0
vn 1 0 0
vn 1 0 0
vn 1 0 0
vn 1 0 0
vn 1 0 0
vn 1 0 0
vn 1 0 0
vn 1 0 0
vn 1 0 0
vn 1 0 0
vn 1 0 0
vn 1 0 0
vn 1 0 0
vn 1 0 0
vn 1 0 0
vn 1 0 0
vn 1 0 0
vn 1 0 0
vn 1 0 0
vn 1 0 0
vn 0.9999741 0 -0.007202001
vn 0.9999741 0 -0.007202001
vn 0.9999834 0 0.005762002
vn 0.9999834 0 0.005762002
vn 0.9999834 0 0.005762002
vn 0.9999834 0 0.005762002
vn 1 0 0
vn 1 0 0
vn 1 0 0
vn 1 0 0
vn 1 0 0
vn 1 0 0
vn 1 0 0
vn 1 0 0
vn 1 0 0
vn 1 0 0
vn 1 0 0
vn 1 0 0
vn 1 0 0
vn 1 0 0
vn 1 0 0
vn 1 0 0
vn 1 0 0
vn 1 0 0
vn 1 0 0
vn 1 0 0
vn 1 0 0
vn 1 0 0
vn 1 0 0
vn 1 0 0
vn 1 0 0
vn 1 0 0
vn 1 0 0
vn 1 0 0
vn 1 0 0
vn 1 0 0
vn 1 0 0
vn 1 0 0
vn 1 0 0
vn 1 0 0
vn 1 0 0
vn 1 0 0
vn 1 0 0
vn 1 0 0
vn 1 0 0
vn 1 0 0
vn 1 0 0
vn 1 0 0
vn 1 0 0
vn 1 0 0
vn 1 0 0
vn 1 0 0
vn 1 0 0
vn 1 0 0
vn 1 0 0
vn 1 0 0
vn 1 0 0
vn 1 0 0

vt 0.000565 0.000662
vt 0.000565 0.581224
vt 0.000659 0.580562
vt 0.000659 0
vt 0.000659 0
vt 0.000659 0.580562
vt 0.000637 0.58494
vt 0.000637 0.004377
vt 0.000605 0.586703
vt 0.000605 0.006141
vt 0.000561 0.593174
vt 0.000561 0.012612
vt 0.000505 0.618532
vt 0.000505 0.03797
vt 0.00044 0.650563
vt 0.00044 0.070001
vt 0.000418 0.655902
vt 0.000418 0.075339
vt 0.000384 0.667913
vt 0.000384 0.08735
vt 0.00034 0.686598
vt 0.00034 0.106035
vt 0.000285 0.711955
vt 0.000285 0.131393
vt 0.000219 0.743986
vt 0.000219 0.163424
vt 0.000197 0.749325
vt 0.000197 0.168762
vt 0.000164 0.761336
vt 0.000164 0.180774
vt 0.00012 0.780021
vt 0.00012 0.199459
vt 6.6E-05 0.805379
vt 6.6E-05 0.224816
vt -1E-06 0.83741
vt -1E-06 0.256848
vt 0.000587 0.00061
vt 0.000565 0.581224
vt 0.000565 0.000662
vt 0.000587 0.581172
vt 0.000619 0.010035
vt 0.000619 0.590598
vt 0.000641 0.01335
vt 0.000641 0.593912
vt 0.000784 0.018255
vt 0.000784 0.598818
vt 0.00069 0.022504
vt 0.00069 0.603066
vt 0.000784 0.598818
vt 0.000784 0.018255
vt 0.000718 0.032446
vt 0.00069 0.603066
vt 0.00069 0.022504
vt 0.000718 0.613008
vt 0.000751 0.053609
vt 0.000751 0.634171
vt 0.000784 0.070421
vt 0.000784 0.650983
vt 0.000806 0.083214
vt 0.000806 0.663776
vt 0.000839 0.0993
vt 0.000839 0.679863
vt 0.000883 0.121397
vt 0.000883 0.701959
vt 0.000911 0.134076
vt 0.000911 0.714638
vt 0.000938 0.146755
vt 0.000938 0.727317
vt 0.000971 0.16277
vt 0.000971 0.743333
vt 0.001004 0.178786
vt 0.001004 0.759348
vt 0.001026 0.184124
vt 0.001026 0.764687
vt 0.00106 0.196136
vt 0.00106 0.776698
vt 0.001103 0.214821
vt 0.001103 0.795383
vt 0.001131 0.227499
vt 0.001131 0.808062
vt 0.001158 0.240178
vt 0.001158 0.820741
vt 0.001191 0.256194
vt 0.001191 0.836756
vt 0.001225 0.272209
vt 0.001225 0.852772
vt 0.001246 0.277548
vt 0.001246 0.85811
vt 0.001279 0.289559
vt 0.001279 0.870122
vt 0.001301 0.298901
vt 0.001301 0.879464
vt 0.001324 0.308244
vt 0.001324 0.888806
vt 0.00135 0.320923
vt 0.00135 0.901485
vt 0.001378 0.333602
vt 0.001378 0.914164
vt 0.001411 0.349617
vt 0.001411 0.93018
vt 0.001444 0.365633
vt 0.001444 0.946195

usemtl spline_08_CliffMat
usemap spline_08_CliffMat
f 2/2/2 1/1/1 3/3/3
f 3/3/3 1/1/1 4/4/4
f 6/6/6 5/5/5 7/7/7
f 7/7/7 5/5/5 8/8/8
f 7/7/7 8/8/8 9/9/9
f 9/9/9 8/8/8 10/10/10
f 9/9/9 10/10/10 11/11/11
f 11/11/11 10/10/10 12/12/12
f 11/11/11 12/12/12 13/13/13
f 13/13/13 12/12/12 14/14/14
f 13/13/13 14/14/14 15/15/15
f 15/15/15 14/14/14 16/16/16
f 15/15/15 16/16/16 17/17/17
f 17/17/17 16/16/16 18/18/18
f 17/17/17 18/18/18 19/19/19
f 19/19/19 18/18/18 20/20/20
f 19/19/19 20/20/20 21/21/21
f 21/21/21 20/20/20 22/22/22
f 21/21/21 22/22/22 23/23/23
f 23/23/23 22/22/22 24/24/24
f 23/23/23 24/24/24 25/25/25
f 25/25/25 24/24/24 26/26/26
f 25/25/25 26/26/26 27/27/27
f 27/27/27 26/26/26 28/28/28
f 27/27/27 28/28/28 29/29/29
f 29/29/29 28/28/28 30/30/30
f 29/29/29 30/30/30 31/31/31
f 31/31/31 30/30/30 32/32/32
f 31/31/31 32/32/32 33/33/33
f 33/33/33 32/32/32 34/34/34
f 33/33/33 34/34/34 35/35/35
f 35/35/35 34/34/34 36/36/36
f 38/38/38 37/37/37 39/39/39
f 40/40/40 37/37/37 38/38/38
f 40/40/40 41/41/41 37/37/37
f 42/42/42 41/41/41 40/40/40
f 42/42/42 43/43/43 41/41/41
f 44/44/44 43/43/43 42/42/42
f 44/44/44 45/45/45 43/43/43
f 46/46/46 45/45/45 44/44/44
f 48/48/48 47/47/47 49/49/49
f 49/49/49 47/47/47 50/50/50
f 52/52/52 51/51/51 53/53/53
f 54/54/54 51/51/51 52/52/52
f 54/54/54 55/55/55 51/51/51
f 56/56/56 55/55/55 54/54/54
f 56/56/56 57/57/57 55/55/55
f 58/58/58 57/57/57 56/56/56
f 58/58/58 59/59/59 57/57/57
f 60/60/60 59/59/59 58/58/58
f 60/60/60 61/61/61 59/59/59
f 62/62/62 61/61/61 60/60/60
f 62/62/62 63/63/63 61/61/61
f 64/64/64 63/63/63 62/62/62
f 64/64/64 65/65/65 63/63/63
f 66/66/66 65/65/65 64/64/64
f 66/66/66 67/67/67 65/65/65
f 68/68/68 67/67/67 66/66/66
f 68/68/68 69/69/69 67/67/67
f 70/70/70 69/69/69 68/68/68
f 70/70/70 71/71/71 69/69/69
f 72/72/72 71/71/71 70/70/70
f 72/72/72 73/73/73 71/71/71
f 74/74/74 73/73/73 72/72/72
f 74/74/74 75/75/75 73/73/73
f 76/76/76 75/75/75 74/74/74
f 76/76/76 77/77/77 75/75/75
f 78/78/78 77/77/77 76/76/76
f 78/78/78 79/79/79 77/77/77
f 80/80/80 79/79/79 78/78/78
f 80/80/80 81/81/81 79/79/79
f 82/82/82 81/81/81 80/80/80
f 82/82/82 83/83/83 81/81/81
f 84/84/84 83/83/83 82/82/82
f 84/84/84 85/85/85 83/83/83
f 86/86/86 85/85/85 84/84/84
f 86/86/86 87/87/87 85/85/85
f 88/88/88 87/87/87 86/86/86
f 88/88/88 89/89/89 87/87/87
f 90/90/90 89/89/89 88/88/88
f 90/90/90 91/91/91 89/89/89
f 92/92/92 91/91/91 90/90/90
f 92/92/92 93/93/93 91/91/91
f 94/94/94 93/93/93 92/92/92
f 94/94/94 95/95/95 93/93/93
f 96/96/96 95/95/95 94/94/94
f 96/96/96 97/97/97 95/95/95
f 98/98/98 97/97/97 96/96/96
f 98/98/98 99/99/99 97/97/97
f 100/100/100 99/99/99 98/98/98
f 100/100/100 101/101/101 99/99/99
f 102/102/102 101/101/101 100/100/100
