# This file uses meters as units for non-parametric coordinates.

g default
v -852.510986 -253.078720 -0.545317
v -852.435791 -253.167328 -1.142386
v -852.510986 -252.845993 1.447289
v -852.510986 -252.706116 3.584527
v -852.510986 -252.252579 6.155685
v -852.510986 -255.697113 8.186408
v -852.392273 -259.955566 10.255795
v -852.882690 -255.550964 11.122947
v -854.718384 -252.437790 12.118859
v -855.382263 -249.779465 13.259813
v -855.369751 -248.793182 15.228634
v -852.901917 -252.460968 17.012781
v -852.510986 -258.473175 20.899170
v -852.510986 -265.697815 27.871698
v -852.510986 -275.651733 39.704502
v -852.510986 -290.220673 54.299999
v -852.510986 -295.020660 60.299999
v -852.435791 -276.254395 -25.479391
v -852.435791 -291.289703 -38.946785
v -852.435791 -271.840240 -20.303537
v -852.435791 -266.622925 -16.852964
v -852.435791 -263.368317 -14.780321
v -852.435791 -259.410004 -13.927025
v -852.435791 -257.475037 -13.187815
v -852.435791 -255.852249 -12.574442
v -852.435791 -255.519791 -10.756716
v -852.435791 -256.092072 -10.529149
v -852.435791 -257.533691 -10.104242
v -852.435791 -261.608795 -8.305247
v -852.435791 -256.405579 -5.114939
v -852.435791 -255.046188 -4.282337
v -852.435791 -253.481003 -3.888289
v -852.435791 -253.313019 -3.138297
v -852.510986 -340.078735 -0.545317
v -852.435791 -340.167328 -1.142386
v -852.510986 -339.846008 1.447289
v -852.510986 -339.706116 3.584527
v -852.510986 -339.252563 6.155685
v -852.510986 -342.697113 8.186408
v -852.392273 -346.955566 10.255795
v -852.882690 -342.550964 11.122947
v -854.718384 -339.437805 12.118859
v -855.382263 -336.779480 13.259813
v -855.369751 -335.793182 15.228634
v -852.901917 -339.460968 17.012781
v -852.510986 -345.473175 20.899170
v -852.510986 -352.697815 27.871698
v -852.510986 -362.651733 39.704502
v -852.510986 -377.220673 54.299999
v -852.510986 -382.020660 60.299999
v -852.435791 -363.254395 -25.479391
v -852.435791 -378.289703 -38.946785
v -852.435791 -358.840240 -20.303537
v -852.435791 -353.622925 -16.852964
v -852.435791 -350.368317 -14.780321
v -852.435791 -346.410004 -13.927025
v -852.435791 -344.475037 -13.187815
v -852.435791 -342.852234 -12.574442
v -852.435791 -342.519775 -10.756716
v -852.435791 -343.092072 -10.529149
v -852.435791 -344.533691 -10.104242
v -852.435791 -348.608795 -8.305247
v -852.435791 -343.405579 -5.114939
v -852.435791 -342.046204 -4.282337
v -852.435791 -340.481018 -3.888289
v -852.435791 -340.313019 -3.138297
v -1046.368042 -298.005859 1.159826
v -1046.368042 -298.128540 0.564051
v -1046.368042 -298.274200 -1.431861
v -1046.368042 -298.448822 -4.427393
v -1046.368042 -300.039764 -5.000351
v -1046.368042 -301.399139 -6.027726
v -1046.368042 -306.602356 -8.480190
v -1046.368042 -302.527252 -9.977510
v -1046.368042 -300.513367 -10.570008
v -1046.368042 -300.845795 -11.865717
v -1046.368042 -302.468597 -11.432840
v -1046.368042 -304.403564 -12.332569
v -1046.368042 -308.361877 -13.663542
v -1046.368042 -311.616516 -16.144239
v -1046.368042 -316.833801 -19.594812
v -1046.368042 -321.247955 -25.479391
v -1046.368042 -336.283264 -38.946785
v -1046.368042 -297.773102 3.152432
v -1046.368042 -297.633209 5.289669
v -1046.368042 -297.178741 7.885397
v -1046.368042 -300.656555 8.936949
v -1046.368042 -304.915009 10.361628
v -1051.781738 -300.510406 11.896765
v -1051.266846 -296.193604 13.405151
v -1051.378540 -294.738892 13.266048
v -1051.397705 -293.752625 15.694945
v -1046.368042 -297.420410 16.949230
v -1046.368042 -303.432617 20.899170
v -1046.368042 -310.657288 27.871698
v -1046.368042 -320.611176 39.704502
v -1046.368042 -335.180115 54.299999
v -1046.368042 -339.980103 60.299999
v -1046.368042 -301.085632 -10.373123
v -1046.368042 -385.128540 0.564051
v -1046.368042 -385.005859 1.159826
v -1046.368042 -385.274200 -1.431861
v -1046.368042 -385.448822 -4.427393
v -1046.368042 -387.039764 -5.000351
v -1046.368042 -388.399139 -6.027726
v -1046.368042 -393.602356 -8.480190
v -1046.368042 -389.527252 -9.977510
v -1046.368042 -388.085632 -10.373123
v -1046.368042 -387.513367 -10.570008
v -1046.368042 -387.845795 -11.865717
v -1046.368042 -389.468597 -11.432840
v -1046.368042 -391.403564 -12.332569
v -1046.368042 -395.361877 -13.663542
v -1046.368042 -398.616516 -16.144239
v -1046.368042 -403.833801 -19.594812
v -1046.368042 -408.247955 -25.479391
v -1046.368042 -423.283264 -38.946785
v -1046.368042 -384.773102 3.152432
v -1046.368042 -384.633209 5.289669
v -1046.368042 -384.178741 7.885397
v -1046.368042 -387.656555 8.936949
v -1046.368042 -391.915009 10.361628
v -1051.781738 -387.510406 11.896765
v -1051.266846 -383.193604 13.405151
v -1051.378540 -381.738892 13.266048
v -1051.397705 -380.752625 15.694945
v -1046.368042 -384.420410 16.949230
v -1046.368042 -390.432617 20.899170
v -1046.368042 -397.657288 27.871698
v -1046.368042 -407.611176 39.704502
v -1046.368042 -422.180115 54.299999
v -1046.368042 -426.980103 60.299999
vt 0.619077 0.032832
vt 0.613086 0.032167
vt 0.613086 0.685186
vt 0.619077 0.685851
vt 0.593009 0.030420
vt 0.593009 0.683439
vt 0.571473 0.029370
vt 0.571473 0.682389
vt 0.545566 0.025966
vt 0.545566 0.678985
vt 0.525104 0.051821
vt 0.525104 0.704839
vt 0.504213 0.083784
vt 0.504213 0.736803
vt 0.495640 0.050724
vt 0.495640 0.703742
vt 0.486221 0.027356
vt 0.486221 0.680375
vt 0.474947 0.007403
vt 0.474947 0.660422
vt 0.455105 0.000000
vt 0.455105 0.653018
vt 0.436300 0.027530
vt 0.436300 0.680549
vt 0.397008 0.072658
vt 0.397008 0.725676
vt 0.326752 0.126886
vt 0.326752 0.779904
vt 0.207523 0.201599
vt 0.207523 0.854618
vt 0.060457 0.310953
vt 0.060457 0.963972
vt -0.000000 0.346982
vt -0.000000 1.000000
vt 1.000000 0.318977
vt 0.864300 0.206123
vt 0.864300 0.859141
vt 1.000000 0.971996
vt 0.812148 0.172990
vt 0.812148 0.826009
vt 0.777379 0.133829
vt 0.777379 0.786848
vt 0.756495 0.109400
vt 0.756495 0.762419
vt 0.747897 0.079689
vt 0.747897 0.732708
vt 0.740449 0.065166
vt 0.740449 0.718184
vt 0.734268 0.052985
vt 0.734268 0.706003
vt 0.715953 0.050490
vt 0.715953 0.703508
vt 0.713660 0.054785
vt 0.713660 0.707804
vt 0.709378 0.065606
vt 0.709378 0.718625
vt 0.691251 0.096193
vt 0.691251 0.749212
vt 0.659105 0.057138
vt 0.659105 0.710157
vt 0.650716 0.046935
vt 0.650716 0.699954
vt 0.646745 0.035187
vt 0.646745 0.688205
vt 0.639188 0.033926
vt 0.639188 0.686944
vt 0.364981 0.276186
vt 0.368658 0.276874
vt 0.368658 0.765126
vt 0.364981 0.764437
vt 0.380976 0.277692
vt 0.380976 0.765943
vt 0.399462 0.278672
vt 0.399462 0.766923
vt 0.402998 0.287600
vt 0.402998 0.775852
vt 0.409339 0.295229
vt 0.409339 0.783481
vt 0.424474 0.324430
vt 0.424474 0.812681
vt 0.433715 0.301560
vt 0.433715 0.789811
vt 0.436156 0.293470
vt 0.436156 0.781721
vt 0.437371 0.290258
vt 0.445368 0.292124
vt 0.445368 0.780375
vt 0.437371 0.778509
vt 0.442696 0.301231
vt 0.442696 0.789482
vt 0.448249 0.312090
vt 0.448249 0.800341
vt 0.456463 0.334305
vt 0.456463 0.822556
vt 0.471773 0.352570
vt 0.471773 0.840821
vt 0.493068 0.381850
vt 0.493068 0.870101
vt 0.529384 0.406622
vt 0.529384 0.894874
vt 0.612498 0.491002
vt 0.612498 0.979253
vt 0.352684 0.274879
vt 0.352684 0.763131
vt 0.339494 0.274094
vt 0.339494 0.762346
vt 0.323475 0.271544
vt 0.323475 0.759795
vt 0.316985 0.291062
vt 0.316985 0.779313
vt 0.308192 0.314960
vt 0.308192 0.803212
vt 0.287901 0.290241
vt 0.287901 0.778493
vt 0.279621 0.266015
vt 0.279621 0.754267
vt 0.280257 0.257851
vt 0.280257 0.746103
vt 0.265229 0.252316
vt 0.265229 0.740568
vt 0.267537 0.272900
vt 0.267537 0.761151
vt 0.243160 0.306641
vt 0.243160 0.794892
vt 0.200130 0.347187
vt 0.200130 0.835438
vt 0.127104 0.403049
vt 0.127104 0.891300
vt 0.037029 0.484811
vt 0.037029 0.973062
vt -0.000000 0.511749
vt -0.000000 1.000000
vn 0.992163 0.000000 0.124954
vn 0.992163 0.000000 0.124954
vn 0.992163 0.000000 0.124954
vn 0.992163 0.000000 0.124954
vn 1.000000 0.000000 0.000000
vn 1.000000 0.000000 0.000000
vn 1.000000 0.000000 0.000000
vn 1.000000 0.000000 0.000000
vn 1.000000 0.000000 0.000000
vn 1.000000 0.000000 0.000000
vn 1.000000 0.000000 0.000000
vn 1.000000 0.000000 0.000000
vn 1.000000 0.000000 0.000000
vn 1.000000 0.000000 0.000000
vn 1.000000 0.000000 0.000000
vn 1.000000 0.000000 0.000000
vn 1.000000 0.000000 0.000000
vn 1.000000 0.000000 0.000000
vn 1.000000 0.000000 0.000000
vn 1.000000 0.000000 0.000000
vn 0.998359 0.000000 -0.057272
vn 0.998359 0.000000 -0.057272
vn 0.998359 0.000000 -0.057272
vn 0.998359 0.000000 -0.057272
vn 0.870439 0.000000 0.492277
vn 0.870439 0.000000 0.492277
vn 0.870439 0.000000 0.492277
vn 0.870439 0.000000 0.492277
vn 0.476867 0.000000 0.878975
vn 0.476867 0.000000 0.878975
vn 0.476867 0.000000 0.878975
vn 0.476867 0.000000 0.878975
vn 0.864331 0.000000 0.502923
vn 0.864331 0.000000 0.502923
vn 0.864331 0.000000 0.502923
vn 0.864331 0.000000 0.502923
vn 0.999980 0.000000 -0.006355
vn 0.999980 0.000000 -0.006355
vn 0.999980 0.000000 -0.006355
vn 0.999980 0.000000 -0.006355
vn 0.585884 0.000000 -0.810395
vn 0.585884 0.000000 -0.810395
vn 0.585884 0.000000 -0.810395
vn 0.585884 0.000000 -0.810395
vn 0.994979 0.000000 -0.100084
vn 0.994979 0.000000 -0.100084
vn 0.994979 0.000000 -0.100084
vn 0.994979 0.000000 -0.100084
vn 1.000000 0.000000 0.000000
vn 1.000000 0.000000 0.000000
vn 1.000000 0.000000 0.000000
vn 1.000000 0.000000 0.000000
vn 1.000000 0.000000 0.000000
vn 1.000000 0.000000 0.000000
vn 1.000000 0.000000 0.000000
vn 1.000000 0.000000 0.000000
vn 1.000000 0.000000 0.000000
vn 1.000000 0.000000 0.000000
vn 1.000000 0.000000 0.000000
vn 1.000000 0.000000 0.000000
vn 1.000000 0.000000 0.000000
vn 1.000000 0.000000 0.000000
vn 1.000000 0.000000 0.000000
vn 1.000000 0.000000 0.000000
vn 1.000000 0.000000 0.000000
vn 1.000000 0.000000 0.000000
vn 1.000000 0.000000 0.000000
vn 1.000000 0.000000 0.000000
vn 1.000000 0.000000 0.000000
vn 1.000000 0.000000 0.000000
vn 1.000000 0.000000 0.000000
vn 1.000000 0.000000 0.000000
vn 1.000000 0.000000 0.000000
vn 1.000000 0.000000 0.000000
vn 1.000000 0.000000 0.000000
vn 1.000000 0.000000 0.000000
vn 1.000000 0.000000 0.000000
vn 1.000000 0.000000 0.000000
vn 1.000000 0.000000 0.000000
vn 1.000000 0.000000 0.000000
vn 1.000000 0.000000 0.000000
vn 1.000000 0.000000 0.000000
vn 1.000000 0.000000 0.000000
vn 1.000000 0.000000 0.000000
vn 1.000000 0.000000 0.000000
vn 1.000000 0.000000 0.000000
vn 1.000000 0.000000 0.000000
vn 1.000000 0.000000 0.000000
vn 1.000000 0.000000 0.000000
vn 1.000000 0.000000 0.000000
vn 1.000000 0.000000 0.000000
vn 1.000000 0.000000 0.000000
vn 1.000000 0.000000 0.000000
vn 1.000000 0.000000 0.000000
vn 1.000000 0.000000 0.000000
vn 1.000000 0.000000 0.000000
vn 1.000000 0.000000 0.000000
vn 1.000000 0.000000 0.000000
vn 1.000000 0.000000 0.000000
vn 1.000000 0.000000 0.000000
vn 1.000000 0.000000 0.000000
vn 1.000000 0.000000 0.000000
vn 1.000000 0.000000 0.000000
vn 1.000000 0.000000 0.000000
vn 1.000000 0.000000 0.000000
vn 1.000000 0.000000 0.000000
vn 1.000000 0.000000 0.000000
vn 1.000000 0.000000 0.000000
vn 1.000000 0.000000 0.000000
vn 1.000000 0.000000 0.000000
vn 1.000000 0.000000 0.000000
vn 1.000000 0.000000 0.000000
vn 1.000000 0.000000 0.000000
vn 1.000000 0.000000 0.000000
vn 1.000000 0.000000 0.000000
vn 1.000000 0.000000 0.000000
vn 1.000000 0.000000 0.000000
vn 1.000000 0.000000 0.000000
vn 1.000000 0.000000 0.000000
vn 1.000000 0.000000 0.000000
vn 1.000000 0.000000 0.000000
vn 1.000000 0.000000 0.000000
vn 1.000000 0.000000 0.000000
vn 1.000000 0.000000 0.000000
vn 1.000000 0.000000 0.000000
vn 1.000000 0.000000 0.000000
vn 1.000000 0.000000 0.000000
vn 1.000000 0.000000 0.000000
vn -1.000000 0.000000 0.000000
vn -1.000000 0.000000 0.000000
vn -1.000000 0.000000 0.000000
vn -1.000000 0.000000 0.000000
vn -1.000000 0.000000 0.000000
vn -1.000000 0.000000 0.000000
vn -1.000000 0.000000 0.000000
vn -1.000000 0.000000 0.000000
vn -1.000000 0.000000 0.000000
vn -1.000000 0.000000 0.000000
vn -1.000000 0.000000 0.000000
vn -1.000000 0.000000 0.000000
vn -1.000000 0.000000 0.000000
vn -1.000000 0.000000 0.000000
vn -1.000000 0.000000 0.000000
vn -1.000000 0.000000 0.000000
vn -1.000000 0.000000 0.000000
vn -1.000000 0.000000 0.000000
vn -1.000000 0.000000 0.000000
vn -1.000000 0.000000 0.000000
vn -1.000000 0.000000 0.000000
vn -1.000000 0.000000 0.000000
vn -1.000000 0.000000 0.000000
vn -1.000000 0.000000 0.000000
vn -1.000000 0.000000 0.000000
vn -1.000000 0.000000 0.000000
vn -1.000000 0.000000 0.000000
vn -1.000000 0.000000 0.000000
vn -1.000000 0.000000 0.000000
vn -1.000000 0.000000 0.000000
vn -1.000000 0.000000 0.000000
vn -1.000000 0.000000 0.000000
vn -1.000000 0.000000 0.000000
vn -1.000000 0.000000 0.000000
vn -1.000000 0.000000 0.000000
vn -1.000000 0.000000 0.000000
vn 1.000000 0.000000 0.000000
vn 1.000000 0.000000 0.000000
vn 1.000000 0.000000 0.000000
vn 1.000000 0.000000 0.000000
vn -1.000000 0.000000 0.000000
vn -1.000000 0.000000 0.000000
vn -1.000000 0.000000 0.000000
vn -1.000000 0.000000 0.000000
vn -1.000000 0.000000 0.000000
vn -1.000000 0.000000 0.000000
vn -1.000000 0.000000 0.000000
vn -1.000000 0.000000 0.000000
vn -1.000000 0.000000 0.000000
vn -1.000000 0.000000 0.000000
vn -1.000000 0.000000 0.000000
vn -1.000000 0.000000 0.000000
vn -1.000000 0.000000 0.000000
vn -1.000000 0.000000 0.000000
vn -1.000000 0.000000 0.000000
vn -1.000000 0.000000 0.000000
vn -1.000000 0.000000 0.000000
vn -1.000000 0.000000 0.000000
vn -1.000000 0.000000 0.000000
vn -1.000000 0.000000 0.000000
vn -1.000000 0.000000 0.000000
vn -1.000000 0.000000 0.000000
vn -1.000000 0.000000 0.000000
vn -1.000000 0.000000 0.000000
vn -1.000000 0.000000 0.000000
vn -1.000000 0.000000 0.000000
vn -1.000000 0.000000 0.000000
vn -1.000000 0.000000 0.000000
vn -1.000000 0.000000 0.000000
vn -1.000000 0.000000 0.000000
vn -1.000000 0.000000 0.000000
vn -1.000000 0.000000 0.000000
vn -1.000000 0.000000 0.000000
vn -1.000000 0.000000 0.000000
vn -1.000000 0.000000 0.000000
vn -1.000000 0.000000 0.000000
vn -1.000000 0.000000 0.000000
vn -1.000000 0.000000 0.000000
vn -1.000000 0.000000 0.000000
vn -1.000000 0.000000 0.000000
vn -1.000000 0.000000 0.000000
vn -1.000000 0.000000 0.000000
vn -1.000000 0.000000 0.000000
vn -1.000000 0.000000 0.000000
vn -0.272809 0.000000 -0.962068
vn -0.272809 0.000000 -0.962068
vn -0.272809 0.000000 -0.962068
vn -0.272809 0.000000 -0.962068
vn -0.946382 0.000000 0.323050
vn -0.946382 0.000000 0.323050
vn -0.946382 0.000000 0.323050
vn -0.946382 0.000000 0.323050
vn 0.779740 0.000000 -0.626103
vn 0.779740 0.000000 -0.626103
vn 0.779740 0.000000 -0.626103
vn 0.779740 0.000000 -0.626103
vn -0.999969 0.000000 -0.007890
vn -0.999969 0.000000 -0.007890
vn -0.999969 0.000000 -0.007890
vn -0.999969 0.000000 -0.007890
vn -0.241967 0.000000 0.970284
vn -0.241967 0.000000 0.970284
vn -0.241967 0.000000 0.970284
vn -0.241967 0.000000 0.970284
vn -1.000000 0.000000 0.000000
vn -1.000000 0.000000 0.000000
vn -1.000000 0.000000 0.000000
vn -1.000000 0.000000 0.000000
vn -1.000000 0.000000 0.000000
vn -1.000000 0.000000 0.000000
vn -1.000000 0.000000 0.000000
vn -1.000000 0.000000 0.000000
vn -1.000000 0.000000 0.000000
vn -1.000000 0.000000 0.000000
vn -1.000000 0.000000 0.000000
vn -1.000000 0.000000 0.000000
vn -1.000000 0.000000 0.000000
vn -1.000000 0.000000 0.000000
vn -1.000000 0.000000 0.000000
vn -1.000000 0.000000 0.000000
vn -1.000000 0.000000 0.000000
vn -1.000000 0.000000 0.000000
vn -1.000000 0.000000 0.000000
vn -1.000000 0.000000 0.000000
vn -1.000000 0.000000 0.000000
vn -1.000000 0.000000 0.000000
vn -1.000000 0.000000 0.000000
vn -1.000000 0.000000 0.000000
s off
g hillside_04
f 2/1/1 1/2/2 34/3/3 35/4/4
f 1/2/5 3/5/6 36/6/7 34/3/8
f 3/5/9 4/7/10 37/8/11 36/6/12
f 4/7/13 5/9/14 38/10/15 37/8/16
f 5/9/17 6/11/18 39/12/19 38/10/20
f 6/11/21 7/13/22 40/14/23 39/12/24
f 7/13/25 8/15/26 41/16/27 40/14/28
f 8/15/29 9/17/30 42/18/31 41/16/32
f 9/17/33 10/19/34 43/20/35 42/18/36
f 10/19/37 11/21/38 44/22/39 43/20/40
f 11/21/41 12/23/42 45/24/43 44/22/44
f 12/23/45 13/25/46 46/26/47 45/24/48
f 13/25/49 14/27/50 47/28/51 46/26/52
f 14/27/53 15/29/54 48/30/55 47/28/56
f 15/29/57 16/31/58 49/32/59 48/30/60
f 16/31/61 17/33/62 50/34/63 49/32/64
f 19/35/65 18/36/66 51/37/67 52/38/68
f 18/36/69 20/39/70 53/40/71 51/37/72
f 20/39/73 21/41/74 54/42/75 53/40/76
f 21/41/77 22/43/78 55/44/79 54/42/80
f 22/43/81 23/45/82 56/46/83 55/44/84
f 23/45/85 24/47/86 57/48/87 56/46/88
f 24/47/89 25/49/90 58/50/91 57/48/92
f 25/49/93 26/51/94 59/52/95 58/50/96
f 26/51/97 27/53/98 60/54/99 59/52/100
f 27/53/101 28/55/102 61/56/103 60/54/104
f 28/55/105 29/57/106 62/58/107 61/56/108
f 29/57/109 30/59/110 63/60/111 62/58/112
f 30/59/113 31/61/114 64/62/115 63/60/116
f 31/61/117 32/63/118 65/64/119 64/62/120
f 32/63/121 33/65/122 66/66/123 65/64/124
f 33/65/125 2/1/126 35/4/127 66/66/128
f 67/67/129 68/68/130 100/69/131 101/70/132
f 68/68/133 69/71/134 102/72/135 100/69/136
f 69/71/137 70/73/138 103/74/139 102/72/140
f 70/73/141 71/75/142 104/76/143 103/74/144
f 71/75/145 72/77/146 105/78/147 104/76/148
f 72/77/149 73/79/150 106/80/151 105/78/152
f 73/79/153 74/81/154 107/82/155 106/80/156
f 74/81/157 99/83/158 108/84/159 107/82/160
f 75/85/161 76/86/162 110/87/163 109/88/164
f 76/86/165 77/89/166 111/90/167 110/87/168
f 77/89/169 78/91/170 112/92/171 111/90/172
f 78/91/173 79/93/174 113/94/175 112/92/176
f 79/93/177 80/95/178 114/96/179 113/94/180
f 80/95/181 81/97/182 115/98/183 114/96/184
f 81/97/185 82/99/186 116/100/187 115/98/188
f 82/99/189 83/101/190 117/102/191 116/100/192
f 84/103/193 67/67/194 101/70/195 118/104/196
f 85/105/197 84/103/198 118/104/199 119/106/200
f 86/107/201 85/105/202 119/106/203 120/108/204
f 87/109/205 86/107/206 120/108/207 121/110/208
f 88/111/209 87/109/210 121/110/211 122/112/212
f 89/113/213 88/111/214 122/112/215 123/114/216
f 90/115/217 89/113/218 123/114/219 124/116/220
f 91/117/221 90/115/222 124/116/223 125/118/224
f 92/119/225 91/117/226 125/118/227 126/120/228
f 93/121/229 92/119/230 126/120/231 127/122/232
f 94/123/233 93/121/234 127/122/235 128/124/236
f 95/125/237 94/123/238 128/124/239 129/126/240
f 96/127/241 95/125/242 129/126/243 130/128/244
f 97/129/245 96/127/246 130/128/247 131/130/248
f 98/131/249 97/129/250 131/130/251 132/132/252
f 99/83/253 75/85/254 109/88/255 108/84/256
