# This file uses meters as units for non-parametric coordinates.

g default
v -251.203293 -131.684555 -0.252041
v -251.269501 -131.778534 -0.849360
v -251.203293 -131.502075 1.743175
v -251.203293 -131.368118 4.740435
v -251.203293 -131.120804 8.448915
v -251.203293 -139.319672 11.850629
v -255.941925 -135.754822 14.342989
v -257.001892 -129.391434 16.682255
v -257.578827 -127.256271 16.815536
v -257.344574 -126.841614 19.017824
v -257.980469 -128.717224 19.885784
v -257.699677 -138.766663 25.770535
v -255.442230 -150.671005 35.341816
v -252.295303 -162.229935 45.299999
v -251.203293 -165.029938 49.299999
v -251.203293 -168.829941 54.299999
v -251.203293 -173.629944 60.299999
v -251.269501 -165.923447 -33.169945
v -251.269501 -177.431915 -47.189178
v -251.269501 -157.968781 -25.456282
v -251.269501 -151.946136 -20.889166
v -251.269501 -146.194992 -17.293659
v -251.269501 -141.279572 -15.837870
v -251.269501 -137.477127 -14.294123
v -251.269501 -135.498962 -14.515166
v -251.269501 -134.525269 -11.678245
v -251.269501 -135.548019 -11.032970
v -251.269501 -139.698090 -9.896614
v -251.269501 -144.528915 -7.999739
v -251.269501 -137.719833 -6.092067
v -251.269501 -134.216125 -5.162811
v -251.269501 -132.112854 -4.648696
v -251.269501 -131.969650 -2.844302
v -251.203293 -218.684555 -0.252041
v -251.269501 -218.778534 -0.849360
v -251.203293 -218.502075 1.743175
v -251.203293 -218.368118 4.740435
v -251.203293 -218.120804 8.448915
v -251.203293 -226.319672 11.850629
v -255.941925 -222.754822 14.342989
v -257.001892 -216.391434 16.682255
v -257.578827 -214.256271 16.815536
v -257.344574 -213.841614 19.017824
v -257.980469 -215.717224 19.885784
v -257.699677 -225.766663 25.770535
v -255.442230 -237.671005 35.341816
v -252.295303 -249.229935 45.299999
v -251.203293 -252.029938 49.299999
v -251.203293 -255.829941 54.299999
v -251.203293 -260.629944 60.299999
v -251.269501 -252.923447 -33.169945
v -251.269501 -264.431915 -47.189178
v -251.269501 -244.968781 -25.456282
v -251.269501 -238.946136 -20.889166
v -251.269501 -233.194992 -17.293659
v -251.269501 -228.279572 -15.837870
v -251.269501 -224.477127 -14.294123
v -251.269501 -222.498962 -14.515166
v -251.269501 -221.525269 -11.678245
v -251.269501 -222.548019 -11.032970
v -251.269501 -226.698090 -9.896614
v -251.269501 -231.528915 -7.999739
v -251.269501 -224.719833 -6.092067
v -251.269501 -221.216125 -5.162811
v -251.269501 -219.112854 -4.648696
v -251.269501 -218.969650 -2.844302
v -651.357483 -247.906754 3.436049
v -651.415710 -248.007034 2.838929
v -651.415710 -248.198151 0.843987
v -651.415710 -248.346146 -2.300714
v -651.415710 -250.503128 -4.682497
v -651.415710 -254.006821 -5.272600
v -651.415710 -260.815887 -8.150442
v -651.415710 -255.985046 -9.896614
v -651.415710 -250.812210 -11.676497
v -651.415710 -251.785889 -13.190520
v -651.415710 -253.764038 -12.969459
v -651.415710 -257.566467 -14.513221
v -651.415710 -262.481873 -15.969010
v -651.415710 -268.233002 -19.564518
v -651.415710 -274.255615 -24.131634
v -651.415710 -282.210266 -33.169945
v -651.415710 -293.718719 -47.189178
v -651.357483 -247.724274 5.431265
v -651.357483 -247.590317 8.428524
v -651.357483 -247.351578 11.866543
v -651.357483 -255.600357 11.903617
v -656.096130 -252.035492 14.342989
v -657.156128 -245.672089 16.762177
v -657.733032 -243.536911 16.815536
v -657.498779 -243.122238 19.017824
v -658.134644 -244.997833 19.885784
v -657.853882 -255.047256 25.770535
v -655.596436 -266.951599 35.341816
v -652.449463 -278.510498 45.299999
v -651.357483 -281.310486 49.299999
v -651.357483 -285.110474 54.299999
v -651.357483 -289.910461 60.299999
v -651.415710 -251.834961 -11.032970
v -651.415710 -335.007019 2.838929
v -651.357483 -334.906738 3.436049
v -651.415710 -335.198151 0.843987
v -651.415710 -335.346130 -2.300714
v -651.415710 -337.503113 -4.682497
v -651.415710 -341.006836 -5.272600
v -651.415710 -347.815887 -8.150442
v -651.415710 -342.985046 -9.896614
v -651.415710 -338.834961 -11.032970
v -651.415710 -337.812195 -11.676497
v -651.415710 -338.785889 -13.190520
v -651.415710 -340.764038 -12.969459
v -651.415710 -344.566467 -14.513221
v -651.415710 -349.481873 -15.969010
v -651.415710 -355.233002 -19.564518
v -651.415710 -361.255615 -24.131634
v -651.415710 -369.210266 -33.169945
v -651.415710 -380.718719 -47.189178
v -651.357483 -334.724274 5.431265
v -651.357483 -334.590332 8.428524
v -651.357483 -334.351563 11.866543
v -651.357483 -342.600342 11.903617
v -656.096130 -339.035492 14.342989
v -657.156128 -332.672089 16.762177
v -657.733032 -330.536926 16.815536
v -657.498779 -330.122253 19.017824
v -658.134644 -331.997833 19.885784
v -657.853882 -342.047241 25.770535
v -655.596436 -353.951599 35.341816
v -652.449463 -365.510498 45.299999
v -651.357483 -368.310486 49.299999
v -651.357483 -372.110474 54.299999
v -651.357483 -376.910461 60.299999
vt 0.568905 0.035881
vt 0.563309 0.035198
vt 0.563309 0.667510
vt 0.568905 0.668193
vt 0.544748 0.033872
vt 0.544748 0.666184
vt 0.516865 0.032898
vt 0.516865 0.665210
vt 0.482365 0.031101
vt 0.482365 0.663413
vt 0.450719 0.090690
vt 0.450719 0.723002
vt 0.430347 0.064781
vt 0.430347 0.697093
vt 0.409214 0.018532
vt 0.409214 0.650844
vt 0.408317 0.003014
vt 0.408317 0.635326
vt 0.387690 -0.000000
vt 0.387690 0.632312
vt 0.379993 0.013632
vt 0.379993 0.645944
vt 0.325081 0.086671
vt 0.325081 0.718983
vt 0.234700 0.173191
vt 0.234700 0.805503
vt 0.140192 0.257201
vt 0.140192 0.889513
vt 0.102332 0.277551
vt 0.102332 0.909863
vt 0.055817 0.305169
vt 0.055817 0.937481
vt -0.000000 0.340055
vt -0.000000 0.972367
vt 1.000000 0.367688
vt 0.869581 0.284045
vt 0.869581 0.916357
vt 1.000000 1.000000
vt 0.797821 0.226231
vt 0.797821 0.858543
vt 0.755334 0.182458
vt 0.755334 0.814770
vt 0.721885 0.140660
vt 0.721885 0.772971
vt 0.708342 0.104934
vt 0.708342 0.737246
vt 0.693981 0.077298
vt 0.693981 0.709610
vt 0.696037 0.062921
vt 0.696037 0.695233
vt 0.669645 0.055844
vt 0.669645 0.688156
vt 0.663642 0.063278
vt 0.663642 0.695590
vt 0.653071 0.093440
vt 0.653071 0.725752
vt 0.635425 0.128550
vt 0.635425 0.760863
vt 0.617678 0.079062
vt 0.617678 0.711374
vt 0.609033 0.053598
vt 0.609033 0.685910
vt 0.604250 0.038311
vt 0.604250 0.670623
vt 0.587464 0.037270
vt 0.587464 0.669582
vt 0.446745 0.470159
vt 0.441469 0.470548
vt 0.441469 0.808414
vt 0.446745 0.808025
vt 0.423865 0.471290
vt 0.423865 0.809156
vt 0.396114 0.471865
vt 0.396114 0.809731
vt 0.375097 0.480242
vt 0.375097 0.818108
vt 0.369889 0.493848
vt 0.369889 0.831715
vt 0.344494 0.520292
vt 0.344494 0.858158
vt 0.329085 0.501531
vt 0.329085 0.839397
vt 0.319057 0.485414
vt 0.319057 0.823280
vt 0.313379 0.481442
vt 0.300018 0.485223
vt 0.300018 0.823089
vt 0.313379 0.819308
vt 0.301969 0.492906
vt 0.301969 0.830772
vt 0.288346 0.507672
vt 0.288346 0.845538
vt 0.275500 0.526761
vt 0.275500 0.864627
vt 0.243771 0.549096
vt 0.243771 0.886962
vt 0.203469 0.572485
vt 0.203469 0.910351
vt 0.123711 0.603377
vt 0.123711 0.941243
vt -0.000000 0.648070
vt -0.000000 0.985936
vt 0.464352 0.469450
vt 0.464352 0.807316
vt 0.490801 0.468930
vt 0.490801 0.806796
vt 0.521140 0.468003
vt 0.521140 0.805869
vt 0.521467 0.500037
vt 0.521467 0.837903
vt 0.542383 0.486193
vt 0.542383 0.824059
vt 0.563595 0.461480
vt 0.563595 0.799346
vt 0.563992 0.453188
vt 0.563992 0.791054
vt 0.583456 0.451578
vt 0.583456 0.789444
vt 0.591033 0.458862
vt 0.591033 0.796728
vt 0.642999 0.497889
vt 0.642999 0.835755
vt 0.727750 0.544120
vt 0.727750 0.881986
vt 0.816030 0.589009
vt 0.816030 0.926875
vt 0.851468 0.599883
vt 0.851468 0.937749
vt 0.895590 0.614640
vt 0.895590 0.952506
vt 0.948537 0.633281
vt 0.948537 0.971147
vn 0.993913 0.000000 -0.110167
vn 0.993913 0.000000 -0.110167
vn 0.993913 0.000000 -0.110167
vn 0.993913 0.000000 -0.110167
vn 1.000000 0.000000 0.000000
vn 1.000000 0.000000 0.000000
vn 1.000000 0.000000 0.000000
vn 1.000000 0.000000 0.000000
vn 1.000000 0.000000 0.000000
vn 1.000000 0.000000 0.000000
vn 1.000000 0.000000 0.000000
vn 1.000000 0.000000 0.000000
vn 1.000000 0.000000 0.000000
vn 1.000000 0.000000 0.000000
vn 1.000000 0.000000 0.000000
vn 1.000000 0.000000 0.000000
vn 1.000000 0.000000 0.000000
vn 1.000000 0.000000 0.000000
vn 1.000000 0.000000 0.000000
vn 1.000000 0.000000 0.000000
vn 0.465504 0.000000 0.885046
vn 0.465504 0.000000 0.885046
vn 0.465504 0.000000 0.885046
vn 0.465504 0.000000 0.885046
vn 0.910855 0.000000 0.412726
vn 0.910855 0.000000 0.412726
vn 0.910855 0.000000 0.412726
vn 0.910855 0.000000 0.412726
vn 0.225088 0.000000 0.974339
vn 0.225088 0.000000 0.974339
vn 0.225088 0.000000 0.974339
vn 0.225088 0.000000 0.974339
vn 0.994390 0.000000 -0.105771
vn 0.994390 0.000000 -0.105771
vn 0.994390 0.000000 -0.105771
vn 0.994390 0.000000 -0.105771
vn 0.806675 0.000000 0.590995
vn 0.806675 0.000000 0.590995
vn 0.806675 0.000000 0.590995
vn 0.806675 0.000000 0.590995
vn 0.998864 0.000000 -0.047661
vn 0.998864 0.000000 -0.047661
vn 0.998864 0.000000 -0.047661
vn 0.998864 0.000000 -0.047661
vn 0.973295 0.000000 -0.229558
vn 0.973295 0.000000 -0.229558
vn 0.973295 0.000000 -0.229558
vn 0.973295 0.000000 -0.229558
vn 0.953521 0.000000 -0.301326
vn 0.953521 0.000000 -0.301326
vn 0.953521 0.000000 -0.301326
vn 0.953521 0.000000 -0.301326
vn 0.964696 0.000000 -0.263364
vn 0.964696 0.000000 -0.263364
vn 0.964696 0.000000 -0.263364
vn 0.964696 0.000000 -0.263364
vn 1.000000 0.000000 0.000000
vn 1.000000 0.000000 0.000000
vn 1.000000 0.000000 0.000000
vn 1.000000 0.000000 0.000000
vn 1.000000 0.000000 0.000000
vn 1.000000 0.000000 0.000000
vn 1.000000 0.000000 0.000000
vn 1.000000 0.000000 0.000000
vn 1.000000 0.000000 0.000000
vn 1.000000 0.000000 0.000000
vn 1.000000 0.000000 0.000000
vn 1.000000 0.000000 0.000000
vn 1.000000 0.000000 0.000000
vn 1.000000 0.000000 0.000000
vn 1.000000 0.000000 0.000000
vn 1.000000 0.000000 0.000000
vn 1.000000 0.000000 0.000000
vn 1.000000 0.000000 0.000000
vn 1.000000 0.000000 0.000000
vn 1.000000 0.000000 0.000000
vn 1.000000 0.000000 0.000000
vn 1.000000 0.000000 0.000000
vn 1.000000 0.000000 0.000000
vn 1.000000 0.000000 0.000000
vn 1.000000 0.000000 0.000000
vn 1.000000 0.000000 0.000000
vn 1.000000 0.000000 0.000000
vn 1.000000 0.000000 0.000000
vn 1.000000 0.000000 0.000000
vn 1.000000 0.000000 0.000000
vn 1.000000 0.000000 0.000000
vn 1.000000 0.000000 0.000000
vn -1.000000 0.000000 0.000000
vn -1.000000 0.000000 0.000000
vn -1.000000 0.000000 0.000000
vn -1.000000 0.000000 0.000000
vn 1.000000 0.000000 0.000000
vn 1.000000 0.000000 0.000000
vn 1.000000 0.000000 0.000000
vn 1.000000 0.000000 0.000000
vn 1.000000 0.000000 0.000000
vn 1.000000 0.000000 0.000000
vn 1.000000 0.000000 0.000000
vn 1.000000 0.000000 0.000000
vn 1.000000 0.000000 0.000000
vn 1.000000 0.000000 0.000000
vn 1.000000 0.000000 0.000000
vn 1.000000 0.000000 0.000000
vn 1.000000 0.000000 0.000000
vn 1.000000 0.000000 0.000000
vn 1.000000 0.000000 0.000000
vn 1.000000 0.000000 0.000000
vn 1.000000 0.000000 0.000000
vn 1.000000 0.000000 0.000000
vn 1.000000 0.000000 0.000000
vn 1.000000 0.000000 0.000000
vn 1.000000 0.000000 0.000000
vn 1.000000 0.000000 0.000000
vn 1.000000 0.000000 0.000000
vn 1.000000 0.000000 0.000000
vn 1.000000 0.000000 0.000000
vn 1.000000 0.000000 0.000000
vn 1.000000 0.000000 0.000000
vn 1.000000 0.000000 0.000000
vn 1.000000 0.000000 0.000000
vn 1.000000 0.000000 0.000000
vn 1.000000 0.000000 0.000000
vn 1.000000 0.000000 0.000000
vn 1.000000 0.000000 0.000000
vn 1.000000 0.000000 0.000000
vn 1.000000 0.000000 0.000000
vn 1.000000 0.000000 0.000000
vn -0.995279 0.000000 0.097054
vn -0.995279 0.000000 0.097054
vn -0.995279 0.000000 0.097054
vn -0.995279 0.000000 0.097054
vn -1.000000 0.000000 0.000000
vn -1.000000 0.000000 0.000000
vn -1.000000 0.000000 0.000000
vn -1.000000 0.000000 0.000000
vn -1.000000 0.000000 0.000000
vn -1.000000 0.000000 0.000000
vn -1.000000 0.000000 0.000000
vn -1.000000 0.000000 0.000000
vn -1.000000 0.000000 0.000000
vn -1.000000 0.000000 0.000000
vn -1.000000 0.000000 0.000000
vn -1.000000 0.000000 0.000000
vn -1.000000 0.000000 0.000000
vn -1.000000 0.000000 0.000000
vn -1.000000 0.000000 0.000000
vn -1.000000 0.000000 0.000000
vn -1.000000 0.000000 0.000000
vn -1.000000 0.000000 0.000000
vn -1.000000 0.000000 0.000000
vn -1.000000 0.000000 0.000000
vn -1.000000 0.000000 0.000000
vn -1.000000 0.000000 0.000000
vn -1.000000 0.000000 0.000000
vn -1.000000 0.000000 0.000000
vn -1.000000 0.000000 0.000000
vn -1.000000 0.000000 0.000000
vn -1.000000 0.000000 0.000000
vn -1.000000 0.000000 0.000000
vn -1.000000 0.000000 0.000000
vn -1.000000 0.000000 0.000000
vn -1.000000 0.000000 0.000000
vn -1.000000 0.000000 0.000000
vn 1.000000 0.000000 0.000000
vn 1.000000 0.000000 0.000000
vn 1.000000 0.000000 0.000000
vn 1.000000 0.000000 0.000000
vn -1.000000 0.000000 0.000000
vn -1.000000 0.000000 0.000000
vn -1.000000 0.000000 0.000000
vn -1.000000 0.000000 0.000000
vn -1.000000 0.000000 0.000000
vn -1.000000 0.000000 0.000000
vn -1.000000 0.000000 0.000000
vn -1.000000 0.000000 0.000000
vn -1.000000 0.000000 0.000000
vn -1.000000 0.000000 0.000000
vn -1.000000 0.000000 0.000000
vn -1.000000 0.000000 0.000000
vn -1.000000 0.000000 0.000000
vn -1.000000 0.000000 0.000000
vn -1.000000 0.000000 0.000000
vn -1.000000 0.000000 0.000000
vn -1.000000 0.000000 0.000000
vn -1.000000 0.000000 0.000000
vn -1.000000 0.000000 0.000000
vn -1.000000 0.000000 0.000000
vn -1.000000 0.000000 0.000000
vn -1.000000 0.000000 0.000000
vn -1.000000 0.000000 0.000000
vn -1.000000 0.000000 0.000000
vn -1.000000 0.000000 0.000000
vn -1.000000 0.000000 0.000000
vn -1.000000 0.000000 0.000000
vn -1.000000 0.000000 0.000000
vn -1.000000 0.000000 0.000000
vn -1.000000 0.000000 0.000000
vn -1.000000 0.000000 0.000000
vn -1.000000 0.000000 0.000000
vn -1.000000 0.000000 0.000000
vn -1.000000 0.000000 0.000000
vn -1.000000 0.000000 0.000000
vn -1.000000 0.000000 0.000000
vn -1.000000 0.000000 0.000000
vn -1.000000 0.000000 0.000000
vn -1.000000 0.000000 0.000000
vn -1.000000 0.000000 0.000000
vn -0.457697 0.000000 -0.889108
vn -0.457697 0.000000 -0.889108
vn -0.457697 0.000000 -0.889108
vn -0.457697 0.000000 -0.889108
vn -0.915934 0.000000 -0.401328
vn -0.915934 0.000000 -0.401328
vn -0.915934 0.000000 -0.401328
vn -0.915934 0.000000 -0.401328
vn -0.092101 0.000000 -0.995750
vn -0.092101 0.000000 -0.995750
vn -0.092101 0.000000 -0.995750
vn -0.092101 0.000000 -0.995750
vn -0.994391 0.000000 0.105771
vn -0.994391 0.000000 0.105771
vn -0.994391 0.000000 0.105771
vn -0.994391 0.000000 0.105771
vn -0.806688 0.000000 -0.590977
vn -0.806689 0.000000 -0.590977
vn -0.806689 0.000000 -0.590977
vn -0.806688 0.000000 -0.590977
vn -0.998864 0.000000 0.047656
vn -0.998864 0.000000 0.047656
vn -0.998864 0.000000 0.047656
vn -0.998864 0.000000 0.047656
vn -0.973295 0.000000 0.229558
vn -0.973295 0.000000 0.229558
vn -0.973295 0.000000 0.229558
vn -0.973295 0.000000 0.229558
vn -0.953520 0.000000 0.301330
vn -0.953520 0.000000 0.301330
vn -0.953520 0.000000 0.301330
vn -0.953520 0.000000 0.301330
vn -0.964698 0.000000 0.263358
vn -0.964698 0.000000 0.263358
vn -0.964698 0.000000 0.263358
vn -0.964698 0.000000 0.263358
vn -1.000000 0.000000 0.000000
vn -1.000000 0.000000 0.000000
vn -1.000000 0.000000 0.000000
vn -1.000000 0.000000 0.000000
vn -1.000000 0.000000 0.000000
vn -1.000000 0.000000 0.000000
vn -1.000000 0.000000 0.000000
vn -1.000000 0.000000 0.000000
vn -1.000000 0.000000 0.000000
vn -1.000000 0.000000 0.000000
vn -1.000000 0.000000 0.000000
vn -1.000000 0.000000 0.000000
s off
g hillSide_03
f 2/1/1 1/2/2 34/3/3 35/4/4
f 1/2/5 3/5/6 36/6/7 34/3/8
f 3/5/9 4/7/10 37/8/11 36/6/12
f 4/7/13 5/9/14 38/10/15 37/8/16
f 5/9/17 6/11/18 39/12/19 38/10/20
f 6/11/21 7/13/22 40/14/23 39/12/24
f 7/13/25 8/15/26 41/16/27 40/14/28
f 8/15/29 9/17/30 42/18/31 41/16/32
f 9/17/33 10/19/34 43/20/35 42/18/36
f 10/19/37 11/21/38 44/22/39 43/20/40
f 11/21/41 12/23/42 45/24/43 44/22/44
f 12/23/45 13/25/46 46/26/47 45/24/48
f 13/25/49 14/27/50 47/28/51 46/26/52
f 14/27/53 15/29/54 48/30/55 47/28/56
f 15/29/57 16/31/58 49/32/59 48/30/60
f 16/31/61 17/33/62 50/34/63 49/32/64
f 19/35/65 18/36/66 51/37/67 52/38/68
f 18/36/69 20/39/70 53/40/71 51/37/72
f 20/39/73 21/41/74 54/42/75 53/40/76
f 21/41/77 22/43/78 55/44/79 54/42/80
f 22/43/81 23/45/82 56/46/83 55/44/84
f 23/45/85 24/47/86 57/48/87 56/46/88
f 24/47/89 25/49/90 58/50/91 57/48/92
f 25/49/93 26/51/94 59/52/95 58/50/96
f 26/51/97 27/53/98 60/54/99 59/52/100
f 27/53/101 28/55/102 61/56/103 60/54/104
f 28/55/105 29/57/106 62/58/107 61/56/108
f 29/57/109 30/59/110 63/60/111 62/58/112
f 30/59/113 31/61/114 64/62/115 63/60/116
f 31/61/117 32/63/118 65/64/119 64/62/120
f 32/63/121 33/65/122 66/66/123 65/64/124
f 33/65/125 2/1/126 35/4/127 66/66/128
f 67/67/129 68/68/130 100/69/131 101/70/132
f 68/68/133 69/71/134 102/72/135 100/69/136
f 69/71/137 70/73/138 103/74/139 102/72/140
f 70/73/141 71/75/142 104/76/143 103/74/144
f 71/75/145 72/77/146 105/78/147 104/76/148
f 72/77/149 73/79/150 106/80/151 105/78/152
f 73/79/153 74/81/154 107/82/155 106/80/156
f 74/81/157 99/83/158 108/84/159 107/82/160
f 75/85/161 76/86/162 110/87/163 109/88/164
f 76/86/165 77/89/166 111/90/167 110/87/168
f 77/89/169 78/91/170 112/92/171 111/90/172
f 78/91/173 79/93/174 113/94/175 112/92/176
f 79/93/177 80/95/178 114/96/179 113/94/180
f 80/95/181 81/97/182 115/98/183 114/96/184
f 81/97/185 82/99/186 116/100/187 115/98/188
f 82/99/189 83/101/190 117/102/191 116/100/192
f 84/103/193 67/67/194 101/70/195 118/104/196
f 85/105/197 84/103/198 118/104/199 119/106/200
f 86/107/201 85/105/202 119/106/203 120/108/204
f 87/109/205 86/107/206 120/108/207 121/110/208
f 88/111/209 87/109/210 121/110/211 122/112/212
f 89/113/213 88/111/214 122/112/215 123/114/216
f 90/115/217 89/113/218 123/114/219 124/116/220
f 91/117/221 90/115/222 124/116/223 125/118/224
f 92/119/225 91/117/226 125/118/227 126/120/228
f 93/121/229 92/119/230 126/120/231 127/122/232
f 94/123/233 93/121/234 127/122/235 128/124/236
f 95/125/237 94/123/238 128/124/239 129/126/240
f 96/127/241 95/125/242 129/126/243 130/128/244
f 97/129/245 96/127/246 130/128/247 131/130/248
f 98/131/249 97/129/250 131/130/251 132/132/252
f 99/83/253 75/85/254 109/88/255 108/84/256
