# This file uses meters as units for non-parametric coordinates.

g default
v 61.611389 4.118773 0.300000
v 61.612492 4.018779 -0.300000
v -81.997726 -40.783089 0.300000
v -82.034142 -40.876221 -0.300000
v 61.612492 3.803113 -1.355575
v -82.034142 -41.091885 -1.030790
v 61.612492 2.866413 -4.320234
v -82.034142 -42.028587 -2.503652
v 61.612492 1.160372 -4.943323
v -82.034142 -43.734627 -3.126740
v 61.612492 -5.115473 -7.525538
v -82.034142 -49.982239 -5.708955
v 61.612492 -9.981221 -9.915568
v -82.034142 -54.876217 -10.683286
v 62.527180 -2.239828 -15.874090
v -82.927422 -40.792850 -13.182673
v 62.494240 -2.998955 -18.161528
v -82.963524 -41.624790 -18.161528
v 61.828758 -4.575931 -17.858009
v -82.081345 -48.046532 -17.858009
v 61.612492 -8.546428 -21.096300
v -82.034142 -53.441425 -21.096300
v 61.612492 -23.981220 -27.943773
v -82.034142 -68.876221 -27.943773
v 61.612492 -14.235188 -32.639843
v -82.034142 -59.130192 -32.639843
v 61.612492 -13.506063 -34.409233
v -82.034142 -58.401070 -34.409233
v 61.612492 -14.658536 -35.823685
v -82.034142 -59.553547 -35.823685
v 61.612492 -16.283867 -37.248604
v -82.034142 -61.178883 -37.248604
v 61.612492 -37.981216 -60.299999
v -82.034142 -82.876236 -60.299999
v 61.611389 3.953897 2.300000
v -81.997726 -40.947964 2.300000
v 61.611389 3.783189 5.300000
v -81.997726 -40.750893 5.300000
v 61.611389 4.579900 9.300000
v -81.997726 -40.321960 8.684573
v 69.069946 -5.081227 14.300000
v -74.539162 -49.983086 14.300000
v 69.330467 0.046300 17.389166
v -74.278648 -44.851929 17.389166
v 69.422272 6.630763 18.173601
v -74.186844 -38.271091 18.173601
v 69.703453 8.820778 17.335863
v -73.905663 -35.976406 20.399956
v 70.078812 9.506687 19.878931
v -73.530304 -35.345493 22.139021
v 69.871521 6.571197 22.773005
v -73.737595 -38.330658 22.773005
v 64.284111 -5.550799 27.586372
v -79.325005 -50.452648 27.586372
v 61.611389 -24.681229 42.299999
v -81.997726 -69.583084 42.299999
v 61.611389 -26.481228 45.299999
v -81.997726 -71.383087 45.299999
v 61.611389 -29.281227 49.299999
v -81.997726 -74.183090 49.299999
v 61.611389 -33.081226 54.299999
v -81.997726 -77.983093 54.299999
v 61.611389 -37.881226 60.299999
v -81.997726 -82.783096 60.299999
v 61.612492 -17.736889 -29.987854
v -82.034142 -62.631889 -29.987854
v 61.891705 -2.835899 -15.108498
v -82.169365 -45.663761 -12.599411
v 61.612492 -16.263824 -24.556099
v -82.034142 -61.158821 -24.556099
v 61.671562 -6.247746 -18.952631
v -82.034142 -50.792343 -18.952631
v 69.376373 3.288541 17.828485
v -74.232742 -41.611504 17.828485
v 61.611389 -82.881226 0.300000
v 61.612492 -82.981224 -0.300000
v -82.034142 -127.876221 -0.300000
v -81.997726 -127.783089 0.300000
v 61.612492 -83.196884 -1.355575
v -82.034142 -128.091888 -1.030790
v 61.612492 -84.133591 -4.320234
v -82.034142 -129.028595 -2.503652
v 61.612492 -85.839630 -4.943323
v -82.034142 -130.734619 -3.126740
v 61.612492 -92.115471 -7.525538
v -82.034142 -136.982239 -5.708955
v 61.612492 -96.981224 -9.915568
v -82.034142 -141.876221 -10.683286
v 61.891705 -89.835899 -15.108498
v -82.169365 -132.663757 -12.599411
v 62.527180 -89.239830 -15.874090
v 62.494240 -89.998955 -18.161528
v -82.927422 -127.792847 -13.182673
v -82.963524 -128.624786 -18.161528
v 61.828758 -91.575928 -17.858009
v -82.081345 -135.046539 -17.858009
v 61.671562 -93.247742 -18.952631
v -82.034142 -137.792343 -18.952631
v 61.612492 -95.546425 -21.096300
v 61.612492 -103.263824 -24.556099
v -82.034142 -140.441422 -21.096300
v -82.034142 -148.158813 -24.556099
v 61.612492 -110.981216 -27.943773
v 61.612492 -104.736893 -29.987854
v -82.034142 -155.876221 -27.943773
v -82.034142 -149.631897 -29.987854
v 61.612492 -101.235191 -32.639843
v 61.612492 -100.506065 -34.409233
v -82.034142 -146.130188 -32.639843
v -82.034142 -145.401062 -34.409233
v 61.612492 -101.658539 -35.823685
v -82.034142 -146.553543 -35.823685
v 61.612492 -103.283867 -37.248604
v -82.034142 -148.178879 -37.248604
v 61.612492 -124.981216 -60.299999
v -82.034142 -169.876236 -60.299999
v 61.611389 -83.046104 2.300000
v -81.997726 -127.947968 2.300000
v 61.611389 -83.216812 5.300000
v -81.997726 -127.750893 5.300000
v 61.611389 -82.420097 9.300000
v -81.997726 -127.321960 8.684573
v 69.069946 -92.081230 14.300000
v -74.539162 -136.983093 14.300000
v 69.330467 -86.953697 17.389166
v -74.278648 -131.851929 17.389166
v 69.376373 -83.711456 17.828485
v -74.232742 -128.611511 17.828485
v 69.422272 -80.369240 18.173601
v 69.703453 -78.179222 17.335863
v -74.186844 -125.271088 18.173601
v -73.905663 -122.976410 20.399956
v 70.078812 -77.493317 19.878931
v -73.530304 -122.345490 22.139021
v 69.871521 -80.428802 22.773005
v -73.737595 -125.330658 22.773005
v 64.284111 -92.550797 27.586372
v -79.325005 -137.452652 27.586372
v 61.611389 -111.681229 42.299999
v -81.997726 -156.583084 42.299999
v 61.611389 -113.481232 45.299999
v -81.997726 -158.383087 45.299999
v 61.611389 -116.281227 49.299999
v -81.997726 -161.183090 49.299999
v 61.611389 -120.081223 54.299999
v -81.997726 -164.983093 54.299999
v 61.611389 -124.881226 60.299999
v -81.997726 -169.783096 60.299999
vt 0.674691 0.030496
vt 0.677909 0.029940
vt 0.677909 0.513388
vt 0.674691 0.513943
vt 0.325401 0.279454
vt 0.322091 0.279971
vt 0.322091 0.763419
vt 0.325401 0.762902
vt 0.669024 0.031694
vt 0.669024 0.515142
vt 0.318168 0.281170
vt 0.318168 0.764618
vt 0.653109 0.036899
vt 0.653109 0.520347
vt 0.310261 0.286375
vt 0.310261 0.769823
vt 0.649765 0.046379
vt 0.649765 0.529827
vt 0.306917 0.295855
vt 0.306917 0.779303
vt 0.635903 0.081253
vt 0.635903 0.564701
vt 0.293055 0.330572
vt 0.293055 0.814020
vt 0.623073 0.108292
vt 0.623073 0.591740
vt 0.266352 0.357768
vt 0.266352 0.841216
vt 0.595881 0.068586
vt 0.595881 0.552034
vt 0.255734 0.306575
vt 0.255734 0.790023
vt 0.580971 0.069492
vt 0.593331 0.065274
vt 0.593331 0.548722
vt 0.580971 0.552940
vt 0.250742 0.279508
vt 0.223926 0.284131
vt 0.223926 0.767579
vt 0.250742 0.762956
vt 0.580967 0.078255
vt 0.580967 0.561703
vt 0.227721 0.319816
vt 0.227721 0.803264
vt 0.574705 0.087545
vt 0.574705 0.570993
vt 0.221960 0.335074
vt 0.221960 0.818522
vt 0.544480 0.143203
vt 0.563052 0.100319
vt 0.563052 0.583767
vt 0.544480 0.626651
vt 0.210453 0.349795
vt 0.191880 0.392679
vt 0.191880 0.876127
vt 0.210453 0.833243
vt 0.515321 0.151389
vt 0.526294 0.186088
vt 0.526294 0.669536
vt 0.515321 0.634837
vt 0.173694 0.435564
vt 0.162721 0.400865
vt 0.162721 0.884313
vt 0.173694 0.919012
vt 0.491586 0.127879
vt 0.501085 0.131931
vt 0.501085 0.615378
vt 0.491586 0.611327
vt 0.148485 0.381406
vt 0.138986 0.377355
vt 0.138986 0.860803
vt 0.148485 0.864854
vt 0.483993 0.134283
vt 0.483993 0.617731
vt 0.131393 0.383759
vt 0.131393 0.867207
vt 0.476344 0.143315
vt 0.476344 0.626763
vt 0.123744 0.392791
vt 0.123744 0.876239
vt 0.352600 0.263884
vt 0.352600 0.747332
vt 0.000000 0.513360
vt 0.000000 0.996808
vt 0.688645 0.030856
vt 0.688645 0.514304
vt 0.336138 0.280370
vt 0.336138 0.763818
vt 0.704750 0.031805
vt 0.704750 0.515253
vt 0.352242 0.279275
vt 0.352242 0.762723
vt 0.726223 0.027377
vt 0.726223 0.510825
vt 0.370411 0.276891
vt 0.370411 0.760339
vt 0.771372 0.081063
vt 0.771372 0.564511
vt 0.418864 0.330577
vt 0.418864 0.814025
vt 0.788594 0.052570
vt 0.788594 0.536018
vt 0.436087 0.302064
vt 0.436087 0.785512
vt 0.791065 0.034553
vt 0.791065 0.518001
vt 0.438558 0.284057
vt 0.438558 0.767505
vt 0.793031 0.015981
vt 0.789224 0.003811
vt 0.789224 0.487259
vt 0.793031 0.499429
vt 0.453165 0.252744
vt 0.440523 0.265495
vt 0.440523 0.748943
vt 0.453165 0.736192
vt 0.803797 -0.000000
vt 0.803797 0.483448
vt 0.463422 0.249238
vt 0.463422 0.732686
vt 0.818824 0.016312
vt 0.818824 0.499760
vt 0.466316 0.265826
vt 0.466316 0.749274
vt 0.830948 0.083672
vt 0.830948 0.567120
vt 0.478440 0.333186
vt 0.478440 0.816634
vt 0.903373 0.189978
vt 0.903373 0.673426
vt 0.550865 0.439492
vt 0.550865 0.922940
vt 0.919477 0.199980
vt 0.919477 0.683428
vt 0.566970 0.449494
vt 0.566970 0.932942
vt 0.940950 0.215539
vt 0.940950 0.698987
vt 0.588442 0.465053
vt 0.588442 0.948501
vt 0.967791 0.236656
vt 0.967791 0.720104
vt 0.615283 0.486170
vt 0.615283 0.969617
vt 1.000000 0.263329
vt 1.000000 0.746776
vt 0.647492 0.512843
vt 0.647492 0.996290
vn 0.999998 0.000000 0.001837
vn 0.999998 0.000000 0.001837
vn 0.999998 0.000000 0.001837
vn 0.999998 0.000000 0.001837
vn -0.998163 0.000000 0.060580
vn -0.998163 0.000000 0.060580
vn -0.998163 0.000000 0.060580
vn -0.998163 0.000000 0.060580
vn 1.000000 0.000000 0.000000
vn 1.000000 0.000000 0.000000
vn 1.000000 0.000000 0.000000
vn 1.000000 0.000000 0.000000
vn -1.000000 0.000000 0.000000
vn -1.000000 0.000000 0.000000
vn -1.000000 0.000000 0.000000
vn -1.000000 0.000000 0.000000
vn 1.000000 0.000000 0.000000
vn 1.000000 0.000000 0.000000
vn 1.000000 0.000000 0.000000
vn 1.000000 0.000000 0.000000
vn -1.000000 0.000000 0.000000
vn -1.000000 0.000000 0.000000
vn -1.000000 0.000000 0.000000
vn -1.000000 0.000000 0.000000
vn 1.000000 0.000000 0.000000
vn 1.000000 0.000000 0.000000
vn 1.000000 0.000000 0.000000
vn 1.000000 0.000000 0.000000
vn -1.000000 0.000000 0.000000
vn -1.000000 0.000000 0.000000
vn -1.000000 0.000000 0.000000
vn -1.000000 0.000000 0.000000
vn 1.000000 0.000000 0.000000
vn 1.000000 0.000000 0.000000
vn 1.000000 0.000000 0.000000
vn 1.000000 0.000000 0.000000
vn -1.000000 0.000000 0.000000
vn -1.000000 0.000000 0.000000
vn -1.000000 0.000000 0.000000
vn -1.000000 0.000000 0.000000
vn 1.000000 0.000000 0.000000
vn 1.000000 0.000000 0.000000
vn 1.000000 0.000000 0.000000
vn 1.000000 0.000000 0.000000
vn -1.000000 0.000000 0.000000
vn -1.000000 0.000000 0.000000
vn -1.000000 0.000000 0.000000
vn -1.000000 0.000000 0.000000
vn 0.998558 0.000000 0.053690
vn 0.998558 0.000000 0.053690
vn 0.998558 0.000000 0.053690
vn 0.998558 0.000000 0.053690
vn -0.997519 0.000000 0.070396
vn -0.997519 0.000000 0.070396
vn -0.997519 0.000000 0.070396
vn -0.997519 0.000000 0.070396
vn 0.999896 0.000000 -0.014399
vn 0.999896 0.000000 -0.014399
vn 0.999896 0.000000 -0.014399
vn 0.999896 0.000000 -0.014399
vn -0.999974 0.000000 0.007251
vn -0.999974 0.000000 0.007251
vn -0.999974 0.000000 0.007251
vn -0.999974 0.000000 0.007251
vn -0.414963 0.000000 -0.909838
vn -0.414963 0.000000 -0.909838
vn -0.414963 0.000000 -0.909838
vn -0.414963 0.000000 -0.909838
vn 0.325338 0.000000 -0.945598
vn 0.325338 0.000000 -0.945598
vn 0.325338 0.000000 -0.945598
vn 0.325338 0.000000 -0.945598
vn 0.989845 0.000000 -0.142149
vn 0.989845 0.000000 -0.142149
vn 0.989845 0.000000 -0.142149
vn 0.989845 0.000000 -0.142149
vn -0.999072 0.000000 -0.043083
vn -0.999072 0.000000 -0.043083
vn -0.999072 0.000000 -0.043083
vn -0.999072 0.000000 -0.043083
vn 1.000000 0.000000 0.000000
vn 1.000000 0.000000 0.000000
vn 1.000000 0.000000 0.000000
vn 1.000000 0.000000 0.000000
vn -1.000000 0.000000 0.000000
vn -1.000000 0.000000 0.000000
vn -1.000000 0.000000 0.000000
vn -1.000000 0.000000 0.000000
vn 1.000000 0.000000 0.000000
vn 1.000000 0.000000 0.000000
vn 1.000000 0.000000 0.000000
vn 1.000000 0.000000 0.000000
vn -1.000000 0.000000 0.000000
vn -1.000000 0.000000 0.000000
vn -1.000000 0.000000 0.000000
vn -1.000000 0.000000 0.000000
vn 1.000000 0.000000 0.000000
vn 1.000000 0.000000 0.000000
vn 1.000000 0.000000 0.000000
vn 1.000000 0.000000 0.000000
vn -1.000000 0.000000 0.000000
vn -1.000000 0.000000 0.000000
vn -1.000000 0.000000 0.000000
vn -1.000000 0.000000 0.000000
vn 1.000000 0.000000 0.000000
vn 1.000000 0.000000 0.000000
vn 1.000000 0.000000 0.000000
vn 1.000000 0.000000 0.000000
vn -1.000000 0.000000 0.000000
vn -1.000000 0.000000 0.000000
vn -1.000000 0.000000 0.000000
vn -1.000000 0.000000 0.000000
vn 1.000000 0.000000 0.000000
vn 1.000000 0.000000 0.000000
vn 1.000000 0.000000 0.000000
vn 1.000000 0.000000 0.000000
vn -1.000000 0.000000 0.000000
vn -1.000000 0.000000 0.000000
vn -1.000000 0.000000 0.000000
vn -1.000000 0.000000 0.000000
vn 1.000000 0.000000 0.000000
vn 1.000000 0.000000 0.000000
vn 1.000000 0.000000 0.000000
vn 1.000000 0.000000 0.000000
vn -1.000000 0.000000 0.000000
vn -1.000000 0.000000 0.000000
vn -1.000000 0.000000 0.000000
vn -1.000000 0.000000 0.000000
vn 1.000000 0.000000 0.000000
vn 1.000000 0.000000 0.000000
vn 1.000000 0.000000 0.000000
vn 1.000000 0.000000 0.000000
vn -1.000000 0.000000 0.000000
vn -1.000000 0.000000 0.000000
vn -1.000000 0.000000 0.000000
vn -1.000000 0.000000 0.000000
vn 1.000000 0.000000 0.000000
vn 1.000000 0.000000 0.000000
vn 1.000000 0.000000 0.000000
vn 1.000000 0.000000 0.000000
vn -1.000000 0.000000 0.000000
vn -1.000000 0.000000 0.000000
vn -1.000000 0.000000 0.000000
vn -1.000000 0.000000 0.000000
vn 1.000000 0.000000 0.000000
vn 1.000000 0.000000 0.000000
vn 1.000000 0.000000 0.000000
vn 1.000000 0.000000 0.000000
vn -1.000000 0.000000 0.000000
vn -1.000000 0.000000 0.000000
vn -1.000000 0.000000 0.000000
vn -1.000000 0.000000 0.000000
vn 0.556829 0.000000 -0.830628
vn 0.556828 0.000000 -0.830628
vn 0.556828 0.000000 -0.830628
vn 0.556828 0.000000 -0.830628
vn -0.601473 0.000000 0.798893
vn -0.601473 0.000000 0.798893
vn -0.601473 0.000000 0.798893
vn -0.601473 0.000000 0.798893
vn 0.996463 0.000000 -0.084035
vn 0.996463 0.000000 -0.084035
vn 0.996463 0.000000 -0.084035
vn 0.996463 0.000000 -0.084035
vn -0.996463 0.000000 0.084033
vn -0.996463 0.000000 0.084033
vn -0.996463 0.000000 0.084033
vn -0.996463 0.000000 0.084033
vn 0.994585 0.000000 -0.103928
vn 0.994585 0.000000 -0.103928
vn 0.994585 0.000000 -0.103928
vn 0.994585 0.000000 -0.103928
vn -0.994585 0.000000 0.103928
vn -0.994585 0.000000 0.103928
vn -0.994585 0.000000 0.103928
vn -0.994585 0.000000 0.103928
vn -0.948024 0.000000 -0.318198
vn -0.948024 0.000000 -0.318198
vn -0.948024 0.000000 -0.318198
vn -0.948024 0.000000 -0.318198
vn -0.992119 0.000000 0.125301
vn -0.992119 0.000000 0.125301
vn -0.992119 0.000000 0.125301
vn -0.992119 0.000000 0.125301
vn 0.989282 0.000000 -0.146019
vn 0.989282 0.000000 -0.146019
vn 0.989282 0.000000 -0.146019
vn 0.989282 0.000000 -0.146019
vn -0.977490 0.000000 0.210981
vn -0.977490 0.000000 0.210981
vn -0.977490 0.000000 0.210981
vn -0.977490 0.000000 0.210981
vn 0.997445 0.000000 0.071443
vn 0.997445 0.000000 0.071443
vn 0.997445 0.000000 0.071443
vn 0.997445 0.000000 0.071443
vn -0.950483 0.000000 -0.310776
vn -0.950483 0.000000 -0.310776
vn -0.950483 0.000000 -0.310776
vn -0.950483 0.000000 -0.310776
vn 0.652678 0.000000 0.757636
vn 0.652678 0.000000 0.757636
vn 0.652678 0.000000 0.757636
vn 0.652678 0.000000 0.757636
vn -0.652678 0.000000 -0.757636
vn -0.652678 0.000000 -0.757636
vn -0.652678 0.000000 -0.757636
vn -0.652678 0.000000 -0.757636
vn 0.983899 0.000000 0.178725
vn 0.983899 0.000000 0.178725
vn 0.983899 0.000000 0.178725
vn 0.983899 0.000000 0.178725
vn -0.983899 0.000000 -0.178725
vn -0.983899 0.000000 -0.178725
vn -0.983899 0.000000 -0.178725
vn -0.983899 0.000000 -0.178725
vn 1.000000 0.000000 0.000000
vn 1.000000 0.000000 0.000000
vn 1.000000 0.000000 0.000000
vn 1.000000 0.000000 0.000000
vn -1.000000 0.000000 0.000000
vn -1.000000 0.000000 0.000000
vn -1.000000 0.000000 0.000000
vn -1.000000 0.000000 0.000000
vn 1.000000 0.000000 0.000000
vn 1.000000 0.000000 0.000000
vn 1.000000 0.000000 0.000000
vn 1.000000 0.000000 0.000000
vn -1.000000 0.000000 0.000000
vn -1.000000 0.000000 0.000000
vn -1.000000 0.000000 0.000000
vn -1.000000 0.000000 0.000000
vn 1.000000 0.000000 0.000000
vn 1.000000 0.000000 0.000000
vn 1.000000 0.000000 0.000000
vn 1.000000 0.000000 0.000000
vn -1.000000 0.000000 0.000000
vn -1.000000 0.000000 0.000000
vn -1.000000 0.000000 0.000000
vn -1.000000 0.000000 0.000000
vn 1.000000 0.000000 0.000000
vn 1.000000 0.000000 0.000000
vn 1.000000 0.000000 0.000000
vn 1.000000 0.000000 0.000000
vn -1.000000 0.000000 0.000000
vn -1.000000 0.000000 0.000000
vn -1.000000 0.000000 0.000000
vn -1.000000 0.000000 0.000000
vn 1.000000 0.000000 0.000000
vn 1.000000 0.000000 0.000000
vn 1.000000 0.000000 0.000000
vn 1.000000 0.000000 0.000000
vn -1.000000 0.000000 0.000000
vn -1.000000 0.000000 0.000000
vn -1.000000 0.000000 0.000000
vn -1.000000 0.000000 0.000000
vn 0.769465 0.000000 0.638689
vn 0.769465 0.000000 0.638689
vn 0.769465 0.000000 0.638689
vn 0.769465 0.000000 0.638689
vn -0.609803 0.000000 0.792553
vn -0.609803 0.000000 0.792553
vn -0.609803 0.000000 0.792553
vn -0.609803 0.000000 0.792553
vn 1.000000 0.000000 0.000000
vn 1.000000 0.000000 0.000000
vn 1.000000 0.000000 0.000000
vn 1.000000 0.000000 0.000000
vn -1.000000 0.000000 0.000000
vn -1.000000 0.000000 0.000000
vn -1.000000 0.000000 0.000000
vn -1.000000 0.000000 0.000000
vn 0.999621 0.000000 -0.027545
vn 0.999621 0.000000 -0.027545
vn 0.999621 0.000000 -0.027545
vn 0.999621 0.000000 -0.027545
vn -1.000000 0.000000 0.000000
vn -1.000000 0.000000 0.000000
vn -1.000000 0.000000 0.000000
vn -1.000000 0.000000 0.000000
vn 0.991272 0.000000 -0.131834
vn 0.991272 0.000000 -0.131834
vn 0.991272 0.000000 -0.131834
vn 0.991272 0.000000 -0.131834
vn -0.991272 0.000000 0.131833
vn -0.991272 0.000000 0.131833
vn -0.991272 0.000000 0.131833
vn -0.991272 0.000000 0.131833
s off
g hillSide_01
f 2/1/1 1/2/2 75/3/3 76/4/4
f 3/5/5 4/6/6 77/7/7 78/8/8
f 5/9/9 2/1/10 76/4/11 79/10/12
f 4/6/13 6/11/14 80/12/15 77/7/16
f 7/13/17 5/9/18 79/10/19 81/14/20
f 6/11/21 8/15/22 82/16/23 80/12/24
f 9/17/25 7/13/26 81/14/27 83/18/28
f 8/15/29 10/19/30 84/20/31 82/16/32
f 11/21/33 9/17/34 83/18/35 85/22/36
f 10/19/37 12/23/38 86/24/39 84/20/40
f 13/25/41 11/21/42 85/22/43 87/26/44
f 12/23/45 14/27/46 88/28/47 86/24/48
f 67/29/49 13/25/50 87/26/51 89/30/52
f 14/27/53 68/31/54 90/32/55 88/28/56
f 17/33/57 15/34/58 91/35/59 92/36/60
f 16/37/61 18/38/62 94/39/63 93/40/64
f 19/41/65 17/33/66 92/36/67 95/42/68
f 18/38/69 20/43/70 96/44/71 94/39/72
f 71/45/73 19/41/74 95/42/75 97/46/76
f 20/43/77 72/47/78 98/48/79 96/44/80
f 69/49/81 21/50/82 99/51/83 100/52/84
f 22/53/85 70/54/86 102/55/87 101/56/88
f 65/57/89 23/58/90 103/59/91 104/60/92
f 24/61/93 66/62/94 106/63/95 105/64/96
f 27/65/97 25/66/98 107/67/99 108/68/100
f 26/69/101 28/70/102 110/71/103 109/72/104
f 29/73/105 27/65/106 108/68/107 111/74/108
f 28/70/109 30/75/110 112/76/111 110/71/112
f 31/77/113 29/73/114 111/74/115 113/78/116
f 30/75/117 32/79/118 114/80/119 112/76/120
f 33/81/121 31/77/122 113/78/123 115/82/124
f 32/79/125 34/83/126 116/84/127 114/80/128
f 1/2/129 35/85/130 117/86/131 75/3/132
f 36/87/133 3/5/134 78/8/135 118/88/136
f 35/85/137 37/89/138 119/90/139 117/86/140
f 38/91/141 36/87/142 118/88/143 120/92/144
f 37/89/145 39/93/146 121/94/147 119/90/148
f 40/95/149 38/91/150 120/92/151 122/96/152
f 39/93/153 41/97/154 123/98/155 121/94/156
f 42/99/157 40/95/158 122/96/159 124/100/160
f 41/97/161 43/101/162 125/102/163 123/98/164
f 44/103/165 42/99/166 124/100/167 126/104/168
f 43/101/169 73/105/170 127/106/171 125/102/172
f 74/107/173 44/103/174 126/104/175 128/108/176
f 45/109/177 47/110/178 130/111/179 129/112/180
f 48/113/181 46/114/182 131/115/183 132/116/184
f 47/110/185 49/117/186 133/118/187 130/111/188
f 50/119/189 48/113/190 132/116/191 134/120/192
f 49/117/193 51/121/194 135/122/195 133/118/196
f 52/123/197 50/119/198 134/120/199 136/124/200
f 51/121/201 53/125/202 137/126/203 135/122/204
f 54/127/205 52/123/206 136/124/207 138/128/208
f 53/125/209 55/129/210 139/130/211 137/126/212
f 56/131/213 54/127/214 138/128/215 140/132/216
f 55/129/217 57/133/218 141/134/219 139/130/220
f 58/135/221 56/131/222 140/132/223 142/136/224
f 57/133/225 59/137/226 143/138/227 141/134/228
f 60/139/229 58/135/230 142/136/231 144/140/232
f 59/137/233 61/141/234 145/142/235 143/138/236
f 62/143/237 60/139/238 144/140/239 146/144/240
f 61/141/241 63/145/242 147/146/243 145/142/244
f 64/147/245 62/143/246 146/144/247 148/148/248
f 25/66/249 65/57/250 104/60/251 107/67/252
f 66/62/253 26/69/254 109/72/255 106/63/256
f 15/34/257 67/29/258 89/30/259 91/35/260
f 68/31/261 16/37/262 93/40/263 90/32/264
f 23/58/265 69/49/266 100/52/267 103/59/268
f 70/54/269 24/61/270 105/64/271 102/55/272
f 21/50/273 71/45/274 97/46/275 99/51/276
f 72/47/277 22/53/278 101/56/279 98/48/280
f 73/105/281 45/109/282 129/112/283 127/106/284
f 46/114/285 74/107/286 128/108/287 131/115/288
