# This file uses meters as units for non-parametric coordinates.

g default
v -719.476685 -250.488098 -1.002762
v -719.476685 -251.874878 -0.863694
v -719.469727 -254.419403 2.911552
v -719.469727 -250.059677 1.207347
v -719.476685 -256.172211 -1.103906
v -719.469727 -260.229218 3.367536
v -719.476685 -261.835693 -2.040213
v -719.469727 -265.939240 3.982671
v -719.476685 -267.796448 -2.882386
v -719.469727 -273.167511 5.527472
vt 0.000000 0.000000
vt 0.000000 1.000000
vt 1.000000 1.000000
vt 1.000000 0.000000
vt 0.000000 0.000000
vt 0.000000 1.000000
vt 1.000000 1.000000
vt 1.000000 0.000000
vt 0.000000 0.000000
vt 0.000000 1.000000
vt 1.000000 1.000000
vt 1.000000 0.000000
vt 0.000000 0.000000
vt 0.000000 1.000000
vt 1.000000 1.000000
vt 1.000000 0.000000
vn -0.999996 0.000849 0.002622
vn -0.999996 0.000849 0.002622
vn -0.999996 0.000849 0.002622
vn -0.999996 0.000849 0.002622
vn -0.999999 0.000036 0.001717
vn -0.999999 0.000036 0.001717
vn -0.999999 0.000036 0.001717
vn -0.999999 0.000036 0.001717
vn -0.999999 -0.000032 0.001298
vn -0.999999 -0.000032 0.001298
vn -0.999999 -0.000032 0.001298
vn -0.999999 -0.000032 0.001298
vn -1.000000 0.000064 0.000999
vn -1.000000 0.000064 0.000999
vn -1.000000 0.000064 0.000999
vn -1.000000 0.000064 0.000999
s off
g railSide_02
f 1/1/1 2/2/2 3/3/3 4/4/4
f 2/5/5 5/6/6 6/7/7 3/8/8
f 5/9/9 7/10/10 8/11/11 6/12/12
f 7/13/13 9/14/14 10/15/15 8/16/16
