# This file uses meters as units for non-parametric coordinates.

v -599.926025 -163.349304 1.000000
v -599.939575 -163.448395 -1.000000
v -599.939575 -164.248398 -3.000000
v -599.939575 -166.048401 -6.000000
v -599.939575 -168.848404 -10.000000
v -599.939575 -172.648407 -15.000000
v -599.939575 -177.448410 -21.000000
v -599.939575 -178.248413 -23.000000
v -599.939575 -180.048416 -26.000000
v -599.939575 -182.848419 -30.000000
v -599.939575 -186.648422 -35.000000
v -599.939575 -191.448425 -41.000000
v -599.939575 -192.248428 -43.000000
v -599.939575 -194.048431 -46.000000
v -599.939575 -196.848434 -50.000000
v -599.939575 -200.648438 -55.000000
v -599.939575 -205.448441 -61.000000
v -599.939575 -206.248444 -63.000000
v -599.939575 -208.048447 -66.000000
v -599.939575 -210.848450 -70.000000
v -599.939575 -214.648453 -75.000000
v -599.939575 -219.448456 -81.000000
v -599.926025 -164.149307 3.000000
v -599.926025 -165.949310 6.000000
v -599.926025 -168.749313 10.000000
v -599.926025 -172.549316 15.000000
v -599.926025 -177.349319 21.000000
v -599.926025 -178.149323 23.000000
v -599.926025 -179.949326 26.000000
v -599.926025 -182.749329 30.000000
v -599.926025 -186.549332 35.000000
v -599.926025 -191.349335 41.000000
v -599.939575 -256.107544 -1.000000
v -599.926025 -256.107544 1.000000
v -599.939575 -256.107574 -3.000000
v -599.939575 -256.107605 -6.000000
v -599.939575 -256.107605 -10.000000
v -599.939575 -256.107666 -15.000000
v -599.939575 -256.107727 -21.000000
v -599.939575 -256.107727 -23.000000
v -599.939575 -256.107727 -26.000000
v -599.939575 -256.107758 -30.000000
v -599.939575 -256.107788 -35.000000
v -599.939575 -256.107849 -41.000000
v -599.939575 -256.107849 -43.000000
v -599.939575 -256.107880 -46.000000
v -599.939575 -256.107910 -50.000000
v -599.939575 -256.107941 -55.000000
v -599.939575 -256.108002 -61.000000
v -599.939575 -256.108002 -63.000000
v -599.939575 -256.108032 -66.000000
v -599.939575 -256.108032 -70.000000
v -599.939575 -256.108093 -75.000000
v -599.939575 -256.108124 -81.000000
v -599.926025 -256.107574 3.000000
v -599.926025 -256.107605 6.000000
v -599.926025 -256.107605 10.000000
v -599.926025 -256.107666 15.000000
v -599.926025 -256.107727 21.000000
v -599.926025 -256.107727 23.000000
v -599.926025 -256.107727 26.000000
v -599.926025 -256.107758 30.000000
v -599.926025 -256.107819 35.000000
v -599.926025 -256.107849 41.000000
vt 0.672131 0.000000
vt 0.655738 0.001025
vt 0.655738 0.420884
vt 0.672131 0.419859
vt 0.639344 0.009298
vt 0.639344 0.429157
vt 0.614754 0.027912
vt 0.614754 0.447771
vt 0.581967 0.056868
vt 0.581967 0.476727
vt 0.540984 0.096165
vt 0.540984 0.516024
vt 0.491803 0.145804
vt 0.491803 0.565663
vt 0.475410 0.154077
vt 0.475410 0.573936
vt 0.450820 0.172691
vt 0.450820 0.592550
vt 0.418033 0.201647
vt 0.418033 0.621506
vt 0.377049 0.240944
vt 0.377049 0.660803
vt 0.327869 0.290583
vt 0.327869 0.710442
vt 0.311476 0.298856
vt 0.311476 0.718715
vt 0.286885 0.317471
vt 0.286885 0.737330
vt 0.254098 0.346426
vt 0.254098 0.766285
vt 0.213115 0.385724
vt 0.213115 0.805583
vt 0.163934 0.435362
vt 0.163934 0.855221
vt 0.147541 0.443635
vt 0.147541 0.863494
vt 0.122951 0.462250
vt 0.122951 0.882109
vt 0.090164 0.491206
vt 0.090164 0.911065
vt 0.049180 0.530503
vt 0.049180 0.950361
vt 0.000000 0.580141
vt 0.000000 1.000000
vt 0.688525 0.008273
vt 0.688525 0.428132
vt 0.713115 0.026888
vt 0.713115 0.446747
vt 0.745902 0.055843
vt 0.745902 0.475702
vt 0.786885 0.095141
vt 0.786885 0.515000
vt 0.836066 0.144779
vt 0.836066 0.564638
vt 0.852459 0.153052
vt 0.852459 0.572911
vt 0.877049 0.171667
vt 0.877049 0.591526
vt 0.909836 0.200622
vt 0.909836 0.620482
vt 0.950820 0.239920
vt 0.950820 0.659778
vt 1.000000 0.289558
vt 1.000000 0.709417
vn -0.999977 0.000000 0.006775
vn -0.999977 0.000000 0.006775
vn -0.999977 0.000000 0.006775
vn -0.999977 0.000000 0.006775
vn -1.000000 0.000000 0.000000
vn -1.000000 0.000000 0.000000
vn -1.000000 0.000000 0.000000
vn -1.000000 0.000000 0.000000
vn -1.000000 0.000000 0.000000
vn -1.000000 0.000000 0.000000
vn -1.000000 0.000000 0.000000
vn -1.000000 0.000000 0.000000
vn -1.000000 0.000000 0.000000
vn -1.000000 0.000000 0.000000
vn -1.000000 0.000000 0.000000
vn -1.000000 0.000000 0.000000
vn -1.000000 0.000000 0.000000
vn -1.000000 0.000000 0.000000
vn -1.000000 0.000000 0.000000
vn -1.000000 0.000000 0.000000
vn -1.000000 0.000000 0.000000
vn -1.000000 0.000000 0.000000
vn -1.000000 0.000000 0.000000
vn -1.000000 0.000000 0.000000
vn -1.000000 0.000000 0.000000
vn -1.000000 0.000000 0.000000
vn -1.000000 0.000000 0.000000
vn -1.000000 0.000000 0.000000
vn -1.000000 0.000000 0.000000
vn -1.000000 0.000000 0.000000
vn -1.000000 0.000000 0.000000
vn -1.000000 0.000000 0.000000
vn -1.000000 0.000000 0.000000
vn -1.000000 0.000000 0.000000
vn -1.000000 0.000000 0.000000
vn -1.000000 0.000000 0.000000
vn -1.000000 0.000000 0.000000
vn -1.000000 0.000000 0.000000
vn -1.000000 0.000000 0.000000
vn -1.000000 0.000000 0.000000
vn -1.000000 0.000000 0.000000
vn -1.000000 0.000000 0.000000
vn -1.000000 0.000000 0.000000
vn -1.000000 0.000000 0.000000
vn -1.000000 0.000000 0.000000
vn -1.000000 0.000000 0.000000
vn -1.000000 0.000000 0.000000
vn -1.000000 0.000000 0.000000
vn -1.000000 0.000000 0.000000
vn -1.000000 0.000000 0.000000
vn -1.000000 0.000000 0.000000
vn -1.000000 0.000000 0.000000
vn -1.000000 0.000000 0.000000
vn -1.000000 0.000000 0.000000
vn -1.000000 0.000000 0.000000
vn -1.000000 0.000000 0.000000
vn -1.000000 0.000000 0.000000
vn -1.000000 0.000000 0.000000
vn -1.000000 0.000000 0.000000
vn -1.000000 0.000000 0.000000
vn -1.000000 0.000000 0.000000
vn -1.000000 0.000000 0.000000
vn -1.000000 0.000000 0.000000
vn -1.000000 0.000000 0.000000
vn -1.000000 0.000000 0.000000
vn -1.000000 0.000000 0.000000
vn -1.000000 0.000000 0.000000
vn -1.000000 0.000000 0.000000
vn -1.000000 0.000000 0.000000
vn -1.000000 0.000000 0.000000
vn -1.000000 0.000000 0.000000
vn -1.000000 0.000000 0.000000
vn -1.000000 0.000000 0.000000
vn -1.000000 0.000000 0.000000
vn -1.000000 0.000000 0.000000
vn -1.000000 0.000000 0.000000
vn -1.000000 0.000000 0.000000
vn -1.000000 0.000000 0.000000
vn -1.000000 0.000000 0.000000
vn -1.000000 0.000000 0.000000
vn -1.000000 0.000000 0.000000
vn -1.000000 0.000000 0.000000
vn -1.000000 0.000000 0.000000
vn -1.000000 0.000000 0.000000
vn -1.000000 0.000000 0.000000
vn -1.000000 0.000000 0.000000
vn -1.000000 0.000000 0.000000
vn -1.000000 0.000000 0.000000
vn -1.000000 0.000000 0.000000
vn -1.000000 0.000000 0.000000
vn -1.000000 0.000000 0.000000
vn -1.000000 0.000000 0.000000
vn -1.000000 0.000000 0.000000
vn -1.000000 0.000000 0.000000
vn -1.000000 0.000000 0.000000
vn -1.000000 0.000000 0.000000
vn -1.000000 0.000000 0.000000
vn -1.000000 0.000000 0.000000
vn -1.000000 0.000000 0.000000
vn -1.000000 0.000000 0.000000
vn -1.000000 0.000000 0.000000
vn -1.000000 0.000000 0.000000
vn -1.000000 0.000000 0.000000
vn -1.000000 0.000000 0.000000
vn -1.000000 0.000000 0.000000
vn -1.000000 0.000000 0.000000
vn -1.000000 0.000000 0.000000
vn -1.000000 0.000000 0.000000
vn -1.000000 0.000000 0.000000
vn -1.000000 0.000000 0.000000
vn -1.000000 0.000000 0.000000
vn -1.000000 0.000000 0.000000
vn -1.000000 0.000000 0.000000
vn -1.000000 0.000000 0.000000
vn -1.000000 0.000000 0.000000
vn -1.000000 0.000000 0.000000
vn -1.000000 0.000000 0.000000
vn -1.000000 0.000000 0.000000
vn -1.000000 0.000000 0.000000
vn -1.000000 0.000000 0.000000
vn -1.000000 0.000000 0.000000
vn -1.000000 0.000000 0.000000
vn -1.000000 0.000000 0.000000
vn -1.000000 0.000000 0.000000
s off
f 1/1/1 2/2/2 33/3/3 34/4/4
f 2/2/5 3/5/6 35/6/7 33/3/8
f 3/5/9 4/7/10 36/8/11 35/6/12
f 4/7/13 5/9/14 37/10/15 36/8/16
f 5/9/17 6/11/18 38/12/19 37/10/20
f 6/11/21 7/13/22 39/14/23 38/12/24
f 7/13/25 8/15/26 40/16/27 39/14/28
f 8/15/29 9/17/30 41/18/31 40/16/32
f 9/17/33 10/19/34 42/20/35 41/18/36
f 10/19/37 11/21/38 43/22/39 42/20/40
f 11/21/41 12/23/42 44/24/43 43/22/44
f 12/23/45 13/25/46 45/26/47 44/24/48
f 13/25/49 14/27/50 46/28/51 45/26/52
f 14/27/53 15/29/54 47/30/55 46/28/56
f 15/29/57 16/31/58 48/32/59 47/30/60
f 16/31/61 17/33/62 49/34/63 48/32/64
f 17/33/65 18/35/66 50/36/67 49/34/68
f 18/35/69 19/37/70 51/38/71 50/36/72
f 19/37/73 20/39/74 52/40/75 51/38/76
f 20/39/77 21/41/78 53/42/79 52/40/80
f 21/41/81 22/43/82 54/44/83 53/42/84
f 23/45/85 1/1/86 34/4/87 55/46/88
f 24/47/89 23/45/90 55/46/91 56/48/92
f 25/49/93 24/47/94 56/48/95 57/50/96
f 26/51/97 25/49/98 57/50/99 58/52/100
f 27/53/101 26/51/102 58/52/103 59/54/104
f 28/55/105 27/53/106 59/54/107 60/56/108
f 29/57/109 28/55/110 60/56/111 61/58/112
f 30/59/113 29/57/114 61/58/115 62/60/116
f 31/61/117 30/59/118 62/60/119 63/62/120
f 32/63/121 31/61/122 63/62/123 64/64/124
