# This file uses meters as units for non-parametric coordinates.

g default
v -84.828453 -31.625010 1.000000
v -84.904251 -31.690229 -1.000000
v -84.904251 -32.490231 -3.000000
v -84.904251 -34.290230 -6.000000
v -84.904251 -37.090229 -10.000000
v -84.904251 -40.890228 -15.000000
v -84.904251 -45.690228 -21.000000
v -84.904251 -46.490227 -23.000000
v -84.904251 -48.290226 -26.000000
v -84.904251 -51.090225 -30.000000
v -84.904251 -54.890224 -35.000000
v -84.904251 -59.690224 -41.000000
v -84.904251 -60.490223 -43.000000
v -84.904251 -62.290222 -46.000000
v -84.904251 -65.090225 -50.000000
v -84.904251 -68.890228 -55.000000
v -84.904251 -73.690231 -61.000000
v -84.904251 -74.490234 -63.000000
v -84.904251 -76.290237 -66.000000
v -84.904251 -79.090240 -70.000000
v -84.904251 -82.890244 -75.000000
v -84.904251 -87.690247 -81.000000
v -84.828453 -32.425011 3.000000
v -84.828453 -34.225010 6.000000
v -84.828453 -37.025009 10.000000
v -84.828453 -40.825008 15.000000
v -84.828453 -45.625008 21.000000
v -84.828453 -46.425007 23.000000
v -84.828453 -48.225006 26.000000
v -84.828453 -51.025005 30.000000
v -84.828453 -54.825005 35.000000
v -84.828453 -59.625004 41.000000
v -84.904251 -89.690231 -1.000000
v -84.828453 -89.625008 1.000000
v -84.904251 -90.490234 -3.000000
v -84.904251 -92.290230 -6.000000
v -84.904251 -95.090225 -10.000000
v -84.904251 -98.890228 -15.000000
v -84.904251 -103.690231 -21.000000
v -84.904251 -104.490227 -23.000000
v -84.904251 -106.290222 -26.000000
v -84.904251 -109.090225 -30.000000
v -84.904251 -112.890228 -35.000000
v -84.904251 -117.690224 -41.000000
v -84.904251 -118.490219 -43.000000
v -84.904251 -120.290222 -46.000000
v -84.904251 -123.090225 -50.000000
v -84.904251 -126.890228 -55.000000
v -84.904251 -131.690231 -61.000000
v -84.904251 -132.490234 -63.000000
v -84.904251 -134.290237 -66.000000
v -84.904251 -137.090240 -70.000000
v -84.904251 -140.890244 -75.000000
v -84.904251 -145.690247 -81.000000
v -84.828453 -90.425011 3.000000
v -84.828453 -92.225006 6.000000
v -84.828453 -95.025009 10.000000
v -84.828453 -98.825012 15.000000
v -84.828453 -103.625008 21.000000
v -84.828453 -104.425003 23.000000
v -84.828453 -106.225006 26.000000
v -84.828453 -109.025009 30.000000
v -84.828453 -112.825005 35.000000
v -84.828453 -117.625000 41.000000
vt 0.000000 0.000000
vt 1.000000 0.000000
vt 1.000000 1.000000
vt 0.000000 1.000000
vt 0.000000 0.000000
vt 1.000000 0.000000
vt 1.000000 1.000000
vt 0.000000 1.000000
vt 0.000000 0.000000
vt 1.000000 0.000000
vt 1.000000 1.000000
vt 0.000000 1.000000
vt 0.000000 0.000000
vt 1.000000 0.000000
vt 1.000000 1.000000
vt 0.000000 1.000000
vt 0.000000 0.000000
vt 1.000000 0.000000
vt 1.000000 1.000000
vt 0.000000 1.000000
vt 0.000000 0.000000
vt 1.000000 0.000000
vt 1.000000 1.000000
vt 0.000000 1.000000
vt 0.000000 0.000000
vt 1.000000 0.000000
vt 1.000000 1.000000
vt 0.000000 1.000000
vt 0.000000 0.000000
vt 1.000000 0.000000
vt 1.000000 1.000000
vt 0.000000 1.000000
vt 0.000000 0.000000
vt 1.000000 0.000000
vt 1.000000 1.000000
vt 0.000000 1.000000
vt 0.000000 0.000000
vt 1.000000 0.000000
vt 1.000000 1.000000
vt 0.000000 1.000000
vt 0.000000 0.000000
vt 1.000000 0.000000
vt 1.000000 1.000000
vt 0.000000 1.000000
vt 0.000000 0.000000
vt 1.000000 0.000000
vt 1.000000 1.000000
vt 0.000000 1.000000
vt 0.000000 0.000000
vt 1.000000 0.000000
vt 1.000000 1.000000
vt 0.000000 1.000000
vt 0.000000 0.000000
vt 1.000000 0.000000
vt 1.000000 1.000000
vt 0.000000 1.000000
vt 0.000000 0.000000
vt 1.000000 0.000000
vt 1.000000 1.000000
vt 0.000000 1.000000
vt 0.000000 0.000000
vt 1.000000 0.000000
vt 1.000000 1.000000
vt 0.000000 1.000000
vt 0.000000 0.000000
vt 1.000000 0.000000
vt 1.000000 1.000000
vt 0.000000 1.000000
vt 0.000000 0.000000
vt 1.000000 0.000000
vt 1.000000 1.000000
vt 0.000000 1.000000
vt 0.000000 0.000000
vt 1.000000 0.000000
vt 1.000000 1.000000
vt 0.000000 1.000000
vt 0.000000 0.000000
vt 1.000000 0.000000
vt 1.000000 1.000000
vt 0.000000 1.000000
vt 0.000000 0.000000
vt 1.000000 0.000000
vt 1.000000 1.000000
vt 0.000000 1.000000
vt 0.000000 0.000000
vt 1.000000 0.000000
vt 1.000000 1.000000
vt 0.000000 1.000000
vt 0.000000 0.000000
vt 1.000000 0.000000
vt 1.000000 1.000000
vt 0.000000 1.000000
vt 0.000000 0.000000
vt 1.000000 0.000000
vt 1.000000 1.000000
vt 0.000000 1.000000
vt 0.000000 0.000000
vt 1.000000 0.000000
vt 1.000000 1.000000
vt 0.000000 1.000000
vt 0.000000 0.000000
vt 1.000000 0.000000
vt 1.000000 1.000000
vt 0.000000 1.000000
vt 0.000000 0.000000
vt 1.000000 0.000000
vt 1.000000 1.000000
vt 0.000000 1.000000
vt 0.000000 0.000000
vt 1.000000 0.000000
vt 1.000000 1.000000
vt 0.000000 1.000000
vt 0.000000 0.000000
vt 1.000000 0.000000
vt 1.000000 1.000000
vt 0.000000 1.000000
vt 0.000000 0.000000
vt 1.000000 0.000000
vt 1.000000 1.000000
vt 0.000000 1.000000
vt 0.000000 0.000000
vt 1.000000 0.000000
vt 1.000000 1.000000
vt 0.000000 1.000000
vn -0.999283 0.000000 0.037872
vn -0.999283 0.000000 0.037872
vn -0.999283 0.000000 0.037872
vn -0.999283 0.000000 0.037872
vn -1.000000 0.000000 0.000000
vn -1.000000 0.000000 0.000000
vn -1.000000 0.000000 0.000000
vn -1.000000 0.000000 0.000000
vn -1.000000 0.000000 0.000000
vn -1.000000 0.000000 0.000000
vn -1.000000 0.000000 0.000000
vn -1.000000 0.000000 0.000000
vn -1.000000 0.000000 0.000000
vn -1.000000 0.000000 0.000000
vn -1.000000 0.000000 0.000000
vn -1.000000 0.000000 0.000000
vn -1.000000 0.000000 0.000000
vn -1.000000 0.000000 0.000000
vn -1.000000 0.000000 0.000000
vn -1.000000 0.000000 0.000000
vn -1.000000 0.000000 0.000000
vn -1.000000 0.000000 0.000000
vn -1.000000 0.000000 0.000000
vn -1.000000 0.000000 0.000000
vn -1.000000 0.000000 0.000000
vn -1.000000 0.000000 0.000000
vn -1.000000 0.000000 0.000000
vn -1.000000 0.000000 0.000000
vn -1.000000 0.000000 0.000000
vn -1.000000 0.000000 0.000000
vn -1.000000 0.000000 0.000000
vn -1.000000 0.000000 0.000000
vn -1.000000 0.000000 0.000000
vn -1.000000 0.000000 0.000000
vn -1.000000 0.000000 0.000000
vn -1.000000 0.000000 0.000000
vn -1.000000 0.000000 0.000000
vn -1.000000 0.000000 0.000000
vn -1.000000 0.000000 0.000000
vn -1.000000 0.000000 0.000000
vn -1.000000 0.000000 0.000000
vn -1.000000 0.000000 0.000000
vn -1.000000 0.000000 0.000000
vn -1.000000 0.000000 0.000000
vn -1.000000 0.000000 0.000000
vn -1.000000 0.000000 0.000000
vn -1.000000 0.000000 0.000000
vn -1.000000 0.000000 0.000000
vn -1.000000 0.000000 0.000000
vn -1.000000 0.000000 0.000000
vn -1.000000 0.000000 0.000000
vn -1.000000 0.000000 0.000000
vn -1.000000 0.000000 0.000000
vn -1.000000 0.000000 0.000000
vn -1.000000 0.000000 0.000000
vn -1.000000 0.000000 0.000000
vn -1.000000 0.000000 0.000000
vn -1.000000 0.000000 0.000000
vn -1.000000 0.000000 0.000000
vn -1.000000 0.000000 0.000000
vn -1.000000 0.000000 0.000000
vn -1.000000 0.000000 0.000000
vn -1.000000 0.000000 0.000000
vn -1.000000 0.000000 0.000000
vn -1.000000 0.000000 0.000000
vn -1.000000 0.000000 0.000000
vn -1.000000 0.000000 0.000000
vn -1.000000 0.000000 0.000000
vn -1.000000 0.000000 0.000000
vn -1.000000 0.000000 0.000000
vn -1.000000 0.000000 0.000000
vn -1.000000 0.000000 0.000000
vn -1.000000 0.000000 0.000000
vn -1.000000 0.000000 0.000000
vn -1.000000 0.000000 0.000000
vn -1.000000 0.000000 0.000000
vn -1.000000 0.000000 0.000000
vn -1.000000 0.000000 0.000000
vn -1.000000 0.000000 0.000000
vn -1.000000 0.000000 0.000000
vn -1.000000 0.000000 0.000000
vn -1.000000 0.000000 0.000000
vn -1.000000 0.000000 0.000000
vn -1.000000 0.000000 0.000000
vn -1.000000 0.000000 0.000000
vn -1.000000 0.000000 0.000000
vn -1.000000 0.000000 0.000000
vn -1.000000 0.000000 0.000000
vn -1.000000 0.000000 0.000000
vn -1.000000 0.000000 0.000000
vn -1.000000 0.000000 0.000000
vn -1.000000 0.000000 0.000000
vn -1.000000 0.000000 0.000000
vn -1.000000 0.000000 0.000000
vn -1.000000 0.000000 0.000000
vn -1.000000 0.000000 0.000000
vn -1.000000 0.000000 0.000000
vn -1.000000 0.000000 0.000000
vn -1.000000 0.000000 0.000000
vn -1.000000 0.000000 0.000000
vn -1.000000 0.000000 0.000000
vn -1.000000 0.000000 0.000000
vn -1.000000 0.000000 0.000000
vn -1.000000 0.000000 0.000000
vn -1.000000 0.000000 0.000000
vn -1.000000 0.000000 0.000000
vn -1.000000 0.000000 0.000000
vn -1.000000 0.000000 0.000000
vn -1.000000 0.000000 0.000000
vn -1.000000 0.000000 0.000000
vn -1.000000 0.000000 0.000000
vn -1.000000 0.000000 0.000000
vn -1.000000 0.000000 0.000000
vn -1.000000 0.000000 0.000000
vn -1.000000 0.000000 0.000000
vn -1.000000 0.000000 0.000000
vn -1.000000 0.000000 0.000000
vn -1.000000 0.000000 0.000000
vn -1.000000 0.000000 0.000000
vn -1.000000 0.000000 0.000000
vn -1.000000 0.000000 0.000000
vn -1.000000 0.000000 0.000000
vn -1.000000 0.000000 0.000000
vn -1.000000 0.000000 0.000000
s off
g Spline_5_0_Level4:Spline_Hill_Hill1 Spline_5_0_Level4:Spline_Hill Spline_5_0_Level4:Spline
f 1/1/1 2/2/2 33/3/3 34/4/4
f 2/5/5 3/6/6 35/7/7 33/8/8
f 3/9/9 4/10/10 36/11/11 35/12/12
f 4/13/13 5/14/14 37/15/15 36/16/16
f 5/17/17 6/18/18 38/19/19 37/20/20
f 6/21/21 7/22/22 39/23/23 38/24/24
f 7/25/25 8/26/26 40/27/27 39/28/28
f 8/29/29 9/30/30 41/31/31 40/32/32
f 9/33/33 10/34/34 42/35/35 41/36/36
f 10/37/37 11/38/38 43/39/39 42/40/40
f 11/41/41 12/42/42 44/43/43 43/44/44
f 12/45/45 13/46/46 45/47/47 44/48/48
f 13/49/49 14/50/50 46/51/51 45/52/52
f 14/53/53 15/54/54 47/55/55 46/56/56
f 15/57/57 16/58/58 48/59/59 47/60/60
f 16/61/61 17/62/62 49/63/63 48/64/64
f 17/65/65 18/66/66 50/67/67 49/68/68
f 18/69/69 19/70/70 51/71/71 50/72/72
f 19/73/73 20/74/74 52/75/75 51/76/76
f 20/77/77 21/78/78 53/79/79 52/80/80
f 21/81/81 22/82/82 54/83/83 53/84/84
f 23/85/85 1/86/86 34/87/87 55/88/88
f 24/89/89 23/90/90 55/91/91 56/92/92
f 25/93/93 24/94/94 56/95/95 57/96/96
f 26/97/97 25/98/98 57/99/99 58/100/100
f 27/101/101 26/102/102 58/103/103 59/104/104
f 28/105/105 27/106/106 59/107/107 60/108/108
f 29/109/109 28/110/110 60/111/111 61/112/112
f 30/113/113 29/114/114 61/115/115 62/116/116
f 31/117/117 30/118/118 62/119/119 63/120/120
f 32/121/121 31/122/122 63/123/123 64/124/124
