# This file uses meters as units for non-parametric coordinates.

v -698.321289 -190.313004 1.000000
v -698.257385 -190.389999 -1.000000
v -698.257385 -191.190002 -3.000000
v -698.257385 -192.990005 -6.000000
v -698.257385 -195.790009 -10.000000
v -698.257385 -199.590012 -15.000000
v -698.257385 -204.390015 -21.000000
v -698.257385 -205.190018 -23.000000
v -698.257385 -206.990021 -26.000000
v -698.257385 -209.790024 -30.000000
v -698.257385 -213.590027 -35.000000
v -698.257385 -218.390030 -41.000000
v -698.257385 -219.190033 -43.000000
v -698.257385 -220.990036 -46.000000
v -698.257385 -223.790039 -50.000000
v -698.257385 -227.590042 -55.000000
v -698.257385 -232.390045 -61.000000
v -698.257385 -233.190048 -63.000000
v -698.257385 -234.990051 -66.000000
v -698.257385 -237.790054 -70.000000
v -698.257385 -241.590057 -75.000000
v -698.257385 -246.390060 -81.000000
v -698.321289 -191.113007 3.000000
v -698.321289 -192.913010 6.000000
v -698.321289 -195.713013 10.000000
v -698.321289 -199.513016 15.000000
v -698.321289 -204.313019 21.000000
v -698.321289 -205.113022 23.000000
v -698.321289 -206.913025 26.000000
v -698.321289 -209.713028 30.000000
v -698.321289 -213.513031 35.000000
v -698.321289 -218.313034 41.000000
v -698.321289 -280.724609 1.000000
v -698.257385 -280.724609 -1.000000
v -698.257385 -280.724609 -3.000000
v -698.257385 -280.724640 -6.000000
v -698.257385 -280.724670 -10.000000
v -698.257385 -280.724701 -15.000000
v -698.257385 -280.724731 -21.000000
v -698.257385 -280.724762 -23.000000
v -698.257385 -280.724792 -26.000000
v -698.257385 -280.724823 -30.000000
v -698.257385 -280.724854 -35.000000
v -698.257385 -280.724915 -41.000000
v -698.257385 -280.724915 -43.000000
v -698.257385 -280.724915 -46.000000
v -698.257385 -280.724945 -50.000000
v -698.257385 -280.724976 -55.000000
v -698.257385 -280.725037 -61.000000
v -698.257385 -280.725037 -63.000000
v -698.257385 -280.725067 -66.000000
v -698.257385 -280.725098 -70.000000
v -698.257385 -280.725159 -75.000000
v -698.257385 -280.725189 -81.000000
v -698.321289 -280.724609 3.000000
v -698.321289 -280.724640 6.000000
v -698.321289 -280.724670 10.000000
v -698.321289 -280.724701 15.000000
v -698.321289 -280.724731 21.000000
v -698.321289 -280.724762 23.000000
v -698.321289 -280.724792 26.000000
v -698.321289 -280.724792 30.000000
v -698.321289 -280.724854 35.000000
v -698.321289 -280.724884 41.000000
vt 0.344262 0.000796
vt 0.327869 -0.000000
vt 0.327869 0.419955
vt 0.344262 0.420751
vt 0.360655 0.009071
vt 0.360655 0.429026
vt 0.385246 0.027690
vt 0.385246 0.447645
vt 0.418033 0.056652
vt 0.418033 0.476607
vt 0.459016 0.095959
vt 0.459016 0.515913
vt 0.508196 0.145609
vt 0.508196 0.565563
vt 0.524590 0.153883
vt 0.524590 0.573838
vt 0.549180 0.172502
vt 0.549180 0.592457
vt 0.581967 0.201465
vt 0.581967 0.621419
vt 0.622951 0.240771
vt 0.622951 0.660726
vt 0.672131 0.290421
vt 0.672131 0.710375
vt 0.688524 0.298696
vt 0.688524 0.718651
vt 0.713115 0.317314
vt 0.713115 0.737269
vt 0.745902 0.346277
vt 0.745902 0.766232
vt 0.786885 0.385583
vt 0.786885 0.805538
vt 0.836066 0.435233
vt 0.836066 0.855188
vt 0.852459 0.443508
vt 0.852459 0.863463
vt 0.877049 0.462127
vt 0.877049 0.882082
vt 0.909836 0.491089
vt 0.909836 0.911044
vt 0.950820 0.530395
vt 0.950820 0.950350
vt 1.000000 0.580045
vt 1.000000 1.000000
vt 0.311476 0.008275
vt 0.311476 0.428230
vt 0.286885 0.026894
vt 0.286885 0.446848
vt 0.254099 0.055856
vt 0.254099 0.475811
vt 0.213115 0.095162
vt 0.213115 0.515117
vt 0.163935 0.144812
vt 0.163935 0.564767
vt 0.147541 0.153087
vt 0.147541 0.573042
vt 0.122951 0.171706
vt 0.122951 0.591661
vt 0.090164 0.200668
vt 0.090164 0.620623
vt 0.049180 0.239974
vt 0.049180 0.659929
vt 0.000000 0.289624
vt 0.000000 0.709579
vn 0.999490 0.000000 0.031936
vn 0.999490 0.000000 0.031936
vn 0.999490 0.000000 0.031936
vn 0.999490 0.000000 0.031936
vn 1.000000 0.000000 0.000000
vn 1.000000 0.000000 0.000000
vn 1.000000 0.000000 0.000000
vn 1.000000 0.000000 0.000000
vn 1.000000 0.000000 0.000000
vn 1.000000 0.000000 0.000000
vn 1.000000 0.000000 0.000000
vn 1.000000 0.000000 0.000000
vn 1.000000 0.000000 0.000000
vn 1.000000 0.000000 0.000000
vn 1.000000 0.000000 0.000000
vn 1.000000 0.000000 0.000000
vn 1.000000 0.000000 0.000000
vn 1.000000 0.000000 0.000000
vn 1.000000 0.000000 0.000000
vn 1.000000 0.000000 0.000000
vn 1.000000 0.000000 0.000000
vn 1.000000 0.000000 0.000000
vn 1.000000 0.000000 0.000000
vn 1.000000 0.000000 0.000000
vn 1.000000 0.000000 0.000000
vn 1.000000 0.000000 0.000000
vn 1.000000 0.000000 0.000000
vn 1.000000 0.000000 0.000000
vn 1.000000 0.000000 0.000000
vn 1.000000 0.000000 0.000000
vn 1.000000 0.000000 0.000000
vn 1.000000 0.000000 0.000000
vn 1.000000 0.000000 0.000000
vn 1.000000 0.000000 0.000000
vn 1.000000 0.000000 0.000000
vn 1.000000 0.000000 0.000000
vn 1.000000 0.000000 0.000000
vn 1.000000 0.000000 0.000000
vn 1.000000 0.000000 0.000000
vn 1.000000 0.000000 0.000000
vn 1.000000 0.000000 0.000000
vn 1.000000 0.000000 0.000000
vn 1.000000 0.000000 0.000000
vn 1.000000 0.000000 0.000000
vn 1.000000 0.000000 0.000000
vn 1.000000 0.000000 0.000000
vn 1.000000 0.000000 0.000000
vn 1.000000 0.000000 0.000000
vn 1.000000 0.000000 0.000000
vn 1.000000 0.000000 0.000000
vn 1.000000 0.000000 0.000000
vn 1.000000 0.000000 0.000000
vn 1.000000 0.000000 0.000000
vn 1.000000 0.000000 0.000000
vn 1.000000 0.000000 0.000000
vn 1.000000 0.000000 0.000000
vn 1.000000 0.000000 0.000000
vn 1.000000 0.000000 0.000000
vn 1.000000 0.000000 0.000000
vn 1.000000 0.000000 0.000000
vn 1.000000 0.000000 0.000000
vn 1.000000 0.000000 0.000000
vn 1.000000 0.000000 0.000000
vn 1.000000 0.000000 0.000000
vn 1.000000 0.000000 0.000000
vn 1.000000 0.000000 0.000000
vn 1.000000 0.000000 0.000000
vn 1.000000 0.000000 0.000000
vn 1.000000 0.000000 0.000000
vn 1.000000 0.000000 0.000000
vn 1.000000 0.000000 0.000000
vn 1.000000 0.000000 0.000000
vn 1.000000 0.000000 0.000000
vn 1.000000 0.000000 0.000000
vn 1.000000 0.000000 0.000000
vn 1.000000 0.000000 0.000000
vn 1.000000 0.000000 0.000000
vn 1.000000 0.000000 0.000000
vn 1.000000 0.000000 0.000000
vn 1.000000 0.000000 0.000000
vn 1.000000 0.000000 0.000000
vn 1.000000 0.000000 0.000000
vn 1.000000 0.000000 0.000000
vn 1.000000 0.000000 0.000000
vn 1.000000 0.000000 0.000000
vn 1.000000 0.000000 0.000000
vn 1.000000 0.000000 0.000000
vn 1.000000 0.000000 0.000000
vn 1.000000 0.000000 0.000000
vn 1.000000 0.000000 0.000000
vn 1.000000 0.000000 0.000000
vn 1.000000 0.000000 0.000000
vn 1.000000 0.000000 0.000000
vn 1.000000 0.000000 0.000000
vn 1.000000 0.000000 0.000000
vn 1.000000 0.000000 0.000000
vn 1.000000 0.000000 0.000000
vn 1.000000 0.000000 0.000000
vn 1.000000 0.000000 0.000000
vn 1.000000 0.000000 0.000000
vn 1.000000 0.000000 0.000000
vn 1.000000 0.000000 0.000000
vn 1.000000 0.000000 0.000000
vn 1.000000 0.000000 0.000000
vn 1.000000 0.000000 0.000000
vn 1.000000 0.000000 0.000000
vn 1.000000 0.000000 0.000000
vn 1.000000 0.000000 0.000000
vn 1.000000 0.000000 0.000000
vn 1.000000 0.000000 0.000000
vn 1.000000 0.000000 0.000000
vn 1.000000 0.000000 0.000000
vn 1.000000 0.000000 0.000000
vn 1.000000 0.000000 0.000000
vn 1.000000 0.000000 0.000000
vn 1.000000 0.000000 0.000000
vn 1.000000 0.000000 0.000000
vn 1.000000 0.000000 0.000000
vn 1.000000 0.000000 0.000000
vn 1.000000 0.000000 0.000000
vn 1.000000 0.000000 0.000000
vn 1.000000 0.000000 0.000000
vn 1.000000 0.000000 0.000000
vn 1.000000 0.000000 0.000000
s off
f 2/1/1 1/2/2 33/3/3 34/4/4
f 3/5/5 2/1/6 34/4/7 35/6/8
f 4/7/9 3/5/10 35/6/11 36/8/12
f 5/9/13 4/7/14 36/8/15 37/10/16
f 6/11/17 5/9/18 37/10/19 38/12/20
f 7/13/21 6/11/22 38/12/23 39/14/24
f 8/15/25 7/13/26 39/14/27 40/16/28
f 9/17/29 8/15/30 40/16/31 41/18/32
f 10/19/33 9/17/34 41/18/35 42/20/36
f 11/21/37 10/19/38 42/20/39 43/22/40
f 12/23/41 11/21/42 43/22/43 44/24/44
f 13/25/45 12/23/46 44/24/47 45/26/48
f 14/27/49 13/25/50 45/26/51 46/28/52
f 15/29/53 14/27/54 46/28/55 47/30/56
f 16/31/57 15/29/58 47/30/59 48/32/60
f 17/33/61 16/31/62 48/32/63 49/34/64
f 18/35/65 17/33/66 49/34/67 50/36/68
f 19/37/69 18/35/70 50/36/71 51/38/72
f 20/39/73 19/37/74 51/38/75 52/40/76
f 21/41/77 20/39/78 52/40/79 53/42/80
f 22/43/81 21/41/82 53/42/83 54/44/84
f 1/2/85 23/45/86 55/46/87 33/3/88
f 23/45/89 24/47/90 56/48/91 55/46/92
f 24/47/93 25/49/94 57/50/95 56/48/96
f 25/49/97 26/51/98 58/52/99 57/50/100
f 26/51/101 27/53/102 59/54/103 58/52/104
f 27/53/105 28/55/106 60/56/107 59/54/108
f 28/55/109 29/57/110 61/58/111 60/56/112
f 29/57/113 30/59/114 62/60/115 61/58/116
f 30/59/117 31/61/118 63/62/119 62/60/120
f 31/61/121 32/63/122 64/64/123 63/62/124
