# This file uses meters as units for non-parametric coordinates.

v -747.963928 -204.358200 1.000000
v -747.898315 -204.433701 -1.000000
v -747.963928 -205.158203 3.000000
v -747.963928 -206.958206 6.000000
v -747.963928 -209.758209 10.000000
v -747.963928 -213.558212 15.000000
v -747.963928 -218.358215 21.000000
v -747.963928 -219.158218 23.000000
v -747.963928 -220.958221 26.000000
v -747.963928 -223.758224 30.000000
v -747.963928 -227.558228 35.000000
v -747.963928 -232.358231 41.000000
v -747.898315 -205.233704 -3.000000
v -747.898315 -207.033707 -6.000000
v -747.898315 -209.833710 -10.000000
v -747.898315 -213.633713 -15.000000
v -747.898315 -218.433716 -21.000000
v -747.898315 -219.233719 -23.000000
v -747.898315 -221.033722 -26.000000
v -747.898315 -223.833725 -30.000000
v -747.898315 -227.633728 -35.000000
v -747.898315 -232.433731 -41.000000
v -747.898315 -233.233734 -43.000000
v -747.898315 -235.033737 -46.000000
v -747.898315 -237.833740 -50.000000
v -747.898315 -241.633743 -55.000000
v -747.898315 -246.433746 -61.000000
v -747.898315 -247.233749 -63.000000
v -747.898315 -249.033752 -66.000000
v -747.898315 -251.833755 -70.000000
v -747.898315 -255.633759 -75.000000
v -747.898315 -260.433746 -81.000000
v -747.963928 -306.760071 1.000000
v -747.898315 -306.760071 -1.000000
v -747.963928 -306.760101 3.000000
v -747.963928 -306.760132 6.000000
v -747.963928 -306.760132 10.000000
v -747.963928 -306.760193 15.000000
v -747.963928 -306.760223 21.000000
v -747.963928 -306.760254 23.000000
v -747.963928 -306.760284 26.000000
v -747.963928 -306.760315 30.000000
v -747.963928 -306.760315 35.000000
v -747.963928 -306.760376 41.000000
v -747.898315 -306.760101 -3.000000
v -747.898315 -306.760132 -6.000000
v -747.898315 -306.760162 -10.000000
v -747.898315 -306.760193 -15.000000
v -747.898315 -306.760254 -21.000000
v -747.898315 -306.760223 -23.000000
v -747.898315 -306.760254 -26.000000
v -747.898315 -306.760315 -30.000000
v -747.898315 -306.760345 -35.000000
v -747.898315 -306.760376 -41.000000
v -747.898315 -306.760406 -43.000000
v -747.898315 -306.760406 -46.000000
v -747.898315 -306.760437 -50.000000
v -747.898315 -306.760498 -55.000000
v -747.898315 -306.760529 -61.000000
v -747.898315 -306.760559 -63.000000
v -747.898315 -306.760529 -66.000000
v -747.898315 -306.760590 -70.000000
v -747.898315 -306.760620 -75.000000
v -747.898315 -306.760681 -81.000000
vt 0.344262 0.000781
vt 0.327869 0.000000
vt 0.327869 0.419961
vt 0.344262 0.420742
vt 0.311476 0.008275
vt 0.311476 0.428236
vt 0.286885 0.026894
vt 0.286885 0.446855
vt 0.254098 0.055857
vt 0.254098 0.475818
vt 0.213115 0.095164
vt 0.213115 0.515125
vt 0.163935 0.144814
vt 0.163935 0.564776
vt 0.147541 0.153090
vt 0.147541 0.573051
vt 0.122951 0.171709
vt 0.122951 0.591670
vt 0.090164 0.200671
vt 0.090164 0.620633
vt 0.049180 0.239978
vt 0.049180 0.659940
vt 0.000000 0.289629
vt 0.000000 0.709590
vt 0.360655 0.009056
vt 0.360655 0.429018
vt 0.385246 0.027675
vt 0.385246 0.447636
vt 0.418032 0.056638
vt 0.418032 0.476599
vt 0.459016 0.095945
vt 0.459016 0.515906
vt 0.508196 0.145595
vt 0.508196 0.565557
vt 0.524590 0.153871
vt 0.524590 0.573832
vt 0.549180 0.172489
vt 0.549180 0.592451
vt 0.581967 0.201452
vt 0.581967 0.621414
vt 0.622951 0.240759
vt 0.622951 0.660721
vt 0.672131 0.290410
vt 0.672131 0.710371
vt 0.688524 0.298685
vt 0.688524 0.718646
vt 0.713115 0.317304
vt 0.713115 0.737265
vt 0.745901 0.346267
vt 0.745901 0.766228
vt 0.786885 0.385574
vt 0.786885 0.805535
vt 0.836065 0.435224
vt 0.836065 0.855186
vt 0.852459 0.443499
vt 0.852459 0.863461
vt 0.877049 0.462118
vt 0.877049 0.882080
vt 0.909836 0.491081
vt 0.909836 0.911042
vt 0.950820 0.530388
vt 0.950820 0.950349
vt 1.000000 0.580039
vt 1.000000 1.000000
vn 0.999462 0.000000 0.032789
vn 0.999462 0.000000 0.032789
vn 0.999462 0.000000 0.032789
vn 0.999462 0.000000 0.032789
vn 1.000000 0.000000 0.000000
vn 1.000000 0.000000 0.000000
vn 1.000000 0.000000 0.000000
vn 1.000000 0.000000 0.000000
vn 1.000000 0.000000 0.000000
vn 1.000000 0.000000 0.000000
vn 1.000000 0.000000 0.000000
vn 1.000000 0.000000 0.000000
vn 1.000000 0.000000 0.000000
vn 1.000000 0.000000 0.000000
vn 1.000000 0.000000 0.000000
vn 1.000000 0.000000 0.000000
vn 1.000000 0.000000 0.000000
vn 1.000000 0.000000 0.000000
vn 1.000000 0.000000 0.000000
vn 1.000000 0.000000 0.000000
vn 1.000000 0.000000 0.000000
vn 1.000000 0.000000 0.000000
vn 1.000000 0.000000 0.000000
vn 1.000000 0.000000 0.000000
vn 1.000000 0.000000 0.000000
vn 1.000000 0.000000 0.000000
vn 1.000000 0.000000 0.000000
vn 1.000000 0.000000 0.000000
vn 1.000000 0.000000 0.000000
vn 1.000000 0.000000 0.000000
vn 1.000000 0.000000 0.000000
vn 1.000000 0.000000 0.000000
vn 1.000000 0.000000 0.000000
vn 1.000000 0.000000 0.000000
vn 1.000000 0.000000 0.000000
vn 1.000000 0.000000 0.000000
vn 1.000000 0.000000 0.000000
vn 1.000000 0.000000 0.000000
vn 1.000000 0.000000 0.000000
vn 1.000000 0.000000 0.000000
vn 1.000000 0.000000 0.000000
vn 1.000000 0.000000 0.000000
vn 1.000000 0.000000 0.000000
vn 1.000000 0.000000 0.000000
vn 1.000000 0.000000 0.000000
vn 1.000000 0.000000 0.000000
vn 1.000000 0.000000 0.000000
vn 1.000000 0.000000 0.000000
vn 1.000000 0.000000 0.000000
vn 1.000000 0.000000 0.000000
vn 1.000000 0.000000 0.000000
vn 1.000000 0.000000 0.000000
vn 1.000000 0.000000 0.000000
vn 1.000000 0.000000 0.000000
vn 1.000000 0.000000 0.000000
vn 1.000000 0.000000 0.000000
vn 1.000000 0.000000 0.000000
vn 1.000000 0.000000 0.000000
vn 1.000000 0.000000 0.000000
vn 1.000000 0.000000 0.000000
vn 1.000000 0.000000 0.000000
vn 1.000000 0.000000 0.000000
vn 1.000000 0.000000 0.000000
vn 1.000000 0.000000 0.000000
vn 1.000000 0.000000 0.000000
vn 1.000000 0.000000 0.000000
vn 1.000000 0.000000 0.000000
vn 1.000000 0.000000 0.000000
vn 1.000000 0.000000 0.000000
vn 1.000000 0.000000 0.000000
vn 1.000000 0.000000 0.000000
vn 1.000000 0.000000 0.000000
vn 1.000000 0.000000 0.000000
vn 1.000000 0.000000 0.000000
vn 1.000000 0.000000 0.000000
vn 1.000000 0.000000 0.000000
vn 1.000000 0.000000 0.000000
vn 1.000000 0.000000 0.000000
vn 1.000000 0.000000 0.000000
vn 1.000000 0.000000 0.000000
vn 1.000000 0.000000 0.000000
vn 1.000000 0.000000 0.000000
vn 1.000000 0.000000 0.000000
vn 1.000000 0.000000 0.000000
vn 1.000000 0.000000 0.000000
vn 1.000000 0.000000 0.000000
vn 1.000000 0.000000 0.000000
vn 1.000000 0.000000 0.000000
vn 1.000000 0.000000 0.000000
vn 1.000000 0.000000 0.000000
vn 1.000000 0.000000 0.000000
vn 1.000000 0.000000 0.000000
vn 1.000000 0.000000 0.000000
vn 1.000000 0.000000 0.000000
vn 1.000000 0.000000 0.000000
vn 1.000000 0.000000 0.000000
vn 1.000000 0.000000 0.000000
vn 1.000000 0.000000 0.000000
vn 1.000000 0.000000 0.000000
vn 1.000000 0.000000 0.000000
vn 1.000000 0.000000 0.000000
vn 1.000000 0.000000 0.000000
vn 1.000000 0.000000 0.000000
vn 1.000000 0.000000 0.000000
vn 1.000000 0.000000 0.000000
vn 1.000000 0.000000 0.000000
vn 1.000000 0.000000 0.000000
vn 1.000000 0.000000 0.000000
vn 1.000000 0.000000 0.000000
vn 1.000000 0.000000 0.000000
vn 1.000000 0.000000 0.000000
vn 1.000000 0.000000 0.000000
vn 1.000000 0.000000 0.000000
vn 1.000000 0.000000 0.000000
vn 1.000000 0.000000 0.000000
vn 1.000000 0.000000 0.000000
vn 1.000000 0.000000 0.000000
vn 1.000000 0.000000 0.000000
vn 1.000000 0.000000 0.000000
vn 1.000000 0.000000 0.000000
vn 1.000000 0.000000 0.000000
vn 1.000000 0.000000 0.000000
vn 1.000000 0.000000 0.000000
vn 1.000000 0.000000 0.000000
s off
f 2/1/1 1/2/2 33/3/3 34/4/4
f 1/2/5 3/5/6 35/6/7 33/3/8
f 3/5/9 4/7/10 36/8/11 35/6/12
f 4/7/13 5/9/14 37/10/15 36/8/16
f 5/9/17 6/11/18 38/12/19 37/10/20
f 6/11/21 7/13/22 39/14/23 38/12/24
f 7/13/25 8/15/26 40/16/27 39/14/28
f 8/15/29 9/17/30 41/18/31 40/16/32
f 9/17/33 10/19/34 42/20/35 41/18/36
f 10/19/37 11/21/38 43/22/39 42/20/40
f 11/21/41 12/23/42 44/24/43 43/22/44
f 13/25/45 2/1/46 34/4/47 45/26/48
f 14/27/49 13/25/50 45/26/51 46/28/52
f 15/29/53 14/27/54 46/28/55 47/30/56
f 16/31/57 15/29/58 47/30/59 48/32/60
f 17/33/61 16/31/62 48/32/63 49/34/64
f 18/35/65 17/33/66 49/34/67 50/36/68
f 19/37/69 18/35/70 50/36/71 51/38/72
f 20/39/73 19/37/74 51/38/75 52/40/76
f 21/41/77 20/39/78 52/40/79 53/42/80
f 22/43/81 21/41/82 53/42/83 54/44/84
f 23/45/85 22/43/86 54/44/87 55/46/88
f 24/47/89 23/45/90 55/46/91 56/48/92
f 25/49/93 24/47/94 56/48/95 57/50/96
f 26/51/97 25/49/98 57/50/99 58/52/100
f 27/53/101 26/51/102 58/52/103 59/54/104
f 28/55/105 27/53/106 59/54/107 60/56/108
f 29/57/109 28/55/110 60/56/111 61/58/112
f 30/59/113 29/57/114 61/58/115 62/60/116
f 31/61/117 30/59/118 62/60/119 63/62/120
f 32/63/121 31/61/122 63/62/123 64/64/124
