# This file uses meters as units for non-parametric coordinates.

v -311.458405 -90.333000 1.000000
v -311.458405 -91.133003 3.000000
v -311.458405 -92.933006 6.000000
v -311.458405 -95.733009 10.000000
v -311.458405 -99.533012 15.000000
v -311.458405 -104.333015 21.000000
v -311.458405 -105.133018 23.000000
v -311.458405 -106.933022 26.000000
v -311.458405 -109.733025 30.000000
v -311.458405 -113.533028 35.000000
v -311.458405 -118.333031 41.000000
v -311.476715 -90.431313 -1.000000
v -311.476715 -91.231316 -3.000000
v -311.476715 -93.031319 -6.000000
v -311.476715 -95.831322 -10.000000
v -311.476715 -99.631325 -15.000000
v -311.476715 -103.741737 -21.000000
v -311.476715 -102.549202 -23.000000
v -311.476715 -101.798119 -26.000000
v -311.476715 -103.386108 -30.000000
v -311.476715 -105.723465 -34.189003
v -311.476715 -111.793037 -39.358990
v -311.476715 -116.730118 -43.000000
v -311.476715 -120.206657 -46.377708
v -311.476715 -123.831352 -50.000000
v -311.476715 -124.631355 -52.000000
v -311.476715 -126.431358 -55.000000
v -311.476715 -129.231354 -59.000000
v -311.476715 -130.031357 -61.000000
v -311.476715 -131.831360 -64.000000
v -311.476715 -134.631363 -68.000000
v -311.476715 -135.431366 -70.000000
v -311.476715 -137.231369 -73.000000
v -311.476715 -140.031372 -77.000000
v -311.458405 -148.333008 1.000000
v -311.458405 -149.132996 3.000000
v -311.458405 -150.933014 6.000000
v -311.458405 -153.733002 10.000000
v -311.458405 -157.533020 15.000000
v -311.458405 -162.333008 21.000000
v -311.458405 -163.133026 23.000000
v -311.458405 -164.933014 26.000000
v -311.458405 -167.733032 30.000000
v -311.458405 -171.533020 35.000000
v -311.458405 -176.333038 41.000000
v -311.476715 -148.431305 -1.000000
v -311.476715 -149.231323 -3.000000
v -311.476715 -151.031311 -6.000000
v -311.476715 -153.831329 -10.000000
v -311.476715 -157.631317 -15.000000
v -311.476715 -161.741730 -21.000000
v -311.476715 -160.549194 -23.000000
v -311.476715 -159.798126 -26.000000
v -311.476715 -161.386108 -30.000000
v -311.476715 -163.723465 -34.189003
v -311.476715 -169.793030 -39.358990
v -311.476715 -174.730118 -43.000000
v -311.476715 -178.206665 -46.377708
v -311.476715 -181.831360 -50.000000
v -311.476715 -182.631348 -52.000000
v -311.476715 -184.431366 -55.000000
v -311.476715 -187.231354 -59.000000
v -311.476715 -188.031357 -61.000000
v -311.476715 -189.831360 -64.000000
v -311.476715 -192.631363 -68.000000
v -311.476715 -193.431366 -70.000000
v -311.476715 -195.231369 -73.000000
v -311.476715 -198.031372 -77.000000
vt 0.677966 0.007428
vt 0.661017 -0.000000
vt 0.661017 0.538541
vt 0.677966 0.545969
vt 0.703390 0.024142
vt 0.703390 0.562683
vt 0.737288 0.050140
vt 0.737288 0.588681
vt 0.779661 0.085424
vt 0.779661 0.623965
vt 0.830509 0.129993
vt 0.830509 0.668534
vt 0.847458 0.137421
vt 0.847458 0.675962
vt 0.872881 0.154134
vt 0.872881 0.692675
vt 0.906780 0.180133
vt 0.906780 0.718674
vt 0.949153 0.215417
vt 0.949153 0.753958
vt 1.000000 0.259986
vt 1.000000 0.798527
vt 0.644068 0.000913
vt 0.644068 0.539454
vt 0.627119 0.008341
vt 0.627119 0.546882
vt 0.601695 0.025054
vt 0.601695 0.563595
vt 0.567797 0.051053
vt 0.567797 0.589594
vt 0.525424 0.086337
vt 0.525424 0.624878
vt 0.474576 0.124503
vt 0.474576 0.663044
vt 0.457627 0.113430
vt 0.457627 0.651971
vt 0.432203 0.106456
vt 0.432203 0.644997
vt 0.398305 0.121201
vt 0.398305 0.659742
vt 0.362805 0.142903
vt 0.362805 0.681445
vt 0.318992 0.199260
vt 0.318992 0.737802
vt 0.288136 0.245102
vt 0.288136 0.783643
vt 0.259511 0.277383
vt 0.259511 0.815924
vt 0.228814 0.311039
vt 0.228814 0.849580
vt 0.211864 0.318467
vt 0.211864 0.857008
vt 0.186441 0.335180
vt 0.186441 0.873721
vt 0.152542 0.361179
vt 0.152542 0.899720
vt 0.135593 0.368607
vt 0.135593 0.907148
vt 0.110170 0.385320
vt 0.110170 0.923861
vt 0.076271 0.411319
vt 0.076271 0.949860
vt 0.059322 0.418747
vt 0.059322 0.957288
vt 0.033898 0.435460
vt 0.033898 0.974001
vt 0.000000 0.461459
vt 0.000000 1.000000
vn -1.000000 0.000000 0.000000
vn -1.000000 0.000000 0.000000
vn -1.000000 0.000000 0.000000
vn -1.000000 0.000000 0.000000
vn -1.000000 0.000000 0.000000
vn -1.000000 0.000000 0.000000
vn -1.000000 0.000000 0.000000
vn -1.000000 0.000000 0.000000
vn -1.000000 0.000000 0.000000
vn -1.000000 0.000000 0.000000
vn -1.000000 0.000000 0.000000
vn -1.000000 0.000000 0.000000
vn -1.000000 0.000000 0.000000
vn -1.000000 0.000000 0.000000
vn -1.000000 0.000000 0.000000
vn -1.000000 0.000000 0.000000
vn -1.000000 0.000000 0.000000
vn -1.000000 0.000000 0.000000
vn -1.000000 0.000000 0.000000
vn -1.000000 0.000000 0.000000
vn -1.000000 0.000000 0.000000
vn -1.000000 0.000000 0.000000
vn -1.000000 0.000000 0.000000
vn -1.000000 0.000000 0.000000
vn -1.000000 0.000000 0.000000
vn -1.000000 0.000000 0.000000
vn -1.000000 0.000000 0.000000
vn -1.000000 0.000000 0.000000
vn -1.000000 0.000000 0.000000
vn -1.000000 0.000000 0.000000
vn -1.000000 0.000000 0.000000
vn -1.000000 0.000000 0.000000
vn -1.000000 0.000000 0.000000
vn -1.000000 0.000000 0.000000
vn -1.000000 0.000000 0.000000
vn -1.000000 0.000000 0.000000
vn -1.000000 0.000000 0.000000
vn -1.000000 0.000000 0.000000
vn -1.000000 0.000000 0.000000
vn -1.000000 0.000000 0.000000
vn -0.999958 0.000000 0.009155
vn -0.999958 0.000000 0.009155
vn -0.999958 0.000000 0.009155
vn -0.999958 0.000000 0.009155
vn -1.000000 0.000000 0.000000
vn -1.000000 0.000000 0.000000
vn -1.000000 0.000000 0.000000
vn -1.000000 0.000000 0.000000
vn -1.000000 0.000000 0.000000
vn -1.000000 0.000000 0.000000
vn -1.000000 0.000000 0.000000
vn -1.000000 0.000000 0.000000
vn -1.000000 0.000000 0.000000
vn -1.000000 0.000000 0.000000
vn -1.000000 0.000000 0.000000
vn -1.000000 0.000000 0.000000
vn -1.000000 0.000000 0.000000
vn -1.000000 0.000000 0.000000
vn -1.000000 0.000000 0.000000
vn -1.000000 0.000000 0.000000
vn -1.000000 0.000000 0.000000
vn -1.000000 0.000000 0.000000
vn -1.000000 0.000000 0.000000
vn -1.000000 0.000000 0.000000
vn -1.000000 0.000000 0.000000
vn -1.000000 0.000000 0.000000
vn -1.000000 0.000000 0.000000
vn -1.000000 0.000000 0.000000
vn -1.000000 0.000000 0.000000
vn -1.000000 0.000000 0.000000
vn -1.000000 0.000000 0.000000
vn -1.000000 0.000000 0.000000
vn -1.000000 0.000000 0.000000
vn -1.000000 0.000000 0.000000
vn -1.000000 0.000000 0.000000
vn -1.000000 0.000000 0.000000
vn -1.000000 0.000000 0.000000
vn -1.000000 0.000000 0.000000
vn -1.000000 0.000000 0.000000
vn -1.000000 0.000000 0.000000
vn -1.000000 0.000000 0.000000
vn -1.000000 0.000000 0.000000
vn -1.000000 0.000000 0.000000
vn -1.000000 0.000000 0.000000
vn -1.000000 0.000000 0.000000
vn -1.000000 0.000000 0.000000
vn -1.000000 0.000000 0.000000
vn -1.000000 0.000000 0.000000
vn -1.000000 0.000000 0.000000
vn -1.000000 0.000000 0.000000
vn -1.000000 0.000000 0.000000
vn -1.000000 0.000000 0.000000
vn -1.000000 0.000000 0.000000
vn -1.000000 0.000000 0.000000
vn -1.000000 0.000000 0.000000
vn -1.000000 0.000000 0.000000
vn -1.000000 0.000000 0.000000
vn -1.000000 0.000000 0.000000
vn -1.000000 0.000000 0.000000
vn -1.000000 0.000000 0.000000
vn -1.000000 0.000000 0.000000
vn -1.000000 0.000000 0.000000
vn -1.000000 0.000000 0.000000
vn -1.000000 0.000000 0.000000
vn -1.000000 0.000000 0.000000
vn -1.000000 0.000000 0.000000
vn -1.000000 0.000000 0.000000
vn -1.000000 0.000000 0.000000
vn -1.000000 0.000000 0.000000
vn -1.000000 0.000000 0.000000
vn -1.000000 0.000000 0.000000
vn -1.000000 0.000000 0.000000
vn -1.000000 0.000000 0.000000
vn -1.000000 0.000000 0.000000
vn -1.000000 0.000000 0.000000
vn -1.000000 0.000000 0.000000
vn -1.000000 0.000000 0.000000
vn -1.000000 0.000000 0.000000
vn -1.000000 0.000000 0.000000
vn -1.000000 0.000000 0.000000
vn -1.000000 0.000000 0.000000
vn -1.000000 0.000000 0.000000
vn -1.000000 0.000000 0.000000
vn -1.000000 0.000000 0.000000
vn -1.000000 0.000000 0.000000
vn -1.000000 0.000000 0.000000
vn -1.000000 0.000000 0.000000
vn -1.000000 0.000000 0.000000
vn -1.000000 0.000000 0.000000
vn -1.000000 0.000000 0.000000
vn -1.000000 0.000000 0.000000
vn -1.000000 0.000000 0.000000
s off
f 2/1/1 1/2/2 35/3/3 36/4/4
f 3/5/5 2/1/6 36/4/7 37/6/8
f 4/7/9 3/5/10 37/6/11 38/8/12
f 5/9/13 4/7/14 38/8/15 39/10/16
f 6/11/17 5/9/18 39/10/19 40/12/20
f 7/13/21 6/11/22 40/12/23 41/14/24
f 8/15/25 7/13/26 41/14/27 42/16/28
f 9/17/29 8/15/30 42/16/31 43/18/32
f 10/19/33 9/17/34 43/18/35 44/20/36
f 11/21/37 10/19/38 44/20/39 45/22/40
f 1/2/41 12/23/42 46/24/43 35/3/44
f 12/23/45 13/25/46 47/26/47 46/24/48
f 13/25/49 14/27/50 48/28/51 47/26/52
f 14/27/53 15/29/54 49/30/55 48/28/56
f 15/29/57 16/31/58 50/32/59 49/30/60
f 16/31/61 17/33/62 51/34/63 50/32/64
f 17/33/65 18/35/66 52/36/67 51/34/68
f 18/35/69 19/37/70 53/38/71 52/36/72
f 19/37/73 20/39/74 54/40/75 53/38/76
f 20/39/77 21/41/78 55/42/79 54/40/80
f 21/41/81 22/43/82 56/44/83 55/42/84
f 22/43/85 23/45/86 57/46/87 56/44/88
f 23/45/89 24/47/90 58/48/91 57/46/92
f 24/47/93 25/49/94 59/50/95 58/48/96
f 25/49/97 26/51/98 60/52/99 59/50/100
f 26/51/101 27/53/102 61/54/103 60/52/104
f 27/53/105 28/55/106 62/56/107 61/54/108
f 28/55/109 29/57/110 63/58/111 62/56/112
f 29/57/113 30/59/114 64/60/115 63/58/116
f 30/59/117 31/61/118 65/62/119 64/60/120
f 31/61/121 32/63/122 66/64/123 65/62/124
f 32/63/125 33/65/126 67/66/127 66/64/128
f 33/65/129 34/67/130 68/68/131 67/66/132
