# This file uses meters as units for non-parametric coordinates.

v -728.784729 -198.287003 1.000000
v -728.816101 -198.382004 -1.000000
v -728.816101 -199.182007 -3.000000
v -728.816101 -200.982010 -6.000000
v -728.816101 -203.782013 -10.000000
v -728.816101 -207.582016 -15.000000
v -728.816101 -212.382019 -21.000000
v -728.816101 -213.182022 -23.000000
v -728.816101 -214.982025 -26.000000
v -728.816101 -217.782028 -30.000000
v -728.816101 -221.582031 -35.000000
v -728.816101 -226.382034 -41.000000
v -728.816101 -227.182037 -43.000000
v -728.816101 -228.982040 -46.000000
v -728.816101 -231.782043 -50.000000
v -728.816101 -235.582047 -55.000000
v -728.816101 -240.382050 -61.000000
v -728.816101 -241.182053 -63.000000
v -728.816101 -242.982056 -66.000000
v -728.816101 -245.782059 -70.000000
v -728.816101 -249.582062 -75.000000
v -728.816101 -254.382065 -81.000000
v -728.784729 -199.087006 3.000000
v -728.784729 -200.887009 6.000000
v -728.784729 -203.687012 10.000000
v -728.784729 -207.487015 15.000000
v -728.784729 -212.287018 21.000000
v -728.784729 -213.087021 23.000000
v -728.784729 -214.887024 26.000000
v -728.784729 -217.687027 30.000000
v -728.784729 -221.487030 35.000000
v -728.784729 -226.287033 41.000000
v -728.816101 -307.044891 -1.000000
v -728.784729 -307.044861 1.000000
v -728.816101 -307.044922 -3.000000
v -728.816101 -307.044922 -6.000000
v -728.816101 -307.044952 -10.000000
v -728.816101 -307.044983 -15.000000
v -728.816101 -307.045013 -21.000000
v -728.816101 -307.045044 -23.000000
v -728.816101 -307.045074 -26.000000
v -728.816101 -307.045074 -30.000000
v -728.816101 -307.045135 -35.000000
v -728.816101 -307.045166 -41.000000
v -728.816101 -307.045197 -43.000000
v -728.816101 -307.045197 -46.000000
v -728.816101 -307.045227 -50.000000
v -728.816101 -307.045258 -55.000000
v -728.816101 -307.045288 -61.000000
v -728.816101 -307.045349 -63.000000
v -728.816101 -307.045349 -66.000000
v -728.816101 -307.045349 -70.000000
v -728.816101 -307.045410 -75.000000
v -728.816101 -307.045471 -81.000000
v -728.784729 -307.044922 3.000000
v -728.784729 -307.044922 6.000000
v -728.784729 -307.044952 10.000000
v -728.784729 -307.044983 15.000000
v -728.784729 -307.045013 21.000000
v -728.784729 -307.045044 23.000000
v -728.784729 -307.045044 26.000000
v -728.784729 -307.045074 30.000000
v -728.784729 -307.045135 35.000000
v -728.784729 -307.045166 41.000000
vt 0.672131 0.000000
vt 0.655738 0.000982
vt 0.655738 0.420859
vt 0.672131 0.419877
vt 0.639344 0.009256
vt 0.639344 0.429133
vt 0.614754 0.027871
vt 0.614754 0.447748
vt 0.581967 0.056828
vt 0.581967 0.476705
vt 0.540984 0.096127
vt 0.540984 0.516004
vt 0.491803 0.145768
vt 0.491803 0.565644
vt 0.475410 0.154041
vt 0.475410 0.573918
vt 0.450820 0.172656
vt 0.450820 0.592533
vt 0.418033 0.201613
vt 0.418033 0.621490
vt 0.377049 0.240912
vt 0.377049 0.660789
vt 0.327869 0.290553
vt 0.327869 0.710429
vt 0.311475 0.298826
vt 0.311475 0.718703
vt 0.286885 0.317441
vt 0.286885 0.737318
vt 0.254098 0.346399
vt 0.254098 0.766275
vt 0.213115 0.385697
vt 0.213115 0.805574
vt 0.163934 0.435338
vt 0.163934 0.855215
vt 0.147541 0.443612
vt 0.147541 0.863488
vt 0.122951 0.462227
vt 0.122951 0.882103
vt 0.090164 0.491184
vt 0.090164 0.911060
vt 0.049180 0.530483
vt 0.049180 0.950359
vt 0.000000 0.580123
vt 0.000000 1.000000
vt 0.688524 0.008273
vt 0.688524 0.428150
vt 0.713115 0.026889
vt 0.713115 0.446765
vt 0.745902 0.055846
vt 0.745902 0.475723
vt 0.786885 0.095145
vt 0.786885 0.515021
vt 0.836066 0.144785
vt 0.836066 0.564662
vt 0.852459 0.153059
vt 0.852459 0.572935
vt 0.877049 0.171674
vt 0.877049 0.591551
vt 0.909836 0.200631
vt 0.909836 0.620507
vt 0.950820 0.239930
vt 0.950820 0.659806
vt 1.000000 0.289570
vt 1.000000 0.709447
vn -0.999877 0.000000 0.015684
vn -0.999877 0.000000 0.015684
vn -0.999877 0.000000 0.015684
vn -0.999877 0.000000 0.015684
vn -1.000000 0.000000 0.000000
vn -1.000000 0.000000 0.000000
vn -1.000000 0.000000 0.000000
vn -1.000000 0.000000 0.000000
vn -1.000000 0.000000 0.000000
vn -1.000000 0.000000 0.000000
vn -1.000000 0.000000 0.000000
vn -1.000000 0.000000 0.000000
vn -1.000000 0.000000 0.000000
vn -1.000000 0.000000 0.000000
vn -1.000000 0.000000 0.000000
vn -1.000000 0.000000 0.000000
vn -1.000000 0.000000 0.000000
vn -1.000000 0.000000 0.000000
vn -1.000000 0.000000 0.000000
vn -1.000000 0.000000 0.000000
vn -1.000000 0.000000 0.000000
vn -1.000000 0.000000 0.000000
vn -1.000000 0.000000 0.000000
vn -1.000000 0.000000 0.000000
vn -1.000000 0.000000 0.000000
vn -1.000000 0.000000 0.000000
vn -1.000000 0.000000 0.000000
vn -1.000000 0.000000 0.000000
vn -1.000000 0.000000 0.000000
vn -1.000000 0.000000 0.000000
vn -1.000000 0.000000 0.000000
vn -1.000000 0.000000 0.000000
vn -1.000000 0.000000 0.000000
vn -1.000000 0.000000 0.000000
vn -1.000000 0.000000 0.000000
vn -1.000000 0.000000 0.000000
vn -1.000000 0.000000 0.000000
vn -1.000000 0.000000 0.000000
vn -1.000000 0.000000 0.000000
vn -1.000000 0.000000 0.000000
vn -1.000000 0.000000 0.000000
vn -1.000000 0.000000 0.000000
vn -1.000000 0.000000 0.000000
vn -1.000000 0.000000 0.000000
vn -1.000000 0.000000 0.000000
vn -1.000000 0.000000 0.000000
vn -1.000000 0.000000 0.000000
vn -1.000000 0.000000 0.000000
vn -1.000000 0.000000 0.000000
vn -1.000000 0.000000 0.000000
vn -1.000000 0.000000 0.000000
vn -1.000000 0.000000 0.000000
vn -1.000000 0.000000 0.000000
vn -1.000000 0.000000 0.000000
vn -1.000000 0.000000 0.000000
vn -1.000000 0.000000 0.000000
vn -1.000000 0.000000 0.000000
vn -1.000000 0.000000 0.000000
vn -1.000000 0.000000 0.000000
vn -1.000000 0.000000 0.000000
vn -1.000000 0.000000 0.000000
vn -1.000000 0.000000 0.000000
vn -1.000000 0.000000 0.000000
vn -1.000000 0.000000 0.000000
vn -1.000000 0.000000 0.000000
vn -1.000000 0.000000 0.000000
vn -1.000000 0.000000 0.000000
vn -1.000000 0.000000 0.000000
vn -1.000000 0.000000 0.000000
vn -1.000000 0.000000 0.000000
vn -1.000000 0.000000 0.000000
vn -1.000000 0.000000 0.000000
vn -1.000000 0.000000 0.000000
vn -1.000000 0.000000 0.000000
vn -1.000000 0.000000 0.000000
vn -1.000000 0.000000 0.000000
vn -1.000000 0.000000 0.000000
vn -1.000000 0.000000 0.000000
vn -1.000000 0.000000 0.000000
vn -1.000000 0.000000 0.000000
vn -1.000000 0.000000 0.000000
vn -1.000000 0.000000 0.000000
vn -1.000000 0.000000 0.000000
vn -1.000000 0.000000 0.000000
vn -1.000000 0.000000 0.000000
vn -1.000000 0.000000 0.000000
vn -1.000000 0.000000 0.000000
vn -1.000000 0.000000 0.000000
vn -1.000000 0.000000 0.000000
vn -1.000000 0.000000 0.000000
vn -1.000000 0.000000 0.000000
vn -1.000000 0.000000 0.000000
vn -1.000000 0.000000 0.000000
vn -1.000000 0.000000 0.000000
vn -1.000000 0.000000 0.000000
vn -1.000000 0.000000 0.000000
vn -1.000000 0.000000 0.000000
vn -1.000000 0.000000 0.000000
vn -1.000000 0.000000 0.000000
vn -1.000000 0.000000 0.000000
vn -1.000000 0.000000 0.000000
vn -1.000000 0.000000 0.000000
vn -1.000000 0.000000 0.000000
vn -1.000000 0.000000 0.000000
vn -1.000000 0.000000 0.000000
vn -1.000000 0.000000 0.000000
vn -1.000000 0.000000 0.000000
vn -1.000000 0.000000 0.000000
vn -1.000000 0.000000 0.000000
vn -1.000000 0.000000 0.000000
vn -1.000000 0.000000 0.000000
vn -1.000000 0.000000 0.000000
vn -1.000000 0.000000 0.000000
vn -1.000000 0.000000 0.000000
vn -1.000000 0.000000 0.000000
vn -1.000000 0.000000 0.000000
vn -1.000000 0.000000 0.000000
vn -1.000000 0.000000 0.000000
vn -1.000000 0.000000 0.000000
vn -1.000000 0.000000 0.000000
vn -1.000000 0.000000 0.000000
vn -1.000000 0.000000 0.000000
vn -1.000000 0.000000 0.000000
vn -1.000000 0.000000 0.000000
s off
f 1/1/1 2/2/2 33/3/3 34/4/4
f 2/2/5 3/5/6 35/6/7 33/3/8
f 3/5/9 4/7/10 36/8/11 35/6/12
f 4/7/13 5/9/14 37/10/15 36/8/16
f 5/9/17 6/11/18 38/12/19 37/10/20
f 6/11/21 7/13/22 39/14/23 38/12/24
f 7/13/25 8/15/26 40/16/27 39/14/28
f 8/15/29 9/17/30 41/18/31 40/16/32
f 9/17/33 10/19/34 42/20/35 41/18/36
f 10/19/37 11/21/38 43/22/39 42/20/40
f 11/21/41 12/23/42 44/24/43 43/22/44
f 12/23/45 13/25/46 45/26/47 44/24/48
f 13/25/49 14/27/50 46/28/51 45/26/52
f 14/27/53 15/29/54 47/30/55 46/28/56
f 15/29/57 16/31/58 48/32/59 47/30/60
f 16/31/61 17/33/62 49/34/63 48/32/64
f 17/33/65 18/35/66 50/36/67 49/34/68
f 18/35/69 19/37/70 51/38/71 50/36/72
f 19/37/73 20/39/74 52/40/75 51/38/76
f 20/39/77 21/41/78 53/42/79 52/40/80
f 21/41/81 22/43/82 54/44/83 53/42/84
f 23/45/85 1/1/86 34/4/87 55/46/88
f 24/47/89 23/45/90 55/46/91 56/48/92
f 25/49/93 24/47/94 56/48/95 57/50/96
f 26/51/97 25/49/98 57/50/99 58/52/100
f 27/53/101 26/51/102 58/52/103 59/54/104
f 28/55/105 27/53/106 59/54/107 60/56/108
f 29/57/109 28/55/110 60/56/111 61/58/112
f 30/59/113 29/57/114 61/58/115 62/60/116
f 31/61/117 30/59/118 62/60/119 63/62/120
f 32/63/121 31/61/122 63/62/123 64/64/124
