# This file uses meters as units for non-parametric coordinates.

v -1044.255981 -297.597900 1.000000
v -1044.286987 -297.693207 -1.000000
v -1044.286987 -298.493195 -3.000000
v -1044.286987 -300.293182 -6.000000
v -1044.286987 -303.093170 -10.000000
v -1044.286987 -306.893158 -15.000000
v -1044.286987 -311.693146 -21.000000
v -1044.286987 -312.493134 -23.000000
v -1044.286987 -314.293121 -26.000000
v -1044.286987 -317.093109 -30.000000
v -1044.286987 -320.893097 -35.000000
v -1044.286987 -325.693085 -41.000000
v -1044.286987 -326.493073 -43.000000
v -1044.286987 -328.293060 -46.000000
v -1044.286987 -331.093048 -50.000000
v -1044.286987 -334.893036 -55.000000
v -1044.286987 -339.693024 -61.000000
v -1044.286987 -340.493011 -63.000000
v -1044.286987 -342.292999 -66.000000
v -1044.286987 -345.092987 -70.000000
v -1044.286987 -348.892975 -75.000000
v -1044.286987 -353.692963 -81.000000
v -1044.255981 -298.397888 3.000000
v -1044.255981 -300.197876 6.000000
v -1044.255981 -302.997864 10.000000
v -1044.255981 -306.797852 15.000000
v -1044.255981 -311.597839 21.000000
v -1044.255981 -312.397827 23.000000
v -1044.255981 -314.197815 26.000000
v -1044.255981 -316.997803 30.000000
v -1044.255981 -320.797791 35.000000
v -1044.255981 -325.597778 41.000000
v -1044.286987 -395.750183 -1.000000
v -1044.255981 -395.750153 1.000000
v -1044.286987 -395.750153 -3.000000
v -1044.286987 -395.750183 -6.000000
v -1044.286987 -395.750244 -10.000000
v -1044.286987 -395.750275 -15.000000
v -1044.286987 -395.750305 -21.000000
v -1044.286987 -395.750305 -23.000000
v -1044.286987 -395.750336 -26.000000
v -1044.286987 -395.750366 -30.000000
v -1044.286987 -395.750427 -35.000000
v -1044.286987 -395.750488 -41.000000
v -1044.286987 -395.750488 -43.000000
v -1044.286987 -395.750488 -46.000000
v -1044.286987 -395.750519 -50.000000
v -1044.286987 -395.750580 -55.000000
v -1044.286987 -395.750580 -61.000000
v -1044.286987 -395.750610 -63.000000
v -1044.286987 -395.750610 -66.000000
v -1044.286987 -395.750671 -70.000000
v -1044.286987 -395.750671 -75.000000
v -1044.286987 -395.750732 -81.000000
v -1044.255981 -395.750183 3.000000
v -1044.255981 -395.750183 6.000000
v -1044.255981 -395.750214 10.000000
v -1044.255981 -395.750275 15.000000
v -1044.255981 -395.750336 21.000000
v -1044.255981 -395.750305 23.000000
v -1044.255981 -395.750336 26.000000
v -1044.255981 -395.750366 30.000000
v -1044.255981 -395.750427 35.000000
v -1044.255981 -395.750458 41.000000
vt 0.672131 0.000000
vt 0.655738 0.000986
vt 0.655738 0.420862
vt 0.672131 0.419877
vt 0.639344 0.009259
vt 0.639344 0.429136
vt 0.614754 0.027874
vt 0.614754 0.447751
vt 0.581967 0.056831
vt 0.581967 0.476707
vt 0.540984 0.096129
vt 0.540984 0.516006
vt 0.491803 0.145770
vt 0.491803 0.565647
vt 0.475410 0.154043
vt 0.475410 0.573920
vt 0.450820 0.172658
vt 0.450820 0.592535
vt 0.418033 0.201615
vt 0.418033 0.621492
vt 0.377049 0.240914
vt 0.377049 0.660791
vt 0.327869 0.290554
vt 0.327869 0.710431
vt 0.311475 0.298828
vt 0.311475 0.718704
vt 0.286885 0.317443
vt 0.286885 0.737319
vt 0.254098 0.346400
vt 0.254098 0.766276
vt 0.213115 0.385698
vt 0.213115 0.805575
vt 0.163934 0.435339
vt 0.163934 0.855216
vt 0.147541 0.443612
vt 0.147541 0.863489
vt 0.122951 0.462227
vt 0.122951 0.882104
vt 0.090164 0.491184
vt 0.090164 0.911061
vt 0.049180 0.530483
vt 0.049180 0.950360
vt 0.000000 0.580123
vt 0.000000 1.000000
vt 0.688524 0.008273
vt 0.688524 0.428150
vt 0.713115 0.026888
vt 0.713115 0.446765
vt 0.745902 0.055845
vt 0.745902 0.475722
vt 0.786885 0.095144
vt 0.786885 0.515021
vt 0.836066 0.144784
vt 0.836066 0.564661
vt 0.852459 0.153058
vt 0.852459 0.572934
vt 0.877049 0.171673
vt 0.877049 0.591549
vt 0.909836 0.200630
vt 0.909836 0.620506
vt 0.950820 0.239928
vt 0.950820 0.659805
vt 1.000000 0.289569
vt 1.000000 0.709445
vn -0.999880 0.000000 0.015501
vn -0.999880 0.000000 0.015501
vn -0.999880 0.000000 0.015501
vn -0.999880 0.000000 0.015501
vn -1.000000 0.000000 0.000000
vn -1.000000 0.000000 0.000000
vn -1.000000 0.000000 0.000000
vn -1.000000 0.000000 0.000000
vn -1.000000 0.000000 0.000000
vn -1.000000 0.000000 0.000000
vn -1.000000 0.000000 0.000000
vn -1.000000 0.000000 0.000000
vn -1.000000 0.000000 0.000000
vn -1.000000 0.000000 0.000000
vn -1.000000 0.000000 0.000000
vn -1.000000 0.000000 0.000000
vn -1.000000 0.000000 0.000000
vn -1.000000 0.000000 0.000000
vn -1.000000 0.000000 0.000000
vn -1.000000 0.000000 0.000000
vn -1.000000 0.000000 0.000000
vn -1.000000 0.000000 0.000000
vn -1.000000 0.000000 0.000000
vn -1.000000 0.000000 0.000000
vn -1.000000 0.000000 0.000000
vn -1.000000 0.000000 0.000000
vn -1.000000 0.000000 0.000000
vn -1.000000 0.000000 0.000000
vn -1.000000 0.000000 0.000000
vn -1.000000 0.000000 0.000000
vn -1.000000 0.000000 0.000000
vn -1.000000 0.000000 0.000000
vn -1.000000 0.000000 0.000000
vn -1.000000 0.000000 0.000000
vn -1.000000 0.000000 0.000000
vn -1.000000 0.000000 0.000000
vn -1.000000 0.000000 0.000000
vn -1.000000 0.000000 0.000000
vn -1.000000 0.000000 0.000000
vn -1.000000 0.000000 0.000000
vn -1.000000 0.000000 0.000000
vn -1.000000 0.000000 0.000000
vn -1.000000 0.000000 0.000000
vn -1.000000 0.000000 0.000000
vn -1.000000 0.000000 0.000000
vn -1.000000 0.000000 0.000000
vn -1.000000 0.000000 0.000000
vn -1.000000 0.000000 0.000000
vn -1.000000 0.000000 0.000000
vn -1.000000 0.000000 0.000000
vn -1.000000 0.000000 0.000000
vn -1.000000 0.000000 0.000000
vn -1.000000 0.000000 0.000000
vn -1.000000 0.000000 0.000000
vn -1.000000 0.000000 0.000000
vn -1.000000 0.000000 0.000000
vn -1.000000 0.000000 0.000000
vn -1.000000 0.000000 0.000000
vn -1.000000 0.000000 0.000000
vn -1.000000 0.000000 0.000000
vn -1.000000 0.000000 0.000000
vn -1.000000 0.000000 0.000000
vn -1.000000 0.000000 0.000000
vn -1.000000 0.000000 0.000000
vn -1.000000 0.000000 0.000000
vn -1.000000 0.000000 0.000000
vn -1.000000 0.000000 0.000000
vn -1.000000 0.000000 0.000000
vn -1.000000 0.000000 0.000000
vn -1.000000 0.000000 0.000000
vn -1.000000 0.000000 0.000000
vn -1.000000 0.000000 0.000000
vn -1.000000 0.000000 0.000000
vn -1.000000 0.000000 0.000000
vn -1.000000 0.000000 0.000000
vn -1.000000 0.000000 0.000000
vn -1.000000 0.000000 0.000000
vn -1.000000 0.000000 0.000000
vn -1.000000 0.000000 0.000000
vn -1.000000 0.000000 0.000000
vn -1.000000 0.000000 0.000000
vn -1.000000 0.000000 0.000000
vn -1.000000 0.000000 0.000000
vn -1.000000 0.000000 0.000000
vn -1.000000 0.000000 0.000000
vn -1.000000 0.000000 0.000000
vn -1.000000 0.000000 0.000000
vn -1.000000 0.000000 0.000000
vn -1.000000 0.000000 0.000000
vn -1.000000 0.000000 0.000000
vn -1.000000 0.000000 0.000000
vn -1.000000 0.000000 0.000000
vn -1.000000 0.000000 0.000000
vn -1.000000 0.000000 0.000000
vn -1.000000 0.000000 0.000000
vn -1.000000 0.000000 0.000000
vn -1.000000 0.000000 0.000000
vn -1.000000 0.000000 0.000000
vn -1.000000 0.000000 0.000000
vn -1.000000 0.000000 0.000000
vn -1.000000 0.000000 0.000000
vn -1.000000 0.000000 0.000000
vn -1.000000 0.000000 0.000000
vn -1.000000 0.000000 0.000000
vn -1.000000 0.000000 0.000000
vn -1.000000 0.000000 0.000000
vn -1.000000 0.000000 0.000000
vn -1.000000 0.000000 0.000000
vn -1.000000 0.000000 0.000000
vn -1.000000 0.000000 0.000000
vn -1.000000 0.000000 0.000000
vn -1.000000 0.000000 0.000000
vn -1.000000 0.000000 0.000000
vn -1.000000 0.000000 0.000000
vn -1.000000 0.000000 0.000000
vn -1.000000 0.000000 0.000000
vn -1.000000 0.000000 0.000000
vn -1.000000 0.000000 0.000000
vn -1.000000 0.000000 0.000000
vn -1.000000 0.000000 0.000000
vn -1.000000 0.000000 0.000000
vn -1.000000 0.000000 0.000000
vn -1.000000 0.000000 0.000000
vn -1.000000 0.000000 0.000000
s off
f 1/1/1 2/2/2 33/3/3 34/4/4
f 2/2/5 3/5/6 35/6/7 33/3/8
f 3/5/9 4/7/10 36/8/11 35/6/12
f 4/7/13 5/9/14 37/10/15 36/8/16
f 5/9/17 6/11/18 38/12/19 37/10/20
f 6/11/21 7/13/22 39/14/23 38/12/24
f 7/13/25 8/15/26 40/16/27 39/14/28
f 8/15/29 9/17/30 41/18/31 40/16/32
f 9/17/33 10/19/34 42/20/35 41/18/36
f 10/19/37 11/21/38 43/22/39 42/20/40
f 11/21/41 12/23/42 44/24/43 43/22/44
f 12/23/45 13/25/46 45/26/47 44/24/48
f 13/25/49 14/27/50 46/28/51 45/26/52
f 14/27/53 15/29/54 47/30/55 46/28/56
f 15/29/57 16/31/58 48/32/59 47/30/60
f 16/31/61 17/33/62 49/34/63 48/32/64
f 17/33/65 18/35/66 50/36/67 49/34/68
f 18/35/69 19/37/70 51/38/71 50/36/72
f 19/37/73 20/39/74 52/40/75 51/38/76
f 20/39/77 21/41/78 53/42/79 52/40/80
f 21/41/81 22/43/82 54/44/83 53/42/84
f 23/45/85 1/1/86 34/4/87 55/46/88
f 24/47/89 23/45/90 55/46/91 56/48/92
f 25/49/93 24/47/94 56/48/95 57/50/96
f 26/51/97 25/49/98 57/50/99 58/52/100
f 27/53/101 26/51/102 58/52/103 59/54/104
f 28/55/105 27/53/106 59/54/107 60/56/108
f 29/57/109 28/55/110 60/56/111 61/58/112
f 30/59/113 29/57/114 61/58/115 62/60/116
f 31/61/117 30/59/118 62/60/119 63/62/120
f 32/63/121 31/61/122 63/62/123 64/64/124
