# This file uses meters as units for non-parametric coordinates.

v -844.562317 -223.326599 1.000000
v -844.627075 -223.402695 -1.000000
v -844.562317 -224.126602 3.000000
v -844.562317 -225.926605 6.000000
v -844.562317 -228.726608 10.000000
v -844.562317 -232.526611 15.000000
v -844.562317 -237.326614 21.000000
v -844.562317 -238.126617 23.000000
v -844.562317 -239.926620 26.000000
v -844.562317 -242.726624 30.000000
v -844.562317 -246.526627 35.000000
v -844.562317 -251.326630 41.000000
v -844.627075 -224.202698 -3.000000
v -844.627075 -226.002701 -6.000000
v -844.627075 -228.802704 -10.000000
v -844.627075 -232.602707 -15.000000
v -844.627075 -237.402710 -21.000000
v -844.627075 -238.202713 -23.000000
v -844.627075 -240.002716 -26.000000
v -844.627075 -242.802719 -30.000000
v -844.627075 -246.602722 -35.000000
v -844.627075 -251.402725 -41.000000
v -844.627075 -252.202728 -43.000000
v -844.627075 -254.002731 -46.000000
v -844.627075 -256.802734 -50.000000
v -844.627075 -260.602722 -55.000000
v -844.627075 -265.402710 -61.000000
v -844.627075 -266.202698 -63.000000
v -844.627075 -268.002686 -66.000000
v -844.627075 -270.802673 -70.000000
v -844.627075 -274.602661 -75.000000
v -844.627075 -279.402649 -81.000000
v -844.627075 -321.998108 -1.000000
v -844.562317 -321.998077 1.000000
v -844.562317 -321.998108 3.000000
v -844.562317 -321.998108 6.000000
v -844.562317 -321.998108 10.000000
v -844.562317 -321.998169 15.000000
v -844.562317 -321.998230 21.000000
v -844.562317 -321.998230 23.000000
v -844.562317 -321.998230 26.000000
v -844.562317 -321.998291 30.000000
v -844.562317 -321.998322 35.000000
v -844.562317 -321.998352 41.000000
v -844.627075 -321.998077 -3.000000
v -844.627075 -321.998108 -6.000000
v -844.627075 -321.998138 -10.000000
v -844.627075 -321.998169 -15.000000
v -844.627075 -321.998199 -21.000000
v -844.627075 -321.998230 -23.000000
v -844.627075 -321.998260 -26.000000
v -844.627075 -321.998291 -30.000000
v -844.627075 -321.998291 -35.000000
v -844.627075 -321.998352 -41.000000
v -844.627075 -321.998352 -43.000000
v -844.627075 -321.998352 -46.000000
v -844.627075 -321.998383 -50.000000
v -844.627075 -321.998444 -55.000000
v -844.627075 -321.998505 -61.000000
v -844.627075 -321.998505 -63.000000
v -844.627075 -321.998535 -66.000000
v -844.627075 -321.998535 -70.000000
v -844.627075 -321.998596 -75.000000
v -844.627075 -321.998627 -81.000000
vt 0.672131 -0.000000
vt 0.655738 0.000787
vt 0.655738 0.420746
vt 0.672131 0.419959
vt 0.688524 0.008275
vt 0.688524 0.428234
vt 0.713115 0.026894
vt 0.713115 0.446853
vt 0.745901 0.055857
vt 0.745901 0.475816
vt 0.786885 0.095163
vt 0.786885 0.515123
vt 0.836065 0.144814
vt 0.836065 0.564773
vt 0.852459 0.153089
vt 0.852459 0.573048
vt 0.877049 0.171708
vt 0.877049 0.591667
vt 0.909836 0.200670
vt 0.909836 0.620630
vt 0.950819 0.239977
vt 0.950819 0.659936
vt 1.000000 0.289627
vt 1.000000 0.709587
vt 0.639344 0.009062
vt 0.639344 0.429021
vt 0.614754 0.027681
vt 0.614754 0.447640
vt 0.581967 0.056644
vt 0.581967 0.476603
vt 0.540984 0.095950
vt 0.540984 0.515909
vt 0.491803 0.145601
vt 0.491803 0.565560
vt 0.475410 0.153876
vt 0.475410 0.573835
vt 0.450820 0.172495
vt 0.450820 0.592454
vt 0.418033 0.201457
vt 0.418033 0.621416
vt 0.377049 0.240764
vt 0.377049 0.660723
vt 0.327869 0.290414
vt 0.327869 0.710374
vt 0.311476 0.298689
vt 0.311476 0.718649
vt 0.286885 0.317308
vt 0.286885 0.737267
vt 0.254098 0.346271
vt 0.254098 0.766230
vt 0.213115 0.385578
vt 0.213115 0.805537
vt 0.163934 0.435228
vt 0.163934 0.855187
vt 0.147541 0.443503
vt 0.147541 0.863462
vt 0.122951 0.462121
vt 0.122951 0.882081
vt 0.090164 0.491084
vt 0.090164 0.911043
vt 0.049180 0.530390
vt 0.049180 0.950350
vt -0.000000 0.580041
vt -0.000000 1.000000
vn -0.999476 0.000000 0.032362
vn -0.999476 0.000000 0.032362
vn -0.999476 0.000000 0.032362
vn -0.999476 0.000000 0.032362
vn -1.000000 0.000000 0.000000
vn -1.000000 0.000000 0.000000
vn -1.000000 0.000000 0.000000
vn -1.000000 0.000000 0.000000
vn -1.000000 0.000000 0.000000
vn -1.000000 0.000000 0.000000
vn -1.000000 0.000000 0.000000
vn -1.000000 0.000000 0.000000
vn -1.000000 0.000000 0.000000
vn -1.000000 0.000000 0.000000
vn -1.000000 0.000000 0.000000
vn -1.000000 0.000000 0.000000
vn -1.000000 0.000000 0.000000
vn -1.000000 0.000000 0.000000
vn -1.000000 0.000000 0.000000
vn -1.000000 0.000000 0.000000
vn -1.000000 0.000000 0.000000
vn -1.000000 0.000000 0.000000
vn -1.000000 0.000000 0.000000
vn -1.000000 0.000000 0.000000
vn -1.000000 0.000000 0.000000
vn -1.000000 0.000000 0.000000
vn -1.000000 0.000000 0.000000
vn -1.000000 0.000000 0.000000
vn -1.000000 0.000000 0.000000
vn -1.000000 0.000000 0.000000
vn -1.000000 0.000000 0.000000
vn -1.000000 0.000000 0.000000
vn -1.000000 0.000000 0.000000
vn -1.000000 0.000000 0.000000
vn -1.000000 0.000000 0.000000
vn -1.000000 0.000000 0.000000
vn -1.000000 0.000000 0.000000
vn -1.000000 0.000000 0.000000
vn -1.000000 0.000000 0.000000
vn -1.000000 0.000000 0.000000
vn -1.000000 0.000000 0.000000
vn -1.000000 0.000000 0.000000
vn -1.000000 0.000000 0.000000
vn -1.000000 0.000000 0.000000
vn -1.000000 0.000000 0.000000
vn -1.000000 0.000000 0.000000
vn -1.000000 0.000000 0.000000
vn -1.000000 0.000000 0.000000
vn -1.000000 0.000000 0.000000
vn -1.000000 0.000000 0.000000
vn -1.000000 0.000000 0.000000
vn -1.000000 0.000000 0.000000
vn -1.000000 0.000000 0.000000
vn -1.000000 0.000000 0.000000
vn -1.000000 0.000000 0.000000
vn -1.000000 0.000000 0.000000
vn -1.000000 0.000000 0.000000
vn -1.000000 0.000000 0.000000
vn -1.000000 0.000000 0.000000
vn -1.000000 0.000000 0.000000
vn -1.000000 0.000000 0.000000
vn -1.000000 0.000000 0.000000
vn -1.000000 0.000000 0.000000
vn -1.000000 0.000000 0.000000
vn -1.000000 0.000000 0.000000
vn -1.000000 0.000000 0.000000
vn -1.000000 0.000000 0.000000
vn -1.000000 0.000000 0.000000
vn -1.000000 0.000000 0.000000
vn -1.000000 0.000000 0.000000
vn -1.000000 0.000000 0.000000
vn -1.000000 0.000000 0.000000
vn -1.000000 0.000000 0.000000
vn -1.000000 0.000000 0.000000
vn -1.000000 0.000000 0.000000
vn -1.000000 0.000000 0.000000
vn -1.000000 0.000000 0.000000
vn -1.000000 0.000000 0.000000
vn -1.000000 0.000000 0.000000
vn -1.000000 0.000000 0.000000
vn -1.000000 0.000000 0.000000
vn -1.000000 0.000000 0.000000
vn -1.000000 0.000000 0.000000
vn -1.000000 0.000000 0.000000
vn -1.000000 0.000000 0.000000
vn -1.000000 0.000000 0.000000
vn -1.000000 0.000000 0.000000
vn -1.000000 0.000000 0.000000
vn -1.000000 0.000000 0.000000
vn -1.000000 0.000000 0.000000
vn -1.000000 0.000000 0.000000
vn -1.000000 0.000000 0.000000
vn -1.000000 0.000000 0.000000
vn -1.000000 0.000000 0.000000
vn -1.000000 0.000000 0.000000
vn -1.000000 0.000000 0.000000
vn -1.000000 0.000000 0.000000
vn -1.000000 0.000000 0.000000
vn -1.000000 0.000000 0.000000
vn -1.000000 0.000000 0.000000
vn -1.000000 0.000000 0.000000
vn -1.000000 0.000000 0.000000
vn -1.000000 0.000000 0.000000
vn -1.000000 0.000000 0.000000
vn -1.000000 0.000000 0.000000
vn -1.000000 0.000000 0.000000
vn -1.000000 0.000000 0.000000
vn -1.000000 0.000000 0.000000
vn -1.000000 0.000000 0.000000
vn -1.000000 0.000000 0.000000
vn -1.000000 0.000000 0.000000
vn -1.000000 0.000000 0.000000
vn -1.000000 0.000000 0.000000
vn -1.000000 0.000000 0.000000
vn -1.000000 0.000000 0.000000
vn -1.000000 0.000000 0.000000
vn -1.000000 0.000000 0.000000
vn -1.000000 0.000000 0.000000
vn -1.000000 0.000000 0.000000
vn -1.000000 0.000000 0.000000
vn -1.000000 0.000000 0.000000
vn -1.000000 0.000000 0.000000
vn -1.000000 0.000000 0.000000
vn -1.000000 0.000000 0.000000
s off
f 1/1/1 2/2/2 33/3/3 34/4/4
f 3/5/5 1/1/6 34/4/7 35/6/8
f 4/7/9 3/5/10 35/6/11 36/8/12
f 5/9/13 4/7/14 36/8/15 37/10/16
f 6/11/17 5/9/18 37/10/19 38/12/20
f 7/13/21 6/11/22 38/12/23 39/14/24
f 8/15/25 7/13/26 39/14/27 40/16/28
f 9/17/29 8/15/30 40/16/31 41/18/32
f 10/19/33 9/17/34 41/18/35 42/20/36
f 11/21/37 10/19/38 42/20/39 43/22/40
f 12/23/41 11/21/42 43/22/43 44/24/44
f 2/2/45 13/25/46 45/26/47 33/3/48
f 13/25/49 14/27/50 46/28/51 45/26/52
f 14/27/53 15/29/54 47/30/55 46/28/56
f 15/29/57 16/31/58 48/32/59 47/30/60
f 16/31/61 17/33/62 49/34/63 48/32/64
f 17/33/65 18/35/66 50/36/67 49/34/68
f 18/35/69 19/37/70 51/38/71 50/36/72
f 19/37/73 20/39/74 52/40/75 51/38/76
f 20/39/77 21/41/78 53/42/79 52/40/80
f 21/41/81 22/43/82 54/44/83 53/42/84
f 22/43/85 23/45/86 55/46/87 54/44/88
f 23/45/89 24/47/90 56/48/91 55/46/92
f 24/47/93 25/49/94 57/50/95 56/48/96
f 25/49/97 26/51/98 58/52/99 57/50/100
f 26/51/101 27/53/102 59/54/103 58/52/104
f 27/53/105 28/55/106 60/56/107 59/54/108
f 28/55/109 29/57/110 61/58/111 60/56/112
f 29/57/113 30/59/114 62/60/115 61/58/116
f 30/59/117 31/61/118 63/62/119 62/60/120
f 31/61/121 32/63/122 64/64/123 63/62/124
