# This file uses meters as units for non-parametric coordinates.

v -896.777527 -341.607086 1.000000
v -896.622498 -342.595093 -1.000000
v -897.268372 -341.682495 1.000000
v -897.120117 -342.671387 -1.000000
v -897.618225 -342.744385 -1.000000
v -897.759583 -341.754486 1.000000
vt 0.500000 0.000000
vt 1.000000 0.000000
vt 1.000000 1.000000
vt 0.500000 1.000000
vt 0.000000 0.000000
vt 0.000000 1.000000
vn -0.132744 0.884515 -0.447228
vn -0.135814 0.884030 -0.447264
vn -0.135597 0.884079 -0.447234
vn -0.132627 0.884551 -0.447191
vn -0.129699 0.884988 -0.447185
vn -0.129683 0.885012 -0.447142
s 1
f 3/1/1 1/2/2 2/3/3
f 3/1/1 2/3/3 4/4/4
f 6/5/5 3/1/1 4/4/4
f 6/5/5 4/4/4 5/6/6
