# This file uses meters as units for non-parametric coordinates.

v -131.091507 -51.287922 -1.000000
v -131.044693 -51.199539 1.000000
v -131.489807 -50.969509 1.000000
v -131.534805 -51.058849 -1.000000
v -131.941101 -50.750660 1.000000
v -131.983307 -50.841320 -1.000000
v -132.400497 -50.548038 1.000000
v -132.438705 -50.640450 -1.000000
v -132.870895 -50.369511 1.000000
v -132.903107 -50.464161 -1.000000
vt 1.250000 0.000000
vt 1.000000 0.000000
vt 1.000000 1.000000
vt 1.250000 1.000000
vt 1.500000 0.000000
vt 1.500000 1.000000
vt 1.750000 0.000000
vt 1.750000 1.000000
vt 2.000000 0.000000
vt 2.000000 1.000000
vn 0.447206 0.893035 -0.049948
vn 0.458524 0.887277 -0.049947
vn 0.458524 0.887277 -0.049947
vn 0.447205 0.893036 -0.049948
vn 0.419508 0.906377 -0.049941
vn 0.419506 0.906378 -0.049941
vn 0.378874 0.924100 -0.049934
vn 0.378870 0.924102 -0.049934
vn 0.354425 0.933752 -0.049909
vn 0.354425 0.933752 -0.049909
s 1
f 3/1/1 2/2/2 1/3/3 4/4/4
f 5/5/5 3/1/1 4/4/4 6/6/6
f 7/7/7 5/5/5 6/6/6 8/8/8
f 9/9/9 7/7/7 8/8/8 10/10/10
