# This file uses meters as units for non-parametric coordinates.

v -123.204659 -48.042877 0.998088
v -123.178352 -48.139366 -1.001912
v -124.173042 -48.281116 0.998134
v -124.149643 -48.378357 -1.001866
v -125.144363 -48.508610 0.998487
v -125.123062 -48.596420 -1.001514
v -126.120895 -48.706429 0.999435
v -126.102699 -48.739559 -1.000570
v -127.103462 -48.864838 1.000777
v -127.088669 -48.820217 -0.999232
v -128.091721 -48.973965 1.002020
v -128.080429 -48.862232 -0.997987
v -129.084778 -49.047432 1.002862
v -129.076981 -48.890003 -0.997141
v -130.081329 -49.098755 1.003184
v -130.076523 -48.923866 -0.996816
v -131.080231 -49.139969 1.002948
v -131.077332 -48.978119 -0.997050
v -132.082642 -49.163967 1.003348
v -132.079224 -49.042927 -0.996646
v -133.085938 -49.228745 1.001618
v -133.078812 -49.169064 -0.998374
v -134.088196 -49.340263 0.999655
v -134.073486 -49.352474 -1.000338
v -135.048294 -49.628025 -1.001276
v -135.073395 -49.556335 0.998723
vt 0.000000 0.000000
vt 0.500000 0.000000
vt 0.500000 1.000000
vt 0.000000 1.000000
vt -0.500000 0.000000
vt -0.500000 1.000000
vt -1.000000 0.000000
vt -1.000000 1.000000
vt -1.500000 0.000000
vt -1.500000 1.000000
vt -2.000000 0.000000
vt -2.000000 1.000000
vt -2.500000 0.000000
vt -2.500000 1.000000
vt -3.000000 0.000000
vt -3.000000 1.000000
vt -3.500000 0.000000
vt -3.500000 1.000000
vt -4.000000 0.000000
vt -4.000000 1.000000
vt -4.500000 0.000000
vt -4.500000 1.000000
vt -5.000000 0.000000
vt -5.000000 1.000000
vt -5.500000 0.000000
vt -5.500000 1.000000
vn -0.230862 0.971765 -0.048740
vn -0.238614 0.969830 -0.049939
vn -0.238614 0.969830 -0.049939
vn -0.230865 0.971764 -0.048740
vn -0.197488 0.979508 -0.039529
vn -0.197567 0.979491 -0.039554
vn -0.146082 0.989163 -0.014750
vn -0.146333 0.989123 -0.014914
vn -0.098134 0.994966 0.020317
vn -0.098441 0.994941 0.020065
vn -0.063215 0.996603 0.052781
vn -0.063380 0.996603 0.052597
vn -0.046526 0.996115 0.074765
vn -0.046568 0.996119 0.074684
vn -0.045014 0.995520 0.083146
vn -0.044994 0.995521 0.083141
vn -0.045828 0.995975 0.077036
vn -0.045839 0.995971 0.077081
vn -0.069604 0.995914 0.057531
vn -0.069435 0.995921 0.057617
vn -0.120652 0.992307 0.027759
vn -0.120479 0.992324 0.027873
vn -0.195106 0.980764 -0.005978
vn -0.194823 0.980821 -0.005880
vn -0.243204 0.969708 -0.022758
vn -0.243204 0.969708 -0.022758
s 1
f 3/1/1 1/2/2 2/3/3 4/4/4
f 5/5/5 3/1/1 4/4/4 6/6/6
f 7/7/7 5/5/5 6/6/6 8/8/8
f 9/9/9 7/7/7 8/8/8 10/10/10
f 11/11/11 9/9/9 10/10/10 12/12/12
f 13/13/13 11/11/11 12/12/12 14/14/14
f 15/15/15 13/13/13 14/14/14 16/16/16
f 17/17/17 15/15/15 16/16/16 18/18/18
f 19/19/19 17/17/17 18/18/18 20/20/20
f 21/21/21 19/19/19 20/20/20 22/22/22
f 23/23/23 21/21/21 22/22/22 24/24/24
f 26/25/25 23/23/23 24/24/24 25/26/26
