# This file uses meters as units for non-parametric coordinates.

v -984.425415 -293.262695 1.000000
v -984.407471 -293.361115 -1.000000
v -984.917419 -293.351715 1.000000
v -984.899719 -293.450195 -1.000000
v -985.409424 -293.439514 1.000000
v -985.392029 -293.537903 -1.000000
v -985.901794 -293.526093 1.000000
v -985.884583 -293.624603 -1.000000
v -986.394287 -293.611511 1.000000
v -986.377319 -293.710114 -1.000000
v -986.887024 -293.695801 1.000000
v -986.870300 -293.794403 -1.000000
v -987.379883 -293.778992 1.000000
v -987.363525 -293.877594 -1.000000
v -987.872986 -293.860992 1.000000
v -987.856812 -293.959686 -1.000000
v -988.366272 -293.941986 1.000000
v -988.350220 -294.040588 -1.000000
v -988.859802 -294.021790 1.000000
v -988.843872 -294.120514 -1.000000
v -989.353516 -294.100494 1.000000
v -989.337830 -294.199310 -1.000000
v -989.847229 -294.178192 1.000000
v -989.831787 -294.277008 -1.000000
v -990.341309 -294.254791 1.000000
v -990.325989 -294.353607 -1.000000
v -990.835388 -294.330414 1.000000
v -990.820374 -294.429291 -1.000000
v -991.329712 -294.404907 1.000000
v -991.314880 -294.503815 -1.000000
v -991.824219 -294.478394 1.000000
v -991.809570 -294.577301 -1.000000
v -992.318787 -294.550903 1.000000
v -992.304382 -294.649811 -1.000000
v -992.813477 -294.622314 1.000000
v -992.799377 -294.721313 -1.000000
v -993.308472 -294.692810 1.000000
v -993.294373 -294.791809 -1.000000
v -993.803528 -294.762299 1.000000
v -993.789673 -294.861389 -1.000000
v -994.298706 -294.830811 1.000000
v -994.285217 -294.929901 -1.000000
v -994.794006 -294.898407 1.000000
v -994.780579 -294.997498 -1.000000
v -995.289429 -294.964996 1.000000
v -995.276184 -295.064087 -1.000000
v -995.784973 -295.030609 1.000000
v -995.771973 -295.129791 -1.000000
v -996.280823 -295.095306 1.000000
v -996.267883 -295.194489 -1.000000
v -996.776611 -295.159088 1.000000
v -996.763916 -295.258301 -1.000000
v -997.272522 -295.221985 1.000000
v -997.260010 -295.321289 -1.000000
v -997.768616 -295.283905 1.000000
v -997.756226 -295.383209 -1.000000
v -998.264709 -295.345001 1.000000
v -998.252625 -295.444214 -1.000000
v -998.760986 -295.405212 1.000000
v -998.749023 -295.504486 -1.000000
v -999.257385 -295.464386 1.000000
v -999.245728 -295.563812 -1.000000
v -999.753906 -295.522888 1.000000
v -999.742310 -295.622192 -1.000000
v -1000.250000 -295.580414 1.000000
v -1000.239014 -295.679688 -1.000000
v -1000.747009 -295.637085 1.000000
v -1000.736023 -295.736511 -1.000000
v -1001.244019 -295.692902 1.000000
v -1001.232971 -295.792297 -1.000000
v -1001.741028 -295.747894 1.000000
v -1001.729980 -295.847290 -1.000000
v -1002.237976 -295.802094 1.000000
v -1002.226990 -295.901489 -1.000000
v -1002.734985 -295.855408 1.000000
v -1002.723999 -295.954803 -1.000000
v -1003.231995 -295.907898 1.000000
v -1003.221985 -296.007294 -1.000000
v -1003.729004 -295.959595 1.000000
v -1003.718994 -296.059113 -1.000000
v -1004.226990 -296.010498 1.000000
v -1004.216003 -296.109985 -1.000000
v -1004.723999 -296.060608 1.000000
v -1004.713989 -296.160095 -1.000000
v -1005.221008 -296.109894 1.000000
v -1005.211975 -296.209412 -1.000000
v -1005.718994 -296.158386 1.000000
v -1005.708984 -296.257996 -1.000000
v -1006.216980 -296.206207 1.000000
v -1006.206970 -296.305695 -1.000000
v -1006.713989 -296.253113 1.000000
v -1006.705017 -296.352692 -1.000000
v -1007.211975 -296.299286 1.000000
v -1007.203003 -296.398987 -1.000000
v -1007.710022 -296.344788 1.000000
v -1007.700989 -296.444397 -1.000000
v -1008.208008 -296.389496 1.000000
v -1008.198975 -296.489105 -1.000000
v -1008.705994 -296.433502 1.000000
v -1008.697021 -296.533112 -1.000000
v -1009.203979 -296.476715 1.000000
v -1009.195007 -296.576294 -1.000000
v -1009.702026 -296.519196 1.000000
v -1009.693970 -296.618896 -1.000000
v -1010.200012 -296.561005 1.000000
v -1010.192017 -296.660614 -1.000000
v -1010.697998 -296.601990 1.000000
v -1010.690002 -296.701691 -1.000000
v -1011.197021 -296.642395 1.000000
v -1011.189026 -296.742096 -1.000000
v -1011.695007 -296.682007 1.000000
v -1011.687012 -296.781708 -1.000000
v -983.915588 -293.270905 -1.000000
v -983.933777 -293.172607 1.000000
v -1012.185974 -296.820709 -1.000000
v -1012.193970 -296.720886 1.000000
vt -0.250000 0.000000
vt 0.000000 0.000000
vt 0.000000 1.000000
vt -0.250000 1.000000
vt -0.500000 0.000000
vt -0.500000 1.000000
vt -0.750000 0.000000
vt -0.750000 1.000000
vt -1.000000 0.000000
vt -1.000000 1.000000
vt -1.250000 0.000000
vt -1.250000 1.000000
vt -1.500000 0.000000
vt -1.500000 1.000000
vt -1.750000 0.000000
vt -1.750000 1.000000
vt -2.000000 0.000000
vt -2.000000 1.000000
vt -2.249999 0.000000
vt -2.249999 1.000000
vt -2.499999 0.000000
vt -2.499999 1.000000
vt -2.749999 0.000000
vt -2.749999 1.000000
vt -2.999999 0.000000
vt -2.999999 1.000000
vt -3.249999 0.000000
vt -3.249999 1.000000
vt -3.499999 0.000000
vt -3.499999 1.000000
vt -3.749999 0.000000
vt -3.749999 1.000000
vt -3.999999 0.000000
vt -3.999999 1.000000
vt -4.249999 0.000000
vt -4.249999 1.000000
vt -4.499999 0.000000
vt -4.499999 1.000000
vt -4.750000 0.000000
vt -4.750000 1.000000
vt -5.000000 0.000000
vt -5.000000 1.000000
vt -5.250000 0.000000
vt -5.250000 1.000000
vt -5.500000 0.000000
vt -5.500000 1.000000
vt -5.750000 0.000000
vt -5.750000 1.000000
vt -6.000000 0.000000
vt -6.000000 1.000000
vt -6.250000 0.000000
vt -6.250000 1.000000
vt -6.500000 0.000000
vt -6.500000 1.000000
vt -6.750000 0.000000
vt -6.750000 1.000000
vt -7.000000 0.000000
vt -7.000000 1.000000
vt -7.250000 0.000000
vt -7.250000 1.000000
vt -7.500000 0.000000
vt -7.500000 1.000000
vt -7.750000 0.000000
vt -7.750000 1.000000
vt -8.000000 0.000000
vt -8.000000 1.000000
vt -8.250000 0.000000
vt -8.250000 1.000000
vt -8.500000 0.000000
vt -8.500000 1.000000
vt -8.750000 0.000000
vt -8.750000 1.000000
vt -9.000000 0.000000
vt -9.000000 1.000000
vt -9.250000 0.000000
vt -9.250000 1.000000
vt -9.500000 0.000000
vt -9.500000 1.000000
vt -9.750000 0.000000
vt -9.750000 1.000000
vt -10.000000 0.000000
vt -10.000000 1.000000
vt -10.250004 0.000000
vt -10.250004 1.000000
vt -10.500004 0.000000
vt -10.500004 1.000000
vt -10.750004 0.000000
vt -10.750004 1.000000
vt -11.000004 0.000000
vt -11.000004 1.000000
vt -11.250004 0.000000
vt -11.250004 1.000000
vt -11.500004 0.000000
vt -11.500004 1.000000
vt -11.750004 0.000000
vt -11.750004 1.000000
vt -12.000004 0.000000
vt -12.000004 1.000000
vt -12.250004 0.000000
vt -12.250004 1.000000
vt -12.500004 0.000000
vt -12.500004 1.000000
vt -12.750004 0.000000
vt -12.750004 1.000000
vt -13.000004 0.000000
vt -13.000004 1.000000
vt -13.250004 0.000000
vt -13.250004 1.000000
vt -13.500004 0.000000
vt -13.500004 1.000000
vt -13.750004 0.000000
vt -13.750004 1.000000
vt -14.000004 0.000000
vt -14.000004 1.000000
vt -14.250004 0.000000
vt -14.250004 1.000000
vn -0.178963 0.982587 -0.049951
vn -0.180089 0.982382 -0.049942
vn -0.180089 0.982382 -0.049942
vn -0.178962 0.982587 -0.049951
vn -0.176571 0.983020 -0.049939
vn -0.176571 0.983020 -0.049939
vn -0.174185 0.983447 -0.049914
vn -0.174185 0.983447 -0.049914
vn -0.171895 0.983849 -0.049933
vn -0.171895 0.983849 -0.049933
vn -0.169544 0.984256 -0.049953
vn -0.169544 0.984256 -0.049953
vn -0.167267 0.984646 -0.049936
vn -0.167267 0.984646 -0.049936
vn -0.165039 0.985022 -0.049927
vn -0.165039 0.985023 -0.049927
vn -0.162800 0.985395 -0.049919
vn -0.162800 0.985396 -0.049919
vn -0.160619 0.985754 -0.049913
vn -0.160619 0.985754 -0.049913
vn -0.158404 0.986111 -0.049932
vn -0.158404 0.986111 -0.049932
vn -0.156255 0.986453 -0.049952
vn -0.156255 0.986453 -0.049952
vn -0.154121 0.986789 -0.049952
vn -0.154121 0.986789 -0.049952
vn -0.152053 0.987110 -0.049947
vn -0.152053 0.987110 -0.049947
vn -0.149976 0.987427 -0.049944
vn -0.149976 0.987427 -0.049944
vn -0.147807 0.987755 -0.049934
vn -0.147807 0.987755 -0.049934
vn -0.145809 0.988052 -0.049920
vn -0.145809 0.988053 -0.049920
vn -0.143799 0.988348 -0.049910
vn -0.143799 0.988348 -0.049910
vn -0.141785 0.988638 -0.049926
vn -0.141785 0.988638 -0.049926
vn -0.139843 0.988913 -0.049944
vn -0.139843 0.988913 -0.049944
vn -0.137850 0.989193 -0.049942
vn -0.137850 0.989193 -0.049942
vn -0.135943 0.989458 -0.049930
vn -0.135943 0.989458 -0.049930
vn -0.134033 0.989718 -0.049929
vn -0.134033 0.989718 -0.049929
vn -0.132092 0.989979 -0.049928
vn -0.132092 0.989979 -0.049928
vn -0.130187 0.990231 -0.049940
vn -0.130187 0.990231 -0.049940
vn -0.128320 0.990474 -0.049947
vn -0.128320 0.990474 -0.049947
vn -0.126588 0.990697 -0.049946
vn -0.126588 0.990697 -0.049946
vn -0.124705 0.990935 -0.049967
vn -0.124705 0.990935 -0.049967
vn -0.122814 0.991172 -0.049950
vn -0.122815 0.991172 -0.049950
vn -0.121148 0.991378 -0.049922
vn -0.121148 0.991378 -0.049922
vn -0.119332 0.991598 -0.049939
vn -0.119332 0.991598 -0.049939
vn -0.117538 0.991811 -0.049960
vn -0.117538 0.991811 -0.049960
vn -0.115845 0.992011 -0.049933
vn -0.115845 0.992011 -0.049933
vn -0.114120 0.992213 -0.049898
vn -0.114120 0.992213 -0.049898
vn -0.112367 0.992412 -0.049923
vn -0.112367 0.992412 -0.049923
vn -0.110643 0.992605 -0.049944
vn -0.110643 0.992605 -0.049944
vn -0.109062 0.992780 -0.049942
vn -0.109063 0.992779 -0.049942
vn -0.107399 0.992961 -0.049950
vn -0.107399 0.992961 -0.049950
vn -0.105660 0.993148 -0.049934
vn -0.105660 0.993148 -0.049934
vn -0.104123 0.993311 -0.049915
vn -0.104123 0.993311 -0.049915
vn -0.102539 0.993475 -0.049932
vn -0.102539 0.993475 -0.049932
vn -0.100861 0.993646 -0.049956
vn -0.100861 0.993646 -0.049956
vn -0.099292 0.993804 -0.049943
vn -0.099292 0.993804 -0.049943
vn -0.097738 0.993959 -0.049929
vn -0.097737 0.993959 -0.049929
vn -0.096165 0.994111 -0.049945
vn -0.096166 0.994112 -0.049945
vn -0.094595 0.994262 -0.049942
vn -0.094595 0.994262 -0.049942
vn -0.093079 0.994406 -0.049941
vn -0.093079 0.994406 -0.049941
vn -0.091553 0.994546 -0.049966
vn -0.091553 0.994546 -0.049966
vn -0.090048 0.994684 -0.049951
vn -0.090048 0.994684 -0.049951
vn -0.088606 0.994814 -0.049936
vn -0.088606 0.994814 -0.049936
vn -0.087114 0.994946 -0.049942
vn -0.087114 0.994946 -0.049942
vn -0.085620 0.995076 -0.049934
vn -0.085620 0.995076 -0.049934
vn -0.084188 0.995198 -0.049930
vn -0.084188 0.995198 -0.049930
vn -0.082740 0.995319 -0.049937
vn -0.082740 0.995319 -0.049937
vn -0.081313 0.995436 -0.049945
vn -0.081313 0.995436 -0.049945
vn -0.079895 0.995552 -0.049936
vn -0.079895 0.995552 -0.049936
vn -0.078451 0.995665 -0.049965
vn -0.078451 0.995665 -0.049965
vn -0.077718 0.995721 -0.050004
vn -0.077718 0.995721 -0.050004
s 1
f 1/1/1 114/2/2 113/3/3 2/4/4
f 3/5/5 1/1/1 2/4/4 4/6/6
f 5/7/7 3/5/5 4/6/6 6/8/8
f 7/9/9 5/7/7 6/8/8 8/10/10
f 9/11/11 7/9/9 8/10/10 10/12/12
f 11/13/13 9/11/11 10/12/12 12/14/14
f 13/15/15 11/13/13 12/14/14 14/16/16
f 15/17/17 13/15/15 14/16/16 16/18/18
f 17/19/19 15/17/17 16/18/18 18/20/20
f 19/21/21 17/19/19 18/20/20 20/22/22
f 21/23/23 19/21/21 20/22/22 22/24/24
f 23/25/25 21/23/23 22/24/24 24/26/26
f 25/27/27 23/25/25 24/26/26 26/28/28
f 27/29/29 25/27/27 26/28/28 28/30/30
f 29/31/31 27/29/29 28/30/30 30/32/32
f 31/33/33 29/31/31 30/32/32 32/34/34
f 33/35/35 31/33/33 32/34/34 34/36/36
f 35/37/37 33/35/35 34/36/36 36/38/38
f 37/39/39 35/37/37 36/38/38 38/40/40
f 39/41/41 37/39/39 38/40/40 40/42/42
f 41/43/43 39/41/41 40/42/42 42/44/44
f 43/45/45 41/43/43 42/44/44 44/46/46
f 45/47/47 43/45/45 44/46/46 46/48/48
f 47/49/49 45/47/47 46/48/48 48/50/50
f 49/51/51 47/49/49 48/50/50 50/52/52
f 51/53/53 49/51/51 50/52/52 52/54/54
f 53/55/55 51/53/53 52/54/54 54/56/56
f 55/57/57 53/55/55 54/56/56 56/58/58
f 57/59/59 55/57/57 56/58/58 58/60/60
f 59/61/61 57/59/59 58/60/60 60/62/62
f 61/63/63 59/61/61 60/62/62 62/64/64
f 63/65/65 61/63/63 62/64/64 64/66/66
f 65/67/67 63/65/65 64/66/66 66/68/68
f 67/69/69 65/67/67 66/68/68 68/70/70
f 69/71/71 67/69/69 68/70/70 70/72/72
f 71/73/73 69/71/71 70/72/72 72/74/74
f 73/75/75 71/73/73 72/74/74 74/76/76
f 75/77/77 73/75/75 74/76/76 76/78/78
f 77/79/79 75/77/77 76/78/78 78/80/80
f 79/81/81 77/79/79 78/80/80 80/82/82
f 81/83/83 79/81/81 80/82/82 82/84/84
f 83/85/85 81/83/83 82/84/84 84/86/86
f 85/87/87 83/85/85 84/86/86 86/88/88
f 87/89/89 85/87/87 86/88/88 88/90/90
f 89/91/91 87/89/89 88/90/90 90/92/92
f 91/93/93 89/91/91 90/92/92 92/94/94
f 93/95/95 91/93/93 92/94/94 94/96/96
f 95/97/97 93/95/95 94/96/96 96/98/98
f 97/99/99 95/97/97 96/98/98 98/100/100
f 99/101/101 97/99/99 98/100/100 100/102/102
f 101/103/103 99/101/101 100/102/102 102/104/104
f 103/105/105 101/103/103 102/104/104 104/106/106
f 105/107/107 103/105/105 104/106/106 106/108/108
f 107/109/109 105/107/107 106/108/108 108/110/110
f 109/111/111 107/109/109 108/110/110 110/112/112
f 111/113/113 109/111/111 110/112/112 112/114/114
f 116/115/115 111/113/113 112/114/114 115/116/116
