# This file uses meters as units for non-parametric coordinates.

v -983.933777 -293.172607 1.000000
v -983.915588 -293.270905 -1.000000
v -981.969421 -292.799713 1.000000
v -981.950195 -292.897797 -1.000000
v -982.460083 -292.894714 1.000000
v -982.441223 -292.993011 -1.000000
v -982.951111 -292.988586 1.000000
v -982.932373 -293.086914 -1.000000
v -983.442322 -293.081207 1.000000
v -983.423889 -293.179504 -1.000000
vt 0.250000 0.000000
vt 0.000000 0.000000
vt 0.000000 1.000000
vt 0.250000 1.000000
vt 0.500000 0.000000
vt 0.500000 1.000000
vt 0.750000 0.000000
vt 0.750000 1.000000
vt 1.000000 0.000000
vt 1.000000 1.000000
vn -0.188767 0.980750 -0.049973
vn -0.189988 0.980515 -0.049952
vn -0.189988 0.980515 -0.049952
vn -0.188767 0.980750 -0.049973
vn -0.186266 0.981227 -0.049979
vn -0.186266 0.981227 -0.049979
vn -0.183779 0.981697 -0.049955
vn -0.183779 0.981697 -0.049955
vn -0.182571 0.981923 -0.049945
vn -0.182571 0.981923 -0.049945
s 1
f 5/1/1 3/2/2 4/3/3 6/4/4
f 7/5/5 5/1/1 6/4/4 8/6/6
f 9/7/7 7/5/5 8/6/6 10/8/8
f 1/9/9 9/7/7 10/8/8 2/10/10
