# This file uses meters as units for non-parametric coordinates.

v -373.873993 -182.177429 1.142668
v -374.155396 -182.706406 -1.000000
v -374.952301 -181.919296 1.143298
v -374.973389 -182.534897 -1.000000
v -376.012238 -182.070129 1.155184
v -375.849213 -182.615707 -1.000000
v -373.950256 -182.174774 -0.034944
v -374.947479 -181.931641 -0.044191
v -375.953156 -182.055557 -0.034771
vt 0.500000 0.000000
vt 0.000000 0.000000
vt 0.000000 1.000000
vt 0.500000 1.000000
vt 1.000000 0.000000
vt 1.000000 1.000000
vt 0.000000 0.500000
vt 0.500000 0.500000
vt 1.000000 0.500000
vn 0.052937 0.998574 -0.006973
vn 0.234793 0.971982 -0.011065
vn 0.224651 0.945355 -0.236295
vn 0.053426 0.967833 -0.245856
vn -0.131875 0.991263 -0.002616
vn -0.119774 0.962937 -0.241674
vn 0.193220 0.834386 -0.516203
vn 0.048958 0.851028 -0.522834
vn -0.095062 0.849775 -0.518503
s 1
f 3/1/1 1/2/2 7/7/3 8/8/4
f 5/5/5 3/1/1 8/8/4 9/9/6
f 8/8/4 7/7/3 2/3/7 4/4/8
f 9/9/6 8/8/4 4/4/8 6/6/9
