# This file uses meters as units for non-parametric coordinates.

v -287.987000 -142.835007 -1.000000
v -287.949005 -142.742493 1.000000
v -288.416687 -142.560303 1.000000
v -288.451111 -142.654205 -1.000000
v -288.891602 -142.397400 1.000000
v -288.921997 -142.492599 -1.000000
v -289.373596 -142.255997 1.000000
v -289.399414 -142.352493 -1.000000
v -289.862213 -142.138397 1.000000
v -289.882996 -142.236206 -1.000000
vt -5.750000 0.000000
vt -6.000000 0.000000
vt -6.000000 1.000000
vt -5.750000 1.000000
vt -5.500000 0.000000
vt -5.500000 1.000000
vt -5.250000 0.000000
vt -5.250000 1.000000
vt -5.000000 0.000000
vt -5.000000 1.000000
vn 0.343412 0.937857 -0.049928
vn 0.362549 0.930627 -0.049927
vn 0.362549 0.930627 -0.049927
vn 0.343411 0.937857 -0.049928
vn 0.302742 0.951765 -0.049907
vn 0.302741 0.951765 -0.049907
vn 0.257478 0.964995 -0.049900
vn 0.257477 0.964995 -0.049900
vn 0.233603 0.971051 -0.049887
vn 0.233603 0.971051 -0.049887
s 1
f 3/1/1 2/2/2 1/3/3 4/4/4
f 5/5/5 3/1/1 4/4/4 6/6/6
f 7/7/7 5/5/5 6/6/6 8/8/8
f 9/9/9 7/7/7 8/8/8 10/10/10
