# This file uses meters as units for non-parametric coordinates.

v 24.527821 -9.704551 -1.000000
v 24.590139 -9.626342 1.000000
v 24.188061 -9.324291 1.000000
v 24.130489 -9.406061 -1.000000
v 23.766649 -9.048838 1.000000
v 23.715040 -9.134495 -1.000000
v 23.325020 -8.806166 1.000000
v 23.280500 -8.895708 -1.000000
v 22.864229 -8.601462 1.000000
v 22.827709 -8.694552 -1.000000
vt 0.250000 0.000000
vt -0.000000 0.000000
vt -0.000000 1.000000
vt 0.250000 1.000000
vt 0.500000 0.000000
vt 0.500000 1.000000
vt 0.750000 0.000000
vt 0.750000 1.000000
vt 1.000000 0.000000
vt 1.000000 1.000000
vn 0.573477 0.817698 -0.049939
vn 0.599881 0.798531 -0.049917
vn 0.599881 0.798531 -0.049917
vn 0.573474 0.817701 -0.049939
vn 0.514099 0.856276 -0.049939
vn 0.514095 0.856278 -0.049939
vn 0.443632 0.894817 -0.049938
vn 0.443629 0.894818 -0.049938
vn 0.405485 0.912739 -0.049889
vn 0.405485 0.912739 -0.049889
s 1
f 3/1/1 2/2/2 1/3/3 4/4/4
f 5/5/5 3/1/1 4/4/4 6/6/6
f 7/7/7 5/5/5 6/6/6 8/8/8
f 9/9/9 7/7/7 8/8/8 10/10/10
