# This file uses meters as units for non-parametric coordinates.

v -909.636169 -342.492249 1.213999
v -909.722229 -343.244202 -0.951482
v -910.624512 -342.372772 1.219307
v -910.734741 -343.115204 -0.949621
v -911.608032 -342.216888 1.222008
v -911.736267 -342.966278 -0.942244
v -909.643250 -342.555573 -0.025792
v -910.633179 -342.429077 -0.024006
v -911.620178 -342.274780 -0.020245
vt -5.500000 0.000000
vt -6.000000 0.000000
vt -6.000000 0.500000
vt -5.500000 0.500000
vt -5.000000 0.000000
vt -5.000000 0.500000
vt -6.000000 1.000000
vt -5.500000 1.000000
vt -5.000000 1.000000
vn 0.139179 0.989123 -0.047592
vn 0.123064 0.991211 -0.048549
vn 0.117071 0.936225 -0.331326
vn 0.130032 0.934500 -0.331362
vn 0.155164 0.986788 -0.046628
vn 0.143069 0.932842 -0.330662
vn 0.100229 0.794101 -0.599465
vn 0.108629 0.791831 -0.601002
vn 0.117019 0.789499 -0.602493
s 1
f 3/1/1 1/2/2 7/3/3 8/4/4
f 5/5/5 3/1/1 8/4/4 9/6/6
f 8/4/4 7/3/3 2/7/7 4/8/8
f 9/6/6 8/4/4 4/8/8 6/9/9
