# This file uses meters as units for non-parametric coordinates.

v -1012.185974 -296.820709 -1.000000
v -1012.193970 -296.720886 1.000000
v -1012.692017 -296.759186 1.000000
v -1012.684021 -296.858887 -1.000000
v -1013.190979 -296.796814 1.000000
v -1013.182983 -296.896515 -1.000000
v -1013.689026 -296.833588 1.000000
v -1013.682007 -296.933289 -1.000000
v -1014.187988 -296.869812 1.000000
v -1014.181030 -296.969513 -1.000000
vt 0.750000 0.000000
vt 1.000000 0.000000
vt 1.000000 1.000000
vt 0.750000 1.000000
vt 0.500000 0.000000
vt 0.500000 1.000000
vt 0.250000 0.000000
vt 0.250000 1.000000
vt 0.000000 0.000000
vt 0.000000 1.000000
vn -0.075776 0.995873 -0.049947
vn -0.076456 0.995820 -0.049973
vn -0.076456 0.995820 -0.049973
vn -0.075776 0.995873 -0.049947
vn -0.074284 0.995987 -0.049924
vn -0.074285 0.995987 -0.049924
vn -0.072895 0.996089 -0.049931
vn -0.072895 0.996089 -0.049931
vn -0.072318 0.996131 -0.049934
vn -0.072318 0.996131 -0.049934
s 1
f 3/1/1 2/2/2 1/3/3 4/4/4
f 5/5/5 3/1/1 4/4/4 6/6/6
f 7/7/7 5/5/5 6/6/6 8/8/8
f 9/9/9 7/7/7 8/8/8 10/10/10
