# This file uses meters as units for non-parametric coordinates.

v -898.696045 -342.256866 1.216465
v -898.600281 -343.003448 -0.951270
v -899.686707 -342.381256 1.218957
v -899.602722 -343.124115 -0.951466
v -900.678894 -342.486328 1.219681
v -900.606750 -343.235168 -0.948390
v -901.672668 -342.575012 1.220552
v -901.614441 -343.310394 -0.954618
v -902.668274 -342.637146 1.216931
v -902.624268 -343.377411 -0.956199
v -903.665344 -342.672913 1.209586
v -903.634949 -343.439514 -0.950809
v -904.662476 -342.708801 1.212900
v -904.647827 -343.465912 -0.952346
v -905.658936 -342.729431 1.219902
v -905.661987 -343.476074 -0.950706
v -906.655212 -342.708588 1.218026
v -906.676758 -343.457336 -0.951838
v -907.651184 -342.671051 1.220290
v -907.692444 -343.410248 -0.954204
v -908.643860 -342.581421 1.209540
v -908.708313 -343.346375 -0.950821
v -898.688354 -342.316193 -0.025305
v -899.680359 -342.436310 -0.025088
v -900.673340 -342.542511 -0.023833
v -901.668396 -342.626221 -0.025401
v -902.664978 -342.692322 -0.027034
v -903.663147 -342.727722 -0.033082
v -904.661194 -342.762054 -0.030479
v -905.658936 -342.787384 -0.022726
v -906.656616 -342.762482 -0.026841
v -907.653625 -342.715240 -0.029585
v -908.648193 -342.632538 -0.034271
v -909.643250 -342.555573 -0.025792
v -909.636169 -342.492249 1.213999
v -909.722229 -343.244202 -0.951482
vt -0.500000 0.000000
vt -0.000000 0.000000
vt -0.000000 0.500000
vt -0.500000 0.500000
vt -1.000000 0.000000
vt -1.000000 0.500000
vt -1.500000 0.000000
vt -1.500000 0.500000
vt -2.000000 0.000000
vt -2.000000 0.500000
vt -2.500000 0.000000
vt -2.500000 0.500000
vt -3.000000 0.000000
vt -3.000000 0.500000
vt -3.500000 0.000000
vt -3.500000 0.500000
vt -4.000000 0.000000
vt -4.000000 0.500000
vt -4.500000 0.000000
vt -4.500000 0.500000
vt -5.000000 0.000000
vt -5.000000 0.500000
vt -5.500000 0.000000
vt -5.500000 0.500000
vt -0.000000 1.000000
vt -0.500000 1.000000
vt -1.000000 1.000000
vt -1.500000 1.000000
vt -2.000000 1.000000
vt -2.500000 1.000000
vt -3.000000 1.000000
vt -3.500000 1.000000
vt -4.000000 1.000000
vt -4.500000 1.000000
vt -5.000000 1.000000
vt -5.500000 1.000000
vn -0.114042 0.992428 -0.045621
vn -0.122333 0.991408 -0.046315
vn -0.114631 0.937655 -0.328120
vn -0.108112 0.938416 -0.328156
vn -0.096007 0.994404 -0.044085
vn -0.089559 0.940779 -0.326977
vn -0.075173 0.996242 -0.043016
vn -0.069273 0.943255 -0.324764
vn -0.049747 0.997814 -0.043505
vn -0.049796 0.943695 -0.327048
vn -0.035289 0.998416 -0.043830
vn -0.034972 0.942471 -0.332454
vn -0.029293 0.998599 -0.044065
vn -0.026281 0.942931 -0.331948
vn -0.000107 0.998995 -0.044824
vn 0.000412 0.944464 -0.328615
vn 0.032779 0.998574 -0.042129
vn 0.032381 0.944392 -0.327224
vn 0.064505 0.997162 -0.038812
vn 0.059563 0.942488 -0.328890
vn 0.084779 0.995504 -0.042245
vn 0.077859 0.939711 -0.332989
vn 0.082917 0.995483 -0.046245
vn 0.079371 0.938948 -0.334780
vn -0.095997 0.795095 -0.598840
vn -0.091905 0.795156 -0.599400
vn -0.074478 0.797374 -0.598873
vn -0.056712 0.801054 -0.595900
vn -0.045366 0.799500 -0.598951
vn -0.031335 0.794158 -0.606903
vn -0.020576 0.795394 -0.605743
vn 0.001007 0.800020 -0.599973
vn 0.028939 0.799702 -0.599699
vn 0.048533 0.794827 -0.604892
vn 0.063146 0.791329 -0.608121
vn 0.068194 0.791355 -0.607542
s 1
f 3/1/1 1/2/2 23/3/3 24/4/4
f 5/5/5 3/1/1 24/4/4 25/6/6
f 7/7/7 5/5/5 25/6/6 26/8/8
f 9/9/9 7/7/7 26/8/8 27/10/10
f 11/11/11 9/9/9 27/10/10 28/12/12
f 13/13/13 11/11/11 28/12/12 29/14/14
f 15/15/15 13/13/13 29/14/14 30/16/16
f 17/17/17 15/15/15 30/16/16 31/18/18
f 19/19/19 17/17/17 31/18/18 32/20/20
f 21/21/21 19/19/19 32/20/20 33/22/22
f 35/23/23 21/21/21 33/22/22 34/24/24
f 24/4/4 23/3/3 2/25/25 4/26/26
f 25/6/6 24/4/4 4/26/26 6/27/27
f 26/8/8 25/6/6 6/27/27 8/28/28
f 27/10/10 26/8/8 8/28/28 10/29/29
f 28/12/12 27/10/10 10/29/29 12/30/30
f 29/14/14 28/12/12 12/30/30 14/31/31
f 30/16/16 29/14/14 14/31/31 16/32/32
f 31/18/18 30/16/16 16/32/32 18/33/33
f 32/20/20 31/18/18 18/33/33 20/34/34
f 33/22/22 32/20/20 20/34/34 22/35/35
f 34/24/24 33/22/22 22/35/35 36/36/36
