# This file uses meters as units for non-parametric coordinates.

g default
v -872.139221 -235.925797 1.000000
v -872.050171 -235.971298 -1.000000
v -872.139221 -236.725800 3.000000
v -872.139221 -238.525803 6.000000
v -872.139221 -241.058090 10.000000
v -872.139221 -242.175873 15.000000
v -872.139221 -246.975876 21.000000
v -872.139221 -247.775879 23.000000
v -872.139221 -249.575882 26.000000
v -872.139221 -252.375885 30.000000
v -872.139221 -256.175873 35.000000
v -872.139221 -260.975861 41.000000
v -872.139221 -261.775848 43.000000
v -872.139221 -263.575836 46.000000
v -872.139221 -266.375824 50.000000
v -872.139221 -270.175812 55.000000
v -872.139221 -274.975800 61.000000
v -872.050171 -236.771301 -3.000000
v -872.050171 -238.571304 -6.000000
v -872.050171 -239.539429 -10.000000
v -872.050171 -241.864273 -15.000000
v -872.050171 -246.677338 -21.000000
v -872.050171 -247.477341 -23.000000
v -872.050171 -249.277344 -26.000000
v -872.050171 -252.077347 -30.000000
v -872.050171 -255.877350 -35.000000
v -872.050171 -260.677338 -41.000000
v -872.050171 -261.477325 -43.000000
v -872.050171 -263.277313 -46.000000
v -872.050171 -266.077301 -50.000000
v -872.050171 -269.877289 -55.000000
v -872.050171 -274.677277 -61.000000
v -872.050171 -275.477264 -63.000000
v -872.050171 -277.277252 -66.000000
v -872.050171 -280.077240 -70.000000
v -872.050171 -283.864166 -75.000000
v -872.050171 -288.677216 -81.000000
v -872.050171 -286.277222 -78.000000
v -872.050171 -281.964172 -72.500000
v -872.050171 -237.671295 -4.500000
v -872.050171 -239.402298 -8.000000
v -872.050171 -239.977325 -12.500000
v -872.139221 -322.925781 1.000000
v -872.050171 -322.971313 -1.000000
v -872.139221 -323.725800 3.000000
v -872.139221 -325.525818 6.000000
v -872.139221 -328.058105 10.000000
v -872.139221 -329.175873 15.000000
v -872.139221 -333.975891 21.000000
v -872.139221 -334.775879 23.000000
v -872.139221 -336.575867 26.000000
v -872.139221 -339.375885 30.000000
v -872.139221 -343.175873 35.000000
v -872.139221 -347.975861 41.000000
v -872.139221 -348.775848 43.000000
v -872.139221 -350.575836 46.000000
v -872.139221 -353.375824 50.000000
v -872.139221 -357.175812 55.000000
v -872.139221 -361.975800 61.000000
v -872.050171 -323.771301 -3.000000
v -872.050171 -324.671295 -4.500000
v -872.050171 -325.571289 -6.000000
v -872.050171 -326.402283 -8.000000
v -872.050171 -326.539429 -10.000000
v -872.050171 -326.977325 -12.500000
v -872.050171 -328.864258 -15.000000
v -872.050171 -333.677338 -21.000000
v -872.050171 -334.477356 -23.000000
v -872.050171 -336.277344 -26.000000
v -872.050171 -339.077332 -30.000000
v -872.050171 -342.877350 -35.000000
v -872.050171 -347.677338 -41.000000
v -872.050171 -348.477325 -43.000000
v -872.050171 -350.277313 -46.000000
v -872.050171 -353.077301 -50.000000
v -872.050171 -356.877289 -55.000000
v -872.050171 -361.677277 -61.000000
v -872.050171 -362.477264 -63.000000
v -872.050171 -364.277252 -66.000000
v -872.050171 -367.077240 -70.000000
v -872.050171 -368.964172 -72.500000
v -872.050171 -370.864166 -75.000000
v -872.050171 -373.277222 -78.000000
v -872.050171 -375.677216 -81.000000
vt 0.436619 0.000326
vt 0.422536 0.000000
vt 0.422536 0.622534
vt 0.436619 0.622860
vt 0.408451 0.005724
vt 0.408451 0.628259
vt 0.387324 0.018605
vt 0.387324 0.641139
vt 0.359155 0.036724
vt 0.359155 0.659258
vt 0.323944 0.044723
vt 0.323944 0.667257
vt 0.281690 0.079069
vt 0.281690 0.701604
vt 0.267606 0.084794
vt 0.267606 0.707328
vt 0.246479 0.097674
vt 0.246479 0.720208
vt 0.218310 0.117710
vt 0.218310 0.740244
vt 0.183099 0.144901
vt 0.183099 0.767435
vt 0.140845 0.179247
vt 0.140845 0.801781
vt 0.126761 0.184972
vt 0.126761 0.807506
vt 0.105634 0.197852
vt 0.105634 0.820386
vt 0.077465 0.217887
vt 0.077465 0.840421
vt 0.042253 0.245078
vt 0.042253 0.867612
vt -0.000000 0.279425
vt -0.000000 0.901959
vt 0.450704 0.006050
vt 0.450704 0.628584
vt 0.461267 0.012490
vt 0.461267 0.635024
vt 0.485915 0.024876
vt 0.471831 0.018930
vt 0.471831 0.641464
vt 0.485915 0.647410
vt 0.517605 0.028991
vt 0.500000 0.025858
vt 0.500000 0.648392
vt 0.517605 0.651525
vt 0.577465 0.076933
vt 0.535211 0.042493
vt 0.535211 0.665027
vt 0.577465 0.699467
vt 0.591549 0.082658
vt 0.591549 0.705192
vt 0.612676 0.095538
vt 0.612676 0.718072
vt 0.640845 0.115573
vt 0.640845 0.738107
vt 0.676056 0.142765
vt 0.676056 0.765299
vt 0.718310 0.177111
vt 0.718310 0.799645
vt 0.732394 0.182836
vt 0.732394 0.805369
vt 0.753521 0.195715
vt 0.753521 0.818250
vt 0.781690 0.215751
vt 0.781690 0.838285
vt 0.816901 0.242942
vt 0.816901 0.865476
vt 0.859155 0.277289
vt 0.859155 0.899823
vt 0.873239 0.283013
vt 0.873239 0.905547
vt 0.894366 0.295893
vt 0.894366 0.918427
vt 0.922535 0.315929
vt 0.922535 0.938462
vt 0.940141 0.329430
vt 0.940141 0.951964
vt 0.978873 0.360293
vt 0.957747 0.343026
vt 0.957747 0.965560
vt 0.978873 0.982827
vt 1.000000 0.377466
vt 1.000000 1.000000
vn 0.999010 0.000000 0.044481
vn 0.999010 0.000000 0.044481
vn 0.999010 0.000000 0.044481
vn 0.999010 0.000000 0.044481
vn 1.000000 0.000000 0.000000
vn 1.000000 0.000000 0.000000
vn 1.000000 0.000000 0.000000
vn 1.000000 0.000000 0.000000
vn 1.000000 0.000000 0.000000
vn 1.000000 0.000000 0.000000
vn 1.000000 0.000000 0.000000
vn 1.000000 0.000000 0.000000
vn 1.000000 0.000000 0.000000
vn 1.000000 0.000000 0.000000
vn 1.000000 0.000000 0.000000
vn 1.000000 0.000000 0.000000
vn 1.000000 0.000000 0.000000
vn 1.000000 0.000000 0.000000
vn 1.000000 0.000000 0.000000
vn 1.000000 0.000000 0.000000
vn 1.000000 0.000000 0.000000
vn 1.000000 0.000000 0.000000
vn 1.000000 0.000000 0.000000
vn 1.000000 0.000000 0.000000
vn 1.000000 0.000000 0.000000
vn 1.000000 0.000000 0.000000
vn 1.000000 0.000000 0.000000
vn 1.000000 0.000000 0.000000
vn 1.000000 0.000000 0.000000
vn 1.000000 0.000000 0.000000
vn 1.000000 0.000000 0.000000
vn 1.000000 0.000000 0.000000
vn 1.000000 0.000000 0.000000
vn 1.000000 0.000000 0.000000
vn 1.000000 0.000000 0.000000
vn 1.000000 0.000000 0.000000
vn 1.000000 0.000000 0.000000
vn 1.000000 0.000000 0.000000
vn 1.000000 0.000000 0.000000
vn 1.000000 0.000000 0.000000
vn 1.000000 0.000000 0.000000
vn 1.000000 0.000000 0.000000
vn 1.000000 0.000000 0.000000
vn 1.000000 0.000000 0.000000
vn 1.000000 0.000000 0.000000
vn 1.000000 0.000000 0.000000
vn 1.000000 0.000000 0.000000
vn 1.000000 0.000000 0.000000
vn 1.000000 0.000000 0.000000
vn 1.000000 0.000000 0.000000
vn 1.000000 0.000000 0.000000
vn 1.000000 0.000000 0.000000
vn 1.000000 0.000000 0.000000
vn 1.000000 0.000000 0.000000
vn 1.000000 0.000000 0.000000
vn 1.000000 0.000000 0.000000
vn 1.000000 0.000000 0.000000
vn 1.000000 0.000000 0.000000
vn 1.000000 0.000000 0.000000
vn 1.000000 0.000000 0.000000
vn 1.000000 0.000000 0.000000
vn 1.000000 0.000000 0.000000
vn 1.000000 0.000000 0.000000
vn 1.000000 0.000000 0.000000
vn 1.000000 0.000000 0.000000
vn 1.000000 0.000000 0.000000
vn 1.000000 0.000000 0.000000
vn 1.000000 0.000000 0.000000
vn 1.000000 0.000000 0.000000
vn 1.000000 0.000000 0.000000
vn 1.000000 0.000000 0.000000
vn 1.000000 0.000000 0.000000
vn 1.000000 0.000000 0.000000
vn 1.000000 0.000000 0.000000
vn 1.000000 0.000000 0.000000
vn 1.000000 0.000000 0.000000
vn 1.000000 0.000000 0.000000
vn 1.000000 0.000000 0.000000
vn 1.000000 0.000000 0.000000
vn 1.000000 0.000000 0.000000
vn 1.000000 0.000000 0.000000
vn 1.000000 0.000000 0.000000
vn 1.000000 0.000000 0.000000
vn 1.000000 0.000000 0.000000
vn 1.000000 0.000000 0.000000
vn 1.000000 0.000000 0.000000
vn 1.000000 0.000000 0.000000
vn 1.000000 0.000000 0.000000
vn 1.000000 0.000000 0.000000
vn 1.000000 0.000000 0.000000
vn 1.000000 0.000000 0.000000
vn 1.000000 0.000000 0.000000
vn 1.000000 0.000000 0.000000
vn 1.000000 0.000000 0.000000
vn 1.000000 0.000000 0.000000
vn 1.000000 0.000000 0.000000
vn 1.000000 0.000000 0.000000
vn 1.000000 0.000000 0.000000
vn 1.000000 0.000000 0.000000
vn 1.000000 0.000000 0.000000
vn 1.000000 0.000000 0.000000
vn 1.000000 0.000000 0.000000
vn 1.000000 0.000000 0.000000
vn 1.000000 0.000000 0.000000
vn 1.000000 0.000000 0.000000
vn 1.000000 0.000000 0.000000
vn 1.000000 0.000000 0.000000
vn 1.000000 0.000000 0.000000
vn 1.000000 0.000000 0.000000
vn 1.000000 0.000000 0.000000
vn 1.000000 0.000000 0.000000
vn 1.000000 0.000000 0.000000
vn 1.000000 0.000000 0.000000
vn 1.000000 0.000000 0.000000
vn 1.000000 0.000000 0.000000
vn 1.000000 0.000000 0.000000
vn 1.000000 0.000000 0.000000
vn 1.000000 0.000000 0.000000
vn 1.000000 0.000000 0.000000
vn 1.000000 0.000000 0.000000
vn 1.000000 0.000000 0.000000
vn 1.000000 0.000000 0.000000
vn 1.000000 0.000000 0.000000
vn 1.000000 0.000000 0.000000
vn 1.000000 0.000000 0.000000
vn 1.000000 0.000000 0.000000
vn 1.000000 0.000000 0.000000
vn 1.000000 0.000000 0.000000
vn 1.000000 0.000000 0.000000
vn 1.000000 0.000000 0.000000
vn 1.000000 0.000000 0.000000
vn 1.000000 0.000000 0.000000
vn 1.000000 0.000000 0.000000
vn 1.000000 0.000000 0.000000
vn 1.000000 0.000000 0.000000
vn 1.000000 0.000000 0.000000
vn 1.000000 0.000000 0.000000
vn 1.000000 0.000000 0.000000
vn 1.000000 0.000000 0.000000
vn 1.000000 0.000000 0.000000
vn 1.000000 0.000000 0.000000
vn 1.000000 0.000000 0.000000
vn 1.000000 0.000000 0.000000
vn 1.000000 0.000000 0.000000
vn 1.000000 0.000000 0.000000
vn 1.000000 0.000000 0.000000
vn 1.000000 0.000000 0.000000
vn 1.000000 0.000000 0.000000
vn 1.000000 0.000000 0.000000
vn 1.000000 0.000000 0.000000
vn 1.000000 0.000000 0.000000
vn 1.000000 0.000000 0.000000
vn 1.000000 0.000000 0.000000
vn 1.000000 0.000000 0.000000
vn 1.000000 0.000000 0.000000
vn 1.000000 0.000000 0.000000
vn 1.000000 0.000000 0.000000
vn 1.000000 0.000000 0.000000
vn 1.000000 0.000000 0.000000
vn 1.000000 0.000000 0.000000
vn 1.000000 0.000000 0.000000
vn 1.000000 0.000000 0.000000
vn 1.000000 0.000000 0.000000
vn 1.000000 0.000000 0.000000
s off
g hillSide_13
f 2/1/1 1/2/2 43/3/3 44/4/4
f 1/2/5 3/5/6 45/6/7 43/3/8
f 3/5/9 4/7/10 46/8/11 45/6/12
f 4/7/13 5/9/14 47/10/15 46/8/16
f 5/9/17 6/11/18 48/12/19 47/10/20
f 6/11/21 7/13/22 49/14/23 48/12/24
f 7/13/25 8/15/26 50/16/27 49/14/28
f 8/15/29 9/17/30 51/18/31 50/16/32
f 9/17/33 10/19/34 52/20/35 51/18/36
f 10/19/37 11/21/38 53/22/39 52/20/40
f 11/21/41 12/23/42 54/24/43 53/22/44
f 12/23/45 13/25/46 55/26/47 54/24/48
f 13/25/49 14/27/50 56/28/51 55/26/52
f 14/27/53 15/29/54 57/30/55 56/28/56
f 15/29/57 16/31/58 58/32/59 57/30/60
f 16/31/61 17/33/62 59/34/63 58/32/64
f 18/35/65 2/1/66 44/4/67 60/36/68
f 40/37/69 18/35/70 60/36/71 61/38/72
f 41/39/73 19/40/74 62/41/75 63/42/76
f 42/43/77 20/44/78 64/45/79 65/46/80
f 22/47/81 21/48/82 66/49/83 67/50/84
f 23/51/85 22/47/86 67/50/87 68/52/88
f 24/53/89 23/51/90 68/52/91 69/54/92
f 25/55/93 24/53/94 69/54/95 70/56/96
f 26/57/97 25/55/98 70/56/99 71/58/100
f 27/59/101 26/57/102 71/58/103 72/60/104
f 28/61/105 27/59/106 72/60/107 73/62/108
f 29/63/109 28/61/110 73/62/111 74/64/112
f 30/65/113 29/63/114 74/64/115 75/66/116
f 31/67/117 30/65/118 75/66/119 76/68/120
f 32/69/121 31/67/122 76/68/123 77/70/124
f 33/71/125 32/69/126 77/70/127 78/72/128
f 34/73/129 33/71/130 78/72/131 79/74/132
f 35/75/133 34/73/134 79/74/135 80/76/136
f 39/77/137 35/75/138 80/76/139 81/78/140
f 38/79/141 36/80/142 82/81/143 83/82/144
f 37/83/145 38/79/146 83/82/147 84/84/148
f 36/80/149 39/77/150 81/78/151 82/81/152
f 19/40/153 40/37/154 61/38/155 62/41/156
f 20/44/157 41/39/158 63/42/159 64/45/160
f 21/48/161 42/43/162 65/46/163 66/49/164
