# This file uses meters as units for non-parametric coordinates.

g default
v -1056.937988 -297.511688 1.000000
v -1056.923950 -297.610901 -1.000000
v -1056.937988 -298.167664 3.000000
v -1056.937988 -298.431915 6.000000
v -1056.937988 -299.401642 10.000000
v -1056.937988 -303.201630 15.000000
v -1056.937988 -308.001617 21.000000
v -1056.937988 -308.801605 23.000000
v -1056.937988 -310.601593 26.000000
v -1056.937988 -313.401581 30.000000
v -1056.937988 -317.201569 35.000000
v -1056.937988 -322.001556 41.000000
v -1056.937988 -322.801544 43.000000
v -1056.937988 -324.601532 46.000000
v -1056.937988 -327.401520 50.000000
v -1056.937988 -331.201508 55.000000
v -1056.937988 -336.001495 61.000000
v -1056.923950 -298.410889 -3.000000
v -1056.923950 -299.779297 -6.000000
v -1056.923950 -301.703674 -10.000000
v -1056.923950 -305.503662 -15.000000
v -1056.923950 -310.303650 -21.000000
v -1056.923950 -311.103638 -23.000000
v -1056.923950 -312.903625 -26.000000
v -1056.923950 -315.703613 -30.000000
v -1056.923950 -319.503601 -35.000000
v -1056.923950 -324.303589 -41.000000
v -1056.923950 -325.103577 -43.000000
v -1056.923950 -326.903564 -46.000000
v -1056.923950 -329.703552 -50.000000
v -1056.923950 -333.503540 -55.000000
v -1056.923950 -338.303528 -61.000000
v -1056.923950 -339.103516 -63.000000
v -1056.923950 -340.903503 -66.000000
v -1056.923950 -343.703491 -70.000000
v -1056.923950 -347.503479 -75.000000
v -1056.923950 -352.303467 -81.000000
v -1056.923950 -307.903656 -18.000000
v -1056.923950 -303.603668 -12.500000
v -1056.923950 -300.622467 -8.000000
v -1056.923950 -317.603607 -32.500000
v -1056.923950 -321.903595 -38.000000
v -1056.923950 -331.603546 -52.500000
v -1056.923950 -335.903534 -58.000000
v -1056.923950 -345.603485 -72.500000
v -1056.923950 -342.303497 -68.000000
v -1056.923950 -349.903473 -78.000000
v -1056.937988 -384.511688 1.000000
v -1056.923950 -384.610901 -1.000000
v -1056.937988 -385.167664 3.000000
v -1056.937988 -385.431915 6.000000
v -1056.937988 -386.401642 10.000000
v -1056.937988 -390.201630 15.000000
v -1056.937988 -395.001617 21.000000
v -1056.937988 -395.801605 23.000000
v -1056.937988 -397.601593 26.000000
v -1056.937988 -400.401581 30.000000
v -1056.937988 -404.201569 35.000000
v -1056.937988 -409.001556 41.000000
v -1056.937988 -409.801544 43.000000
v -1056.937988 -411.601532 46.000000
v -1056.937988 -414.401520 50.000000
v -1056.937988 -418.201508 55.000000
v -1056.937988 -423.001495 61.000000
v -1056.923950 -385.410889 -3.000000
v -1056.923950 -386.779297 -6.000000
v -1056.923950 -387.622467 -8.000000
v -1056.923950 -388.703674 -10.000000
v -1056.923950 -390.603668 -12.500000
v -1056.923950 -392.503662 -15.000000
v -1056.923950 -394.903656 -18.000000
v -1056.923950 -397.303650 -21.000000
v -1056.923950 -398.103638 -23.000000
v -1056.923950 -399.903625 -26.000000
v -1056.923950 -402.703613 -30.000000
v -1056.923950 -404.603607 -32.500000
v -1056.923950 -406.503601 -35.000000
v -1056.923950 -408.903595 -38.000000
v -1056.923950 -411.303589 -41.000000
v -1056.923950 -412.103577 -43.000000
v -1056.923950 -413.903564 -46.000000
v -1056.923950 -416.703552 -50.000000
v -1056.923950 -418.603546 -52.500000
v -1056.923950 -420.503540 -55.000000
v -1056.923950 -422.903534 -58.000000
v -1056.923950 -425.303528 -61.000000
v -1056.923950 -426.103516 -63.000000
v -1056.923950 -427.903503 -66.000000
v -1056.923950 -429.303497 -68.000000
v -1056.923950 -430.703491 -70.000000
v -1056.923950 -432.603485 -72.500000
v -1056.923950 -434.503479 -75.000000
v -1056.923950 -436.903473 -78.000000
v -1056.923950 -439.303467 -81.000000
vt 0.436620 0.000699
vt 0.422535 -0.000000
vt 0.422535 0.613576
vt 0.436620 0.614275
vt 0.408451 0.004626
vt 0.408451 0.618202
vt 0.387324 0.006490
vt 0.387324 0.620066
vt 0.359155 0.013329
vt 0.359155 0.626905
vt 0.323944 0.040129
vt 0.323944 0.653704
vt 0.281690 0.073981
vt 0.281690 0.687557
vt 0.267606 0.079623
vt 0.267606 0.693199
vt 0.246479 0.092317
vt 0.246479 0.705893
vt 0.218310 0.112065
vt 0.218310 0.725640
vt 0.183099 0.138864
vt 0.183099 0.752440
vt 0.140845 0.172717
vt 0.140845 0.786293
vt 0.126761 0.178359
vt 0.126761 0.791935
vt 0.105634 0.191054
vt 0.105634 0.804629
vt 0.077465 0.210801
vt 0.077465 0.824376
vt 0.042253 0.237600
vt 0.042253 0.851176
vt 0.000000 0.271453
vt 0.000000 0.885028
vt 0.450704 0.006341
vt 0.450704 0.619917
vt 0.471831 0.015992
vt 0.471831 0.629568
vt 0.485915 0.021939
vt 0.485915 0.635515
vt 0.517606 0.042964
vt 0.500000 0.029564
vt 0.500000 0.643140
vt 0.517606 0.656540
vt 0.556338 0.073290
vt 0.535211 0.056364
vt 0.535211 0.669940
vt 0.556338 0.686866
vt 0.591549 0.095858
vt 0.577465 0.090216
vt 0.577465 0.703792
vt 0.591549 0.709434
vt 0.612676 0.108553
vt 0.612676 0.722129
vt 0.640845 0.128300
vt 0.640845 0.741876
vt 0.658451 0.141700
vt 0.658451 0.755276
vt 0.697183 0.172026
vt 0.676056 0.155100
vt 0.676056 0.768676
vt 0.697183 0.785602
vt 0.732394 0.194594
vt 0.718310 0.188952
vt 0.718310 0.802528
vt 0.732394 0.808170
vt 0.753521 0.207289
vt 0.753521 0.820865
vt 0.781690 0.227036
vt 0.781690 0.840612
vt 0.799296 0.240436
vt 0.799296 0.854012
vt 0.838028 0.270762
vt 0.816901 0.253836
vt 0.816901 0.867411
vt 0.838028 0.884338
vt 0.873239 0.293330
vt 0.859155 0.287688
vt 0.859155 0.901264
vt 0.873239 0.906906
vt 0.894366 0.306025
vt 0.894366 0.919600
vt 0.908451 0.315898
vt 0.908451 0.929474
vt 0.940141 0.339172
vt 0.922535 0.325772
vt 0.922535 0.939348
vt 0.940141 0.952747
vt 0.978873 0.369498
vt 0.957747 0.352572
vt 0.957747 0.966147
vt 0.978873 0.983074
vt 1.000000 0.386424
vt 1.000000 1.000000
vn 0.999975 0.000000 0.007019
vn 0.999975 0.000000 0.007019
vn 0.999975 0.000000 0.007019
vn 0.999975 0.000000 0.007019
vn 1.000000 0.000000 0.000000
vn 1.000000 0.000000 0.000000
vn 1.000000 0.000000 0.000000
vn 1.000000 0.000000 0.000000
vn 1.000000 0.000000 0.000000
vn 1.000000 0.000000 0.000000
vn 1.000000 0.000000 0.000000
vn 1.000000 0.000000 0.000000
vn 1.000000 0.000000 0.000000
vn 1.000000 0.000000 0.000000
vn 1.000000 0.000000 0.000000
vn 1.000000 0.000000 0.000000
vn 1.000000 0.000000 0.000000
vn 1.000000 0.000000 0.000000
vn 1.000000 0.000000 0.000000
vn 1.000000 0.000000 0.000000
vn 1.000000 0.000000 0.000000
vn 1.000000 0.000000 0.000000
vn 1.000000 0.000000 0.000000
vn 1.000000 0.000000 0.000000
vn 1.000000 0.000000 0.000000
vn 1.000000 0.000000 0.000000
vn 1.000000 0.000000 0.000000
vn 1.000000 0.000000 0.000000
vn 1.000000 0.000000 0.000000
vn 1.000000 0.000000 0.000000
vn 1.000000 0.000000 0.000000
vn 1.000000 0.000000 0.000000
vn 1.000000 0.000000 0.000000
vn 1.000000 0.000000 0.000000
vn 1.000000 0.000000 0.000000
vn 1.000000 0.000000 0.000000
vn 1.000000 0.000000 0.000000
vn 1.000000 0.000000 0.000000
vn 1.000000 0.000000 0.000000
vn 1.000000 0.000000 0.000000
vn 1.000000 0.000000 0.000000
vn 1.000000 0.000000 0.000000
vn 1.000000 0.000000 0.000000
vn 1.000000 0.000000 0.000000
vn 1.000000 0.000000 0.000000
vn 1.000000 0.000000 0.000000
vn 1.000000 0.000000 0.000000
vn 1.000000 0.000000 0.000000
vn 1.000000 0.000000 0.000000
vn 1.000000 0.000000 0.000000
vn 1.000000 0.000000 0.000000
vn 1.000000 0.000000 0.000000
vn 1.000000 0.000000 0.000000
vn 1.000000 0.000000 0.000000
vn 1.000000 0.000000 0.000000
vn 1.000000 0.000000 0.000000
vn 1.000000 0.000000 0.000000
vn 1.000000 0.000000 0.000000
vn 1.000000 0.000000 0.000000
vn 1.000000 0.000000 0.000000
vn 1.000000 0.000000 0.000000
vn 1.000000 0.000000 0.000000
vn 1.000000 0.000000 0.000000
vn 1.000000 0.000000 0.000000
vn 1.000000 0.000000 0.000000
vn 1.000000 0.000000 0.000000
vn 1.000000 0.000000 0.000000
vn 1.000000 0.000000 0.000000
vn 1.000000 0.000000 0.000000
vn 1.000000 0.000000 0.000000
vn 1.000000 0.000000 0.000000
vn 1.000000 0.000000 0.000000
vn 1.000000 0.000000 0.000000
vn 1.000000 0.000000 0.000000
vn 1.000000 0.000000 0.000000
vn 1.000000 0.000000 0.000000
vn 1.000000 0.000000 0.000000
vn 1.000000 0.000000 0.000000
vn 1.000000 0.000000 0.000000
vn 1.000000 0.000000 0.000000
vn 1.000000 0.000000 0.000000
vn 1.000000 0.000000 0.000000
vn 1.000000 0.000000 0.000000
vn 1.000000 0.000000 0.000000
vn 1.000000 0.000000 0.000000
vn 1.000000 0.000000 0.000000
vn 1.000000 0.000000 0.000000
vn 1.000000 0.000000 0.000000
vn 1.000000 0.000000 0.000000
vn 1.000000 0.000000 0.000000
vn 1.000000 0.000000 0.000000
vn 1.000000 0.000000 0.000000
vn 1.000000 0.000000 0.000000
vn 1.000000 0.000000 0.000000
vn 1.000000 0.000000 0.000000
vn 1.000000 0.000000 0.000000
vn 1.000000 0.000000 0.000000
vn 1.000000 0.000000 0.000000
vn 1.000000 0.000000 0.000000
vn 1.000000 0.000000 0.000000
vn 1.000000 0.000000 0.000000
vn 1.000000 0.000000 0.000000
vn 1.000000 0.000000 0.000000
vn 1.000000 0.000000 0.000000
vn 1.000000 0.000000 0.000000
vn 1.000000 0.000000 0.000000
vn 1.000000 0.000000 0.000000
vn 1.000000 0.000000 0.000000
vn 1.000000 0.000000 0.000000
vn 1.000000 0.000000 0.000000
vn 1.000000 0.000000 0.000000
vn 1.000000 0.000000 0.000000
vn 1.000000 0.000000 0.000000
vn 1.000000 0.000000 0.000000
vn 1.000000 0.000000 0.000000
vn 1.000000 0.000000 0.000000
vn 1.000000 0.000000 0.000000
vn 1.000000 0.000000 0.000000
vn 1.000000 0.000000 0.000000
vn 1.000000 0.000000 0.000000
vn 1.000000 0.000000 0.000000
vn 1.000000 0.000000 0.000000
vn 1.000000 0.000000 0.000000
vn 1.000000 0.000000 0.000000
vn 1.000000 0.000000 0.000000
vn 1.000000 0.000000 0.000000
vn 1.000000 0.000000 0.000000
vn 1.000000 0.000000 0.000000
vn 1.000000 0.000000 0.000000
vn 1.000000 0.000000 0.000000
vn 1.000000 0.000000 0.000000
vn 1.000000 0.000000 0.000000
vn 1.000000 0.000000 0.000000
vn 1.000000 0.000000 0.000000
vn 1.000000 0.000000 0.000000
vn 1.000000 0.000000 0.000000
vn 1.000000 0.000000 0.000000
vn 1.000000 0.000000 0.000000
vn 1.000000 0.000000 0.000000
vn 1.000000 0.000000 0.000000
vn 1.000000 0.000000 0.000000
vn 1.000000 0.000000 0.000000
vn 1.000000 0.000000 0.000000
vn 1.000000 0.000000 0.000000
vn 1.000000 0.000000 0.000000
vn 1.000000 0.000000 0.000000
vn 1.000000 0.000000 0.000000
vn 1.000000 0.000000 0.000000
vn 1.000000 0.000000 0.000000
vn 1.000000 0.000000 0.000000
vn 1.000000 0.000000 0.000000
vn 1.000000 0.000000 0.000000
vn 1.000000 0.000000 0.000000
vn 1.000000 0.000000 0.000000
vn 1.000000 0.000000 0.000000
vn 1.000000 0.000000 0.000000
vn 1.000000 0.000000 0.000000
vn 1.000000 0.000000 0.000000
vn 1.000000 0.000000 0.000000
vn 1.000000 0.000000 0.000000
vn 1.000000 0.000000 0.000000
vn 1.000000 0.000000 0.000000
vn 1.000000 0.000000 0.000000
vn 1.000000 0.000000 0.000000
vn 1.000000 0.000000 0.000000
vn 1.000000 0.000000 0.000000
vn 1.000000 0.000000 0.000000
vn 1.000000 0.000000 0.000000
vn 1.000000 0.000000 0.000000
vn 1.000000 0.000000 0.000000
vn 1.000000 0.000000 0.000000
vn 1.000000 0.000000 0.000000
vn 1.000000 0.000000 0.000000
vn 1.000000 0.000000 0.000000
vn 1.000000 0.000000 0.000000
vn 1.000000 0.000000 0.000000
vn 1.000000 0.000000 0.000000
vn 1.000000 0.000000 0.000000
vn 1.000000 0.000000 0.000000
vn 1.000000 0.000000 0.000000
vn 1.000000 0.000000 0.000000
vn 1.000000 0.000000 0.000000
vn 1.000000 0.000000 0.000000
vn 1.000000 0.000000 0.000000
s off
g hillSide_15
f 2/1/1 1/2/2 48/3/3 49/4/4
f 1/2/5 3/5/6 50/6/7 48/3/8
f 3/5/9 4/7/10 51/8/11 50/6/12
f 4/7/13 5/9/14 52/10/15 51/8/16
f 5/9/17 6/11/18 53/12/19 52/10/20
f 6/11/21 7/13/22 54/14/23 53/12/24
f 7/13/25 8/15/26 55/16/27 54/14/28
f 8/15/29 9/17/30 56/18/31 55/16/32
f 9/17/33 10/19/34 57/20/35 56/18/36
f 10/19/37 11/21/38 58/22/39 57/20/40
f 11/21/41 12/23/42 59/24/43 58/22/44
f 12/23/45 13/25/46 60/26/47 59/24/48
f 13/25/49 14/27/50 61/28/51 60/26/52
f 14/27/53 15/29/54 62/30/55 61/28/56
f 15/29/57 16/31/58 63/32/59 62/30/60
f 16/31/61 17/33/62 64/34/63 63/32/64
f 18/35/65 2/1/66 49/4/67 65/36/68
f 19/37/69 18/35/70 65/36/71 66/38/72
f 40/39/73 19/37/74 66/38/75 67/40/76
f 39/41/77 20/42/78 68/43/79 69/44/80
f 38/45/81 21/46/82 70/47/83 71/48/84
f 23/49/85 22/50/86 72/51/87 73/52/88
f 24/53/89 23/49/90 73/52/91 74/54/92
f 25/55/93 24/53/94 74/54/95 75/56/96
f 41/57/97 25/55/98 75/56/99 76/58/100
f 42/59/101 26/60/102 77/61/103 78/62/104
f 28/63/105 27/64/106 79/65/107 80/66/108
f 29/67/109 28/63/110 80/66/111 81/68/112
f 30/69/113 29/67/114 81/68/115 82/70/116
f 43/71/117 30/69/118 82/70/119 83/72/120
f 44/73/121 31/74/122 84/75/123 85/76/124
f 33/77/125 32/78/126 86/79/127 87/80/128
f 34/81/129 33/77/130 87/80/131 88/82/132
f 46/83/133 34/81/134 88/82/135 89/84/136
f 45/85/137 35/86/138 90/87/139 91/88/140
f 47/89/141 36/90/142 92/91/143 93/92/144
f 22/50/145 38/45/146 71/48/147 72/51/148
f 21/46/149 39/41/150 69/44/151 70/47/152
f 20/42/153 40/39/154 67/40/155 68/43/156
f 26/60/157 41/57/158 76/58/159 77/61/160
f 27/64/161 42/59/162 78/62/163 79/65/164
f 31/74/165 43/71/166 83/72/167 84/75/168
f 32/78/169 44/73/170 85/76/171 86/79/172
f 36/90/173 45/85/174 91/88/175 92/91/176
f 35/86/177 46/83/178 89/84/179 90/87/180
f 37/93/181 47/89/182 93/92/183 94/94/184
