# This file uses meters as units for non-parametric coordinates.

g default
v -110.462898 -35.896542 1.000000
v -110.381401 -35.954491 -1.000000
v -110.462898 -36.050831 3.000000
v -110.462898 -36.796204 6.000000
v -110.462898 -39.011261 10.000000
v -110.462898 -42.450165 15.000000
v -110.462898 -47.732391 21.000000
v -110.462898 -49.794804 23.000000
v -110.462898 -52.412487 26.000000
v -110.462898 -55.296535 30.000000
v -110.462898 -59.096535 35.000000
v -110.462898 -63.896534 41.000000
v -110.462898 -64.696533 43.000000
v -110.462898 -66.496536 46.000000
v -110.462898 -69.296539 50.000000
v -110.462898 -73.096542 55.000000
v -110.381401 -36.754490 -3.000000
v -110.381401 -37.795502 -6.000000
v -110.381401 -40.049767 -10.000000
v -110.381401 -43.849766 -15.000000
v -110.381401 -48.649765 -21.000000
v -110.381401 -49.449764 -23.000000
v -110.381401 -51.249763 -26.000000
v -110.381401 -54.049763 -30.000000
v -110.381401 -57.849762 -35.000000
v -110.381401 -62.649761 -41.000000
v -110.381401 -63.449764 -43.000000
v -110.381401 -65.249771 -46.000000
v -110.381401 -68.049774 -50.000000
v -110.381401 -71.849777 -55.000000
v -110.381401 -76.649780 -61.000000
v -110.381401 -77.449783 -63.000000
v -110.381401 -79.249786 -66.000000
v -110.381401 -82.049789 -70.000000
v -110.381401 -85.849792 -75.000000
v -110.381401 -90.649796 -81.000000
v -110.381401 -37.452961 -4.500000
v -110.381401 -38.981556 -8.000000
v -110.462898 -122.896545 1.000000
v -110.381401 -122.954491 -1.000000
v -110.462898 -123.050827 3.000000
v -110.462898 -123.796204 6.000000
v -110.462898 -126.011261 10.000000
v -110.462898 -129.450165 15.000000
v -110.462898 -134.732391 21.000000
v -110.462898 -136.794800 23.000000
v -110.462898 -139.412491 26.000000
v -110.462898 -142.296539 30.000000
v -110.462898 -146.096527 35.000000
v -110.462898 -150.896530 41.000000
v -110.462898 -151.696533 43.000000
v -110.462898 -153.496536 46.000000
v -110.462898 -156.296539 50.000000
v -110.462898 -160.096542 55.000000
v -110.381401 -123.754486 -3.000000
v -110.381401 -124.452957 -4.500000
v -110.381401 -124.795502 -6.000000
v -110.381401 -125.981552 -8.000000
v -110.381401 -127.049767 -10.000000
v -110.381401 -130.849762 -15.000000
v -110.381401 -135.649765 -21.000000
v -110.381401 -136.449768 -23.000000
v -110.381401 -138.249756 -26.000000
v -110.381401 -141.049759 -30.000000
v -110.381401 -144.849762 -35.000000
v -110.381401 -149.649765 -41.000000
v -110.381401 -150.449768 -43.000000
v -110.381401 -152.249771 -46.000000
v -110.381401 -155.049774 -50.000000
v -110.381401 -158.849777 -55.000000
v -110.381401 -163.649780 -61.000000
v -110.381401 -164.449783 -63.000000
v -110.381401 -166.249786 -66.000000
v -110.381401 -169.049789 -70.000000
v -110.381401 -172.849792 -75.000000
v -110.381401 -177.649796 -81.000000
vt 0.411764 0.000409
vt 0.397059 -0.000000
vt 0.397059 0.613743
vt 0.411764 0.614151
vt 0.382353 0.001088
vt 0.382353 0.614831
vt 0.360294 0.006347
vt 0.360294 0.620089
vt 0.330883 0.021973
vt 0.330883 0.635715
vt 0.294118 0.046233
vt 0.294118 0.659975
vt 0.250000 0.083496
vt 0.250000 0.697239
vt 0.235294 0.098045
vt 0.235294 0.711788
vt 0.213235 0.116512
vt 0.213235 0.730254
vt 0.183824 0.136858
vt 0.183824 0.750600
vt 0.147059 0.163665
vt 0.147059 0.777407
vt 0.102941 0.197526
vt 0.102941 0.811269
vt 0.088235 0.203170
vt 0.088235 0.816912
vt 0.066177 0.215868
vt 0.066177 0.829611
vt 0.036765 0.235621
vt 0.036765 0.849363
vt 0.000000 0.262428
vt 0.000000 0.876170
vt 0.426470 0.006052
vt 0.426470 0.619795
vt 0.437500 0.010980
vt 0.437500 0.624722
vt 0.463235 0.021763
vt 0.448529 0.013396
vt 0.448529 0.627139
vt 0.463235 0.635506
vt 0.514706 0.056106
vt 0.477941 0.029299
vt 0.477941 0.643041
vt 0.514706 0.669849
vt 0.558823 0.089968
vt 0.558823 0.703710
vt 0.573529 0.095611
vt 0.573529 0.709354
vt 0.595588 0.108310
vt 0.595588 0.722052
vt 0.625000 0.128062
vt 0.625000 0.741805
vt 0.661765 0.154869
vt 0.661765 0.768612
vt 0.705882 0.188731
vt 0.705882 0.802473
vt 0.720588 0.194375
vt 0.720588 0.808117
vt 0.742647 0.207073
vt 0.742647 0.820815
vt 0.772059 0.226825
vt 0.772059 0.840568
vt 0.808823 0.253632
vt 0.808823 0.867375
vt 0.852941 0.287494
vt 0.852941 0.901237
vt 0.867647 0.293138
vt 0.867647 0.906880
vt 0.889706 0.305836
vt 0.889706 0.919579
vt 0.919118 0.325589
vt 0.919118 0.939331
vt 0.955882 0.352396
vt 0.955882 0.966138
vt 1.000000 0.386257
vt 1.000000 1.000000
vn 0.999171 0.000000 0.040715
vn 0.999171 0.000000 0.040715
vn 0.999171 0.000000 0.040715
vn 0.999171 0.000000 0.040715
vn 1.000000 0.000000 0.000000
vn 1.000000 0.000000 0.000000
vn 1.000000 0.000000 0.000000
vn 1.000000 0.000000 0.000000
vn 1.000000 0.000000 0.000000
vn 1.000000 0.000000 0.000000
vn 1.000000 0.000000 0.000000
vn 1.000000 0.000000 0.000000
vn 1.000000 0.000000 0.000000
vn 1.000000 0.000000 0.000000
vn 1.000000 0.000000 0.000000
vn 1.000000 0.000000 0.000000
vn 1.000000 0.000000 0.000000
vn 1.000000 0.000000 0.000000
vn 1.000000 0.000000 0.000000
vn 1.000000 0.000000 0.000000
vn 1.000000 0.000000 0.000000
vn 1.000000 0.000000 0.000000
vn 1.000000 0.000000 0.000000
vn 1.000000 0.000000 0.000000
vn 1.000000 0.000000 0.000000
vn 1.000000 0.000000 0.000000
vn 1.000000 0.000000 0.000000
vn 1.000000 0.000000 0.000000
vn 1.000000 0.000000 0.000000
vn 1.000000 0.000000 0.000000
vn 1.000000 0.000000 0.000000
vn 1.000000 0.000000 0.000000
vn 1.000000 0.000000 0.000000
vn 1.000000 0.000000 0.000000
vn 1.000000 0.000000 0.000000
vn 1.000000 0.000000 0.000000
vn 1.000000 0.000000 0.000000
vn 1.000000 0.000000 0.000000
vn 1.000000 0.000000 0.000000
vn 1.000000 0.000000 0.000000
vn 1.000000 0.000000 0.000000
vn 1.000000 0.000000 0.000000
vn 1.000000 0.000000 0.000000
vn 1.000000 0.000000 0.000000
vn 1.000000 0.000000 0.000000
vn 1.000000 0.000000 0.000000
vn 1.000000 0.000000 0.000000
vn 1.000000 0.000000 0.000000
vn 1.000000 0.000000 0.000000
vn 1.000000 0.000000 0.000000
vn 1.000000 0.000000 0.000000
vn 1.000000 0.000000 0.000000
vn 1.000000 0.000000 0.000000
vn 1.000000 0.000000 0.000000
vn 1.000000 0.000000 0.000000
vn 1.000000 0.000000 0.000000
vn 1.000000 0.000000 0.000000
vn 1.000000 0.000000 0.000000
vn 1.000000 0.000000 0.000000
vn 1.000000 0.000000 0.000000
vn 1.000000 0.000000 0.000000
vn 1.000000 0.000000 0.000000
vn 1.000000 0.000000 0.000000
vn 1.000000 0.000000 0.000000
vn 1.000000 0.000000 0.000000
vn 1.000000 0.000000 0.000000
vn 1.000000 0.000000 0.000000
vn 1.000000 0.000000 0.000000
vn 1.000000 0.000000 0.000000
vn 1.000000 0.000000 0.000000
vn 1.000000 0.000000 0.000000
vn 1.000000 0.000000 0.000000
vn 1.000000 0.000000 0.000000
vn 1.000000 0.000000 0.000000
vn 1.000000 0.000000 0.000000
vn 1.000000 0.000000 0.000000
vn 1.000000 0.000000 0.000000
vn 1.000000 0.000000 0.000000
vn 1.000000 0.000000 0.000000
vn 1.000000 0.000000 0.000000
vn 1.000000 0.000000 0.000000
vn 1.000000 0.000000 0.000000
vn 1.000000 0.000000 0.000000
vn 1.000000 0.000000 0.000000
vn 1.000000 0.000000 0.000000
vn 1.000000 0.000000 0.000000
vn 1.000000 0.000000 0.000000
vn 1.000000 0.000000 0.000000
vn 1.000000 0.000000 0.000000
vn 1.000000 0.000000 0.000000
vn 1.000000 0.000000 0.000000
vn 1.000000 0.000000 0.000000
vn 1.000000 0.000000 0.000000
vn 1.000000 0.000000 0.000000
vn 1.000000 0.000000 0.000000
vn 1.000000 0.000000 0.000000
vn 1.000000 0.000000 0.000000
vn 1.000000 0.000000 0.000000
vn 1.000000 0.000000 0.000000
vn 1.000000 0.000000 0.000000
vn 1.000000 0.000000 0.000000
vn 1.000000 0.000000 0.000000
vn 1.000000 0.000000 0.000000
vn 1.000000 0.000000 0.000000
vn 1.000000 0.000000 0.000000
vn 1.000000 0.000000 0.000000
vn 1.000000 0.000000 0.000000
vn 1.000000 0.000000 0.000000
vn 1.000000 0.000000 0.000000
vn 1.000000 0.000000 0.000000
vn 1.000000 0.000000 0.000000
vn 1.000000 0.000000 0.000000
vn 1.000000 0.000000 0.000000
vn 1.000000 0.000000 0.000000
vn 1.000000 0.000000 0.000000
vn 1.000000 0.000000 0.000000
vn 1.000000 0.000000 0.000000
vn 1.000000 0.000000 0.000000
vn 1.000000 0.000000 0.000000
vn 1.000000 0.000000 0.000000
vn 1.000000 0.000000 0.000000
vn 1.000000 0.000000 0.000000
vn 1.000000 0.000000 0.000000
vn 1.000000 0.000000 0.000000
vn 1.000000 0.000000 0.000000
vn 1.000000 0.000000 0.000000
vn 1.000000 0.000000 0.000000
vn 1.000000 0.000000 0.000000
vn 1.000000 0.000000 0.000000
vn 1.000000 0.000000 0.000000
vn 1.000000 0.000000 0.000000
vn 1.000000 0.000000 0.000000
vn 1.000000 0.000000 0.000000
vn 1.000000 0.000000 0.000000
vn 1.000000 0.000000 0.000000
vn 1.000000 0.000000 0.000000
vn 1.000000 0.000000 0.000000
vn 1.000000 0.000000 0.000000
vn 1.000000 0.000000 0.000000
vn 1.000000 0.000000 0.000000
vn 1.000000 0.000000 0.000000
vn 1.000000 0.000000 0.000000
vn 1.000000 0.000000 0.000000
vn 1.000000 0.000000 0.000000
vn 1.000000 0.000000 0.000000
vn 1.000000 0.000000 0.000000
vn 1.000000 0.000000 0.000000
vn 1.000000 0.000000 0.000000
s off
g hillSide__03
f 2/1/1 1/2/2 39/3/3 40/4/4
f 1/2/5 3/5/6 41/6/7 39/3/8
f 3/5/9 4/7/10 42/8/11 41/6/12
f 4/7/13 5/9/14 43/10/15 42/8/16
f 5/9/17 6/11/18 44/12/19 43/10/20
f 6/11/21 7/13/22 45/14/23 44/12/24
f 7/13/25 8/15/26 46/16/27 45/14/28
f 8/15/29 9/17/30 47/18/31 46/16/32
f 9/17/33 10/19/34 48/20/35 47/18/36
f 10/19/37 11/21/38 49/22/39 48/20/40
f 11/21/41 12/23/42 50/24/43 49/22/44
f 12/23/45 13/25/46 51/26/47 50/24/48
f 13/25/49 14/27/50 52/28/51 51/26/52
f 14/27/53 15/29/54 53/30/55 52/28/56
f 15/29/57 16/31/58 54/32/59 53/30/60
f 17/33/61 2/1/62 40/4/63 55/34/64
f 37/35/65 17/33/66 55/34/67 56/36/68
f 38/37/69 18/38/70 57/39/71 58/40/72
f 20/41/73 19/42/74 59/43/75 60/44/76
f 21/45/77 20/41/78 60/44/79 61/46/80
f 22/47/81 21/45/82 61/46/83 62/48/84
f 23/49/85 22/47/86 62/48/87 63/50/88
f 24/51/89 23/49/90 63/50/91 64/52/92
f 25/53/93 24/51/94 64/52/95 65/54/96
f 26/55/97 25/53/98 65/54/99 66/56/100
f 27/57/101 26/55/102 66/56/103 67/58/104
f 28/59/105 27/57/106 67/58/107 68/60/108
f 29/61/109 28/59/110 68/60/111 69/62/112
f 30/63/113 29/61/114 69/62/115 70/64/116
f 31/65/117 30/63/118 70/64/119 71/66/120
f 32/67/121 31/65/122 71/66/123 72/68/124
f 33/69/125 32/67/126 72/68/127 73/70/128
f 34/71/129 33/69/130 73/70/131 74/72/132
f 35/73/133 34/71/134 74/72/135 75/74/136
f 36/75/137 35/73/138 75/74/139 76/76/140
f 18/38/141 37/35/142 56/36/143 57/39/144
f 19/42/145 38/37/146 58/40/147 59/43/148
