# This file uses meters as units for non-parametric coordinates.

g default
v -620.255188 -168.894302 1.000000
v -620.208374 -168.982697 -1.000000
v -620.255188 -169.694305 3.000000
v -620.255188 -171.494308 6.000000
v -620.255188 -174.294312 10.000000
v -620.255188 -178.094315 15.000000
v -620.255188 -182.894318 21.000000
v -620.255188 -183.694321 23.000000
v -620.255188 -185.494324 26.000000
v -620.255188 -188.294327 30.000000
v -620.255188 -192.094330 35.000000
v -620.255188 -196.894333 41.000000
v -620.255188 -197.694336 43.000000
v -620.255188 -199.494339 46.000000
v -620.255188 -202.294342 50.000000
v -620.255188 -206.094345 55.000000
v -620.255188 -210.894348 61.000000
v -620.208374 -169.782700 -3.000000
v -620.208374 -171.582703 -6.000000
v -620.208374 -174.987793 -10.000000
v -620.208374 -178.890640 -15.000000
v -620.208374 -183.628464 -21.000000
v -620.208374 -184.411591 -23.000000
v -620.208374 -186.187805 -26.000000
v -620.208374 -188.987808 -30.000000
v -620.208374 -192.787811 -35.000000
v -620.208374 -197.587814 -41.000000
v -620.208374 -198.411606 -43.000000
v -620.208374 -200.187820 -46.000000
v -620.208374 -202.987823 -50.000000
v -620.208374 -206.787827 -55.000000
v -620.208374 -211.587830 -61.000000
v -620.208374 -212.411621 -63.000000
v -620.208374 -214.187836 -66.000000
v -620.208374 -216.987839 -70.000000
v -620.208374 -220.787842 -75.000000
v -620.208374 -225.587845 -81.000000
v -620.208374 -170.682709 -4.500000
v -620.208374 -173.170563 -8.000000
v -620.208374 -176.990646 -12.500000
v -620.208374 -181.228455 -18.000000
v -620.255188 -255.894302 1.000000
v -620.208374 -255.982697 -1.000000
v -620.255188 -256.694305 3.000000
v -620.255188 -258.494324 6.000000
v -620.255188 -261.294312 10.000000
v -620.255188 -265.094299 15.000000
v -620.255188 -269.894318 21.000000
v -620.255188 -270.694336 23.000000
v -620.255188 -272.494324 26.000000
v -620.255188 -275.294312 30.000000
v -620.255188 -279.094330 35.000000
v -620.255188 -283.894348 41.000000
v -620.255188 -284.694336 43.000000
v -620.255188 -286.494324 46.000000
v -620.255188 -289.294342 50.000000
v -620.255188 -293.094360 55.000000
v -620.255188 -297.894348 61.000000
v -620.208374 -256.782715 -3.000000
v -620.208374 -257.682709 -4.500000
v -620.208374 -258.582703 -6.000000
v -620.208374 -260.170563 -8.000000
v -620.208374 -261.987793 -10.000000
v -620.208374 -263.990662 -12.500000
v -620.208374 -265.890625 -15.000000
v -620.208374 -268.228455 -18.000000
v -620.208374 -270.628479 -21.000000
v -620.208374 -271.411591 -23.000000
v -620.208374 -273.187805 -26.000000
v -620.208374 -275.987793 -30.000000
v -620.208374 -279.787811 -35.000000
v -620.208374 -284.587830 -41.000000
v -620.208374 -285.411621 -43.000000
v -620.208374 -287.187805 -46.000000
v -620.208374 -289.987823 -50.000000
v -620.208374 -293.787842 -55.000000
v -620.208374 -298.587830 -61.000000
v -620.208374 -299.411621 -63.000000
v -620.208374 -301.187836 -66.000000
v -620.208374 -303.987854 -70.000000
v -620.208374 -307.787842 -75.000000
v -620.208374 -312.587830 -81.000000
vt 0.436620 0.000615
vt 0.422535 0.000000
vt 0.422535 0.605455
vt 0.436620 0.606070
vt 0.408451 0.005567
vt 0.408451 0.611023
vt 0.387324 0.018094
vt 0.387324 0.623549
vt 0.359155 0.037580
vt 0.359155 0.643035
vt 0.323944 0.064025
vt 0.323944 0.669480
vt 0.281690 0.097430
vt 0.281690 0.702885
vt 0.267606 0.102997
vt 0.267606 0.708452
vt 0.246479 0.115524
vt 0.246479 0.720979
vt 0.218310 0.135010
vt 0.218310 0.740465
vt 0.183099 0.161455
vt 0.183099 0.766910
vt 0.140845 0.194859
vt 0.140845 0.800315
vt 0.126761 0.200427
vt 0.126761 0.805882
vt 0.105634 0.212953
vt 0.105634 0.818409
vt 0.077465 0.232439
vt 0.077465 0.837894
vt 0.042253 0.258885
vt 0.042253 0.864340
vt -0.000000 0.292289
vt -0.000000 0.897744
vt 0.450704 0.006183
vt 0.450704 0.611638
vt 0.461267 0.012446
vt 0.461267 0.617901
vt 0.485915 0.029760
vt 0.471831 0.018709
vt 0.471831 0.624164
vt 0.485915 0.635215
vt 0.517605 0.056345
vt 0.500000 0.042406
vt 0.500000 0.647861
vt 0.517605 0.661800
vt 0.556338 0.085837
vt 0.535211 0.069567
vt 0.535211 0.675022
vt 0.556338 0.691292
vt 0.591549 0.107989
vt 0.577465 0.102539
vt 0.577465 0.707994
vt 0.591549 0.713444
vt 0.612676 0.120350
vt 0.612676 0.725805
vt 0.640845 0.139836
vt 0.640845 0.745291
vt 0.676056 0.166281
vt 0.676056 0.771736
vt 0.718310 0.199685
vt 0.718310 0.805141
vt 0.732394 0.205418
vt 0.732394 0.810874
vt 0.753521 0.217780
vt 0.753521 0.823235
vt 0.781690 0.237265
vt 0.781690 0.842721
vt 0.816901 0.263711
vt 0.816901 0.869166
vt 0.859155 0.297115
vt 0.859155 0.902570
vt 0.873239 0.302848
vt 0.873239 0.908303
vt 0.894366 0.315209
vt 0.894366 0.920664
vt 0.922535 0.334695
vt 0.922535 0.940150
vt 0.957746 0.361140
vt 0.957746 0.966595
vt 1.000000 0.394545
vt 1.000000 1.000000
vn 0.999726 0.000000 0.023401
vn 0.999726 0.000000 0.023401
vn 0.999726 0.000000 0.023401
vn 0.999726 0.000000 0.023401
vn 1.000000 0.000000 0.000000
vn 1.000000 0.000000 0.000000
vn 1.000000 0.000000 0.000000
vn 1.000000 0.000000 0.000000
vn 1.000000 0.000000 0.000000
vn 1.000000 0.000000 0.000000
vn 1.000000 0.000000 0.000000
vn 1.000000 0.000000 0.000000
vn 1.000000 0.000000 0.000000
vn 1.000000 0.000000 0.000000
vn 1.000000 0.000000 0.000000
vn 1.000000 0.000000 0.000000
vn 1.000000 0.000000 0.000000
vn 1.000000 0.000000 0.000000
vn 1.000000 0.000000 0.000000
vn 1.000000 0.000000 0.000000
vn 1.000000 0.000000 0.000000
vn 1.000000 0.000000 0.000000
vn 1.000000 0.000000 0.000000
vn 1.000000 0.000000 0.000000
vn 1.000000 0.000000 0.000000
vn 1.000000 0.000000 0.000000
vn 1.000000 0.000000 0.000000
vn 1.000000 0.000000 0.000000
vn 1.000000 0.000000 0.000000
vn 1.000000 0.000000 0.000000
vn 1.000000 0.000000 0.000000
vn 1.000000 0.000000 0.000000
vn 1.000000 0.000000 0.000000
vn 1.000000 0.000000 0.000000
vn 1.000000 0.000000 0.000000
vn 1.000000 0.000000 0.000000
vn 1.000000 0.000000 0.000000
vn 1.000000 0.000000 0.000000
vn 1.000000 0.000000 0.000000
vn 1.000000 0.000000 0.000000
vn 1.000000 0.000000 0.000000
vn 1.000000 0.000000 0.000000
vn 1.000000 0.000000 0.000000
vn 1.000000 0.000000 0.000000
vn 1.000000 0.000000 0.000000
vn 1.000000 0.000000 0.000000
vn 1.000000 0.000000 0.000000
vn 1.000000 0.000000 0.000000
vn 1.000000 0.000000 0.000000
vn 1.000000 0.000000 0.000000
vn 1.000000 0.000000 0.000000
vn 1.000000 0.000000 0.000000
vn 1.000000 0.000000 0.000000
vn 1.000000 0.000000 0.000000
vn 1.000000 0.000000 0.000000
vn 1.000000 0.000000 0.000000
vn 1.000000 0.000000 0.000000
vn 1.000000 0.000000 0.000000
vn 1.000000 0.000000 0.000000
vn 1.000000 0.000000 0.000000
vn 1.000000 0.000000 0.000000
vn 1.000000 0.000000 0.000000
vn 1.000000 0.000000 0.000000
vn 1.000000 0.000000 0.000000
vn 1.000000 0.000000 0.000000
vn 1.000000 0.000000 0.000000
vn 1.000000 0.000000 0.000000
vn 1.000000 0.000000 0.000000
vn 1.000000 0.000000 0.000000
vn 1.000000 0.000000 0.000000
vn 1.000000 0.000000 0.000000
vn 1.000000 0.000000 0.000000
vn 1.000000 0.000000 0.000000
vn 1.000000 0.000000 0.000000
vn 1.000000 0.000000 0.000000
vn 1.000000 0.000000 0.000000
vn 1.000000 0.000000 0.000000
vn 1.000000 0.000000 0.000000
vn 1.000000 0.000000 0.000000
vn 1.000000 0.000000 0.000000
vn 1.000000 0.000000 0.000000
vn 1.000000 0.000000 0.000000
vn 1.000000 0.000000 0.000000
vn 1.000000 0.000000 0.000000
vn 1.000000 0.000000 0.000000
vn 1.000000 0.000000 0.000000
vn 1.000000 0.000000 0.000000
vn 1.000000 0.000000 0.000000
vn 1.000000 0.000000 0.000000
vn 1.000000 0.000000 0.000000
vn 1.000000 0.000000 0.000000
vn 1.000000 0.000000 0.000000
vn 1.000000 0.000000 0.000000
vn 1.000000 0.000000 0.000000
vn 1.000000 0.000000 0.000000
vn 1.000000 0.000000 0.000000
vn 1.000000 0.000000 0.000000
vn 1.000000 0.000000 0.000000
vn 1.000000 0.000000 0.000000
vn 1.000000 0.000000 0.000000
vn 1.000000 0.000000 0.000000
vn 1.000000 0.000000 0.000000
vn 1.000000 0.000000 0.000000
vn 1.000000 0.000000 0.000000
vn 1.000000 0.000000 0.000000
vn 1.000000 0.000000 0.000000
vn 1.000000 0.000000 0.000000
vn 1.000000 0.000000 0.000000
vn 1.000000 0.000000 0.000000
vn 1.000000 0.000000 0.000000
vn 1.000000 0.000000 0.000000
vn 1.000000 0.000000 0.000000
vn 1.000000 0.000000 0.000000
vn 1.000000 0.000000 0.000000
vn 1.000000 0.000000 0.000000
vn 1.000000 0.000000 0.000000
vn 1.000000 0.000000 0.000000
vn 1.000000 0.000000 0.000000
vn 1.000000 0.000000 0.000000
vn 1.000000 0.000000 0.000000
vn 1.000000 0.000000 0.000000
vn 1.000000 0.000000 0.000000
vn 1.000000 0.000000 0.000000
vn 1.000000 0.000000 0.000000
vn 1.000000 0.000000 0.000000
vn 1.000000 0.000000 0.000000
vn 1.000000 0.000000 0.000000
vn 1.000000 0.000000 0.000000
vn 1.000000 0.000000 0.000000
vn 1.000000 0.000000 0.000000
vn 1.000000 0.000000 0.000000
vn 1.000000 0.000000 0.000000
vn 1.000000 0.000000 0.000000
vn 1.000000 0.000000 0.000000
vn 1.000000 0.000000 0.000000
vn 1.000000 0.000000 0.000000
vn 1.000000 0.000000 0.000000
vn 1.000000 0.000000 0.000000
vn 1.000000 0.000000 0.000000
vn 1.000000 0.000000 0.000000
vn 1.000000 0.000000 0.000000
vn 1.000000 0.000000 0.000000
vn 1.000000 0.000000 0.000000
vn 1.000000 0.000000 0.000000
vn 1.000000 0.000000 0.000000
vn 1.000000 0.000000 0.000000
vn 1.000000 0.000000 0.000000
vn 1.000000 0.000000 0.000000
vn 1.000000 0.000000 0.000000
vn 1.000000 0.000000 0.000000
vn 1.000000 0.000000 0.000000
vn 1.000000 0.000000 0.000000
vn 1.000000 0.000000 0.000000
vn 1.000000 0.000000 0.000000
vn 1.000000 0.000000 0.000000
vn 1.000000 0.000000 0.000000
vn 1.000000 0.000000 0.000000
vn 1.000000 0.000000 0.000000
vn 1.000000 0.000000 0.000000
vn 1.000000 0.000000 0.000000
s off
g hillSide_07
f 2/1/1 1/2/2 42/3/3 43/4/4
f 1/2/5 3/5/6 44/6/7 42/3/8
f 3/5/9 4/7/10 45/8/11 44/6/12
f 4/7/13 5/9/14 46/10/15 45/8/16
f 5/9/17 6/11/18 47/12/19 46/10/20
f 6/11/21 7/13/22 48/14/23 47/12/24
f 7/13/25 8/15/26 49/16/27 48/14/28
f 8/15/29 9/17/30 50/18/31 49/16/32
f 9/17/33 10/19/34 51/20/35 50/18/36
f 10/19/37 11/21/38 52/22/39 51/20/40
f 11/21/41 12/23/42 53/24/43 52/22/44
f 12/23/45 13/25/46 54/26/47 53/24/48
f 13/25/49 14/27/50 55/28/51 54/26/52
f 14/27/53 15/29/54 56/30/55 55/28/56
f 15/29/57 16/31/58 57/32/59 56/30/60
f 16/31/61 17/33/62 58/34/63 57/32/64
f 18/35/65 2/1/66 43/4/67 59/36/68
f 38/37/69 18/35/70 59/36/71 60/38/72
f 39/39/73 19/40/74 61/41/75 62/42/76
f 40/43/77 20/44/78 63/45/79 64/46/80
f 41/47/81 21/48/82 65/49/83 66/50/84
f 23/51/85 22/52/86 67/53/87 68/54/88
f 24/55/89 23/51/90 68/54/91 69/56/92
f 25/57/93 24/55/94 69/56/95 70/58/96
f 26/59/97 25/57/98 70/58/99 71/60/100
f 27/61/101 26/59/102 71/60/103 72/62/104
f 28/63/105 27/61/106 72/62/107 73/64/108
f 29/65/109 28/63/110 73/64/111 74/66/112
f 30/67/113 29/65/114 74/66/115 75/68/116
f 31/69/117 30/67/118 75/68/119 76/70/120
f 32/71/121 31/69/122 76/70/123 77/72/124
f 33/73/125 32/71/126 77/72/127 78/74/128
f 34/75/129 33/73/130 78/74/131 79/76/132
f 35/77/133 34/75/134 79/76/135 80/78/136
f 36/79/137 35/77/138 80/78/139 81/80/140
f 37/81/141 36/79/142 81/80/143 82/82/144
f 19/40/145 38/37/146 60/38/147 61/41/148
f 20/44/149 39/39/150 62/42/151 63/45/152
f 21/48/153 40/43/154 64/46/155 65/49/156
f 22/52/157 41/47/158 66/50/159 67/53/160
