# This file uses meters as units for non-parametric coordinates.

g default
v -728.784729 -198.287003 1.000000
v -728.816101 -198.382004 -1.000000
v -728.784729 -199.087006 3.000000
v -728.784729 -200.887009 6.000000
v -728.784729 -203.687012 10.000000
v -728.784729 -207.487015 15.000000
v -728.784729 -212.287018 21.000000
v -728.784729 -213.087021 23.000000
v -728.784729 -214.887024 26.000000
v -728.784729 -217.687027 30.000000
v -728.784729 -221.487030 35.000000
v -728.784729 -226.287033 41.000000
v -728.784729 -227.087036 43.000000
v -728.784729 -228.887039 46.000000
v -728.784729 -231.687042 50.000000
v -728.784729 -235.487045 55.000000
v -728.784729 -240.287048 61.000000
v -728.816101 -199.178406 -3.000000
v -728.816101 -200.349655 -6.000000
v -728.816101 -202.058212 -10.000000
v -728.816101 -205.858215 -15.000000
v -728.816101 -210.658218 -21.000000
v -728.816101 -211.458221 -23.000000
v -728.816101 -213.258224 -26.000000
v -728.816101 -216.058228 -30.000000
v -728.816101 -219.858231 -35.000000
v -728.816101 -224.658234 -41.000000
v -728.816101 -225.458237 -43.000000
v -728.816101 -227.258240 -46.000000
v -728.816101 -230.058243 -50.000000
v -728.816101 -233.858246 -55.000000
v -728.816101 -238.658249 -61.000000
v -728.816101 -239.458252 -63.000000
v -728.816101 -241.258255 -66.000000
v -728.816101 -244.058258 -70.000000
v -728.816101 -247.858261 -75.000000
v -728.816101 -252.658264 -81.000000
v -728.816101 -231.958237 -52.500000
v -728.816101 -236.258255 -58.000000
v -728.816101 -245.958267 -72.500000
v -728.816101 -242.658249 -68.000000
v -728.816101 -250.258255 -78.000000
v -728.816101 -222.258224 -38.000000
v -728.816101 -217.958237 -32.500000
v -728.816101 -214.658218 -28.000000
v -728.816101 -208.258224 -18.000000
v -728.816101 -203.958206 -12.500000
v -728.816101 -201.054871 -8.000000
v -728.816101 -285.382019 -1.000000
v -728.784729 -285.286987 1.000000
v -728.784729 -286.087006 3.000000
v -728.784729 -287.887024 6.000000
v -728.784729 -290.687012 10.000000
v -728.784729 -294.487000 15.000000
v -728.784729 -299.287018 21.000000
v -728.784729 -300.087036 23.000000
v -728.784729 -301.887024 26.000000
v -728.784729 -304.687012 30.000000
v -728.784729 -308.487030 35.000000
v -728.784729 -313.287048 41.000000
v -728.784729 -314.087036 43.000000
v -728.784729 -315.887024 46.000000
v -728.784729 -318.687042 50.000000
v -728.784729 -322.487061 55.000000
v -728.784729 -327.287048 61.000000
v -728.816101 -286.178406 -3.000000
v -728.816101 -287.349670 -6.000000
v -728.816101 -288.054871 -8.000000
v -728.816101 -289.058228 -10.000000
v -728.816101 -290.958191 -12.500000
v -728.816101 -292.858215 -15.000000
v -728.816101 -295.258240 -18.000000
v -728.816101 -297.658203 -21.000000
v -728.816101 -298.458221 -23.000000
v -728.816101 -300.258240 -26.000000
v -728.816101 -301.658203 -28.000000
v -728.816101 -303.058228 -30.000000
v -728.816101 -304.958252 -32.500000
v -728.816101 -306.858215 -35.000000
v -728.816101 -309.258240 -38.000000
v -728.816101 -311.658234 -41.000000
v -728.816101 -312.458252 -43.000000
v -728.816101 -314.258240 -46.000000
v -728.816101 -317.058228 -50.000000
v -728.816101 -318.958252 -52.500000
v -728.816101 -320.858246 -55.000000
v -728.816101 -323.258240 -58.000000
v -728.816101 -325.658264 -61.000000
v -728.816101 -326.458252 -63.000000
v -728.816101 -328.258240 -66.000000
v -728.816101 -329.658264 -68.000000
v -728.816101 -331.058258 -70.000000
v -728.816101 -332.958252 -72.500000
v -728.816101 -334.858276 -75.000000
v -728.816101 -337.258240 -78.000000
v -728.816101 -339.658264 -81.000000
vt 0.577465 0.000000
vt 0.563380 0.000672
vt 0.563380 0.616073
vt 0.577465 0.615401
vt 0.591549 0.005659
vt 0.591549 0.621060
vt 0.612676 0.018391
vt 0.612676 0.633792
vt 0.640845 0.038197
vt 0.640845 0.653598
vt 0.676056 0.065077
vt 0.676056 0.680478
vt 0.718310 0.099030
vt 0.718310 0.714431
vt 0.732394 0.104689
vt 0.732394 0.720090
vt 0.753521 0.117422
vt 0.753521 0.732822
vt 0.781690 0.137228
vt 0.781690 0.752628
vt 0.816901 0.164107
vt 0.816901 0.779508
vt 0.859155 0.198060
vt 0.859155 0.813461
vt 0.873239 0.203719
vt 0.873239 0.819120
vt 0.894366 0.216452
vt 0.894366 0.831852
vt 0.922535 0.236258
vt 0.922535 0.851659
vt 0.957747 0.263137
vt 0.957747 0.878538
vt 1.000000 0.297090
vt 1.000000 0.912491
vt 0.549296 0.006305
vt 0.549296 0.621706
vt 0.528169 0.014590
vt 0.528169 0.629991
vt 0.514085 0.019579
vt 0.514085 0.634979
vt 0.500000 0.026676
vt 0.482394 0.040116
vt 0.482394 0.655516
vt 0.500000 0.642077
vt 0.464789 0.053556
vt 0.443662 0.070532
vt 0.443662 0.685933
vt 0.464789 0.668956
vt 0.422535 0.087509
vt 0.408451 0.093168
vt 0.408451 0.708568
vt 0.422535 0.702909
vt 0.387324 0.105900
vt 0.387324 0.721301
vt 0.373239 0.115803
vt 0.373239 0.731204
vt 0.359155 0.125706
vt 0.341549 0.139146
vt 0.341549 0.754547
vt 0.359155 0.741107
vt 0.323944 0.152586
vt 0.302817 0.169562
vt 0.302817 0.784963
vt 0.323944 0.767986
vt 0.281690 0.186539
vt 0.267606 0.192198
vt 0.267606 0.807599
vt 0.281690 0.801940
vt 0.246479 0.204930
vt 0.246479 0.820331
vt 0.218310 0.224736
vt 0.218310 0.840137
vt 0.200704 0.238176
vt 0.200704 0.853577
vt 0.183099 0.251616
vt 0.161972 0.268593
vt 0.161972 0.883993
vt 0.183099 0.867017
vt 0.140845 0.285569
vt 0.126761 0.291228
vt 0.126761 0.906629
vt 0.140845 0.900970
vt 0.105634 0.303960
vt 0.105634 0.919361
vt 0.091549 0.313863
vt 0.091549 0.929264
vt 0.077465 0.323766
vt 0.059859 0.337206
vt 0.059859 0.952607
vt 0.077465 0.939167
vt 0.042253 0.350646
vt 0.021127 0.367623
vt 0.021127 0.983023
vt 0.042253 0.966047
vt -0.000000 0.384599
vt -0.000000 1.000000
vn -0.999877 0.000000 0.015684
vn -0.999877 0.000000 0.015684
vn -0.999877 0.000000 0.015684
vn -0.999877 0.000000 0.015684
vn -1.000000 0.000000 0.000000
vn -1.000000 0.000000 0.000000
vn -1.000000 0.000000 0.000000
vn -1.000000 0.000000 0.000000
vn -1.000000 0.000000 0.000000
vn -1.000000 0.000000 0.000000
vn -1.000000 0.000000 0.000000
vn -1.000000 0.000000 0.000000
vn -1.000000 0.000000 0.000000
vn -1.000000 0.000000 0.000000
vn -1.000000 0.000000 0.000000
vn -1.000000 0.000000 0.000000
vn -1.000000 0.000000 0.000000
vn -1.000000 0.000000 0.000000
vn -1.000000 0.000000 0.000000
vn -1.000000 0.000000 0.000000
vn -1.000000 0.000000 0.000000
vn -1.000000 0.000000 0.000000
vn -1.000000 0.000000 0.000000
vn -1.000000 0.000000 0.000000
vn -1.000000 0.000000 0.000000
vn -1.000000 0.000000 0.000000
vn -1.000000 0.000000 0.000000
vn -1.000000 0.000000 0.000000
vn -1.000000 0.000000 0.000000
vn -1.000000 0.000000 0.000000
vn -1.000000 0.000000 0.000000
vn -1.000000 0.000000 0.000000
vn -1.000000 0.000000 0.000000
vn -1.000000 0.000000 0.000000
vn -1.000000 0.000000 0.000000
vn -1.000000 0.000000 0.000000
vn -1.000000 0.000000 0.000000
vn -1.000000 0.000000 0.000000
vn -1.000000 0.000000 0.000000
vn -1.000000 0.000000 0.000000
vn -1.000000 0.000000 0.000000
vn -1.000000 0.000000 0.000000
vn -1.000000 0.000000 0.000000
vn -1.000000 0.000000 0.000000
vn -1.000000 0.000000 0.000000
vn -1.000000 0.000000 0.000000
vn -1.000000 0.000000 0.000000
vn -1.000000 0.000000 0.000000
vn -1.000000 0.000000 0.000000
vn -1.000000 0.000000 0.000000
vn -1.000000 0.000000 0.000000
vn -1.000000 0.000000 0.000000
vn -1.000000 0.000000 0.000000
vn -1.000000 0.000000 0.000000
vn -1.000000 0.000000 0.000000
vn -1.000000 0.000000 0.000000
vn -1.000000 0.000000 0.000000
vn -1.000000 0.000000 0.000000
vn -1.000000 0.000000 0.000000
vn -1.000000 0.000000 0.000000
vn -1.000000 0.000000 0.000000
vn -1.000000 0.000000 0.000000
vn -1.000000 0.000000 0.000000
vn -1.000000 0.000000 0.000000
vn -1.000000 0.000000 0.000000
vn -1.000000 0.000000 0.000000
vn -1.000000 0.000000 0.000000
vn -1.000000 0.000000 0.000000
vn -1.000000 0.000000 0.000000
vn -1.000000 0.000000 0.000000
vn -1.000000 0.000000 0.000000
vn -1.000000 0.000000 0.000000
vn -1.000000 0.000000 0.000000
vn -1.000000 0.000000 0.000000
vn -1.000000 0.000000 0.000000
vn -1.000000 0.000000 0.000000
vn -1.000000 0.000000 0.000000
vn -1.000000 0.000000 0.000000
vn -1.000000 0.000000 0.000000
vn -1.000000 0.000000 0.000000
vn -1.000000 0.000000 0.000000
vn -1.000000 0.000000 0.000000
vn -1.000000 0.000000 0.000000
vn -1.000000 0.000000 0.000000
vn -1.000000 0.000000 0.000000
vn -1.000000 0.000000 0.000000
vn -1.000000 0.000000 0.000000
vn -1.000000 0.000000 0.000000
vn -1.000000 0.000000 0.000000
vn -1.000000 0.000000 0.000000
vn -1.000000 0.000000 0.000000
vn -1.000000 0.000000 0.000000
vn -1.000000 0.000000 0.000000
vn -1.000000 0.000000 0.000000
vn -1.000000 0.000000 0.000000
vn -1.000000 0.000000 0.000000
vn -1.000000 0.000000 0.000000
vn -1.000000 0.000000 0.000000
vn -1.000000 0.000000 0.000000
vn -1.000000 0.000000 0.000000
vn -1.000000 0.000000 0.000000
vn -1.000000 0.000000 0.000000
vn -1.000000 0.000000 0.000000
vn -1.000000 0.000000 0.000000
vn -1.000000 0.000000 0.000000
vn -1.000000 0.000000 0.000000
vn -1.000000 0.000000 0.000000
vn -1.000000 0.000000 0.000000
vn -1.000000 0.000000 0.000000
vn -1.000000 0.000000 0.000000
vn -1.000000 0.000000 0.000000
vn -1.000000 0.000000 0.000000
vn -1.000000 0.000000 0.000000
vn -1.000000 0.000000 0.000000
vn -1.000000 0.000000 0.000000
vn -1.000000 0.000000 0.000000
vn -1.000000 0.000000 0.000000
vn -1.000000 0.000000 0.000000
vn -1.000000 0.000000 0.000000
vn -1.000000 0.000000 0.000000
vn -1.000000 0.000000 0.000000
vn -1.000000 0.000000 0.000000
vn -1.000000 0.000000 0.000000
vn -1.000000 0.000000 0.000000
vn -1.000000 0.000000 0.000000
vn -1.000000 0.000000 0.000000
vn -1.000000 0.000000 0.000000
vn -1.000000 0.000000 0.000000
vn -1.000000 0.000000 0.000000
vn -1.000000 0.000000 0.000000
vn -1.000000 0.000000 0.000000
vn -1.000000 0.000000 0.000000
vn -1.000000 0.000000 0.000000
vn -1.000000 0.000000 0.000000
vn -1.000000 0.000000 0.000000
vn -1.000000 0.000000 0.000000
vn -1.000000 0.000000 0.000000
vn -1.000000 0.000000 0.000000
vn -1.000000 0.000000 0.000000
vn -1.000000 0.000000 0.000000
vn -1.000000 0.000000 0.000000
vn -1.000000 0.000000 0.000000
vn -1.000000 0.000000 0.000000
vn -1.000000 0.000000 0.000000
vn -1.000000 0.000000 0.000000
vn -1.000000 0.000000 0.000000
vn -1.000000 0.000000 0.000000
vn -1.000000 0.000000 0.000000
vn -1.000000 0.000000 0.000000
vn -1.000000 0.000000 0.000000
vn -1.000000 0.000000 0.000000
vn -1.000000 0.000000 0.000000
vn -1.000000 0.000000 0.000000
vn -1.000000 0.000000 0.000000
vn -1.000000 0.000000 0.000000
vn -1.000000 0.000000 0.000000
vn -1.000000 0.000000 0.000000
vn -1.000000 0.000000 0.000000
vn -1.000000 0.000000 0.000000
vn -1.000000 0.000000 0.000000
vn -1.000000 0.000000 0.000000
vn -1.000000 0.000000 0.000000
vn -1.000000 0.000000 0.000000
vn -1.000000 0.000000 0.000000
vn -1.000000 0.000000 0.000000
vn -1.000000 0.000000 0.000000
vn -1.000000 0.000000 0.000000
vn -1.000000 0.000000 0.000000
vn -1.000000 0.000000 0.000000
vn -1.000000 0.000000 0.000000
vn -1.000000 0.000000 0.000000
vn -1.000000 0.000000 0.000000
vn -1.000000 0.000000 0.000000
vn -1.000000 0.000000 0.000000
vn -1.000000 0.000000 0.000000
vn -1.000000 0.000000 0.000000
vn -1.000000 0.000000 0.000000
vn -1.000000 0.000000 0.000000
vn -1.000000 0.000000 0.000000
vn -1.000000 0.000000 0.000000
vn -1.000000 0.000000 0.000000
vn -1.000000 0.000000 0.000000
vn -1.000000 0.000000 0.000000
vn -1.000000 0.000000 0.000000
vn -1.000000 0.000000 0.000000
vn -1.000000 0.000000 0.000000
vn -1.000000 0.000000 0.000000
vn -1.000000 0.000000 0.000000
s off
g hillSide_10
f 1/1/1 2/2/2 49/3/3 50/4/4
f 3/5/5 1/1/6 50/4/7 51/6/8
f 4/7/9 3/5/10 51/6/11 52/8/12
f 5/9/13 4/7/14 52/8/15 53/10/16
f 6/11/17 5/9/18 53/10/19 54/12/20
f 7/13/21 6/11/22 54/12/23 55/14/24
f 8/15/25 7/13/26 55/14/27 56/16/28
f 9/17/29 8/15/30 56/16/31 57/18/32
f 10/19/33 9/17/34 57/18/35 58/20/36
f 11/21/37 10/19/38 58/20/39 59/22/40
f 12/23/41 11/21/42 59/22/43 60/24/44
f 13/25/45 12/23/46 60/24/47 61/26/48
f 14/27/49 13/25/50 61/26/51 62/28/52
f 15/29/53 14/27/54 62/28/55 63/30/56
f 16/31/57 15/29/58 63/30/59 64/32/60
f 17/33/61 16/31/62 64/32/63 65/34/64
f 2/2/65 18/35/66 66/36/67 49/3/68
f 18/35/69 19/37/70 67/38/71 66/36/72
f 19/37/73 48/39/74 68/40/75 67/38/76
f 20/41/77 47/42/78 70/43/79 69/44/80
f 21/45/81 46/46/82 72/47/83 71/48/84
f 22/49/85 23/50/86 74/51/87 73/52/88
f 23/50/89 24/53/90 75/54/91 74/51/92
f 24/53/93 45/55/94 76/56/95 75/54/96
f 25/57/97 44/58/98 78/59/99 77/60/100
f 26/61/101 43/62/102 80/63/103 79/64/104
f 27/65/105 28/66/106 82/67/107 81/68/108
f 28/66/109 29/69/110 83/70/111 82/67/112
f 29/69/113 30/71/114 84/72/115 83/70/116
f 30/71/117 38/73/118 85/74/119 84/72/120
f 31/75/121 39/76/122 87/77/123 86/78/124
f 32/79/125 33/80/126 89/81/127 88/82/128
f 33/80/129 34/83/130 90/84/131 89/81/132
f 34/83/133 41/85/134 91/86/135 90/84/136
f 35/87/137 40/88/138 93/89/139 92/90/140
f 36/91/141 42/92/142 95/93/143 94/94/144
f 38/73/145 31/75/146 86/78/147 85/74/148
f 39/76/149 32/79/150 88/82/151 87/77/152
f 40/88/153 36/91/154 94/94/155 93/89/156
f 41/85/157 35/87/158 92/90/159 91/86/160
f 42/92/161 37/95/162 96/96/163 95/93/164
f 43/62/165 27/65/166 81/68/167 80/63/168
f 44/58/169 26/61/170 79/64/171 78/59/172
f 45/55/173 25/57/174 77/60/175 76/56/176
f 46/46/177 22/49/178 73/52/179 72/47/180
f 47/42/181 21/45/182 71/48/183 70/43/184
f 48/39/185 20/41/186 69/44/187 68/40/188
