# This file uses meters as units for non-parametric coordinates.

g default
v -844.562317 -223.326599 1.000000
v -844.627075 -223.402695 -1.000000
v -844.562317 -224.126602 3.000000
v -844.562317 -226.476883 6.000000
v -844.562317 -230.983246 10.000000
v -844.562317 -234.783249 15.000000
v -844.562317 -239.583252 21.000000
v -844.562317 -240.383255 23.000000
v -844.562317 -242.183258 26.000000
v -844.562317 -244.983261 30.000000
v -844.562317 -248.783264 35.000000
v -844.562317 -253.583267 41.000000
v -844.562317 -254.383270 43.000000
v -844.562317 -256.183289 46.000000
v -844.562317 -258.983276 50.000000
v -844.562317 -262.783264 55.000000
v -844.562317 -267.583252 61.000000
v -844.627075 -224.146469 -3.000000
v -844.627075 -224.688629 -6.000000
v -844.627075 -225.576065 -10.000000
v -844.627075 -229.376068 -15.000000
v -844.627075 -234.176071 -21.000000
v -844.627075 -234.976074 -23.000000
v -844.627075 -236.776077 -26.000000
v -844.627075 -239.576080 -30.000000
v -844.627075 -243.376083 -35.000000
v -844.627075 -248.176086 -41.000000
v -844.627075 -248.976089 -43.000000
v -844.627075 -250.776093 -46.000000
v -844.627075 -253.576096 -50.000000
v -844.627075 -257.376099 -55.000000
v -844.627075 -262.176086 -61.000000
v -844.627075 -262.976074 -63.000000
v -844.627075 -264.776062 -66.000000
v -844.627075 -267.576050 -70.000000
v -844.627075 -271.376038 -75.000000
v -844.627075 -276.176025 -81.000000
v -844.627075 -273.776031 -78.000000
v -844.627075 -272.576050 -76.500000
v -844.627075 -269.476044 -72.500000
v -844.627075 -259.776093 -58.000000
v -844.627075 -260.976074 -59.500000
v -844.627075 -255.476089 -52.500000
v -844.627075 -245.776077 -38.000000
v -844.627075 -241.476089 -32.500000
v -844.627075 -231.776077 -18.000000
v -844.627075 -227.476059 -12.500000
v -844.627075 -224.872162 -8.000000
v -844.627075 -310.402710 -1.000000
v -844.562317 -310.326599 1.000000
v -844.562317 -311.126587 3.000000
v -844.562317 -313.476868 6.000000
v -844.562317 -317.983246 10.000000
v -844.562317 -321.783264 15.000000
v -844.562317 -326.583252 21.000000
v -844.562317 -327.383240 23.000000
v -844.562317 -329.183258 26.000000
v -844.562317 -331.983276 30.000000
v -844.562317 -335.783264 35.000000
v -844.562317 -340.583252 41.000000
v -844.562317 -341.383270 43.000000
v -844.562317 -343.183289 46.000000
v -844.562317 -345.983276 50.000000
v -844.562317 -349.783264 55.000000
v -844.562317 -354.583252 61.000000
v -844.627075 -311.146484 -3.000000
v -844.627075 -311.688629 -6.000000
v -844.627075 -311.872162 -8.000000
v -844.627075 -312.576050 -10.000000
v -844.627075 -314.476074 -12.500000
v -844.627075 -316.376068 -15.000000
v -844.627075 -318.776062 -18.000000
v -844.627075 -321.176086 -21.000000
v -844.627075 -321.976074 -23.000000
v -844.627075 -323.776062 -26.000000
v -844.627075 -326.576080 -30.000000
v -844.627075 -328.476074 -32.500000
v -844.627075 -330.376099 -35.000000
v -844.627075 -332.776062 -38.000000
v -844.627075 -335.176086 -41.000000
v -844.627075 -335.976074 -43.000000
v -844.627075 -337.776093 -46.000000
v -844.627075 -340.576111 -50.000000
v -844.627075 -342.476074 -52.500000
v -844.627075 -344.376099 -55.000000
v -844.627075 -346.776093 -58.000000
v -844.627075 -349.176086 -61.000000
v -844.627075 -349.976074 -63.000000
v -844.627075 -351.776062 -66.000000
v -844.627075 -354.576050 -70.000000
v -844.627075 -356.476044 -72.500000
v -844.627075 -358.376038 -75.000000
v -844.627075 -359.576050 -76.500000
v -844.627075 -360.776031 -78.000000
v -844.627075 -363.176025 -81.000000
v -844.627075 -347.976074 -59.500000
vt 0.577465 0.000000
vt 0.563380 0.000544
vt 0.563380 0.622642
vt 0.577465 0.622098
vt 0.591549 0.005720
vt 0.591549 0.627818
vt 0.612676 0.022526
vt 0.612676 0.644624
vt 0.640845 0.054749
vt 0.640845 0.676847
vt 0.676056 0.081921
vt 0.676056 0.704019
vt 0.718310 0.116244
vt 0.718310 0.738342
vt 0.732394 0.121964
vt 0.732394 0.744062
vt 0.753521 0.134835
vt 0.753521 0.756933
vt 0.781690 0.154857
vt 0.781690 0.776955
vt 0.816901 0.182029
vt 0.816901 0.804127
vt 0.859155 0.216352
vt 0.859155 0.838449
vt 0.873240 0.222072
vt 0.873240 0.844170
vt 0.894366 0.234943
vt 0.894366 0.857041
vt 0.922535 0.254965
vt 0.922535 0.877062
vt 0.957747 0.282137
vt 0.957747 0.904234
vt 1.000000 0.316459
vt 1.000000 0.938557
vt 0.549296 0.005862
vt 0.549296 0.627960
vt 0.528169 0.009739
vt 0.528169 0.631837
vt 0.514085 0.011052
vt 0.514085 0.633149
vt 0.500000 0.016085
vt 0.482395 0.029671
vt 0.482395 0.651769
vt 0.500000 0.638183
vt 0.464789 0.043257
vt 0.443662 0.060418
vt 0.443662 0.682516
vt 0.464789 0.665355
vt 0.422535 0.077580
vt 0.408451 0.083300
vt 0.408451 0.705398
vt 0.422535 0.699677
vt 0.387324 0.096171
vt 0.387324 0.718269
vt 0.359155 0.116193
vt 0.359155 0.738290
vt 0.341549 0.129779
vt 0.341549 0.751876
vt 0.323944 0.143365
vt 0.302817 0.160526
vt 0.302817 0.782624
vt 0.323944 0.765463
vt 0.281690 0.177687
vt 0.267606 0.183408
vt 0.267606 0.805505
vt 0.281690 0.799785
vt 0.246479 0.196279
vt 0.246479 0.818376
vt 0.218310 0.216300
vt 0.218310 0.838398
vt 0.200704 0.229886
vt 0.200704 0.851984
vt 0.183099 0.243473
vt 0.161972 0.260634
vt 0.161972 0.882732
vt 0.183099 0.865570
vt 0.140845 0.277795
vt 0.126761 0.283515
vt 0.126761 0.905613
vt 0.140845 0.899893
vt 0.105634 0.296386
vt 0.105634 0.918484
vt 0.077465 0.316408
vt 0.077465 0.938506
vt 0.059859 0.329994
vt 0.059859 0.952091
vt 0.042254 0.343580
vt 0.031690 0.352161
vt 0.031690 0.974258
vt 0.042254 0.965677
vt 0.021127 0.360741
vt 0.000000 0.377902
vt 0.000000 1.000000
vt 0.021127 0.982839
vt 0.151409 0.269214
vt 0.151409 0.891312
vn -0.999476 0.000000 0.032362
vn -0.999476 0.000000 0.032362
vn -0.999476 0.000000 0.032362
vn -0.999476 0.000000 0.032362
vn -1.000000 0.000000 0.000000
vn -1.000000 0.000000 0.000000
vn -1.000000 0.000000 0.000000
vn -1.000000 0.000000 0.000000
vn -1.000000 0.000000 0.000000
vn -1.000000 0.000000 0.000000
vn -1.000000 0.000000 0.000000
vn -1.000000 0.000000 0.000000
vn -1.000000 0.000000 0.000000
vn -1.000000 0.000000 0.000000
vn -1.000000 0.000000 0.000000
vn -1.000000 0.000000 0.000000
vn -1.000000 0.000000 0.000000
vn -1.000000 0.000000 0.000000
vn -1.000000 0.000000 0.000000
vn -1.000000 0.000000 0.000000
vn -1.000000 0.000000 0.000000
vn -1.000000 0.000000 0.000000
vn -1.000000 0.000000 0.000000
vn -1.000000 0.000000 0.000000
vn -1.000000 0.000000 0.000000
vn -1.000000 0.000000 0.000000
vn -1.000000 0.000000 0.000000
vn -1.000000 0.000000 0.000000
vn -1.000000 0.000000 0.000000
vn -1.000000 0.000000 0.000000
vn -1.000000 0.000000 0.000000
vn -1.000000 0.000000 0.000000
vn -1.000000 0.000000 0.000000
vn -1.000000 0.000000 0.000000
vn -1.000000 0.000000 0.000000
vn -1.000000 0.000000 0.000000
vn -1.000000 0.000000 0.000000
vn -1.000000 0.000000 0.000000
vn -1.000000 0.000000 0.000000
vn -1.000000 0.000000 0.000000
vn -1.000000 0.000000 0.000000
vn -1.000000 0.000000 0.000000
vn -1.000000 0.000000 0.000000
vn -1.000000 0.000000 0.000000
vn -1.000000 0.000000 0.000000
vn -1.000000 0.000000 0.000000
vn -1.000000 0.000000 0.000000
vn -1.000000 0.000000 0.000000
vn -1.000000 0.000000 0.000000
vn -1.000000 0.000000 0.000000
vn -1.000000 0.000000 0.000000
vn -1.000000 0.000000 0.000000
vn -1.000000 0.000000 0.000000
vn -1.000000 0.000000 0.000000
vn -1.000000 0.000000 0.000000
vn -1.000000 0.000000 0.000000
vn -1.000000 0.000000 0.000000
vn -1.000000 0.000000 0.000000
vn -1.000000 0.000000 0.000000
vn -1.000000 0.000000 0.000000
vn -1.000000 0.000000 0.000000
vn -1.000000 0.000000 0.000000
vn -1.000000 0.000000 0.000000
vn -1.000000 0.000000 0.000000
vn -1.000000 0.000000 0.000000
vn -1.000000 0.000000 0.000000
vn -1.000000 0.000000 0.000000
vn -1.000000 0.000000 0.000000
vn -1.000000 0.000000 0.000000
vn -1.000000 0.000000 0.000000
vn -1.000000 0.000000 0.000000
vn -1.000000 0.000000 0.000000
vn -1.000000 0.000000 0.000000
vn -1.000000 0.000000 0.000000
vn -1.000000 0.000000 0.000000
vn -1.000000 0.000000 0.000000
vn -1.000000 0.000000 0.000000
vn -1.000000 0.000000 0.000000
vn -1.000000 0.000000 0.000000
vn -1.000000 0.000000 0.000000
vn -1.000000 0.000000 0.000000
vn -1.000000 0.000000 0.000000
vn -1.000000 0.000000 0.000000
vn -1.000000 0.000000 0.000000
vn -1.000000 0.000000 0.000000
vn -1.000000 0.000000 0.000000
vn -1.000000 0.000000 0.000000
vn -1.000000 0.000000 0.000000
vn -1.000000 0.000000 0.000000
vn -1.000000 0.000000 0.000000
vn -1.000000 0.000000 0.000000
vn -1.000000 0.000000 0.000000
vn -1.000000 0.000000 0.000000
vn -1.000000 0.000000 0.000000
vn -1.000000 0.000000 0.000000
vn -1.000000 0.000000 0.000000
vn -1.000000 0.000000 0.000000
vn -1.000000 0.000000 0.000000
vn -1.000000 0.000000 0.000000
vn -1.000000 0.000000 0.000000
vn -1.000000 0.000000 0.000000
vn -1.000000 0.000000 0.000000
vn -1.000000 0.000000 0.000000
vn -1.000000 0.000000 0.000000
vn -1.000000 0.000000 0.000000
vn -1.000000 0.000000 0.000000
vn -1.000000 0.000000 0.000000
vn -1.000000 0.000000 0.000000
vn -1.000000 0.000000 0.000000
vn -1.000000 0.000000 0.000000
vn -1.000000 0.000000 0.000000
vn -1.000000 0.000000 0.000000
vn -1.000000 0.000000 0.000000
vn -1.000000 0.000000 0.000000
vn -1.000000 0.000000 0.000000
vn -1.000000 0.000000 0.000000
vn -1.000000 0.000000 0.000000
vn -1.000000 0.000000 0.000000
vn -1.000000 0.000000 0.000000
vn -1.000000 0.000000 0.000000
vn -1.000000 0.000000 0.000000
vn -1.000000 0.000000 0.000000
vn -1.000000 0.000000 0.000000
vn -1.000000 0.000000 0.000000
vn -1.000000 0.000000 0.000000
vn -1.000000 0.000000 0.000000
vn -1.000000 0.000000 0.000000
vn -1.000000 0.000000 0.000000
vn -1.000000 0.000000 0.000000
vn -1.000000 0.000000 0.000000
vn -1.000000 0.000000 0.000000
vn -1.000000 0.000000 0.000000
vn -1.000000 0.000000 0.000000
vn -1.000000 0.000000 0.000000
vn -1.000000 0.000000 0.000000
vn -1.000000 0.000000 0.000000
vn -1.000000 0.000000 0.000000
vn -1.000000 0.000000 0.000000
vn -1.000000 0.000000 0.000000
vn -1.000000 0.000000 0.000000
vn -1.000000 0.000000 0.000000
vn -1.000000 0.000000 0.000000
vn -1.000000 0.000000 0.000000
vn -1.000000 0.000000 0.000000
vn -1.000000 0.000000 0.000000
vn -1.000000 0.000000 0.000000
vn -1.000000 0.000000 0.000000
vn -1.000000 0.000000 0.000000
vn -1.000000 0.000000 0.000000
vn -1.000000 0.000000 0.000000
vn -1.000000 0.000000 0.000000
vn -1.000000 0.000000 0.000000
vn -1.000000 0.000000 0.000000
vn -1.000000 0.000000 0.000000
vn -1.000000 0.000000 0.000000
vn -1.000000 0.000000 0.000000
vn -1.000000 0.000000 0.000000
vn -1.000000 0.000000 0.000000
vn -1.000000 0.000000 0.000000
vn -1.000000 0.000000 0.000000
vn -1.000000 0.000000 0.000000
vn -1.000000 0.000000 0.000000
vn -1.000000 0.000000 0.000000
vn -1.000000 0.000000 0.000000
vn -1.000000 0.000000 0.000000
vn -1.000000 0.000000 0.000000
vn -1.000000 0.000000 0.000000
vn -1.000000 0.000000 0.000000
vn -1.000000 0.000000 0.000000
vn -1.000000 0.000000 0.000000
vn -1.000000 0.000000 0.000000
vn -1.000000 0.000000 0.000000
vn -1.000000 0.000000 0.000000
vn -1.000000 0.000000 0.000000
vn -1.000000 0.000000 0.000000
vn -1.000000 0.000000 0.000000
vn -1.000000 0.000000 0.000000
vn -1.000000 0.000000 0.000000
vn -1.000000 0.000000 0.000000
vn -1.000000 0.000000 0.000000
vn -1.000000 0.000000 0.000000
vn -1.000000 0.000000 0.000000
vn -1.000000 0.000000 0.000000
vn -1.000000 0.000000 0.000000
vn -1.000000 0.000000 0.000000
vn -1.000000 0.000000 0.000000
vn -1.000000 0.000000 0.000000
vn -1.000000 0.000000 0.000000
s off
g hillSide_12
f 1/1/1 2/2/2 49/3/3 50/4/4
f 3/5/5 1/1/6 50/4/7 51/6/8
f 4/7/9 3/5/10 51/6/11 52/8/12
f 5/9/13 4/7/14 52/8/15 53/10/16
f 6/11/17 5/9/18 53/10/19 54/12/20
f 7/13/21 6/11/22 54/12/23 55/14/24
f 8/15/25 7/13/26 55/14/27 56/16/28
f 9/17/29 8/15/30 56/16/31 57/18/32
f 10/19/33 9/17/34 57/18/35 58/20/36
f 11/21/37 10/19/38 58/20/39 59/22/40
f 12/23/41 11/21/42 59/22/43 60/24/44
f 13/25/45 12/23/46 60/24/47 61/26/48
f 14/27/49 13/25/50 61/26/51 62/28/52
f 15/29/53 14/27/54 62/28/55 63/30/56
f 16/31/57 15/29/58 63/30/59 64/32/60
f 17/33/61 16/31/62 64/32/63 65/34/64
f 2/2/65 18/35/66 66/36/67 49/3/68
f 18/35/69 19/37/70 67/38/71 66/36/72
f 19/37/73 48/39/74 68/40/75 67/38/76
f 20/41/77 47/42/78 70/43/79 69/44/80
f 21/45/81 46/46/82 72/47/83 71/48/84
f 22/49/85 23/50/86 74/51/87 73/52/88
f 23/50/89 24/53/90 75/54/91 74/51/92
f 24/53/93 25/55/94 76/56/95 75/54/96
f 25/55/97 45/57/98 77/58/99 76/56/100
f 26/59/101 44/60/102 79/61/103 78/62/104
f 27/63/105 28/64/106 81/65/107 80/66/108
f 28/64/109 29/67/110 82/68/111 81/65/112
f 29/67/113 30/69/114 83/70/115 82/68/116
f 30/69/117 43/71/118 84/72/119 83/70/120
f 31/73/121 41/74/122 86/75/123 85/76/124
f 32/77/125 33/78/126 88/79/127 87/80/128
f 33/78/129 34/81/130 89/82/131 88/79/132
f 34/81/133 35/83/134 90/84/135 89/82/136
f 35/83/137 40/85/138 91/86/139 90/84/140
f 36/87/141 39/88/142 93/89/143 92/90/144
f 38/91/145 37/92/146 95/93/147 94/94/148
f 39/88/149 38/91/150 94/94/151 93/89/152
f 40/85/153 36/87/154 92/90/155 91/86/156
f 41/74/157 42/95/158 96/96/159 86/75/160
f 42/95/161 32/77/162 87/80/163 96/96/164
f 43/71/165 31/73/166 85/76/167 84/72/168
f 44/60/169 27/63/170 80/66/171 79/61/172
f 45/57/173 26/59/174 78/62/175 77/58/176
f 46/46/177 22/49/178 73/52/179 72/47/180
f 47/42/181 21/45/182 71/48/183 70/43/184
f 48/39/185 20/41/186 69/44/187 68/40/188
