# This file uses meters as units for non-parametric coordinates.

v -1056.923950 -297.610901 -1.000000
v -1056.923950 -384.610901 -1.000000
v -1056.937988 -384.511688 1.000000
v -1056.937988 -297.511688 1.000000
v -1056.937988 -297.511688 1.000000
v -1056.937988 -384.511688 1.000000
v -1056.937988 -385.167694 3.000000
v -1056.937988 -298.167694 3.000000
v -1056.937988 -385.431885 6.000000
v -1056.937988 -298.431885 6.000000
v -1056.937988 -386.401703 10.000000
v -1056.937988 -299.401703 10.000000
v -1056.937988 -390.201691 15.000000
v -1056.937988 -303.201691 15.000000
v -1056.937988 -395.001587 21.000000
v -1056.937988 -308.001587 21.000000
v -1056.937988 -395.801605 23.000000
v -1056.937988 -308.801605 23.000000
v -1056.937988 -397.601593 26.000000
v -1056.937988 -310.601593 26.000000
v -1056.937988 -400.401611 30.000000
v -1056.937988 -313.401611 30.000000
v -1056.937988 -404.201599 35.000000
v -1056.937988 -317.201599 35.000000
v -1056.937988 -409.001587 41.000000
v -1056.937988 -322.001587 41.000000
v -1056.937988 -409.801605 43.000000
v -1056.937988 -322.801605 43.000000
v -1056.937988 -411.601593 46.000000
v -1056.937988 -324.601593 46.000000
v -1056.937988 -414.401611 50.000000
v -1056.937988 -327.401611 50.000000
v -1056.937988 -418.201508 55.000000
v -1056.937988 -331.201508 55.000000
v -1056.937988 -423.001495 61.000000
v -1056.937988 -336.001495 61.000000
v -1056.923950 -297.603088 -3.000000
v -1056.923950 -384.610901 -1.000000
v -1056.923950 -297.610901 -1.000000
v -1056.923950 -384.603088 -3.000000
v -1056.923950 -299.015594 -6.000000
v -1056.923950 -386.015594 -6.000000
v -1056.923950 -299.512299 -8.000000
v -1056.923950 -386.512299 -8.000000
v -1056.937988 -300.247406 -10.000000
v -1056.937988 -387.247406 -10.000000
v -1056.923950 -300.884003 -12.500000
v -1056.923950 -387.884003 -12.500000
v -1056.937988 -387.247406 -10.000000
v -1056.937988 -300.247406 -10.000000
v -1056.923950 -302.373901 -15.000000
v -1056.923950 -387.884003 -12.500000
v -1056.923950 -300.884003 -12.500000
v -1056.923950 -389.373901 -15.000000
v -1056.923950 -305.545288 -18.000000
v -1056.923950 -392.545288 -18.000000
v -1056.923950 -308.064606 -21.000000
v -1056.923950 -395.064606 -21.000000
v -1056.923950 -309.981689 -23.000000
v -1056.923950 -396.981689 -23.000000
v -1056.923950 -312.392303 -26.000000
v -1056.923950 -399.392303 -26.000000
v -1056.923950 -315.703613 -30.000000
v -1056.923950 -402.703613 -30.000000
v -1056.923950 -317.603607 -32.500000
v -1056.923950 -404.603607 -32.500000
v -1056.923950 -319.503601 -35.000000
v -1056.923950 -406.503601 -35.000000
v -1056.923950 -321.903595 -38.000000
v -1056.923950 -408.903595 -38.000000
v -1056.923950 -324.303589 -41.000000
v -1056.923950 -411.303589 -41.000000
v -1056.923950 -325.103607 -43.000000
v -1056.923950 -412.103607 -43.000000
v -1056.923950 -326.903595 -46.000000
v -1056.923950 -413.903595 -46.000000
v -1056.923950 -329.703613 -50.000000
v -1056.923950 -416.703613 -50.000000
v -1056.923950 -331.603607 -52.500000
v -1056.923950 -418.603607 -52.500000
v -1056.923950 -333.503601 -55.000000
v -1056.923950 -420.503601 -55.000000
v -1056.923950 -335.903595 -58.000000
v -1056.923950 -422.903595 -58.000000
v -1056.923950 -338.303589 -61.000000
v -1056.923950 -425.303589 -61.000000
v -1056.923950 -339.103485 -63.000000
v -1056.923950 -426.103485 -63.000000
v -1056.923950 -340.903503 -66.000000
v -1056.923950 -427.903503 -66.000000
v -1056.923950 -342.303497 -68.000000
v -1056.923950 -429.303497 -68.000000
v -1056.923950 -343.703491 -70.000000
v -1056.923950 -430.703491 -70.000000
v -1056.923950 -345.603485 -72.500000
v -1056.923950 -432.603485 -72.500000
v -1056.923950 -347.503510 -75.000000
v -1056.923950 -434.503510 -75.000000
v -1056.923950 -349.903503 -78.000000
v -1056.923950 -436.903503 -78.000000
v -1056.923950 -352.303497 -81.000000
v -1056.923950 -439.303497 -81.000000
vt 0.436620 0.134512
vt 0.436620 0.348482
vt 0.422535 0.134756
vt 0.422535 0.348726
vt 0.422535 0.134756
vt 0.422535 0.348726
vt 0.408451 0.133143
vt 0.408451 0.347112
vt 0.387324 0.132493
vt 0.387324 0.346463
vt 0.359155 0.130108
vt 0.359155 0.344077
vt 0.323944 0.120762
vt 0.323944 0.334732
vt 0.281690 0.108957
vt 0.281690 0.322927
vt 0.267606 0.106989
vt 0.267606 0.320959
vt 0.246479 0.102563
vt 0.246479 0.316532
vt 0.218310 0.095676
vt 0.218310 0.309646
vt 0.183099 0.086330
vt 0.183099 0.300300
vt 0.140845 0.074525
vt 0.140845 0.288495
vt 0.126761 0.072558
vt 0.126761 0.286527
vt 0.105634 0.068131
vt 0.105634 0.282100
vt 0.077465 0.061244
vt 0.077465 0.275214
vt 0.042254 0.051899
vt 0.042254 0.265868
vt 0.000000 0.040094
vt 0.000000 0.254063
vt 0.436620 0.134512
vt 0.450704 0.348501
vt 0.436620 0.348482
vt 0.450704 0.134531
vt 0.471831 0.345027
vt 0.471831 0.131057
vt 0.485916 0.343805
vt 0.485916 0.129836
vt 0.500000 0.341997
vt 0.500000 0.128028
vt 0.517606 0.126462
vt 0.517606 0.340432
vt 0.500000 0.128028
vt 0.500000 0.341997
vt 0.517606 0.126462
vt 0.535211 0.336767
vt 0.517606 0.340432
vt 0.535211 0.122798
vt 0.556338 0.328968
vt 0.556338 0.114998
vt 0.577465 0.322772
vt 0.577465 0.108802
vt 0.591549 0.318057
vt 0.591549 0.104087
vt 0.612676 0.312128
vt 0.612676 0.098158
vt 0.640845 0.303984
vt 0.640845 0.090015
vt 0.658451 0.299311
vt 0.658451 0.085342
vt 0.676057 0.294638
vt 0.676057 0.080669
vt 0.697183 0.288736
vt 0.697183 0.074766
vt 0.718310 0.282833
vt 0.718310 0.068864
vt 0.732394 0.280866
vt 0.732394 0.066896
vt 0.753521 0.276439
vt 0.753521 0.062469
vt 0.781690 0.269552
vt 0.781690 0.055583
vt 0.799296 0.264879
vt 0.799296 0.050910
vt 0.816902 0.260206
vt 0.816902 0.046237
vt 0.838028 0.254304
vt 0.838028 0.040334
vt 0.859155 0.248401
vt 0.859155 0.034432
vt 0.873240 0.246434
vt 0.873240 0.032464
vt 0.894366 0.242007
vt 0.894366 0.028037
vt 0.908451 0.238564
vt 0.908451 0.024594
vt 0.922535 0.235121
vt 0.922535 0.021151
vt 0.940141 0.230448
vt 0.940141 0.016478
vt 0.957747 0.225775
vt 0.957747 0.011805
vt 0.978873 0.219872
vt 0.978873 0.005903
vt 1.000000 0.213970
vt 1.000000 0.000000
vn 0.999975 0.000000 0.007019
vn 0.999975 0.000000 0.007019
vn 0.999975 0.000000 0.007019
vn 0.999975 0.000000 0.007019
vn 1.000000 0.000000 0.000000
vn 1.000000 0.000000 0.000000
vn 1.000000 0.000000 0.000000
vn 1.000000 0.000000 0.000000
vn 1.000000 0.000000 0.000000
vn 1.000000 0.000000 0.000000
vn 1.000000 0.000000 0.000000
vn 1.000000 0.000000 0.000000
vn 1.000000 0.000000 0.000000
vn 1.000000 0.000000 0.000000
vn 1.000000 0.000000 0.000000
vn 1.000000 0.000000 0.000000
vn 1.000000 0.000000 0.000000
vn 1.000000 0.000000 0.000000
vn 1.000000 0.000000 0.000000
vn 1.000000 0.000000 0.000000
vn 1.000000 0.000000 0.000000
vn 1.000000 0.000000 0.000000
vn 1.000000 0.000000 0.000000
vn 1.000000 0.000000 0.000000
vn 1.000000 0.000000 0.000000
vn 1.000000 0.000000 0.000000
vn 1.000000 0.000000 0.000000
vn 1.000000 0.000000 0.000000
vn 1.000000 0.000000 0.000000
vn 1.000000 0.000000 0.000000
vn 1.000000 0.000000 0.000000
vn 1.000000 0.000000 0.000000
vn 1.000000 0.000000 0.000000
vn 1.000000 0.000000 0.000000
vn 1.000000 0.000000 0.000000
vn 1.000000 0.000000 0.000000
vn 1.000000 0.000000 0.000000
vn 1.000000 0.000000 0.000000
vn 1.000000 0.000000 0.000000
vn 1.000000 0.000000 0.000000
vn 1.000000 0.000000 0.000000
vn 1.000000 0.000000 0.000000
vn 1.000000 0.000000 0.000000
vn 1.000000 0.000000 0.000000
vn 0.999974 0.000000 -0.007202
vn 0.999974 0.000000 -0.007202
vn 0.999983 0.000000 0.005762
vn 0.999983 0.000000 0.005762
vn 0.999983 0.000000 0.005762
vn 0.999983 0.000000 0.005762
vn 1.000000 0.000000 0.000000
vn 1.000000 0.000000 0.000000
vn 1.000000 0.000000 0.000000
vn 1.000000 0.000000 0.000000
vn 1.000000 0.000000 0.000000
vn 1.000000 0.000000 0.000000
vn 1.000000 0.000000 0.000000
vn 1.000000 0.000000 0.000000
vn 1.000000 0.000000 0.000000
vn 1.000000 0.000000 0.000000
vn 1.000000 0.000000 0.000000
vn 1.000000 0.000000 0.000000
vn 1.000000 0.000000 0.000000
vn 1.000000 0.000000 0.000000
vn 1.000000 0.000000 0.000000
vn 1.000000 0.000000 0.000000
vn 1.000000 0.000000 0.000000
vn 1.000000 0.000000 0.000000
vn 1.000000 0.000000 0.000000
vn 1.000000 0.000000 0.000000
vn 1.000000 0.000000 0.000000
vn 1.000000 0.000000 0.000000
vn 1.000000 0.000000 0.000000
vn 1.000000 0.000000 0.000000
vn 1.000000 0.000000 0.000000
vn 1.000000 0.000000 0.000000
vn 1.000000 0.000000 0.000000
vn 1.000000 0.000000 0.000000
vn 1.000000 0.000000 0.000000
vn 1.000000 0.000000 0.000000
vn 1.000000 0.000000 0.000000
vn 1.000000 0.000000 0.000000
vn 1.000000 0.000000 0.000000
vn 1.000000 0.000000 0.000000
vn 1.000000 0.000000 0.000000
vn 1.000000 0.000000 0.000000
vn 1.000000 0.000000 0.000000
vn 1.000000 0.000000 0.000000
vn 1.000000 0.000000 0.000000
vn 1.000000 0.000000 0.000000
vn 1.000000 0.000000 0.000000
vn 1.000000 0.000000 0.000000
vn 1.000000 0.000000 0.000000
vn 1.000000 0.000000 0.000000
vn 1.000000 0.000000 0.000000
vn 1.000000 0.000000 0.000000
vn 1.000000 0.000000 0.000000
vn 1.000000 0.000000 0.000000
vn 1.000000 0.000000 0.000000
vn 1.000000 0.000000 0.000000
vn 1.000000 0.000000 0.000000
vn 1.000000 0.000000 0.000000
s 1
f 2/1/1 1/2/2 3/3/3
f 3/3/3 1/2/2 4/4/4
s 2
f 6/5/5 5/6/6 7/7/7
f 7/7/7 5/6/6 8/8/8
f 7/7/7 8/8/8 9/9/9
f 9/9/9 8/8/8 10/10/10
f 9/9/9 10/10/10 11/11/11
f 11/11/11 10/10/10 12/12/12
f 11/11/11 12/12/12 13/13/13
f 13/13/13 12/12/12 14/14/14
f 13/13/13 14/14/14 15/15/15
f 15/15/15 14/14/14 16/16/16
f 15/15/15 16/16/16 17/17/17
f 17/17/17 16/16/16 18/18/18
f 17/17/17 18/18/18 19/19/19
f 19/19/19 18/18/18 20/20/20
f 19/19/19 20/20/20 21/21/21
f 21/21/21 20/20/20 22/22/22
f 21/21/21 22/22/22 23/23/23
f 23/23/23 22/22/22 24/24/24
f 23/23/23 24/24/24 25/25/25
f 25/25/25 24/24/24 26/26/26
f 25/25/25 26/26/26 27/27/27
f 27/27/27 26/26/26 28/28/28
f 27/27/27 28/28/28 29/29/29
f 29/29/29 28/28/28 30/30/30
f 29/29/29 30/30/30 31/31/31
f 31/31/31 30/30/30 32/32/32
f 31/31/31 32/32/32 33/33/33
f 33/33/33 32/32/32 34/34/34
f 33/33/33 34/34/34 35/35/35
f 35/35/35 34/34/34 36/36/36
s 3
f 38/37/37 37/38/38 39/39/39
f 40/40/40 37/38/38 38/37/37
f 40/40/40 41/41/41 37/38/38
f 42/42/42 41/41/41 40/40/40
f 42/42/42 43/43/43 41/41/41
f 44/44/44 43/43/43 42/42/42
f 44/44/44 45/45/45 43/43/43
f 46/46/46 45/45/45 44/44/44
s 4
f 48/47/47 47/48/48 49/49/49
f 49/49/49 47/48/48 50/50/50
s 5
f 52/51/51 51/52/52 53/53/53
f 54/54/54 51/52/52 52/51/51
f 54/54/54 55/55/55 51/52/52
f 56/56/56 55/55/55 54/54/54
f 56/56/56 57/57/57 55/55/55
f 58/58/58 57/57/57 56/56/56
f 58/58/58 59/59/59 57/57/57
f 60/60/60 59/59/59 58/58/58
f 60/60/60 61/61/61 59/59/59
f 62/62/62 61/61/61 60/60/60
f 62/62/62 63/63/63 61/61/61
f 64/64/64 63/63/63 62/62/62
f 64/64/64 65/65/65 63/63/63
f 66/66/66 65/65/65 64/64/64
f 66/66/66 67/67/67 65/65/65
f 68/68/68 67/67/67 66/66/66
f 68/68/68 69/69/69 67/67/67
f 70/70/70 69/69/69 68/68/68
f 70/70/70 71/71/71 69/69/69
f 72/72/72 71/71/71 70/70/70
f 72/72/72 73/73/73 71/71/71
f 74/74/74 73/73/73 72/72/72
f 74/74/74 75/75/75 73/73/73
f 76/76/76 75/75/75 74/74/74
f 76/76/76 77/77/77 75/75/75
f 78/78/78 77/77/77 76/76/76
f 78/78/78 79/79/79 77/77/77
f 80/80/80 79/79/79 78/78/78
f 80/80/80 81/81/81 79/79/79
f 82/82/82 81/81/81 80/80/80
f 82/82/82 83/83/83 81/81/81
f 84/84/84 83/83/83 82/82/82
f 84/84/84 85/85/85 83/83/83
f 86/86/86 85/85/85 84/84/84
f 86/86/86 87/87/87 85/85/85
f 88/88/88 87/87/87 86/86/86
f 88/88/88 89/89/89 87/87/87
f 90/90/90 89/89/89 88/88/88
f 90/90/90 91/91/91 89/89/89
f 92/92/92 91/91/91 90/90/90
f 92/92/92 93/93/93 91/91/91
f 94/94/94 93/93/93 92/92/92
f 94/94/94 95/95/95 93/93/93
f 96/96/96 95/95/95 94/94/94
f 96/96/96 97/97/97 95/95/95
f 98/98/98 97/97/97 96/96/96
f 98/98/98 99/99/99 97/97/97
f 100/100/100 99/99/99 98/98/98
f 100/100/100 101/101/101 99/99/99
f 102/102/102 101/101/101 100/100/100
