# This file uses meters as units for non-parametric coordinates.

v -872.139221 -270.175812 55.000000
v -872.139221 -361.975800 61.000000
v -872.139221 -274.975800 61.000000
v -872.139221 -357.175812 55.000000
v -872.139221 -266.375793 50.000000
v -872.139221 -353.375793 50.000000
v -872.139221 -263.575806 46.000000
v -872.139221 -350.575806 46.000000
v -872.139221 -261.775787 43.000000
v -872.139221 -348.775787 43.000000
v -872.139221 -260.975891 41.000000
v -872.139221 -347.975891 41.000000
v -872.139221 -256.175903 35.000000
v -872.139221 -343.175903 35.000000
v -872.139221 -252.375900 30.000000
v -872.139221 -339.375885 30.000000
v -872.139221 -247.754105 26.000000
v -872.139221 -334.754089 26.000000
v -872.139221 -244.181000 23.000000
v -872.139221 -331.181000 23.000000
v -872.139221 -242.045105 21.000000
v -872.139221 -329.045013 21.000000
v -872.139221 -240.063004 18.000000
v -872.139221 -327.062988 18.000000
v -872.139221 -238.875793 15.000000
v -872.139221 -325.875793 15.000000
v -872.139221 -239.181900 12.500000
v -872.139221 -326.181885 12.500000
v -872.139221 -240.428894 10.000000
v -872.139221 -327.428802 10.000000
v -872.139221 -239.792007 8.000000
v -872.139221 -326.791901 8.000000
v -872.139221 -238.525803 6.000000
v -872.139221 -325.525787 6.000000
v -872.139221 -236.725800 3.000000
v -872.139221 -323.725800 3.000000
v -872.139221 -235.925797 1.000000
v -872.139221 -322.925812 1.000000
v -872.050171 -235.971298 -1.000000
v -872.050171 -322.971313 -1.000000
v -872.050171 -236.771301 -3.000000
v -872.050171 -323.771301 -3.000000
v -872.050171 -237.671295 -4.500000
v -872.050171 -324.671295 -4.500000
v -872.050171 -238.571304 -6.000000
v -872.050171 -325.571289 -6.000000
v -872.050171 -239.402298 -8.000000
v -872.050171 -326.402313 -8.000000
v -872.050171 -239.539398 -10.000000
v -872.050171 -326.539398 -10.000000
v -872.050171 -239.375900 -12.500000
v -872.050171 -326.375885 -12.500000
v -872.050171 -240.517395 -15.000000
v -872.050171 -327.517395 -15.000000
v -872.050171 -241.653595 -18.000000
v -872.050171 -328.653595 -18.000000
v -872.050171 -244.442001 -21.000000
v -872.050171 -331.441986 -21.000000
v -872.050171 -246.434692 -23.000000
v -872.050171 -333.434692 -23.000000
v -872.050171 -249.277405 -26.000000
v -872.050171 -336.277313 -26.000000
v -872.050171 -252.077393 -30.000000
v -872.050171 -339.077301 -30.000000
v -872.050171 -255.877396 -35.000000
v -872.050171 -342.877289 -35.000000
v -872.050171 -260.677307 -41.000000
v -872.050171 -347.677307 -41.000000
v -872.050171 -261.477295 -43.000000
v -872.050171 -348.477295 -43.000000
v -872.050171 -263.277313 -46.000000
v -872.050171 -350.277313 -46.000000
v -872.050171 -266.077301 -50.000000
v -872.050171 -353.077301 -50.000000
v -872.050171 -269.877289 -55.000000
v -872.050171 -356.877289 -55.000000
v -872.050171 -274.677307 -61.000000
v -872.050171 -361.677307 -61.000000
v -872.050171 -275.477295 -63.000000
v -872.050171 -362.477295 -63.000000
v -872.050171 -277.277313 -66.000000
v -872.050171 -364.277313 -66.000000
v -872.050171 -280.077209 -70.000000
v -872.050171 -367.077209 -70.000000
v -872.050171 -281.964203 -72.500000
v -872.050171 -368.964203 -72.500000
v -872.050171 -283.864197 -75.000000
v -872.050171 -370.864197 -75.000000
v -872.050171 -286.277191 -78.000000
v -872.050171 -373.277191 -78.000000
v -872.050171 -288.677185 -81.000000
v -872.050171 -375.677185 -81.000000
v -1044.255981 -298.281891 3.000000
v -1044.255981 -384.597900 1.000000
v -1044.255981 -297.597900 1.000000
v -1044.255981 -385.281891 3.000000
v -1044.255981 -298.562714 6.000000
v -1044.255981 -385.562714 6.000000
v -1044.255981 -298.981995 8.000000
v -1044.255981 -385.981995 8.000000
v -1044.255981 -298.772003 10.000000
v -1044.255981 -385.772003 10.000000
v -1044.255981 -298.866211 12.500000
v -1044.255981 -385.866211 12.500000
v -1044.255981 -299.901215 15.000000
v -1044.255981 -386.901215 15.000000
v -1044.255981 -301.088287 18.000000
v -1044.255981 -388.088287 18.000000
v -1044.255981 -303.070404 21.000000
v -1044.255981 -390.070404 21.000000
v -1044.255981 -305.206299 23.000000
v -1044.255981 -392.206299 23.000000
v -1044.255981 -308.779388 26.000000
v -1044.255981 -395.779388 26.000000
v -1044.255981 -313.401215 30.000000
v -1044.255981 -400.401215 30.000000
v -1044.255981 -317.201202 35.000000
v -1044.255981 -404.201202 35.000000
v -1044.255981 -322.001190 41.000000
v -1044.255981 -409.001190 41.000000
v -1044.255981 -322.801208 43.000000
v -1044.255981 -409.801208 43.000000
v -1044.255981 -324.601196 46.000000
v -1044.255981 -411.601196 46.000000
v -1044.255981 -327.401215 50.000000
v -1044.255981 -414.401215 50.000000
v -1044.255981 -331.201111 55.000000
v -1044.255981 -418.201111 55.000000
v -1044.255981 -336.001099 61.000000
v -1044.255981 -423.001099 61.000000
v -1044.255981 -297.597900 1.000000
v -1044.255981 -384.597900 1.000000
v -1044.286987 -384.693207 -1.000000
v -1044.286987 -297.693207 -1.000000
v -1044.286987 -297.693207 -1.000000
v -1044.286987 -384.693207 -1.000000
v -1044.286987 -385.382202 -3.000000
v -1044.286987 -298.382202 -3.000000
v -1044.286987 -385.873596 -4.500000
v -1044.286987 -298.873596 -4.500000
v -1044.286987 -386.183685 -6.000000
v -1044.286987 -299.183685 -6.000000
v -1044.286987 -386.784302 -8.000000
v -1044.286987 -299.784302 -8.000000
v -1044.286987 -387.820587 -10.000000
v -1044.286987 -300.820587 -10.000000
v -1044.286987 -389.119202 -12.500000
v -1044.286987 -302.119202 -12.500000
v -1044.286987 -390.273712 -15.000000
v -1044.286987 -303.273712 -15.000000
v -1044.286987 -391.403412 -18.000000
v -1044.286987 -304.403412 -18.000000
v -1044.286987 -394.185211 -21.000000
v -1044.286987 -307.185211 -21.000000
v -1044.286987 -396.177887 -23.000000
v -1044.286987 -309.177887 -23.000000
v -1044.286987 -399.020599 -26.000000
v -1044.286987 -312.020599 -26.000000
v -1044.286987 -401.820587 -30.000000
v -1044.286987 -314.820587 -30.000000
v -1044.286987 -405.620514 -35.000000
v -1044.286987 -318.620514 -35.000000
v -1044.286987 -410.420502 -41.000000
v -1044.286987 -323.420502 -41.000000
v -1044.286987 -411.220490 -43.000000
v -1044.286987 -324.220490 -43.000000
v -1044.286987 -413.020508 -46.000000
v -1044.286987 -326.020508 -46.000000
v -1044.286987 -415.820496 -50.000000
v -1044.286987 -328.820496 -50.000000
v -1044.286987 -419.620514 -55.000000
v -1044.286987 -332.620514 -55.000000
v -1044.286987 -424.420502 -61.000000
v -1044.286987 -337.420502 -61.000000
v -1044.286987 -425.220490 -63.000000
v -1044.286987 -338.220490 -63.000000
v -1044.286987 -427.020386 -66.000000
v -1044.286987 -340.020386 -66.000000
v -1044.286987 -429.820404 -70.000000
v -1044.286987 -342.820404 -70.000000
v -1044.286987 -431.720398 -72.500000
v -1044.286987 -344.720398 -72.500000
v -1044.286987 -433.620392 -75.000000
v -1044.286987 -346.620392 -75.000000
v -1044.286987 -436.020386 -78.000000
v -1044.286987 -349.020386 -78.000000
v -1044.286987 -438.420410 -81.000000
v -1044.286987 -351.420410 -81.000000
vt 0.000000 0.190181
vt 0.042254 0.415956
vt 0.000000 0.404151
vt 0.042254 0.201987
vt 0.077465 0.425302
vt 0.077465 0.211332
vt 0.105634 0.432188
vt 0.105634 0.218219
vt 0.126761 0.436615
vt 0.126761 0.222646
vt 0.140845 0.438583
vt 0.140845 0.224613
vt 0.183099 0.450388
vt 0.183099 0.236418
vt 0.218310 0.459734
vt 0.218310 0.245764
vt 0.246479 0.471101
vt 0.246479 0.257131
vt 0.267606 0.479888
vt 0.267606 0.265919
vt 0.281690 0.485141
vt 0.281690 0.271172
vt 0.302817 0.490016
vt 0.302817 0.276047
vt 0.323944 0.492936
vt 0.323944 0.278966
vt 0.341549 0.492183
vt 0.341549 0.278214
vt 0.359155 0.489116
vt 0.359155 0.275147
vt 0.373240 0.490683
vt 0.373240 0.276713
vt 0.387324 0.493797
vt 0.387324 0.279827
vt 0.408451 0.498224
vt 0.408451 0.284254
vt 0.422535 0.500191
vt 0.422535 0.286222
vt 0.436620 0.500079
vt 0.436620 0.286110
vt 0.450704 0.498112
vt 0.450704 0.284142
vt 0.461268 0.495898
vt 0.461268 0.281929
vt 0.471831 0.493685
vt 0.471831 0.279715
vt 0.485916 0.491641
vt 0.485916 0.277672
vt 0.500000 0.491304
vt 0.500000 0.277334
vt 0.517606 0.491706
vt 0.517606 0.277737
vt 0.535211 0.488899
vt 0.535211 0.274929
vt 0.556338 0.486104
vt 0.556338 0.272135
vt 0.577465 0.479246
vt 0.577465 0.265277
vt 0.591549 0.474346
vt 0.591549 0.260376
vt 0.612676 0.467354
vt 0.612676 0.253385
vt 0.640845 0.460468
vt 0.640845 0.246498
vt 0.676056 0.451122
vt 0.676056 0.237153
vt 0.718310 0.439317
vt 0.718310 0.225347
vt 0.732394 0.437349
vt 0.732394 0.223380
vt 0.753521 0.432922
vt 0.753521 0.218953
vt 0.781690 0.426036
vt 0.781690 0.212067
vt 0.816901 0.416690
vt 0.816901 0.202721
vt 0.859155 0.404885
vt 0.859155 0.190915
vt 0.873240 0.402918
vt 0.873240 0.188948
vt 0.894366 0.398491
vt 0.894366 0.184521
vt 0.922535 0.391604
vt 0.922535 0.177635
vt 0.940141 0.386964
vt 0.940141 0.172994
vt 0.957747 0.382291
vt 0.957747 0.168321
vt 0.978873 0.376356
vt 0.978873 0.162386
vt 1.000000 0.370453
vt 1.000000 0.156484
vt 0.422535 0.134544
vt 0.408451 0.346832
vt 0.422535 0.348514
vt 0.408451 0.132862
vt 0.387324 0.346141
vt 0.387324 0.132171
vt 0.373240 0.345110
vt 0.373240 0.131140
vt 0.359155 0.345626
vt 0.359155 0.131656
vt 0.341549 0.345394
vt 0.341549 0.131425
vt 0.323944 0.342849
vt 0.323944 0.128879
vt 0.302817 0.339929
vt 0.302817 0.125960
vt 0.281690 0.335055
vt 0.281690 0.121085
vt 0.267606 0.329801
vt 0.267606 0.115832
vt 0.246479 0.321014
vt 0.246479 0.107044
vt 0.218310 0.309647
vt 0.218310 0.095677
vt 0.183099 0.300301
vt 0.183099 0.086331
vt 0.140845 0.288496
vt 0.140845 0.074526
vt 0.126761 0.286528
vt 0.126761 0.072559
vt 0.105634 0.282101
vt 0.105634 0.068132
vt 0.077465 0.275215
vt 0.077465 0.061245
vt 0.042254 0.265869
vt 0.042254 0.051900
vt 0.000000 0.254064
vt 0.000000 0.040094
vt 0.422535 0.134544
vt 0.422535 0.348514
vt 0.436620 0.134310
vt 0.436620 0.348279
vt 0.436620 0.134310
vt 0.436620 0.348279
vt 0.450704 0.132615
vt 0.450704 0.346585
vt 0.461268 0.131407
vt 0.461268 0.345376
vt 0.471831 0.130644
vt 0.471831 0.344614
vt 0.485916 0.129167
vt 0.485916 0.343136
vt 0.500000 0.126618
vt 0.500000 0.340588
vt 0.517606 0.123424
vt 0.517606 0.337394
vt 0.535211 0.120585
vt 0.535211 0.334554
vt 0.556338 0.117806
vt 0.556338 0.331776
vt 0.577465 0.110965
vt 0.577465 0.324934
vt 0.591549 0.106064
vt 0.591549 0.320034
vt 0.612676 0.099073
vt 0.612676 0.313042
vt 0.640845 0.092186
vt 0.640845 0.306156
vt 0.676057 0.082841
vt 0.676057 0.296810
vt 0.718310 0.071036
vt 0.718310 0.285005
vt 0.732394 0.069068
vt 0.732394 0.283038
vt 0.753521 0.064641
vt 0.753521 0.278611
vt 0.781690 0.057755
vt 0.781690 0.271724
vt 0.816902 0.048409
vt 0.816902 0.262378
vt 0.859155 0.036604
vt 0.859155 0.250573
vt 0.873240 0.034636
vt 0.873240 0.248606
vt 0.894366 0.030209
vt 0.894366 0.244179
vt 0.922535 0.023323
vt 0.922535 0.237293
vt 0.940141 0.018650
vt 0.940141 0.232620
vt 0.957747 0.013977
vt 0.957747 0.227947
vt 0.978873 0.008075
vt 0.978873 0.222044
vt 1.000000 0.002172
vt 1.000000 0.216142
vn 1.000000 0.000000 0.000000
vn 1.000000 0.000000 0.000000
vn 1.000000 0.000000 0.000000
vn 1.000000 0.000000 0.000000
vn 1.000000 0.000000 0.000000
vn 1.000000 0.000000 0.000000
vn 1.000000 0.000000 0.000000
vn 1.000000 0.000000 0.000000
vn 1.000000 0.000000 0.000000
vn 1.000000 0.000000 0.000000
vn 1.000000 0.000000 0.000000
vn 1.000000 0.000000 0.000000
vn 1.000000 0.000000 0.000000
vn 1.000000 0.000000 0.000000
vn 1.000000 0.000000 0.000000
vn 1.000000 0.000000 0.000000
vn 1.000000 0.000000 0.000000
vn 1.000000 0.000000 0.000000
vn 1.000000 0.000000 0.000000
vn 1.000000 0.000000 0.000000
vn 1.000000 0.000000 0.000000
vn 1.000000 0.000000 0.000000
vn 1.000000 0.000000 0.000000
vn 1.000000 0.000000 0.000000
vn 1.000000 0.000000 0.000000
vn 1.000000 0.000000 0.000000
vn 1.000000 0.000000 0.000000
vn 1.000000 0.000000 0.000000
vn 1.000000 0.000000 0.000000
vn 1.000000 0.000000 0.000000
vn 1.000000 0.000000 0.000000
vn 1.000000 0.000000 0.000000
vn 1.000000 0.000000 0.000000
vn 1.000000 0.000000 0.000000
vn 1.000000 0.000000 0.000000
vn 1.000000 0.000000 0.000000
vn 0.999010 0.000000 0.044481
vn 0.999010 0.000000 0.044481
vn 0.999010 0.000000 0.044481
vn 0.999010 0.000000 0.044481
vn 1.000000 0.000000 0.000000
vn 1.000000 0.000000 0.000000
vn 1.000000 0.000000 0.000000
vn 1.000000 0.000000 0.000000
vn 1.000000 0.000000 0.000000
vn 1.000000 0.000000 0.000000
vn 1.000000 0.000000 0.000000
vn 1.000000 0.000000 0.000000
vn 1.000000 0.000000 0.000000
vn 1.000000 0.000000 0.000000
vn 1.000000 0.000000 0.000000
vn 1.000000 0.000000 0.000000
vn 1.000000 0.000000 0.000000
vn 1.000000 0.000000 0.000000
vn 1.000000 0.000000 0.000000
vn 1.000000 0.000000 0.000000
vn 1.000000 0.000000 0.000000
vn 1.000000 0.000000 0.000000
vn 1.000000 0.000000 0.000000
vn 1.000000 0.000000 0.000000
vn 1.000000 0.000000 0.000000
vn 1.000000 0.000000 0.000000
vn 1.000000 0.000000 0.000000
vn 1.000000 0.000000 0.000000
vn 1.000000 0.000000 0.000000
vn 1.000000 0.000000 0.000000
vn 1.000000 0.000000 0.000000
vn 1.000000 0.000000 0.000000
vn 1.000000 0.000000 0.000000
vn 1.000000 0.000000 0.000000
vn 1.000000 0.000000 0.000000
vn 1.000000 0.000000 0.000000
vn 1.000000 0.000000 0.000000
vn 1.000000 0.000000 0.000000
vn 1.000000 0.000000 0.000000
vn 1.000000 0.000000 0.000000
vn 1.000000 0.000000 0.000000
vn 1.000000 0.000000 0.000000
vn 1.000000 0.000000 0.000000
vn 1.000000 0.000000 0.000000
vn 1.000000 0.000000 0.000000
vn 1.000000 0.000000 0.000000
vn 1.000000 0.000000 0.000000
vn 1.000000 0.000000 0.000000
vn 1.000000 0.000000 0.000000
vn 1.000000 0.000000 0.000000
vn 1.000000 0.000000 0.000000
vn 1.000000 0.000000 0.000000
vn 1.000000 0.000000 0.000000
vn 1.000000 0.000000 0.000000
vn 1.000000 0.000000 0.000000
vn 1.000000 0.000000 0.000000
vn -1.000000 0.000000 0.000000
vn -1.000000 0.000000 0.000000
vn -1.000000 0.000000 0.000000
vn -1.000000 0.000000 0.000000
vn -1.000000 0.000000 0.000000
vn -1.000000 0.000000 0.000000
vn -1.000000 0.000000 0.000000
vn -1.000000 0.000000 0.000000
vn -1.000000 0.000000 0.000000
vn -1.000000 0.000000 0.000000
vn -1.000000 0.000000 0.000000
vn -1.000000 0.000000 0.000000
vn -1.000000 0.000000 0.000000
vn -1.000000 0.000000 0.000000
vn -1.000000 0.000000 0.000000
vn -1.000000 0.000000 0.000000
vn -1.000000 0.000000 0.000000
vn -1.000000 0.000000 0.000000
vn -1.000000 0.000000 0.000000
vn -1.000000 0.000000 0.000000
vn -1.000000 0.000000 0.000000
vn -1.000000 0.000000 0.000000
vn -1.000000 0.000000 0.000000
vn -1.000000 0.000000 0.000000
vn -1.000000 0.000000 0.000000
vn -1.000000 0.000000 0.000000
vn -1.000000 0.000000 0.000000
vn -1.000000 0.000000 0.000000
vn -1.000000 0.000000 0.000000
vn -1.000000 0.000000 0.000000
vn -1.000000 0.000000 0.000000
vn -1.000000 0.000000 0.000000
vn -1.000000 0.000000 0.000000
vn -1.000000 0.000000 0.000000
vn -1.000000 0.000000 0.000000
vn -1.000000 0.000000 0.000000
vn -1.000000 0.000000 0.000000
vn -1.000000 0.000000 0.000000
vn -0.999880 0.000000 0.015501
vn -0.999880 0.000000 0.015501
vn -0.999880 0.000000 0.015501
vn -0.999880 0.000000 0.015501
vn -1.000000 0.000000 0.000000
vn -1.000000 0.000000 0.000000
vn -1.000000 0.000000 0.000000
vn -1.000000 0.000000 0.000000
vn -1.000000 0.000000 0.000000
vn -1.000000 0.000000 0.000000
vn -1.000000 0.000000 0.000000
vn -1.000000 0.000000 0.000000
vn -1.000000 0.000000 0.000000
vn -1.000000 0.000000 0.000000
vn -1.000000 0.000000 0.000000
vn -1.000000 0.000000 0.000000
vn -1.000000 0.000000 0.000000
vn -1.000000 0.000000 0.000000
vn -1.000000 0.000000 0.000000
vn -1.000000 0.000000 0.000000
vn -1.000000 0.000000 0.000000
vn -1.000000 0.000000 0.000000
vn -1.000000 0.000000 0.000000
vn -1.000000 0.000000 0.000000
vn -1.000000 0.000000 0.000000
vn -1.000000 0.000000 0.000000
vn -1.000000 0.000000 0.000000
vn -1.000000 0.000000 0.000000
vn -1.000000 0.000000 0.000000
vn -1.000000 0.000000 0.000000
vn -1.000000 0.000000 0.000000
vn -1.000000 0.000000 0.000000
vn -1.000000 0.000000 0.000000
vn -1.000000 0.000000 0.000000
vn -1.000000 0.000000 0.000000
vn -1.000000 0.000000 0.000000
vn -1.000000 0.000000 0.000000
vn -1.000000 0.000000 0.000000
vn -1.000000 0.000000 0.000000
vn -1.000000 0.000000 0.000000
vn -1.000000 0.000000 0.000000
vn -1.000000 0.000000 0.000000
vn -1.000000 0.000000 0.000000
vn -1.000000 0.000000 0.000000
vn -1.000000 0.000000 0.000000
vn -1.000000 0.000000 0.000000
vn -1.000000 0.000000 0.000000
vn -1.000000 0.000000 0.000000
vn -1.000000 0.000000 0.000000
vn -1.000000 0.000000 0.000000
vn -1.000000 0.000000 0.000000
vn -1.000000 0.000000 0.000000
vn -1.000000 0.000000 0.000000
vn -1.000000 0.000000 0.000000
vn -1.000000 0.000000 0.000000
vn -1.000000 0.000000 0.000000
vn -1.000000 0.000000 0.000000
vn -1.000000 0.000000 0.000000
s 1
f 2/1/1 1/2/2 3/3/3
f 4/4/4 1/2/2 2/1/1
f 4/4/4 5/5/5 1/2/2
f 6/6/6 5/5/5 4/4/4
f 6/6/6 7/7/7 5/5/5
f 8/8/8 7/7/7 6/6/6
f 8/8/8 9/9/9 7/7/7
f 10/10/10 9/9/9 8/8/8
f 10/10/10 11/11/11 9/9/9
f 12/12/12 11/11/11 10/10/10
f 12/12/12 13/13/13 11/11/11
f 14/14/14 13/13/13 12/12/12
f 14/14/14 15/15/15 13/13/13
f 16/16/16 15/15/15 14/14/14
f 16/16/16 17/17/17 15/15/15
f 18/18/18 17/17/17 16/16/16
f 18/18/18 19/19/19 17/17/17
f 20/20/20 19/19/19 18/18/18
f 20/20/20 21/21/21 19/19/19
f 22/22/22 21/21/21 20/20/20
f 22/22/22 23/23/23 21/21/21
f 24/24/24 23/23/23 22/22/22
f 24/24/24 25/25/25 23/23/23
f 26/26/26 25/25/25 24/24/24
f 26/26/26 27/27/27 25/25/25
f 28/28/28 27/27/27 26/26/26
f 28/28/28 29/29/29 27/27/27
f 30/30/30 29/29/29 28/28/28
f 30/30/30 31/31/31 29/29/29
f 32/32/32 31/31/31 30/30/30
f 32/32/32 33/33/33 31/31/31
f 34/34/34 33/33/33 32/32/32
f 34/34/34 35/35/35 33/33/33
f 36/36/36 35/35/35 34/34/34
f 36/36/36 37/37/37 35/35/35
f 38/38/38 37/37/37 36/36/36
f 38/38/38 39/39/39 37/37/37
f 40/40/40 39/39/39 38/38/38
f 40/40/40 41/41/41 39/39/39
f 42/42/42 41/41/41 40/40/40
f 42/42/42 43/43/43 41/41/41
f 44/44/44 43/43/43 42/42/42
f 44/44/44 45/45/45 43/43/43
f 46/46/46 45/45/45 44/44/44
f 46/46/46 47/47/47 45/45/45
f 48/48/48 47/47/47 46/46/46
f 48/48/48 49/49/49 47/47/47
f 50/50/50 49/49/49 48/48/48
f 50/50/50 51/51/51 49/49/49
f 52/52/52 51/51/51 50/50/50
f 52/52/52 53/53/53 51/51/51
f 54/54/54 53/53/53 52/52/52
f 54/54/54 55/55/55 53/53/53
f 56/56/56 55/55/55 54/54/54
f 56/56/56 57/57/57 55/55/55
f 58/58/58 57/57/57 56/56/56
f 58/58/58 59/59/59 57/57/57
f 60/60/60 59/59/59 58/58/58
f 60/60/60 61/61/61 59/59/59
f 62/62/62 61/61/61 60/60/60
f 62/62/62 63/63/63 61/61/61
f 64/64/64 63/63/63 62/62/62
f 64/64/64 65/65/65 63/63/63
f 66/66/66 65/65/65 64/64/64
f 66/66/66 67/67/67 65/65/65
f 68/68/68 67/67/67 66/66/66
f 68/68/68 69/69/69 67/67/67
f 70/70/70 69/69/69 68/68/68
f 70/70/70 71/71/71 69/69/69
f 72/72/72 71/71/71 70/70/70
f 72/72/72 73/73/73 71/71/71
f 74/74/74 73/73/73 72/72/72
f 74/74/74 75/75/75 73/73/73
f 76/76/76 75/75/75 74/74/74
f 76/76/76 77/77/77 75/75/75
f 78/78/78 77/77/77 76/76/76
f 78/78/78 79/79/79 77/77/77
f 80/80/80 79/79/79 78/78/78
f 80/80/80 81/81/81 79/79/79
f 82/82/82 81/81/81 80/80/80
f 82/82/82 83/83/83 81/81/81
f 84/84/84 83/83/83 82/82/82
f 84/84/84 85/85/85 83/83/83
f 86/86/86 85/85/85 84/84/84
f 86/86/86 87/87/87 85/85/85
f 88/88/88 87/87/87 86/86/86
f 88/88/88 89/89/89 87/87/87
f 90/90/90 89/89/89 88/88/88
f 90/90/90 91/91/91 89/89/89
f 92/92/92 91/91/91 90/90/90
s 2
f 94/93/93 93/94/94 95/95/95
f 96/96/96 93/94/94 94/93/93
f 96/96/96 97/97/97 93/94/94
f 98/98/98 97/97/97 96/96/96
f 98/98/98 99/99/99 97/97/97
f 100/100/100 99/99/99 98/98/98
f 100/100/100 101/101/101 99/99/99
f 102/102/102 101/101/101 100/100/100
f 102/102/102 103/103/103 101/101/101
f 104/104/104 103/103/103 102/102/102
f 104/104/104 105/105/105 103/103/103
f 106/106/106 105/105/105 104/104/104
f 106/106/106 107/107/107 105/105/105
f 108/108/108 107/107/107 106/106/106
f 108/108/108 109/109/109 107/107/107
f 110/110/110 109/109/109 108/108/108
f 110/110/110 111/111/111 109/109/109
f 112/112/112 111/111/111 110/110/110
f 112/112/112 113/113/113 111/111/111
f 114/114/114 113/113/113 112/112/112
f 114/114/114 115/115/115 113/113/113
f 116/116/116 115/115/115 114/114/114
f 116/116/116 117/117/117 115/115/115
f 118/118/118 117/117/117 116/116/116
f 118/118/118 119/119/119 117/117/117
f 120/120/120 119/119/119 118/118/118
f 120/120/120 121/121/121 119/119/119
f 122/122/122 121/121/121 120/120/120
f 122/122/122 123/123/123 121/121/121
f 124/124/124 123/123/123 122/122/122
f 124/124/124 125/125/125 123/123/123
f 126/126/126 125/125/125 124/124/124
f 126/126/126 127/127/127 125/125/125
f 128/128/128 127/127/127 126/126/126
f 128/128/128 129/129/129 127/127/127
f 130/130/130 129/129/129 128/128/128
s 3
f 132/131/131 131/132/132 133/133/133
f 133/133/133 131/132/132 134/134/134
s 4
f 136/135/135 135/136/136 137/137/137
f 137/137/137 135/136/136 138/138/138
f 137/137/137 138/138/138 139/139/139
f 139/139/139 138/138/138 140/140/140
f 139/139/139 140/140/140 141/141/141
f 141/141/141 140/140/140 142/142/142
f 141/141/141 142/142/142 143/143/143
f 143/143/143 142/142/142 144/144/144
f 143/143/143 144/144/144 145/145/145
f 145/145/145 144/144/144 146/146/146
f 145/145/145 146/146/146 147/147/147
f 147/147/147 146/146/146 148/148/148
f 147/147/147 148/148/148 149/149/149
f 149/149/149 148/148/148 150/150/150
f 149/149/149 150/150/150 151/151/151
f 151/151/151 150/150/150 152/152/152
f 151/151/151 152/152/152 153/153/153
f 153/153/153 152/152/152 154/154/154
f 153/153/153 154/154/154 155/155/155
f 155/155/155 154/154/154 156/156/156
f 155/155/155 156/156/156 157/157/157
f 157/157/157 156/156/156 158/158/158
f 157/157/157 158/158/158 159/159/159
f 159/159/159 158/158/158 160/160/160
f 159/159/159 160/160/160 161/161/161
f 161/161/161 160/160/160 162/162/162
f 161/161/161 162/162/162 163/163/163
f 163/163/163 162/162/162 164/164/164
f 163/163/163 164/164/164 165/165/165
f 165/165/165 164/164/164 166/166/166
f 165/165/165 166/166/166 167/167/167
f 167/167/167 166/166/166 168/168/168
f 167/167/167 168/168/168 169/169/169
f 169/169/169 168/168/168 170/170/170
f 169/169/169 170/170/170 171/171/171
f 171/171/171 170/170/170 172/172/172
f 171/171/171 172/172/172 173/173/173
f 173/173/173 172/172/172 174/174/174
f 173/173/173 174/174/174 175/175/175
f 175/175/175 174/174/174 176/176/176
f 175/175/175 176/176/176 177/177/177
f 177/177/177 176/176/176 178/178/178
f 177/177/177 178/178/178 179/179/179
f 179/179/179 178/178/178 180/180/180
f 179/179/179 180/180/180 181/181/181
f 181/181/181 180/180/180 182/182/182
f 181/181/181 182/182/182 183/183/183
f 183/183/183 182/182/182 184/184/184
f 183/183/183 184/184/184 185/185/185
f 185/185/185 184/184/184 186/186/186
f 185/185/185 186/186/186 187/187/187
f 187/187/187 186/186/186 188/188/188
