# This file uses meters as units for non-parametric coordinates.

v -619.681274 -352.083008 31.444559
v -619.681274 -366.627899 31.444550
v -619.681274 -336.524414 4.448592
v -619.809814 -321.979401 4.448592
v -619.681274 -334.754913 31.444559
v -619.689392 -336.573700 0.000000
v -619.643921 -304.650909 4.445701
v -619.681274 -320.016998 31.444559
v -620.661377 -322.028748 0.000000
v -614.979370 -289.882111 3.981144
v -621.183472 -304.698792 31.444550
v -621.183472 -274.595306 4.448592
v -619.697510 -338.223114 -2.110000
v -619.973694 -304.704346 0.010171
v -615.434082 -289.866455 -0.768448
v -621.194519 -274.570099 -0.108778
v -621.123474 -323.678101 -2.110000
v -619.697510 -341.823090 -5.110000
v -621.106079 -327.278107 -5.110000
v -619.697510 -347.423096 -9.110000
v -620.513916 -306.359589 -2.076782
v -616.127197 -291.505798 -2.883342
v -621.187988 -275.947601 -2.621748
v -619.987610 -332.880188 -9.108763
v -619.697510 -355.023102 -14.110000
v -621.241272 -309.967499 -5.049495
v -618.499023 -295.189697 -5.500185
v -620.987610 -278.296692 -7.546364
v -619.803711 -340.482513 -14.107460
v -619.697510 -364.623108 -20.110001
v -621.616516 -315.560791 -9.072611
v -621.851807 -300.834900 -9.059891
v -620.656128 -282.575195 -13.940350
v -619.697510 -350.078094 -20.110001
v -619.697510 -389.141815 -26.476101
v -620.903625 -323.157288 -14.105790
v -621.379089 -308.431702 -14.044340
v -622.639282 -292.361298 -15.450260
v -619.697510 -374.596893 -26.476101
v -619.697510 -404.027405 -42.626400
v -621.509583 -332.823700 -20.066650
v -619.732117 -318.013000 -20.109461
v -621.826782 -302.700500 -20.096720
v -619.697510 -389.482513 -42.626400
v -619.697510 -424.240204 -51.450722
v -619.697510 -409.695313 -51.450722
v -619.697510 -357.268890 -26.476101
v -619.779602 -342.534302 -26.474131
v -622.350891 -327.259613 -26.448561
v -619.697510 -372.154388 -42.626400
v -619.697510 -392.367096 -51.450729
v -619.697510 -357.416504 -42.626400
v -621.404419 -341.849701 -43.092171
v -619.697510 -377.629211 -51.450729
v -621.199707 -362.311096 -51.450722
v -621.029419 -295.625397 31.444550
v -621.029419 -265.521790 4.448592
v -621.029419 -265.521790 0.110000
v -621.045715 -265.620514 -0.110000
v -621.045715 -267.220490 -2.110000
v -621.047974 -270.762695 -5.194785
v -621.086670 -274.837891 -11.506870
v -621.209717 -281.411499 -18.574341
v -621.856079 -292.981110 -21.306021
v -621.049805 -318.139496 -26.476000
v -621.728088 -332.203613 -44.202011
v -621.045715 -353.237610 -51.450722
vt 0.000000 0.938007
vt -0.000000 0.775054
vt 0.304072 0.603719
vt 0.304072 0.442781
vt -0.000000 0.580329
vt 0.354179 0.603159
vt 0.304104 0.255433
vt -0.000000 0.414936
vt 0.354179 0.442645
vt 0.309337 0.094322
vt 0.000000 0.244748
vt 0.304072 -0.078861
vt 0.377945 0.620709
vt 0.354064 0.255073
vt 0.362834 0.094273
vt 0.355404 -0.076577
vt 0.377945 0.460133
vt 0.411736 0.659395
vt 0.411736 0.498776
vt 0.456790 0.719899
vt 0.377571 0.272242
vt 0.386656 0.110493
vt 0.383709 -0.060495
vt 0.456776 0.559855
vt 0.513108 0.802929
vt 0.411054 0.309676
vt 0.416131 0.148682
vt 0.439178 -0.032790
vt 0.513080 0.642879
vt 0.580690 0.907744
vt 0.456369 0.368774
vt 0.456226 0.209149
vt 0.511197 0.014555
vt 0.580690 0.747739
vt 0.652395 1.176773
vt 0.513061 0.451958
vt 0.512369 0.290339
vt 0.528204 0.116626
vt 0.652395 1.016000
vt 0.834306 1.343784
vt 0.580202 0.557517
vt 0.580684 0.395078
vt 0.580540 0.227741
vt 0.834306 1.181598
vt 0.933699 1.569104
vt 0.933699 1.406741
vt 0.652395 0.824511
vt 0.652373 0.662152
vt 0.652085 0.492733
vt 0.834306 0.988892
vt 0.933699 1.213583
vt 0.834306 0.825312
vt 0.839552 0.651851
vt 0.933699 1.049469
vt 0.933699 0.878514
vt 0.000000 0.145488
vt 0.304072 -0.178961
vt 0.352940 -0.178218
vt 0.355418 -0.177066
vt 0.377945 -0.158583
vt 0.412691 -0.117757
vt 0.483788 -0.070813
vt 0.563393 -0.002106
vt 0.594161 0.122758
vt 0.652394 0.392819
vt 0.852053 0.544900
vt 0.933699 0.777883
vn -0.999987 -0.004419 -0.002545
vn -0.999998 -0.001976 0.000000
vn -0.999950 -0.007495 0.006605
vn -0.999809 0.002050 0.019440
vn -0.999059 0.036277 0.023786
vn -0.994077 -0.038446 0.101653
vn -0.989725 0.123186 0.072593
vn -0.998137 0.055523 -0.025274
vn -0.992827 -0.003161 0.119514
vn -0.970172 -0.132895 -0.202745
vn -0.938962 -0.194326 -0.283881
vn -0.989504 -0.105363 -0.098901
vn -0.987844 -0.093521 0.124168
vn -0.981014 0.160527 0.108828
vn -0.996019 -0.055275 0.069928
vn -0.971143 -0.236151 0.033369
vn -0.990821 -0.021592 0.133444
vn -0.997487 -0.064980 -0.028242
vn -0.997851 -0.059112 0.028271
vn -0.999754 -0.020891 -0.007481
vn -0.972476 0.150915 0.177523
vn -0.951625 -0.046475 0.303728
vn -0.953549 -0.169373 0.249114
vn -0.997972 -0.063382 -0.005818
vn -0.999984 -0.005228 -0.002166
vn -0.978153 0.057425 0.199797
vn -0.956713 0.048131 0.287026
vn -0.968930 -0.070169 0.237172
vn -0.994677 -0.052617 0.088590
vn -1.000000 -0.000563 -0.000464
vn -0.999449 -0.031391 -0.010793
vn -0.975651 0.038789 0.215871
vn -0.979206 0.028472 0.200862
vn -0.998326 -0.035741 0.045473
vn -1.000000 0.000000 0.000000
vn -0.998876 -0.024029 -0.040857
vn -0.998015 -0.048431 -0.040263
vn -0.999072 0.018385 0.038952
vn -0.999998 -0.001288 0.001455
vn -1.000000 0.000000 0.000000
vn -0.996016 -0.010559 -0.088550
vn -0.973780 -0.061519 0.219016
vn -0.995936 -0.039517 -0.080934
vn -1.000000 0.000000 0.000000
vn -1.000000 0.000000 0.000000
vn -1.000000 0.000000 0.000000
vn -0.999852 -0.014856 0.008734
vn -0.997660 -0.064584 -0.022461
vn -0.980720 -0.056993 0.186925
vn -1.000000 -0.000433 0.000000
vn -1.000000 0.000000 0.000000
vn -0.994603 -0.057412 0.086422
vn -0.995684 -0.077606 0.050894
vn -0.999397 -0.014113 0.031735
vn -0.975448 -0.091013 0.200546
vn -0.993457 0.076247 0.085026
vn -0.930415 0.260739 0.257571
vn -0.989395 0.145249 -0.000468
vn -0.960560 0.225113 -0.163244
vn -0.968314 0.168854 -0.183999
vn -0.973888 0.168567 -0.152079
vn -0.969436 0.197327 -0.145791
vn -0.953326 0.177997 -0.243898
vn -0.883573 0.096019 -0.458345
vn -0.953994 0.146070 -0.261837
vn -0.972828 0.127240 -0.193430
vn -0.992872 0.016749 -0.118006
s 1
f 2/1/1 1/2/2 3/3/3
f 3/3/3 1/2/2 4/4/4
f 1/2/2 5/5/5 4/4/4
f 3/3/3 4/4/4 6/6/6
f 4/4/4 5/5/5 7/7/7
f 5/5/5 8/8/8 7/7/7
f 6/6/6 4/4/4 9/9/9
f 4/4/4 7/7/7 9/9/9
f 7/7/7 8/8/8 10/10/10
f 8/8/8 11/11/11 10/10/10
f 10/10/10 11/11/11 12/12/12
f 6/6/6 9/9/9 13/13/13
f 9/9/9 7/7/7 14/14/14
f 7/7/7 10/10/10 14/14/14
f 10/10/10 12/12/12 15/15/15
f 14/14/14 10/10/10 15/15/15
f 15/15/15 12/12/12 16/16/16
f 13/13/13 9/9/9 17/17/17
f 13/13/13 17/17/17 18/18/18
f 9/9/9 14/14/14 17/17/17
f 18/18/18 17/17/17 19/19/19
f 18/18/18 19/19/19 20/20/20
f 17/17/17 14/14/14 21/21/21
f 14/14/14 15/15/15 21/21/21
f 17/17/17 21/21/21 19/19/19
f 15/15/15 16/16/16 22/22/22
f 21/21/21 15/15/15 22/22/22
f 22/22/22 16/16/16 23/23/23
f 20/20/20 19/19/19 24/24/24
f 20/20/20 24/24/24 25/25/25
f 19/19/19 21/21/21 26/26/26
f 21/21/21 22/22/22 26/26/26
f 19/19/19 26/26/26 24/24/24
f 22/22/22 23/23/23 27/27/27
f 26/26/26 22/22/22 27/27/27
f 27/27/27 23/23/23 28/28/28
f 25/25/25 24/24/24 29/29/29
f 25/25/25 29/29/29 30/30/30
f 24/24/24 26/26/26 31/31/31
f 26/26/26 27/27/27 31/31/31
f 24/24/24 31/31/31 29/29/29
f 27/27/27 28/28/28 32/32/32
f 31/31/31 27/27/27 32/32/32
f 32/32/32 28/28/28 33/33/33
f 30/30/30 29/29/29 34/34/34
f 30/30/30 34/34/34 35/35/35
f 29/29/29 31/31/31 36/36/36
f 31/31/31 32/32/32 36/36/36
f 29/29/29 36/36/36 34/34/34
f 32/32/32 33/33/33 37/37/37
f 36/36/36 32/32/32 37/37/37
f 37/37/37 33/33/33 38/38/38
f 35/35/35 34/34/34 39/39/39
f 35/35/35 39/39/39 40/40/40
f 34/34/34 36/36/36 41/41/41
f 36/36/36 37/37/37 41/41/41
f 34/34/34 41/41/41 39/39/39
f 37/37/37 38/38/38 42/42/42
f 41/41/41 37/37/37 42/42/42
f 42/42/42 38/38/38 43/43/43
f 40/40/40 39/39/39 44/44/44
f 40/40/40 44/44/44 45/45/45
f 45/45/45 44/44/44 46/46/46
f 39/39/39 41/41/41 47/47/47
f 41/41/41 42/42/42 47/47/47
f 39/39/39 47/47/47 44/44/44
f 42/42/42 43/43/43 48/48/48
f 47/47/47 42/42/42 48/48/48
f 48/48/48 43/43/43 49/49/49
f 44/44/44 50/50/50 46/46/46
f 44/44/44 47/47/47 50/50/50
f 47/47/47 48/48/48 50/50/50
f 46/46/46 50/50/50 51/51/51
f 48/48/48 49/49/49 52/52/52
f 50/50/50 48/48/48 52/52/52
f 50/50/50 52/52/52 51/51/51
f 52/52/52 49/49/49 53/53/53
f 51/51/51 52/52/52 54/54/54
f 52/52/52 53/53/53 54/54/54
f 54/54/54 53/53/53 55/55/55
f 11/11/11 56/56/56 12/12/12
f 12/12/12 56/56/56 57/57/57
f 12/12/12 57/57/57 16/16/16
f 16/16/16 57/57/57 58/58/58
f 16/16/16 58/58/58 59/59/59
f 16/16/16 59/59/59 23/23/23
f 23/23/23 59/59/59 60/60/60
f 23/23/23 60/60/60 28/28/28
f 28/28/28 60/60/60 61/61/61
f 28/28/28 61/61/61 33/33/33
f 33/33/33 61/61/61 62/62/62
f 33/33/33 62/62/62 38/38/38
f 38/38/38 62/62/62 63/63/63
f 38/38/38 63/63/63 43/43/43
f 43/43/43 63/63/63 64/64/64
f 43/43/43 64/64/64 49/49/49
f 49/49/49 64/64/64 65/65/65
f 49/49/49 65/65/65 53/53/53
f 53/53/53 65/65/65 66/66/66
f 53/53/53 66/66/66 55/55/55
f 55/55/55 66/66/66 67/67/67
