# This file uses meters as units for non-parametric coordinates.

v -161.568497 -130.160904 -13.498750
v -161.441803 -139.511505 -9.217957
v -162.562103 -133.405502 -6.099499
v -161.798599 -126.879601 -5.554063
v -163.095200 -130.426498 -2.184123
v -161.858398 -123.574699 -2.111964
v -163.107697 -128.879196 -0.110000
v -161.939606 -121.888901 -0.144420
v -163.105392 -128.779205 0.109992
v -161.950806 -121.774696 0.070422
v -162.192795 -121.519302 4.568212
v -163.147202 -128.735199 4.678676
v -161.852005 -127.135002 12.418270
v -163.105392 -134.035202 12.418270
v -161.852005 -141.567398 30.697531
v -163.105392 -148.467499 30.697531
v -163.105392 -142.030396 12.418270
v -163.105392 -156.462799 30.697531
v -163.105392 -149.644196 12.418270
v -163.105392 -164.076599 30.697531
v -163.073196 -155.653107 12.418330
v -162.592499 -144.388306 4.690871
v -161.566605 -150.403503 4.689700
v -161.511810 -161.243896 4.694850
v -163.105408 -166.444000 12.418270
v -161.048996 -150.402405 0.106707
v -163.105392 -136.774506 4.691869
v -162.106995 -144.388199 0.108058
v -163.086899 -136.772598 0.108787
v -163.072800 -136.870895 -0.112292
v -162.079498 -144.488205 -0.112000
v -161.050797 -150.502594 -0.113277
v -162.562698 -138.418900 -2.145804
v -161.785004 -146.088196 -2.112573
v -161.195801 -152.105896 -2.112638
v -161.903198 -141.960800 -5.183360
v -161.994400 -149.687500 -5.112425
v -162.501694 -155.705307 -5.110176
v -160.645401 -147.746307 -9.025542
v -160.105606 -147.684006 -13.800570
v -160.217300 -155.397797 -14.000260
v -162.193604 -164.309097 -21.405180
v -159.923401 -172.591705 -20.480949
v -162.181107 -172.723206 -28.931480
v -161.287506 -181.647293 -27.444340
v -159.841507 -180.522995 -20.029150
v -159.811401 -189.256393 -27.471189
v -161.818497 -205.220398 -37.948910
v -162.629105 -212.899597 -37.780910
v -158.361099 -195.216599 -27.635920
v -163.079498 -218.864304 -37.764931
v -163.105392 -170.084396 30.697531
v -160.198914 -186.712097 -20.084360
v -161.734207 -140.374298 -14.112900
v -160.898102 -163.894501 -31.857771
v -160.314301 -190.231598 -37.839809
v -158.737793 -197.068893 -38.153999
v -158.779602 -158.103806 -20.574730
v -162.777802 -155.297607 -9.091756
v -162.409698 -162.887802 -14.193550
v -162.944199 -168.847107 -14.177810
v -163.107697 -161.296097 -9.110000
v -163.103897 -166.488205 -5.109993
v -162.749405 -172.087616 -9.068222
v -162.376907 -162.913696 -2.108633
v -163.107697 -170.236801 -2.110000
v -162.863922 -173.836517 -5.081573
v -163.083603 -168.637695 -0.109955
v -161.617401 -161.340302 -0.107214
v -163.073807 -168.537903 0.110059
v -161.564896 -161.242004 0.112877
v -163.068604 -168.538116 4.691938
v -163.105392 -173.792816 12.418270
v -163.105392 -180.876404 30.697531
v -163.105392 -188.225098 30.697531
v -160.923996 -179.646805 -13.902100
v -161.393707 -197.598099 -20.011049
v -161.341003 -179.434296 -8.903980
v -162.660294 -187.037796 -14.073600
v -159.903107 -205.058395 -19.906940
v -158.557007 -206.402893 -27.316879
v -161.755997 -213.569000 -27.498699
v -163.107697 -229.653595 -37.763931
v -163.107697 -237.002304 -37.763931
v -158.779602 -158.103806 -20.574730
vt 0.418065 1.010824
vt 0.431691 1.063114
vt 0.395998 1.039813
vt 0.387988 1.073528
vt 0.373037 1.051715
vt 0.367303 1.087711
vt 0.361046 1.057960
vt 0.355605 1.094672
vt 0.359828 1.058294
vt 0.354391 1.095073
vt 0.330828 1.092541
vt 0.336200 1.054727
vt 0.294342 1.057261
vt 0.300514 1.020949
vt 0.211421 0.967445
vt 0.217584 0.931131
vt 0.307052 0.979500
vt 0.224088 0.889620
vt 0.313184 0.939974
vt 0.230324 0.850071
vt 0.318010 0.908718
vt 0.235297 0.818878
vt 0.349237 0.973723
vt 0.354527 0.942254
vt 0.363158 0.886294
vt 0.327092 0.852675
vt 0.378312 0.945973
vt 0.342852 1.013134
vt 0.373375 0.977391
vt 0.366614 1.017028
vt 0.367846 1.016708
vt 0.374619 0.977050
vt 0.379523 0.945638
vt 0.379964 1.010329
vt 0.386512 0.970323
vt 0.391064 0.938980
vt 0.399039 0.994457
vt 0.405338 0.954000
vt 0.410073 0.922386
vt 0.425049 0.967925
vt 0.449845 0.972695
vt 0.458619 0.933226
vt 0.506472 0.895089
vt 0.444278 1.011330
vt 0.506999 0.849763
vt 0.552036 0.858502
vt 0.554371 0.810670
vt 0.513057 0.808358
vt 0.560471 0.769820
vt 0.631731 0.699227
vt 0.639395 0.659938
vt 0.518298 0.775940
vt 0.564847 0.737974
vt 0.646385 0.629369
vt 0.619165 0.779801
vt 0.558838 0.907149
vt 0.628995 0.744374
vt 0.495146 0.925629
vt 0.497207 0.931325
vt 0.430242 0.927394
vt 0.462469 0.892520
vt 0.467180 0.861919
vt 0.434920 0.896431
vt 0.418654 0.866368
vt 0.444191 0.840672
vt 0.400002 0.882726
vt 0.406252 0.844497
vt 0.425101 0.828186
vt 0.394392 0.851154
vt 0.387958 0.889623
vt 0.393151 0.851484
vt 0.386722 0.889977
vt 0.369126 0.847831
vt 0.333080 0.814578
vt 0.244127 0.762970
vt 0.250124 0.724901
vt 0.478148 0.805802
vt 0.526555 0.718290
vt 0.451608 0.802376
vt 0.483983 0.765907
vt 0.534904 0.679140
vt 0.575006 0.681101
vt 0.583232 0.640995
vt 0.657789 0.573784
vt 0.667899 0.536584
vn 0.995524 0.067485 0.066163
vn 0.998514 0.042289 -0.034365
vn 0.991295 0.009148 0.131343
vn 0.993122 -0.016356 0.115941
vn 0.987053 -0.054020 0.151022
vn 0.991845 -0.082628 0.097034
vn 0.986600 -0.097701 0.130670
vn 0.997152 -0.046697 0.059230
vn 0.997422 -0.068112 0.022575
vn 0.995999 -0.080426 0.038948
vn 0.998727 -0.048597 -0.013545
vn 0.994803 -0.089647 -0.048278
vn 0.995017 -0.075040 -0.065655
vn 0.992113 -0.097602 -0.078653
vn 0.983034 -0.143955 -0.113670
vn 0.998184 -0.047279 -0.037329
vn 0.999915 0.006950 0.011081
vn 1.000000 0.000000 0.000000
vn 0.999017 0.019416 0.039852
vn 0.999996 0.001775 0.001986
vn 0.997511 0.007078 0.070157
vn 1.000000 -0.000727 0.000308
vn 0.993224 0.077487 0.086613
vn 0.988425 0.047978 0.143927
vn 0.992308 -0.049668 0.113390
vn 0.999486 -0.017615 0.026796
vn 0.996681 0.048123 0.065654
vn 0.999438 0.025866 0.021314
vn 0.988550 0.130606 0.075568
vn 0.998318 0.049559 0.030082
vn 0.993638 0.060050 0.095280
vn 0.990638 0.122421 0.060412
vn 0.993725 0.039004 -0.104827
vn 0.992737 0.078074 0.091528
vn 0.997218 0.071042 -0.022570
vn 0.979742 -0.031803 -0.197722
vn 0.990790 0.052756 0.124711
vn 0.995930 -0.072158 0.054011
vn 0.986756 -0.060336 -0.150576
vn 0.975358 -0.052658 0.214253
vn 0.984392 -0.026848 0.173931
vn 0.999334 -0.028655 -0.022595
vn 0.990390 -0.072029 -0.118067
vn 0.981705 0.118562 -0.148990
vn 0.998622 0.039656 0.034370
vn 0.999594 0.006522 0.027737
vn 0.996437 -0.000992 0.084330
vn 0.984754 0.020241 0.172770
vn 0.978856 0.062611 -0.194731
vn 0.992287 0.013423 -0.123230
vn 0.884306 0.072683 -0.461216
vn 0.990713 0.032604 0.131999
vn 0.996793 0.010587 -0.079322
vn 0.920117 -0.007753 -0.391566
vn 0.994962 0.048085 0.087970
vn 0.984371 -0.066090 -0.163237
vn 0.942731 -0.073435 0.325369
vn 0.984679 -0.086258 0.151546
vn 0.984679 -0.086258 0.151546
vn 0.949077 -0.178017 0.259929
vn 0.904541 -0.111619 0.411518
vn 0.964563 0.025965 0.262571
vn 0.998794 -0.018276 0.045579
vn 0.999140 -0.014057 -0.039009
vn 0.995183 0.087505 0.044193
vn 0.981387 -0.090640 -0.169303
vn 0.997272 -0.056404 -0.047606
vn 0.994502 0.087460 0.057582
vn 0.985758 -0.150922 -0.074193
vn 0.985949 -0.097457 -0.135675
vn 0.978665 -0.205280 -0.008724
vn 0.995082 -0.096553 0.022116
vn 0.990441 -0.136279 0.021328
vn 0.999851 -0.016452 0.005196
vn 1.000000 -0.000554 -0.000110
vn 1.000000 0.000000 0.000000
vn 0.996450 0.026249 0.079993
vn 0.956786 -0.042284 0.287704
vn 0.996540 0.000022 0.083115
vn 0.976433 -0.017927 0.215074
vn 0.973789 -0.104822 0.201858
vn 0.988961 -0.056361 -0.137038
vn 0.958459 -0.196802 0.206458
vn 0.981049 -0.175644 0.081808
vn 0.954647 -0.213001 0.208038
s 1
f 2/1/1 1/2/2 3/3/3
f 3/3/3 1/2/2 4/4/4
f 3/3/3 4/4/4 5/5/5
f 5/5/5 4/4/4 6/6/6
f 5/5/5 6/6/6 7/7/7
f 7/7/7 6/6/6 8/8/8
f 7/7/7 8/8/8 9/9/9
f 9/9/9 8/8/8 10/10/10
f 11/11/11 9/9/9 10/10/10
f 12/12/12 9/9/9 11/11/11
f 13/13/13 12/12/12 11/11/11
f 14/14/14 12/12/12 13/13/13
f 15/15/15 14/14/14 13/13/13
f 16/16/16 14/14/14 15/15/15
f 16/16/16 17/17/17 14/14/14
f 18/18/18 17/17/17 16/16/16
f 18/18/18 19/19/19 17/17/17
f 20/20/20 19/19/19 18/18/18
f 20/20/20 21/21/21 19/19/19
f 52/22/22 21/21/21 20/20/20
f 19/19/19 22/23/23 17/17/17
f 21/21/21 23/24/24 19/19/19
f 19/19/19 23/24/24 22/23/23
f 21/21/21 24/25/25 23/24/24
f 25/26/26 24/25/25 21/21/21
f 23/24/24 26/27/27 22/23/23
f 17/17/17 22/23/23 27/28/28
f 17/17/17 27/28/28 14/14/14
f 14/14/14 27/28/28 12/12/12
f 22/23/23 26/27/27 28/29/29
f 22/23/23 28/29/29 27/28/28
f 27/28/28 29/30/30 12/12/12
f 27/28/28 28/29/29 29/30/30
f 12/12/12 29/30/30 9/9/9
f 29/30/30 7/7/7 9/9/9
f 30/31/31 7/7/7 29/30/30
f 28/29/29 30/31/31 29/30/30
f 30/31/31 5/5/5 7/7/7
f 26/27/27 31/32/32 28/29/29
f 31/32/32 30/31/31 28/29/29
f 32/33/33 31/32/32 26/27/27
f 33/34/34 5/5/5 30/31/31
f 31/32/32 33/34/34 30/31/31
f 33/34/34 3/3/3 5/5/5
f 32/33/33 34/35/35 31/32/32
f 34/35/35 33/34/34 31/32/32
f 35/36/36 34/35/35 32/33/33
f 36/37/37 3/3/3 33/34/34
f 34/35/35 36/37/37 33/34/34
f 36/37/37 2/1/1 3/3/3
f 35/36/36 37/38/38 34/35/35
f 37/38/38 36/37/37 34/35/35
f 38/39/39 37/38/38 35/36/36
f 39/40/40 2/1/1 36/37/37
f 39/40/40 40/41/41 2/1/1
f 41/42/42 40/41/41 39/40/40
f 41/42/42 42/43/43 40/41/41
f 40/41/41 54/44/44 2/1/1
f 43/45/45 42/43/43 41/42/42
f 43/45/45 44/46/46 42/43/43
f 45/47/47 44/46/46 43/45/45
f 46/48/48 45/47/47 43/45/45
f 2/1/1 54/44/44 1/2/2
f 47/49/49 45/47/47 46/48/48
f 47/49/49 48/50/50 45/47/47
f 49/51/51 48/50/50 47/49/49
f 53/52/52 47/49/49 46/48/48
f 50/53/53 49/51/51 47/49/49
f 50/53/53 47/49/49 53/52/52
f 51/54/54 49/51/51 50/53/53
f 44/46/46 56/55/55 55/56/56
f 57/57/57 56/55/55 44/46/46
f 40/41/41 85/58/58 54/44/44
f 42/43/43 55/56/56 58/59/59
f 44/46/46 55/56/56 42/43/43
f 48/50/50 57/57/57 45/47/47
f 45/47/47 57/57/57 44/46/46
f 37/38/38 39/40/40 36/37/37
f 59/60/60 39/40/40 37/38/38
f 59/60/60 41/42/42 39/40/40
f 38/39/39 59/60/60 37/38/38
f 60/61/61 41/42/42 59/60/60
f 60/61/61 43/45/45 41/42/42
f 46/48/48 43/45/45 60/61/61
f 61/62/62 46/48/48 60/61/61
f 53/52/52 46/48/48 61/62/62
f 61/62/62 60/61/61 62/63/63
f 62/63/63 60/61/61 59/60/60
f 62/63/63 59/60/60 38/39/39
f 63/64/64 62/63/63 38/39/39
f 64/65/65 62/63/63 63/64/64
f 63/64/64 38/39/39 65/66/66
f 65/66/66 38/39/39 35/36/36
f 66/67/67 63/64/64 65/66/66
f 67/68/68 63/64/64 66/67/67
f 66/67/67 65/66/66 68/69/69
f 65/66/66 35/36/36 69/70/70
f 68/69/69 65/66/66 69/70/70
f 69/70/70 35/36/36 32/33/33
f 68/69/69 69/70/70 70/71/71
f 69/70/70 32/33/33 71/72/72
f 70/71/71 69/70/70 71/72/72
f 71/72/72 32/33/33 26/27/27
f 23/24/24 71/72/72 26/27/27
f 24/25/25 71/72/72 23/24/24
f 24/25/25 70/71/71 71/72/72
f 72/73/73 70/71/71 24/25/25
f 25/26/26 72/73/73 24/25/25
f 73/74/74 72/73/73 25/26/26
f 74/75/75 73/74/74 25/26/26
f 75/76/76 73/74/74 74/75/75
f 74/75/75 25/26/26 52/22/22
f 52/22/22 25/26/26 21/21/21
f 64/65/65 61/62/62 62/63/63
f 76/77/77 61/62/62 64/65/65
f 76/77/77 53/52/52 61/62/62
f 77/78/78 53/52/52 76/77/77
f 78/79/79 64/65/65 67/68/68
f 67/68/68 64/65/65 63/64/64
f 78/79/79 76/77/77 64/65/65
f 79/80/80 76/77/77 78/79/79
f 79/80/80 77/78/78 76/77/77
f 80/81/81 77/78/78 79/80/80
f 80/81/81 81/82/82 77/78/78
f 82/83/83 81/82/82 80/81/81
f 81/82/82 50/53/53 77/78/78
f 77/78/78 50/53/53 53/52/52
f 81/82/82 51/54/54 50/53/53
f 83/84/84 51/54/54 81/82/82
f 82/83/83 83/84/84 81/82/82
f 84/85/85 83/84/84 82/83/83
