# This file uses meters as units for non-parametric coordinates.

v -155.885696 -120.098000 2.994201
v -155.471603 -122.450996 0.110000
v -155.885696 -120.098000 0.110000
v -155.471603 -122.451004 2.994201
v -155.885696 -121.634598 12.156160
v -155.471603 -123.987701 12.156161
v -155.885696 -133.978195 30.448370
v -155.471603 -136.331299 30.448370
v -154.917603 -169.781006 2.994201
v -154.917603 -125.824203 12.156161
v -154.917603 -138.167892 30.448370
v -154.917603 -171.317596 12.156160
v -154.917603 -183.661301 30.448370
v -155.212097 -142.499207 -2.100190
v -155.039703 -152.588608 -2.103816
v -156.404694 -154.423492 -4.839780
v -153.501404 -144.389801 -5.067420
v -157.612106 -157.248505 -9.041590
v -153.824600 -147.168198 -9.076556
v -157.180099 -160.832703 -11.585250
v -154.794800 -150.675201 -11.364020
v -155.007706 -165.090805 -14.110000
v -154.699905 -154.934601 -14.062730
v -156.640900 -131.687103 0.296884
v -156.761398 -131.730896 0.080181
v -155.007706 -124.391403 -0.110000
v -156.717194 -132.530807 -1.926130
v -155.007706 -125.191399 -2.110000
v -155.955505 -134.326202 -5.072993
v -154.900299 -126.476097 -5.664786
v -156.804306 -137.113205 -9.109729
v -154.774597 -128.806305 -10.434220
v -155.124207 -140.710098 -11.385770
v -155.771698 -133.179092 -11.861060
v -151.534698 -143.571701 -20.665380
v -135.169006 -171.714096 -40.110001
v -133.789398 -175.438293 -40.110001
v -151.900696 -147.319901 -22.063000
v -156.354706 -133.743195 -14.625270
v -150.845993 -142.438095 -20.391060
v -155.979294 -132.569794 -14.726400
v -156.041199 -119.538300 -0.110000
v -154.917603 -119.892799 0.110000
v -156.387405 -120.667198 -0.110000
v -154.917603 -120.623802 0.110000
v -156.387405 -121.467201 -2.110000
v -156.041199 -120.338303 -2.110000
v -156.356796 -123.120796 -5.267584
v -156.025803 -122.064400 -5.189623
v -156.029099 -124.692398 -10.662430
v -155.658401 -123.487000 -10.707230
v -156.440506 -128.972305 -12.293450
v -155.954895 -127.748802 -12.378310
v -152.219498 -164.781799 -21.903990
v -155.007721 -145.016022 -14.110000
v -151.035706 -154.817307 -21.010450
v -133.789398 -192.736115 -40.110001
v -133.789398 -182.759903 -40.110001
v -155.007706 -161.610107 -0.110000
v -155.007721 -151.787704 -0.110000
v -155.007706 -162.410095 -2.110000
v -155.298706 -164.225006 -5.085032
v -156.397705 -167.081512 -8.990736
v -155.007721 -175.156906 -9.110000
v -155.007706 -178.753998 -11.385770
v -155.194199 -170.616806 -11.369770
v -155.007706 -174.913101 -14.110000
v -155.007706 -183.059906 -14.110000
v -149.461502 -192.651794 -20.110001
v -149.461502 -184.505096 -20.110001
v -133.789398 -220.803802 -40.110001
v -133.789398 -212.656998 -40.110001
v -149.461502 -174.682693 -20.110001
v -133.789398 -202.834702 -40.110001
v -155.294296 -172.371597 -5.085413
v -154.917603 -161.566696 0.110000
v -155.007706 -169.756897 -0.110000
v -154.917603 -151.744293 0.110000
v -155.069901 -170.560104 -2.104662
v -155.035202 -141.649002 0.113941
v -155.150299 -141.692993 -0.105224
v -155.124207 -137.694397 -14.110000
v -154.917603 -124.327873 0.110000
v -154.917603 -124.327873 0.110000
v -154.917603 -124.327873 0.110000
v -154.917603 -124.327873 0.110000
v -154.917603 -169.747253 0.110000
v -154.917603 -124.287598 2.994201
v -155.471603 -122.451004 2.994201
v -154.917603 -124.327873 0.110000
v -154.917603 -124.287598 2.994201
v -155.471603 -123.987701 12.156161
v -155.471603 -122.451004 2.994201
v -154.917603 -169.747253 0.110000
v -154.917603 -124.287598 2.994201
v -154.917603 -124.327873 0.110000
v -154.917603 -169.781006 2.994201
v -154.917603 -124.287598 2.994201
v -154.917603 -169.747253 0.110000
v -154.917603 -125.824203 12.156161
v -155.471603 -123.987701 12.156161
v -154.917603 -124.287598 2.994201
v -154.917603 -169.781006 2.994201
v -154.917603 -125.824203 12.156161
v -154.917603 -124.287598 2.994201
vt 0.429975 0.971237
vt 0.389099 0.994473
vt 0.429975 0.994473
vt 0.389099 0.971237
vt 0.259249 0.979299
vt 0.259249 0.956062
vt -0.000000 0.857406
vt -0.000000 0.834169
vt 0.389099 0.503852
vt 0.259249 0.937927
vt -0.000000 0.816032
vt 0.259249 0.488678
vt -0.000000 0.366783
vt 0.461351 0.673627
vt 0.461300 0.773260
vt 0.500127 0.655508
vt 0.503353 0.754591
vt 0.559678 0.627611
vt 0.560173 0.727154
vt 0.595728 0.592216
vt 0.592593 0.692522
vt 0.631511 0.550168
vt 0.630841 0.650460
vt 0.427327 0.880030
vt 0.430398 0.879598
vt 0.433093 0.952075
vt 0.458833 0.871699
vt 0.461439 0.944175
vt 0.503432 0.853969
vt 0.511820 0.931489
vt 0.560644 0.826447
vt 0.579415 0.908478
vt 0.592901 0.790928
vt 0.599637 0.865297
vt 1.000000 0.447986
vt 0.724418 0.762669
vt 1.000000 0.484762
vt 0.744226 0.725656
vt 0.638813 0.859726
vt 0.640247 0.871314
vt 0.720530 0.773864
vt 0.433093 0.988852
vt 0.429975 0.996499
vt 0.433093 1.000000
vt 0.429975 0.989281
vt 0.461439 0.980952
vt 0.461439 0.992100
vt 0.506190 0.964623
vt 0.505085 0.975055
vt 0.582649 0.949103
vt 0.583284 0.961007
vt 0.605765 0.906839
vt 0.606968 0.918921
vt 0.631511 0.748407
vt 0.741972 0.553219
vt 0.729308 0.651619
vt 1.000000 0.277169
vt 1.000000 0.375685
vt 0.433093 0.584540
vt 0.433093 0.681536
vt 0.461439 0.576640
vt 0.503603 0.558717
vt 0.558957 0.530509
vt 0.560647 0.450765
vt 0.592901 0.415243
vt 0.592674 0.495598
vt 0.631511 0.453172
vt 0.631511 0.372722
vt 0.716547 0.278002
vt 0.716547 0.358451
vt 1.000000 0.000000
vt 1.000000 0.080450
vt 0.716547 0.455447
vt 1.000000 0.177445
vt 0.503608 0.478270
vt 0.429975 0.584968
vt 0.433093 0.504090
vt 0.429975 0.681965
vt 0.461363 0.496158
vt 0.429920 0.781656
vt 0.433026 0.781222
vt 0.631511 0.820708
vt 0.429975 0.952703
vt 0.429975 0.952703
vt 0.429975 0.952703
vt 0.429975 0.952703
vt 0.429975 0.504185
vt 0.389099 0.953101
vt 0.389099 0.971237
vt 0.429975 0.952703
vt 0.389099 0.953101
vt 0.259249 0.956062
vt 0.389099 0.971237
vt 0.429975 0.504185
vt 0.389099 0.953101
vt 0.429975 0.952703
vt 0.389099 0.503852
vt 0.389099 0.953101
vt 0.429975 0.504185
vt 0.259249 0.937927
vt 0.259249 0.956062
vt 0.389099 0.953101
vt 0.389099 0.503852
vt 0.259249 0.937927
vt 0.389099 0.953101
vn -0.974329 -0.225127 0.000000
vn -0.979828 0.198097 0.026353
vn -0.986238 0.165332 0.000000
vn -0.974958 -0.220614 -0.028050
vn -0.955759 0.254455 0.147573
vn -0.999932 -0.011704 0.000000
vn -0.971471 -0.212243 -0.105819
vn -0.998918 0.038555 0.026019
vn -0.955829 -0.243640 -0.164410
vn -0.999906 -0.013618 -0.001776
vn -0.974958 -0.220614 -0.028050
vn -0.999932 -0.011704 0.000000
vn -0.999906 -0.013618 -0.001776
vn -0.971471 -0.212243 -0.105819
vn -0.974958 -0.220614 -0.028050
vn -1.000000 0.000000 0.000000
vn -0.999906 -0.013618 -0.001776
vn -0.999932 -0.011704 0.000000
vn -1.000000 0.000000 0.000000
vn -0.999906 -0.013618 -0.001776
vn -1.000000 0.000000 0.000000
vn -0.999798 -0.017643 -0.009680
vn -0.999798 -0.017643 -0.009680
vn -0.971471 -0.212243 -0.105819
vn -0.999906 -0.013618 -0.001776
vn -0.999798 -0.017643 -0.009680
vn -0.999798 -0.017643 -0.009680
vn -0.999906 -0.013618 -0.001776
vn -0.999978 -0.005554 -0.003748
vn -1.000000 0.000000 0.000000
vn -0.999798 -0.017643 -0.009680
vn -1.000000 0.000000 0.000000
vn -0.999188 0.039079 0.009763
vn -0.988415 -0.081057 -0.128318
vn -0.986085 0.115744 0.119333
vn -0.998072 -0.037324 0.049583
vn -0.994855 0.092409 0.041512
vn -0.996064 0.069834 0.054594
vn -0.999188 0.039079 0.009763
vn -0.988415 -0.081057 -0.128318
vn -0.986085 0.115744 0.119333
vn -0.998072 -0.037324 0.049583
vn -0.994855 0.092409 0.041512
vn -0.996064 0.069834 0.054594
vn -0.999188 0.039079 0.009763
vn -0.988415 -0.081057 -0.128318
vn -0.986085 0.115744 0.119333
vn -0.998072 -0.037324 0.049583
vn -0.994855 0.092409 0.041512
vn -0.998086 -0.016869 -0.059502
vn -0.999188 0.039079 0.009763
vn -0.992642 -0.081896 0.089191
vn -0.911806 -0.097028 -0.398994
vn -0.998072 -0.037324 0.049583
vn -0.891810 0.027447 0.451578
vn -0.998086 -0.016869 -0.059502
vn -0.998371 0.049568 0.028256
vn -0.992642 -0.081896 0.089191
vn -0.911806 -0.097028 -0.398994
vn -0.893738 0.034492 -0.447261
vn -0.891810 0.027447 0.451578
vn -0.998086 -0.016869 -0.059502
vn -0.998371 0.049568 0.028256
vn -0.185466 0.074657 0.979811
vn -0.911806 -0.097028 -0.398994
vn -0.893738 0.034492 -0.447261
vn -0.891810 0.027447 0.451578
vn -0.653670 0.675023 -0.342140
vn -0.999114 -0.021029 -0.036462
vn -0.695444 0.666599 -0.268336
vn -0.986337 -0.159332 0.041858
vn -0.996070 -0.088454 -0.004471
vn -0.998550 -0.001196 -0.053810
vn -0.463584 0.379238 -0.800792
vn -0.999114 -0.021029 -0.036462
vn -0.775985 -0.010140 -0.630670
vn -0.986337 -0.159332 0.041858
vn -0.809912 -0.106962 -0.576717
vn -0.998550 -0.001196 -0.053810
vn -0.998806 0.000182 0.048850
vn -0.999114 -0.021029 -0.036462
vn -0.775985 -0.010140 -0.630670
vn -0.986337 -0.159332 0.041858
vn -0.809912 -0.106962 -0.576717
vn -0.998550 -0.001196 -0.053810
vn -0.998806 0.000182 0.048850
vn -0.999114 -0.021029 -0.036462
vn -0.775985 -0.010140 -0.630670
vn -0.986337 -0.159332 0.041858
vn -0.809912 -0.106962 -0.576717
vn -0.998550 -0.001196 -0.053810
vn -0.787123 0.000000 -0.616796
vn -0.787123 0.000000 -0.616796
vn -0.824119 -0.103391 -0.556901
vn -0.803266 -0.038878 -0.594351
vn -0.987945 -0.062501 0.141625
vn -0.925384 0.000000 0.379032
vn -0.925377 0.000000 0.379049
vn -0.999080 0.003540 0.042746
vn -0.914108 -0.006740 0.405414
vn -0.997880 0.003630 0.064976
vn -0.881404 -0.087285 0.464228
vn -0.990008 -0.100600 0.098817
vn -0.960591 -0.068671 -0.269350
vn -0.507708 0.037724 0.860703
s 1
f 2/1/1 1/2/2 3/3/3
f 4/4/4 1/2/2 2/1/1
f 4/4/4 5/5/5 1/2/2
f 83/86/6 4/4/4 2/1/1
f 6/6/7 5/5/5 4/4/4
f 6/6/7 7/7/8 5/5/5
f 8/8/9 7/7/8 6/6/7
s off
f 88/88/10 89/89/11 90/90/12
f 91/91/13 92/92/14 93/93/15
f 94/94/16 95/95/17 96/96/18
f 97/97/19 98/98/20 99/99/21
s 1
f 10/10/22 8/8/9 6/6/7
s off
f 100/100/23 101/101/24 102/102/25
f 103/103/26 104/104/27 105/105/28
s 1
f 11/11/29 8/8/9 10/10/22
f 12/12/30 10/10/22 9/9/31
f 12/12/30 11/11/29 10/10/22
f 13/13/32 11/11/29 12/12/30
s 2
f 15/14/33 14/15/34 16/16/35
f 16/16/35 14/15/34 17/17/36
f 16/16/35 17/17/36 18/18/37
f 18/18/37 17/17/36 19/19/38
f 18/18/37 19/19/38 20/20/39
f 20/20/39 19/19/38 21/21/40
f 21/21/40 22/22/41 20/20/39
f 23/23/42 22/22/41 21/21/40
f 24/24/43 86/85/44 25/25/45
f 25/25/45 85/84/46 26/26/47
f 25/25/45 26/26/47 27/27/48
f 27/27/48 26/26/47 28/28/49
f 27/27/48 28/28/49 29/29/50
f 29/29/50 28/28/49 30/30/51
f 29/29/50 30/30/51 31/31/52
f 31/31/52 30/30/51 32/32/53
f 31/31/52 32/32/53 33/33/54
f 33/33/54 32/32/53 34/34/55
f 37/35/56 35/36/57 36/37/58
f 38/38/59 35/36/57 37/35/56
f 39/39/60 41/40/61 35/36/57
f 35/36/57 41/40/61 40/41/62
f 35/36/57 40/41/62 36/37/58
f 44/42/63 43/43/64 42/44/65
f 45/45/66 43/43/64 44/42/63
f 44/42/63 42/44/65 46/46/67
f 46/46/67 42/44/65 47/47/68
f 46/46/67 47/47/68 48/48/69
f 48/48/69 47/47/68 49/49/70
f 48/48/69 49/49/70 50/50/71
f 50/50/71 49/49/70 51/51/72
f 50/50/71 51/51/72 52/52/73
f 52/52/73 51/51/72 53/53/74
f 53/53/74 39/39/60 52/52/73
f 41/40/61 39/39/60 53/53/74
f 23/23/42 55/54/75 54/55/76
f 54/55/76 55/54/75 56/56/77
f 54/55/76 56/56/77 57/57/78
f 57/57/78 56/56/77 58/58/79
f 59/59/80 60/60/81 61/61/82
f 61/61/82 60/60/81 15/14/33
f 61/61/82 15/14/33 62/62/83
f 62/62/83 15/14/33 16/16/35
f 62/62/83 16/16/35 63/63/84
f 64/64/85 63/63/84 65/65/86
f 63/63/84 16/16/35 18/18/37
f 63/63/84 18/18/37 66/66/87
f 65/65/86 63/63/84 66/66/87
f 66/66/87 18/18/37 20/20/39
f 67/67/88 65/65/86 66/66/87
f 20/20/39 67/67/88 66/66/87
f 68/68/89 65/65/86 67/67/88
f 68/68/89 67/67/88 69/69/90
f 22/22/41 67/67/88 20/20/39
f 69/69/90 67/67/88 70/70/91
f 67/67/88 22/22/41 70/70/91
f 69/69/90 70/70/91 71/71/92
f 71/71/92 70/70/91 72/72/93
f 70/70/91 22/22/41 73/73/94
f 70/70/91 73/73/94 72/72/93
f 22/22/41 23/23/42 73/73/94
f 73/73/94 23/23/42 54/55/76
f 72/72/93 73/73/94 74/74/95
f 73/73/94 54/55/76 74/74/95
f 74/74/95 54/55/76 57/57/78
f 64/64/85 62/62/83 63/63/84
f 75/75/96 62/62/83 64/64/85
f 87/87/97 76/76/98 77/77/99
f 77/77/99 76/76/98 59/59/80
f 76/76/98 78/78/100 59/59/80
f 77/77/99 59/59/80 79/79/101
f 79/79/101 59/59/80 61/61/82
f 79/79/101 61/61/82 75/75/96
f 75/75/96 61/61/82 62/62/83
f 59/59/80 78/78/100 60/60/81
f 78/78/100 80/80/102 60/60/81
f 60/60/81 80/80/102 81/81/103
f 80/80/102 24/24/43 81/81/103
f 81/81/103 24/24/43 25/25/45
f 60/60/81 81/81/103 15/14/33
f 81/81/103 25/25/45 14/15/34
f 15/14/33 81/81/103 14/15/34
f 14/15/34 25/25/45 27/27/48
f 14/15/34 27/27/48 17/17/36
f 17/17/36 27/27/48 29/29/50
f 17/17/36 29/29/50 19/19/38
f 19/19/38 29/29/50 31/31/52
f 19/19/38 31/31/52 21/21/40
f 21/21/40 31/31/52 33/33/54
f 33/33/54 23/23/42 21/21/40
f 55/54/75 23/23/42 33/33/54
f 34/34/55 55/54/75 33/33/54
f 82/82/104 55/54/75 34/34/55
f 55/54/75 82/82/104 56/56/77
f 56/56/77 82/82/104 38/38/59
f 56/56/77 38/38/59 58/58/79
f 58/58/79 38/38/59 37/35/56
f 82/82/104 39/39/60 38/38/59
f 38/38/59 39/39/60 35/36/57
f 39/39/60 82/82/104 52/52/73
f 52/52/73 82/82/104 34/34/55
f 34/34/55 50/50/71 52/52/73
f 32/32/53 50/50/71 34/34/55
f 32/32/53 48/48/69 50/50/71
f 30/30/51 48/48/69 32/32/53
f 30/30/51 46/46/67 48/48/69
f 28/28/49 46/46/67 30/30/51
f 28/28/49 44/42/63 46/46/67
f 26/26/47 44/42/63 28/28/49
f 26/26/47 45/45/66 44/42/63
f 84/83/105 45/45/66 26/26/47
